<?xml version="1.0" encoding="UTF-8"?>
<svg xmlns="http://www.w3.org/2000/svg" xmlns:xlink="http://www.w3.org/1999/xlink" width="375pt" height="374.999991pt" viewBox="0 0 375 374.999991" version="1.2">
<defs>
<clipPath id="clip1">
  <path d="M 7.585938 7.585938 L 367.585938 7.585938 L 367.585938 367.585938 L 7.585938 367.585938 Z M 7.585938 7.585938 "/>
</clipPath>
</defs>
<g id="surface1">
<g clip-path="url(#clip1)" clip-rule="nonzero">
<path style=" stroke:none;fill-rule:nonzero;fill:rgb(40.388489%,22.749329%,71.759033%);fill-opacity:1;" d="M 367.761719 317.738281 C 367.761719 345.371094 345.371094 367.761719 317.738281 367.761719 L 57.609375 367.761719 C 29.988281 367.761719 7.585938 345.371094 7.585938 317.738281 L 7.585938 57.609375 C 7.585938 29.976562 29.988281 7.585938 57.609375 7.585938 L 317.738281 7.585938 C 345.371094 7.585938 367.761719 29.976562 367.761719 57.609375 Z M 367.761719 317.738281 "/>
</g>
<path style=" stroke:none;fill-rule:nonzero;fill:rgb(100%,100%,100%);fill-opacity:1;" d="M 278.019531 203.679688 C 271.515625 194.675781 262.109375 188.472656 250.003906 185.171875 C 250.003906 185.171875 260.210938 181.472656 269.414062 167.664062 C 274.917969 158.859375 277.71875 148.253906 277.71875 135.847656 C 277.71875 114.339844 269.914062 97.828125 254.304688 86.523438 C 238.699219 75.21875 221.089844 67.613281 191.175781 67.613281 L 97.628906 67.613281 L 97.628906 307.730469 L 201.980469 307.730469 C 230.292969 307.53125 251.605469 301.429688 266.113281 289.722656 C 280.519531 277.816406 287.722656 260.210938 287.722656 236.699219 C 287.722656 223.691406 284.519531 212.6875 278.019531 203.679688 Z M 157.660156 107.632812 C 157.660156 107.632812 199.378906 107.632812 200.179688 107.632812 C 215.386719 107.632812 227.691406 119.941406 227.691406 135.148438 C 227.691406 150.355469 215.386719 162.660156 200.179688 162.660156 C 199.378906 162.660156 157.660156 162.660156 157.660156 162.660156 Z M 207.683594 267.710938 L 157.660156 267.710938 L 157.660156 207.683594 L 207.683594 207.683594 C 224.292969 207.683594 237.699219 221.089844 237.699219 237.699219 C 237.699219 254.304688 224.292969 267.710938 207.683594 267.710938 Z M 207.683594 267.710938 "/>
</g>
</svg>
