<?xml version="1.0" encoding="UTF-8"?>
<svg xmlns="http://www.w3.org/2000/svg" xmlns:xlink="http://www.w3.org/1999/xlink" width="375pt" height="374.999991pt" viewBox="0 0 375 374.999991" version="1.2">
<defs>
<clipPath id="clip1">
  <path d="M 4.6875 7 L 370.6875 7 L 370.6875 369 L 4.6875 369 Z M 4.6875 7 "/>
</clipPath>
</defs>
<g id="surface1">
<g clip-path="url(#clip1)" clip-rule="nonzero">
<path style=" stroke:none;fill-rule:nonzero;fill:rgb(100%,100%,100%);fill-opacity:1;" d="M 187.6875 7.738281 C 86.625 7.738281 4.6875 89.675781 4.6875 190.738281 C 4.6875 276.488281 63.734375 348.238281 143.339844 368.09375 C 142.488281 365.625 141.9375 362.757812 141.9375 359.203125 L 141.9375 327.925781 C 134.511719 327.925781 122.066406 327.925781 118.941406 327.925781 C 106.421875 327.925781 95.289062 322.542969 89.890625 312.539062 C 83.894531 301.421875 82.859375 284.417969 68.003906 274.019531 C 63.597656 270.554688 66.953125 266.605469 72.03125 267.140625 C 81.410156 269.792969 89.1875 276.230469 96.507812 285.777344 C 103.796875 295.335938 107.226562 297.503906 120.847656 297.503906 C 127.449219 297.503906 137.332031 297.121094 146.632812 295.65625 C 151.636719 282.953125 160.285156 271.257812 170.851562 265.738281 C 109.914062 259.46875 80.832031 229.152344 80.832031 187.992188 C 80.832031 170.273438 88.378906 153.132812 101.203125 138.6875 C 96.996094 124.355469 91.703125 95.121094 102.820312 83.988281 C 130.242188 83.988281 146.816406 101.769531 150.796875 106.574219 C 164.460938 101.890625 179.46875 99.238281 195.234375 99.238281 C 211.035156 99.238281 226.101562 101.890625 239.796875 106.601562 C 243.730469 101.828125 260.324219 83.988281 287.804688 83.988281 C 298.964844 95.136719 293.613281 124.492188 289.359375 138.796875 C 302.109375 153.207031 309.609375 170.300781 309.609375 187.992188 C 309.609375 229.121094 280.574219 259.421875 219.726562 265.722656 C 236.472656 274.460938 248.6875 299.011719 248.6875 317.511719 L 248.6875 359.203125 C 248.6875 360.789062 248.335938 361.933594 248.152344 363.292969 C 319.460938 338.296875 370.6875 270.585938 370.6875 190.738281 C 370.6875 89.675781 288.75 7.738281 187.6875 7.738281 Z M 187.6875 7.738281 "/>
</g>
</g>
</svg>
