<?xml version="1.0" encoding="UTF-8"?>
<svg xmlns="http://www.w3.org/2000/svg" xmlns:xlink="http://www.w3.org/1999/xlink" width="375pt" height="374.999991pt" viewBox="0 0 375 374.999991" version="1.2">
<defs>
<clipPath id="clip1">
  <path d="M 12 16.40625 L 363 16.40625 L 363 358 L 12 358 Z M 12 16.40625 "/>
</clipPath>
</defs>
<g id="surface1">
<g clip-path="url(#clip1)" clip-rule="nonzero">
<path style=" stroke:none;fill-rule:nonzero;fill:rgb(16.079712%,88.238525%,54.899597%);fill-opacity:1;" d="M 244.058594 357.0625 C 243.472656 357.210938 242.882812 357.285156 242.28125 357.289062 L 240.972656 356.089844 L 240.972656 345.894531 C 240.972656 336.398438 241.128906 322.03125 241.128906 305.589844 C 241.226562 300.734375 240.761719 295.933594 239.742188 291.191406 C 238.71875 286.445312 237.167969 281.878906 235.085938 277.492188 C 271.558594 270.910156 312.429688 251.21875 312.429688 180.710938 C 312.503906 176.09375 312.175781 171.503906 311.441406 166.945312 C 310.707031 162.382812 309.578125 157.921875 308.058594 153.5625 C 306.539062 149.199219 304.652344 145.003906 302.394531 140.976562 C 300.136719 136.945312 297.542969 133.144531 294.617188 129.570312 C 295.71875 125.460938 296.472656 121.292969 296.882812 117.058594 C 297.292969 112.828125 297.351562 108.589844 297.0625 104.347656 C 296.769531 100.105469 296.132812 95.914062 295.148438 91.777344 C 294.164062 87.640625 292.847656 83.613281 291.195312 79.691406 C 290.757812 78.582031 290.101562 77.617188 289.230469 76.800781 C 288.363281 75.984375 287.359375 75.394531 286.222656 75.027344 C 284.078125 74.425781 281.894531 74.152344 279.667969 74.210938 C 275.347656 74.59375 271.078125 75.28125 266.859375 76.269531 C 262.636719 77.257812 258.507812 78.542969 254.46875 80.121094 C 250.429688 81.695312 246.523438 83.550781 242.75 85.679688 C 238.976562 87.8125 235.371094 90.199219 231.9375 92.84375 C 217.347656 89.21875 202.535156 87.363281 187.5 87.285156 C 172.457031 87.3125 157.640625 89.15625 143.046875 92.8125 C 139.609375 90.167969 136 87.777344 132.21875 85.644531 C 128.4375 83.511719 124.527344 81.65625 120.484375 80.082031 C 116.441406 78.503906 112.304688 77.222656 108.078125 76.234375 C 103.851562 75.246094 99.578125 74.558594 95.253906 74.179688 C 93.027344 74.121094 90.839844 74.394531 88.699219 74.992188 C 87.558594 75.363281 86.554688 75.957031 85.683594 76.777344 C 84.816406 77.597656 84.160156 78.5625 83.722656 79.675781 C 82.074219 83.597656 80.761719 87.625 79.78125 91.761719 C 78.800781 95.902344 78.167969 100.09375 77.878906 104.335938 C 77.59375 108.578125 77.660156 112.816406 78.078125 117.046875 C 78.496094 121.28125 79.257812 125.449219 80.367188 129.554688 C 77.4375 133.128906 74.84375 136.929688 72.585938 140.957031 C 70.324219 144.988281 68.4375 149.183594 66.914062 153.542969 C 65.394531 157.90625 64.265625 162.367188 63.53125 166.925781 C 62.796875 171.488281 62.464844 176.074219 62.539062 180.695312 C 62.539062 251.171875 103.375 270.957031 139.769531 277.605469 C 137.753906 281.679688 136.273438 285.941406 135.324219 290.390625 C 130.929688 291.992188 126.394531 292.824219 121.71875 292.882812 C 120.113281 292.917969 118.523438 292.808594 116.941406 292.550781 C 115.355469 292.296875 113.8125 291.898438 112.300781 291.363281 C 110.792969 290.824219 109.34375 290.152344 107.957031 289.351562 C 106.570312 288.546875 105.265625 287.625 104.046875 286.585938 C 103.570312 285.953125 103 285.421875 102.335938 284.988281 C 101.242188 283.785156 100.214844 282.527344 99.25 281.214844 L 98.929688 280.832031 C 98.847656 280.683594 98.75 280.539062 98.644531 280.402344 L 97.300781 278.675781 C 96.863281 278.164062 96.460938 277.632812 96.085938 277.078125 C 95.175781 275.5 94.179688 273.976562 93.09375 272.515625 C 92.007812 271.050781 90.84375 269.660156 89.59375 268.332031 C 88.34375 267.007812 87.023438 265.757812 85.625 264.585938 C 84.230469 263.414062 82.773438 262.328125 81.25 261.328125 C 79.726562 260.328125 78.152344 259.417969 76.523438 258.601562 C 74.894531 257.785156 73.226562 257.066406 71.511719 256.445312 C 69.800781 255.824219 68.054688 255.304688 66.28125 254.890625 C 64.507812 254.472656 62.714844 254.160156 60.90625 253.953125 C 52.414062 253.953125 46.789062 256.941406 45.09375 262.40625 C 42.4375 270.957031 51.710938 277.332031 56.191406 280.289062 C 58.117188 281.613281 59.917969 283.089844 61.59375 284.722656 C 63.269531 286.351562 64.796875 288.109375 66.175781 290 C 67.554688 291.886719 68.761719 293.878906 69.804688 295.972656 C 70.84375 298.066406 71.699219 300.234375 72.371094 302.472656 C 72.855469 303.730469 73.390625 304.964844 73.976562 306.179688 C 74.558594 307.394531 75.191406 308.585938 75.867188 309.75 C 76.546875 310.914062 77.269531 312.050781 78.039062 313.160156 C 78.808594 314.265625 79.617188 315.34375 80.472656 316.386719 C 81.328125 317.429688 82.21875 318.4375 83.15625 319.410156 C 84.089844 320.382812 85.058594 321.316406 86.066406 322.210938 C 87.074219 323.105469 88.117188 323.960938 89.195312 324.773438 C 90.269531 325.585938 91.375 326.355469 92.511719 327.078125 C 93.652344 327.804688 94.816406 328.484375 96.003906 329.117188 C 97.195312 329.75 98.410156 330.332031 99.648438 330.871094 C 100.886719 331.40625 102.140625 331.890625 103.417969 332.328125 C 104.695312 332.765625 105.984375 333.152344 107.292969 333.484375 C 108.597656 333.820312 109.917969 334.101562 111.246094 334.332031 C 112.574219 334.558594 113.910156 334.738281 115.253906 334.859375 C 116.597656 334.984375 117.941406 335.054688 119.289062 335.070312 C 120.640625 335.089844 121.984375 335.050781 123.332031 334.960938 C 126.863281 334.957031 130.382812 334.726562 133.886719 334.273438 L 134.078125 356.152344 L 132.652344 357.304688 C 132.160156 357.304688 131.566406 357.304688 132.078125 357.429688 C 128.824219 356.34375 125.605469 355.164062 122.421875 353.890625 C 119.238281 352.617188 116.09375 351.25 112.988281 349.792969 C 109.882812 348.332031 106.824219 346.785156 103.8125 345.144531 C 100.800781 343.507812 97.835938 341.78125 94.925781 339.96875 C 92.011719 338.15625 89.15625 336.261719 86.355469 334.28125 C 83.554688 332.300781 80.816406 330.242188 78.136719 328.101562 C 75.457031 325.960938 72.84375 323.746094 70.292969 321.449219 C 67.742188 319.15625 65.265625 316.789062 62.855469 314.351562 C 60.445312 311.910156 58.105469 309.402344 55.84375 306.828125 C 53.582031 304.25 51.394531 301.609375 49.289062 298.90625 C 47.179688 296.203125 45.152344 293.4375 43.207031 290.613281 C 41.261719 287.789062 39.402344 284.914062 37.625 281.980469 C 35.847656 279.046875 34.160156 276.066406 32.558594 273.03125 C 30.957031 270 29.445312 266.925781 28.023438 263.804688 C 26.601562 260.683594 25.273438 257.523438 24.039062 254.328125 C 22.804688 251.128906 21.664062 247.898438 20.617188 244.632812 C 19.574219 241.367188 18.625 238.074219 17.773438 234.753906 C 16.921875 231.429688 16.167969 228.089844 15.511719 224.722656 C 14.855469 221.359375 14.296875 217.976562 13.839844 214.578125 C 13.382812 211.179688 13.027344 207.773438 12.769531 204.355469 C 12.511719 200.9375 12.355469 197.511719 12.300781 194.085938 C 12.246094 190.65625 12.289062 187.230469 12.433594 183.804688 C 12.582031 180.378906 12.824219 176.960938 13.171875 173.550781 C 13.519531 170.140625 13.964844 166.742188 14.507812 163.359375 C 15.054688 159.972656 15.699219 156.605469 16.441406 153.261719 C 17.1875 149.914062 18.027344 146.589844 18.964844 143.292969 C 19.902344 139.996094 20.9375 136.730469 22.070312 133.492188 C 23.199219 130.253906 24.421875 127.054688 25.742188 123.890625 C 27.058594 120.722656 28.46875 117.601562 29.972656 114.519531 C 31.472656 111.4375 33.0625 108.402344 34.742188 105.410156 C 36.425781 102.421875 38.191406 99.484375 40.042969 96.601562 C 41.894531 93.714844 43.832031 90.886719 45.847656 88.113281 C 47.867188 85.34375 49.964844 82.632812 52.144531 79.984375 C 54.320312 77.335938 56.574219 74.753906 58.90625 72.234375 C 61.234375 69.71875 63.636719 67.273438 66.109375 64.898438 C 68.582031 62.523438 71.121094 60.222656 73.730469 57.992188 C 76.339844 55.765625 79.011719 53.621094 81.746094 51.550781 C 84.480469 49.480469 87.273438 47.492188 90.125 45.585938 C 92.976562 43.679688 95.878906 41.859375 98.835938 40.125 C 101.796875 38.386719 104.800781 36.738281 107.855469 35.179688 C 110.914062 33.621094 114.011719 32.152344 117.152344 30.777344 C 120.292969 29.398438 123.472656 28.113281 126.6875 26.921875 C 129.90625 25.730469 133.152344 24.636719 136.433594 23.636719 C 139.714844 22.636719 143.023438 21.730469 146.355469 20.925781 C 149.691406 20.121094 153.046875 19.410156 156.421875 18.800781 C 159.796875 18.191406 163.1875 17.683594 166.59375 17.269531 C 169.996094 16.859375 173.414062 16.550781 176.835938 16.339844 C 180.257812 16.128906 183.6875 16.019531 187.117188 16.011719 C 190.546875 16 193.972656 16.09375 197.398438 16.285156 C 200.824219 16.476562 204.242188 16.769531 207.648438 17.160156 C 211.054688 17.550781 214.449219 18.042969 217.828125 18.636719 C 221.207031 19.226562 224.566406 19.917969 227.902344 20.703125 C 231.242188 21.492188 234.554688 22.378906 237.839844 23.359375 C 241.125 24.34375 244.382812 25.421875 247.605469 26.59375 C 250.828125 27.769531 254.011719 29.035156 257.160156 30.394531 C 260.308594 31.757812 263.414062 33.207031 266.480469 34.75 C 269.542969 36.292969 272.558594 37.925781 275.527344 39.644531 C 278.492188 41.363281 281.40625 43.167969 284.269531 45.058594 C 287.128906 46.949219 289.933594 48.921875 292.679688 50.976562 C 295.425781 53.03125 298.109375 55.164062 300.730469 57.378906 C 303.347656 59.589844 305.902344 61.878906 308.386719 64.242188 C 310.875 66.601562 313.289062 69.035156 315.632812 71.539062 C 317.976562 74.042969 320.242188 76.613281 322.433594 79.25 C 324.628906 81.886719 326.738281 84.585938 328.773438 87.347656 C 330.808594 90.109375 332.757812 92.925781 334.625 95.800781 C 336.496094 98.675781 338.277344 101.605469 339.972656 104.582031 C 341.667969 107.5625 343.277344 110.589844 344.792969 113.664062 C 346.3125 116.738281 347.742188 119.855469 349.074219 123.011719 C 350.410156 126.171875 351.652344 129.363281 352.800781 132.59375 C 353.949219 135.824219 355 139.085938 355.957031 142.378906 C 356.914062 145.671875 357.773438 148.988281 358.535156 152.332031 C 359.296875 155.675781 359.957031 159.039062 360.523438 162.417969 C 361.085938 165.800781 361.550781 169.195312 361.914062 172.605469 C 362.277344 176.015625 362.542969 179.429688 362.707031 182.855469 C 362.871094 186.28125 362.933594 189.707031 362.898438 193.132812 C 362.859375 196.5625 362.722656 199.984375 362.484375 203.40625 C 362.246094 206.824219 361.90625 210.234375 361.46875 213.636719 C 361.03125 217.035156 360.492188 220.421875 359.855469 223.789062 C 359.214844 227.15625 358.480469 230.503906 357.648438 233.832031 C 356.8125 237.15625 355.882812 240.453125 354.855469 243.726562 C 353.828125 246.996094 352.703125 250.234375 351.484375 253.4375 C 350.269531 256.644531 348.957031 259.808594 347.554688 262.9375 C 346.148438 266.066406 344.65625 269.148438 343.070312 272.191406 C 341.484375 275.230469 339.8125 278.222656 338.050781 281.164062 C 336.292969 284.105469 334.445312 286.996094 332.515625 289.828125 C 330.585938 292.664062 328.574219 295.4375 326.480469 298.152344 C 324.386719 300.871094 322.214844 303.523438 319.96875 306.109375 C 317.71875 308.699219 315.394531 311.21875 313 313.671875 C 310.601562 316.125 308.132812 318.503906 305.597656 320.8125 C 303.0625 323.121094 300.457031 325.351562 297.789062 327.507812 C 295.121094 329.660156 292.394531 331.734375 289.605469 333.730469 C 286.816406 335.726562 283.96875 337.636719 281.066406 339.464844 C 278.164062 341.292969 275.210938 343.035156 272.207031 344.6875 C 269.203125 346.34375 266.152344 347.910156 263.058594 349.382812 C 259.960938 350.859375 256.824219 352.242188 253.648438 353.535156 C 250.46875 354.828125 247.257812 356.023438 244.007812 357.128906 Z M 244.058594 357.0625 "/>
</g>
</g>
</svg>
