<?xml version="1.0" encoding="UTF-8"?>
<svg xmlns="http://www.w3.org/2000/svg" xmlns:xlink="http://www.w3.org/1999/xlink" width="375pt" height="374.999991pt" viewBox="0 0 375 374.999991" version="1.2">
<defs>
<clipPath id="clip1">
  <path d="M 6.308594 6.308594 L 368.558594 6.308594 L 368.558594 368.558594 L 6.308594 368.558594 Z M 6.308594 6.308594 "/>
</clipPath>
</defs>
<g id="surface1">
<g clip-path="url(#clip1)" clip-rule="nonzero">
<path style=" stroke:none;fill-rule:nonzero;fill:rgb(16.079712%,88.238525%,54.899597%);fill-opacity:1;" d="M 187.433594 6.308594 C 87.492188 6.308594 6.308594 87.492188 6.308594 187.433594 C 6.308594 287.371094 87.492188 368.558594 187.433594 368.558594 C 287.371094 368.558594 368.558594 287.371094 368.558594 187.433594 C 368.558594 87.492188 287.371094 6.308594 187.433594 6.308594 Z M 187.433594 22.058594 C 278.859375 22.058594 352.808594 96.007812 352.808594 187.433594 C 352.808594 278.859375 278.859375 352.808594 187.433594 352.808594 C 96.007812 352.808594 22.058594 278.859375 22.058594 187.433594 C 22.058594 96.007812 96.007812 22.058594 187.433594 22.058594 Z M 116.558594 85.058594 C 103.605469 85.058594 92.933594 95.730469 92.933594 108.683594 C 92.933594 121.636719 103.605469 132.308594 116.558594 132.308594 C 129.511719 132.308594 140.183594 121.636719 140.183594 108.683594 C 140.183594 95.730469 129.511719 85.058594 116.558594 85.058594 Z M 116.558594 100.808594 C 121 100.808594 124.433594 104.242188 124.433594 108.683594 C 124.433594 113.125 121 116.558594 116.558594 116.558594 C 112.117188 116.558594 108.683594 113.125 108.683594 108.683594 C 108.683594 104.242188 112.117188 100.808594 116.558594 100.808594 Z M 100.808594 140.183594 C 100.292969 140.183594 99.777344 140.234375 99.273438 140.335938 C 98.765625 140.4375 98.273438 140.585938 97.792969 140.785156 C 97.316406 140.980469 96.863281 141.222656 96.433594 141.511719 C 96.003906 141.796875 95.605469 142.125 95.238281 142.492188 C 94.875 142.855469 94.546875 143.253906 94.261719 143.683594 C 93.972656 144.113281 93.730469 144.566406 93.53125 145.046875 C 93.335938 145.523438 93.1875 146.015625 93.085938 146.523438 C 92.984375 147.03125 92.933594 147.542969 92.933594 148.058594 L 92.933594 266.183594 C 92.933594 266.699219 92.984375 267.210938 93.085938 267.71875 C 93.1875 268.226562 93.335938 268.71875 93.535156 269.195312 C 93.730469 269.675781 93.972656 270.128906 94.261719 270.558594 C 94.546875 270.988281 94.875 271.386719 95.242188 271.753906 C 95.605469 272.117188 96.003906 272.445312 96.433594 272.730469 C 96.863281 273.019531 97.316406 273.261719 97.796875 273.460938 C 98.273438 273.65625 98.765625 273.804688 99.273438 273.90625 C 99.78125 274.007812 100.292969 274.058594 100.808594 274.058594 L 132.308594 274.058594 C 132.824219 274.058594 133.335938 274.007812 133.84375 273.90625 C 134.351562 273.804688 134.84375 273.65625 135.320312 273.457031 C 135.800781 273.261719 136.253906 273.019531 136.683594 272.730469 C 137.113281 272.445312 137.511719 272.117188 137.878906 271.75 C 138.242188 271.386719 138.570312 270.988281 138.855469 270.558594 C 139.144531 270.128906 139.386719 269.675781 139.585938 269.195312 C 139.78125 268.71875 139.929688 268.226562 140.03125 267.71875 C 140.132812 267.210938 140.183594 266.699219 140.183594 266.183594 L 140.183594 148.058594 C 140.183594 147.542969 140.132812 147.027344 140.03125 146.523438 C 139.929688 146.015625 139.78125 145.523438 139.582031 145.042969 C 139.386719 144.566406 139.144531 144.113281 138.855469 143.683594 C 138.570312 143.253906 138.242188 142.855469 137.875 142.488281 C 137.511719 142.125 137.113281 141.796875 136.683594 141.511719 C 136.253906 141.222656 135.800781 140.980469 135.320312 140.78125 C 134.84375 140.585938 134.351562 140.4375 133.84375 140.335938 C 133.335938 140.234375 132.824219 140.183594 132.308594 140.183594 Z M 163.808594 140.183594 C 163.292969 140.183594 162.777344 140.234375 162.273438 140.335938 C 161.765625 140.4375 161.273438 140.585938 160.792969 140.785156 C 160.316406 140.980469 159.863281 141.222656 159.433594 141.511719 C 159.003906 141.796875 158.605469 142.125 158.238281 142.492188 C 157.875 142.855469 157.546875 143.253906 157.261719 143.683594 C 156.972656 144.113281 156.730469 144.566406 156.53125 145.046875 C 156.335938 145.523438 156.1875 146.015625 156.085938 146.523438 C 155.984375 147.03125 155.933594 147.542969 155.933594 148.058594 L 155.933594 266.183594 C 155.933594 266.699219 155.984375 267.210938 156.085938 267.71875 C 156.1875 268.226562 156.335938 268.71875 156.535156 269.195312 C 156.730469 269.675781 156.972656 270.128906 157.261719 270.558594 C 157.546875 270.988281 157.875 271.386719 158.242188 271.753906 C 158.605469 272.117188 159.003906 272.445312 159.433594 272.730469 C 159.863281 273.019531 160.316406 273.261719 160.796875 273.460938 C 161.273438 273.65625 161.765625 273.804688 162.273438 273.90625 C 162.78125 274.007812 163.292969 274.058594 163.808594 274.058594 L 195.308594 274.058594 C 195.824219 274.058594 196.335938 274.007812 196.84375 273.90625 C 197.351562 273.804688 197.84375 273.65625 198.320312 273.457031 C 198.800781 273.261719 199.253906 273.019531 199.683594 272.730469 C 200.113281 272.445312 200.511719 272.117188 200.878906 271.75 C 201.242188 271.386719 201.570312 270.988281 201.855469 270.558594 C 202.144531 270.128906 202.386719 269.675781 202.582031 269.195312 C 202.78125 268.71875 202.929688 268.226562 203.03125 267.71875 C 203.132812 267.210938 203.183594 266.699219 203.183594 266.183594 L 203.183594 207.121094 C 203.183594 196.257812 212.007812 187.433594 222.871094 187.433594 C 233.734375 187.433594 242.558594 196.257812 242.558594 207.121094 L 242.558594 266.183594 C 242.558594 266.699219 242.609375 267.210938 242.710938 267.71875 C 242.8125 268.226562 242.960938 268.71875 243.160156 269.195312 C 243.355469 269.675781 243.597656 270.128906 243.886719 270.558594 C 244.171875 270.988281 244.5 271.386719 244.867188 271.753906 C 245.230469 272.117188 245.628906 272.445312 246.058594 272.730469 C 246.488281 273.019531 246.941406 273.261719 247.421875 273.460938 C 247.898438 273.65625 248.390625 273.804688 248.898438 273.90625 C 249.40625 274.007812 249.917969 274.058594 250.433594 274.058594 L 281.933594 274.058594 C 282.449219 274.058594 282.960938 274.007812 283.46875 273.90625 C 283.976562 273.804688 284.46875 273.65625 284.945312 273.457031 C 285.425781 273.261719 285.878906 273.019531 286.308594 272.730469 C 286.738281 272.445312 287.136719 272.117188 287.503906 271.75 C 287.867188 271.386719 288.195312 270.988281 288.480469 270.558594 C 288.769531 270.128906 289.011719 269.675781 289.210938 269.195312 C 289.40625 268.71875 289.554688 268.226562 289.65625 267.71875 C 289.757812 267.210938 289.808594 266.699219 289.808594 266.183594 L 289.808594 199.246094 C 289.808594 166.71875 263.273438 140.183594 230.746094 140.183594 C 220.613281 140.183594 211.527344 143.460938 203.183594 147.980469 C 203.179688 147.46875 203.125 146.960938 203.019531 146.457031 C 202.914062 145.953125 202.761719 145.464844 202.5625 144.992188 C 202.363281 144.519531 202.117188 144.070312 201.828125 143.644531 C 201.542969 143.21875 201.214844 142.824219 200.847656 142.460938 C 200.484375 142.101562 200.085938 141.777344 199.660156 141.496094 C 199.230469 141.210938 198.78125 140.972656 198.304688 140.777344 C 197.828125 140.578125 197.339844 140.433594 196.835938 140.332031 C 196.332031 140.234375 195.820312 140.183594 195.308594 140.183594 Z M 108.683594 155.933594 L 124.433594 155.933594 L 124.433594 258.308594 L 108.683594 258.308594 Z M 171.683594 155.933594 L 187.433594 155.933594 L 187.433594 162.363281 C 187.433594 163.136719 187.542969 163.890625 187.765625 164.628906 C 187.988281 165.371094 188.3125 166.0625 188.738281 166.707031 C 189.164062 167.351562 189.675781 167.917969 190.269531 168.414062 C 190.863281 168.90625 191.515625 169.304688 192.226562 169.609375 C 192.933594 169.910156 193.675781 170.105469 194.441406 170.191406 C 195.210938 170.273438 195.972656 170.246094 196.734375 170.109375 C 197.492188 169.96875 198.214844 169.722656 198.902344 169.371094 C 199.589844 169.015625 200.210938 168.574219 200.769531 168.039062 C 208.570312 160.542969 219.066406 155.933594 230.746094 155.933594 C 254.761719 155.933594 274.058594 175.230469 274.058594 199.246094 L 274.058594 258.308594 L 258.308594 258.308594 L 258.308594 207.121094 C 258.308594 187.667969 242.324219 171.683594 222.871094 171.683594 C 203.417969 171.683594 187.433594 187.667969 187.433594 207.121094 L 187.433594 258.308594 L 171.683594 258.308594 Z M 171.683594 155.933594 "/>
</g>
</g>
</svg>
