<?xml version="1.0" encoding="UTF-8"?>
<svg xmlns="http://www.w3.org/2000/svg" xmlns:xlink="http://www.w3.org/1999/xlink" width="375pt" height="374.999991pt" viewBox="0 0 375 374.999991" version="1.2">
<defs>
<clipPath id="clip1">
  <path d="M 158 114 L 317.714844 114 L 317.714844 360 L 158 360 Z M 158 114 "/>
</clipPath>
<clipPath id="clip2">
  <path d="M 158 14.117188 L 174 14.117188 L 174 72 L 158 72 Z M 158 14.117188 "/>
</clipPath>
<clipPath id="clip3">
  <path d="M 158 114 L 317.714844 114 L 317.714844 360 L 158 360 Z M 158 114 "/>
</clipPath>
<clipPath id="clip4">
  <path d="M 158 14.117188 L 174 14.117188 L 174 72 L 158 72 Z M 158 14.117188 "/>
</clipPath>
</defs>
<g id="surface1">
<g clip-path="url(#clip1)" clip-rule="nonzero">
<path style=" stroke:none;fill-rule:nonzero;fill:rgb(100%,100%,100%);fill-opacity:1;" d="M 315.074219 260.652344 L 171.085938 116.875 C 170.585938 116.371094 170.019531 115.953125 169.390625 115.617188 C 168.765625 115.28125 168.101562 115.042969 167.402344 114.902344 C 166.703125 114.761719 166 114.726562 165.292969 114.796875 C 164.582031 114.867188 163.898438 115.035156 163.242188 115.308594 C 162.582031 115.582031 161.976562 115.941406 161.425781 116.390625 C 160.875 116.84375 160.402344 117.363281 160.007812 117.957031 C 159.609375 118.546875 159.308594 119.183594 159.101562 119.863281 C 158.894531 120.542969 158.792969 121.238281 158.792969 121.949219 L 158.792969 321.035156 C 158.792969 321.710938 158.882812 322.371094 159.070312 323.019531 C 159.253906 323.667969 159.527344 324.277344 159.886719 324.847656 C 160.242188 325.417969 160.671875 325.929688 161.171875 326.382812 C 161.675781 326.832031 162.230469 327.203125 162.835938 327.5 C 163.441406 327.796875 164.078125 328 164.742188 328.117188 C 165.40625 328.234375 166.074219 328.257812 166.746094 328.1875 C 167.417969 328.117188 168.0625 327.957031 168.691406 327.703125 C 169.316406 327.449219 169.894531 327.117188 170.425781 326.703125 L 206.984375 298.160156 L 238.890625 355.515625 C 239.203125 356.070312 239.585938 356.578125 240.035156 357.035156 C 240.484375 357.488281 240.984375 357.878906 241.539062 358.199219 C 242.089844 358.523438 242.675781 358.765625 243.296875 358.933594 C 243.914062 359.101562 244.542969 359.183594 245.183594 359.179688 C 246.320312 359.179688 247.394531 358.925781 248.410156 358.417969 L 291.605469 336.851562 C 292.484375 336.414062 293.242188 335.820312 293.875 335.070312 C 294.511719 334.320312 294.972656 333.476562 295.261719 332.539062 C 295.554688 331.601562 295.648438 330.644531 295.550781 329.667969 C 295.449219 328.691406 295.164062 327.777344 294.6875 326.917969 L 264.621094 272.914062 L 309.976562 272.914062 C 310.691406 272.917969 311.386719 272.8125 312.070312 272.609375 C 312.753906 272.402344 313.390625 272.101562 313.984375 271.707031 C 314.578125 271.3125 315.101562 270.839844 315.550781 270.289062 C 316.003906 269.742188 316.367188 269.136719 316.640625 268.480469 C 316.914062 267.820312 317.085938 267.136719 317.15625 266.429688 C 317.226562 265.722656 317.191406 265.019531 317.050781 264.320312 C 316.910156 263.621094 316.671875 262.960938 316.335938 262.332031 C 316 261.703125 315.578125 261.140625 315.074219 260.636719 Z M 315.074219 260.652344 "/>
</g>
<g clip-path="url(#clip2)" clip-rule="nonzero">
<path style=" stroke:none;fill-rule:nonzero;fill:rgb(27.059937%,35.289001%,39.219666%);fill-opacity:1;" d="M 165.992188 71.628906 C 165.519531 71.628906 165.050781 71.582031 164.585938 71.492188 C 164.121094 71.398438 163.671875 71.261719 163.234375 71.082031 C 162.800781 70.902344 162.382812 70.679688 161.992188 70.417969 C 161.597656 70.15625 161.234375 69.855469 160.898438 69.523438 C 160.566406 69.1875 160.265625 68.828125 160.003906 68.433594 C 159.742188 68.042969 159.519531 67.628906 159.339844 67.191406 C 159.160156 66.753906 159.023438 66.304688 158.929688 65.84375 C 158.835938 65.378906 158.792969 64.910156 158.792969 64.441406 L 158.792969 21.308594 C 158.792969 20.835938 158.835938 20.367188 158.929688 19.90625 C 159.023438 19.441406 159.160156 18.992188 159.339844 18.554688 C 159.519531 18.121094 159.742188 17.707031 160.003906 17.3125 C 160.265625 16.921875 160.566406 16.558594 160.898438 16.222656 C 161.234375 15.890625 161.597656 15.59375 161.992188 15.328125 C 162.382812 15.066406 162.800781 14.847656 163.234375 14.664062 C 163.671875 14.484375 164.121094 14.347656 164.585938 14.257812 C 165.050781 14.164062 165.519531 14.117188 165.992188 14.117188 C 166.464844 14.117188 166.929688 14.164062 167.394531 14.257812 C 167.859375 14.347656 168.308594 14.484375 168.746094 14.664062 C 169.183594 14.847656 169.597656 15.066406 169.992188 15.328125 C 170.382812 15.59375 170.746094 15.890625 171.082031 16.222656 C 171.414062 16.558594 171.714844 16.921875 171.976562 17.3125 C 172.238281 17.707031 172.460938 18.121094 172.640625 18.554688 C 172.824219 18.992188 172.960938 19.441406 173.050781 19.90625 C 173.144531 20.367188 173.191406 20.835938 173.191406 21.308594 L 173.191406 64.441406 C 173.191406 64.910156 173.144531 65.378906 173.050781 65.84375 C 172.960938 66.304688 172.824219 66.753906 172.640625 67.191406 C 172.460938 67.628906 172.238281 68.042969 171.976562 68.433594 C 171.714844 68.828125 171.414062 69.1875 171.082031 69.523438 C 170.746094 69.855469 170.382812 70.15625 169.992188 70.417969 C 169.597656 70.679688 169.183594 70.902344 168.746094 71.082031 C 168.308594 71.261719 167.859375 71.398438 167.394531 71.492188 C 166.929688 71.582031 166.464844 71.628906 165.992188 71.628906 Z M 165.992188 71.628906 "/>
</g>
<path style=" stroke:none;fill-rule:nonzero;fill:rgb(27.059937%,35.289001%,39.219666%);fill-opacity:1;" d="M 108.394531 129.140625 L 65.199219 129.140625 C 64.726562 129.140625 64.257812 129.09375 63.796875 129 C 63.332031 128.910156 62.882812 128.773438 62.445312 128.59375 C 62.007812 128.410156 61.59375 128.191406 61.199219 127.925781 C 60.808594 127.664062 60.445312 127.367188 60.109375 127.035156 C 59.773438 126.699219 59.476562 126.335938 59.214844 125.945312 C 58.953125 125.550781 58.730469 125.136719 58.546875 124.703125 C 58.367188 124.265625 58.230469 123.816406 58.140625 123.351562 C 58.046875 122.890625 58 122.421875 58 121.949219 C 58 121.476562 58.046875 121.011719 58.140625 120.546875 C 58.230469 120.085938 58.367188 119.636719 58.546875 119.199219 C 58.730469 118.761719 58.953125 118.347656 59.214844 117.957031 C 59.476562 117.5625 59.773438 117.199219 60.109375 116.867188 C 60.445312 116.535156 60.808594 116.234375 61.199219 115.972656 C 61.59375 115.710938 62.007812 115.488281 62.445312 115.308594 C 62.882812 115.128906 63.332031 114.992188 63.796875 114.898438 C 64.257812 114.808594 64.726562 114.761719 65.199219 114.761719 L 108.394531 114.761719 C 108.867188 114.761719 109.335938 114.808594 109.800781 114.898438 C 110.265625 114.992188 110.714844 115.128906 111.152344 115.308594 C 111.585938 115.488281 112.003906 115.710938 112.394531 115.972656 C 112.789062 116.234375 113.152344 116.535156 113.488281 116.867188 C 113.820312 117.199219 114.121094 117.5625 114.382812 117.957031 C 114.644531 118.347656 114.867188 118.761719 115.046875 119.199219 C 115.226562 119.636719 115.363281 120.085938 115.457031 120.546875 C 115.550781 121.011719 115.59375 121.476562 115.59375 121.949219 C 115.59375 122.421875 115.550781 122.890625 115.457031 123.351562 C 115.363281 123.816406 115.226562 124.265625 115.046875 124.703125 C 114.867188 125.136719 114.644531 125.550781 114.382812 125.945312 C 114.121094 126.335938 113.820312 126.699219 113.488281 127.035156 C 113.152344 127.367188 112.789062 127.664062 112.394531 127.925781 C 112.003906 128.191406 111.585938 128.410156 111.152344 128.59375 C 110.714844 128.773438 110.265625 128.910156 109.800781 129 C 109.335938 129.09375 108.867188 129.140625 108.394531 129.140625 Z M 108.394531 129.140625 "/>
<path style=" stroke:none;fill-rule:nonzero;fill:rgb(27.059937%,35.289001%,39.219666%);fill-opacity:1;" d="M 266.78125 129.140625 L 223.585938 129.140625 C 223.113281 129.140625 222.644531 129.09375 222.179688 129 C 221.71875 128.910156 221.265625 128.773438 220.832031 128.59375 C 220.394531 128.410156 219.980469 128.191406 219.585938 127.925781 C 219.191406 127.664062 218.828125 127.367188 218.496094 127.035156 C 218.160156 126.699219 217.863281 126.335938 217.597656 125.945312 C 217.335938 125.550781 217.113281 125.136719 216.933594 124.703125 C 216.753906 124.265625 216.617188 123.816406 216.523438 123.351562 C 216.433594 122.890625 216.386719 122.421875 216.386719 121.949219 C 216.386719 121.476562 216.433594 121.011719 216.523438 120.546875 C 216.617188 120.085938 216.753906 119.636719 216.933594 119.199219 C 217.113281 118.761719 217.335938 118.347656 217.597656 117.957031 C 217.863281 117.5625 218.160156 117.199219 218.496094 116.867188 C 218.828125 116.535156 219.191406 116.234375 219.585938 115.972656 C 219.980469 115.710938 220.394531 115.488281 220.832031 115.308594 C 221.265625 115.128906 221.71875 114.992188 222.179688 114.898438 C 222.644531 114.808594 223.113281 114.761719 223.585938 114.761719 L 266.78125 114.761719 C 267.253906 114.761719 267.722656 114.808594 268.1875 114.898438 C 268.648438 114.992188 269.101562 115.128906 269.535156 115.308594 C 269.972656 115.488281 270.386719 115.710938 270.78125 115.972656 C 271.175781 116.234375 271.539062 116.535156 271.871094 116.867188 C 272.207031 117.199219 272.503906 117.5625 272.765625 117.957031 C 273.03125 118.347656 273.25 118.761719 273.433594 119.199219 C 273.613281 119.636719 273.75 120.085938 273.84375 120.546875 C 273.933594 121.011719 273.980469 121.476562 273.980469 121.949219 C 273.980469 122.421875 273.933594 122.890625 273.84375 123.351562 C 273.75 123.816406 273.613281 124.265625 273.433594 124.703125 C 273.25 125.136719 273.03125 125.550781 272.765625 125.945312 C 272.503906 126.335938 272.207031 126.699219 271.871094 127.035156 C 271.539062 127.367188 271.175781 127.664062 270.78125 127.925781 C 270.386719 128.191406 269.972656 128.410156 269.535156 128.59375 C 269.101562 128.773438 268.648438 128.910156 268.1875 129 C 267.722656 129.09375 267.253906 129.140625 266.78125 129.140625 Z M 266.78125 129.140625 "/>
<path style=" stroke:none;fill-rule:nonzero;fill:rgb(27.059937%,35.289001%,39.219666%);fill-opacity:1;" d="M 125.269531 88.464844 C 124.316406 88.464844 123.398438 88.285156 122.511719 87.921875 C 121.628906 87.558594 120.851562 87.039062 120.175781 86.367188 L 89.679688 55.8125 C 89.421875 55.46875 89.195312 55.105469 89.003906 54.722656 C 88.808594 54.339844 88.652344 53.941406 88.53125 53.53125 C 88.410156 53.117188 88.324219 52.699219 88.28125 52.273438 C 88.234375 51.847656 88.226562 51.417969 88.257812 50.992188 C 88.285156 50.5625 88.355469 50.140625 88.460938 49.722656 C 88.566406 49.308594 88.710938 48.90625 88.886719 48.515625 C 89.066406 48.125 89.277344 47.753906 89.523438 47.402344 C 89.769531 47.046875 90.042969 46.71875 90.347656 46.417969 C 90.652344 46.113281 90.980469 45.839844 91.332031 45.59375 C 91.683594 45.351562 92.058594 45.136719 92.449219 44.960938 C 92.839844 44.78125 93.242188 44.640625 93.660156 44.535156 C 94.074219 44.429688 94.5 44.359375 94.925781 44.328125 C 95.355469 44.300781 95.785156 44.308594 96.210938 44.351562 C 96.636719 44.398438 97.058594 44.484375 97.46875 44.605469 C 97.882812 44.726562 98.28125 44.882812 98.664062 45.074219 C 99.050781 45.265625 99.414062 45.492188 99.757812 45.75 L 130.355469 76.1875 C 130.859375 76.6875 131.28125 77.253906 131.617188 77.882812 C 131.953125 78.507812 132.191406 79.171875 132.332031 79.871094 C 132.46875 80.566406 132.503906 81.269531 132.433594 81.980469 C 132.363281 82.6875 132.195312 83.371094 131.921875 84.027344 C 131.648438 84.6875 131.285156 85.289062 130.832031 85.839844 C 130.378906 86.390625 129.855469 86.863281 129.261719 87.257812 C 128.671875 87.652344 128.03125 87.953125 127.351562 88.160156 C 126.667969 88.363281 125.96875 88.464844 125.257812 88.464844 Z M 125.269531 88.464844 "/>
<path style=" stroke:none;fill-rule:nonzero;fill:rgb(27.059937%,35.289001%,39.219666%);fill-opacity:1;" d="M 94.71875 200.292969 C 94.015625 200.28125 93.328125 200.171875 92.65625 199.957031 C 91.988281 199.746094 91.359375 199.441406 90.78125 199.046875 C 90.199219 198.652344 89.6875 198.183594 89.242188 197.636719 C 88.800781 197.09375 88.445312 196.496094 88.175781 195.847656 C 87.910156 195.195312 87.738281 194.523438 87.667969 193.824219 C 87.597656 193.125 87.628906 192.429688 87.765625 191.742188 C 87.898438 191.050781 88.125 190.398438 88.453125 189.773438 C 88.777344 189.152344 89.1875 188.589844 89.679688 188.085938 L 120.175781 157.519531 C 120.507812 157.175781 120.867188 156.871094 121.261719 156.597656 C 121.65625 156.328125 122.070312 156.097656 122.511719 155.910156 C 122.949219 155.722656 123.402344 155.578125 123.871094 155.480469 C 124.339844 155.382812 124.8125 155.332031 125.289062 155.324219 C 125.769531 155.320312 126.242188 155.363281 126.710938 155.453125 C 127.179688 155.542969 127.636719 155.679688 128.078125 155.859375 C 128.519531 156.042969 128.941406 156.265625 129.339844 156.527344 C 129.738281 156.792969 130.105469 157.09375 130.445312 157.429688 C 130.78125 157.769531 131.082031 158.136719 131.347656 158.535156 C 131.613281 158.929688 131.835938 159.351562 132.015625 159.792969 C 132.195312 160.234375 132.332031 160.6875 132.421875 161.15625 C 132.511719 161.625 132.554688 162.101562 132.550781 162.578125 C 132.546875 163.054688 132.496094 163.527344 132.398438 163.992188 C 132.300781 164.460938 132.15625 164.914062 131.96875 165.351562 C 131.777344 165.789062 131.546875 166.207031 131.277344 166.597656 C 131.003906 166.992188 130.699219 167.355469 130.355469 167.683594 L 99.757812 198.152344 C 99.089844 198.824219 98.320312 199.347656 97.449219 199.71875 C 96.578125 200.089844 95.664062 200.28125 94.71875 200.292969 Z M 94.71875 200.292969 "/>
<path style=" stroke:none;fill-rule:nonzero;fill:rgb(27.059937%,35.289001%,39.219666%);fill-opacity:1;" d="M 206.710938 88.464844 C 205.996094 88.464844 205.300781 88.363281 204.617188 88.160156 C 203.933594 87.953125 203.296875 87.652344 202.703125 87.257812 C 202.109375 86.863281 201.585938 86.390625 201.136719 85.839844 C 200.683594 85.289062 200.320312 84.6875 200.046875 84.027344 C 199.773438 83.371094 199.601562 82.6875 199.53125 81.980469 C 199.460938 81.269531 199.496094 80.566406 199.636719 79.871094 C 199.777344 79.171875 200.015625 78.507812 200.351562 77.882812 C 200.6875 77.253906 201.109375 76.6875 201.613281 76.1875 L 232.222656 45.75 C 232.570312 45.492188 232.933594 45.265625 233.316406 45.074219 C 233.699219 44.882812 234.097656 44.726562 234.511719 44.605469 C 234.921875 44.484375 235.34375 44.398438 235.769531 44.351562 C 236.199219 44.308594 236.625 44.300781 237.054688 44.328125 C 237.484375 44.359375 237.90625 44.429688 238.324219 44.535156 C 238.738281 44.640625 239.140625 44.78125 239.535156 44.960938 C 239.925781 45.136719 240.296875 45.351562 240.648438 45.59375 C 241.003906 45.839844 241.332031 46.113281 241.636719 46.417969 C 241.9375 46.71875 242.214844 47.046875 242.457031 47.402344 C 242.703125 47.753906 242.914062 48.125 243.09375 48.515625 C 243.273438 48.90625 243.414062 49.308594 243.519531 49.722656 C 243.625 50.140625 243.695312 50.5625 243.726562 50.992188 C 243.757812 51.417969 243.746094 51.847656 243.703125 52.273438 C 243.65625 52.699219 243.570312 53.117188 243.449219 53.53125 C 243.328125 53.941406 243.171875 54.339844 242.980469 54.722656 C 242.785156 55.105469 242.5625 55.46875 242.304688 55.8125 L 211.808594 86.351562 C 211.132812 87.027344 210.351562 87.550781 209.46875 87.914062 C 208.585938 88.28125 207.667969 88.464844 206.710938 88.464844 Z M 206.710938 88.464844 "/>
<g clip-path="url(#clip3)" clip-rule="nonzero">
<path style="fill:none;stroke-width:1;stroke-linecap:round;stroke-linejoin:round;stroke:rgb(0%,0%,0%);stroke-opacity:1;stroke-miterlimit:4;" d="M 10.500101 7.501014 L 10.500101 21.346887 L 13.500054 19.001114 L 16.000015 23.501118 L 18.999968 22.001117 L 16.500007 17.501113 L 20.499944 17.501113 Z M 10.500101 7.501014 " transform="matrix(14.398663,0,0,14.377592,14.804773,14.118319)"/>
</g>
<g clip-path="url(#clip4)" clip-rule="nonzero">
<path style="fill:none;stroke-width:1;stroke-linecap:round;stroke-linejoin:round;stroke:rgb(0%,0%,0%);stroke-opacity:1;stroke-miterlimit:4;" d="M 10.500101 0.499016 L 10.500101 3.499019 " transform="matrix(14.398663,0,0,14.377592,14.804773,14.118319)"/>
</g>
<path style="fill:none;stroke-width:1;stroke-linecap:round;stroke-linejoin:round;stroke:rgb(0%,0%,0%);stroke-opacity:1;stroke-miterlimit:4;" d="M 3.499939 7.499112 L 6.499892 7.499112 " transform="matrix(14.398663,0,0,14.377592,14.804773,14.118319)"/>
<path style="fill:none;stroke-width:1;stroke-linecap:round;stroke-linejoin:round;stroke:rgb(0%,0%,0%);stroke-opacity:1;stroke-miterlimit:4;" d="M 17.499991 7.499112 L 14.500038 7.499112 " transform="matrix(14.398663,0,0,14.377592,14.804773,14.118319)"/>
<path style="fill:none;stroke-width:1;stroke-linecap:round;stroke-linejoin:round;stroke:rgb(0%,0%,0%);stroke-opacity:1;stroke-miterlimit:4;" d="M 5.550097 2.548918 L 7.671876 4.67109 " transform="matrix(14.398663,0,0,14.377592,14.804773,14.118319)"/>
<path style="fill:none;stroke-width:1;stroke-linecap:round;stroke-linejoin:round;stroke:rgb(0%,0%,0%);stroke-opacity:1;stroke-miterlimit:4;" d="M 5.550097 12.449035 L 7.671876 10.32795 " transform="matrix(14.398663,0,0,14.377592,14.804773,14.118319)"/>
<path style="fill:none;stroke-width:1;stroke-linecap:round;stroke-linejoin:round;stroke:rgb(0%,0%,0%);stroke-opacity:1;stroke-miterlimit:4;" d="M 15.450105 2.548918 L 13.328054 4.67109 " transform="matrix(14.398663,0,0,14.377592,14.804773,14.118319)"/>
</g>
</svg>
