<?xml version="1.0" encoding="UTF-8"?>
<svg xmlns="http://www.w3.org/2000/svg" xmlns:xlink="http://www.w3.org/1999/xlink" width="375pt" height="374.999991pt" viewBox="0 0 375 374.999991" version="1.2">
<defs>
<clipPath id="clip1">
  <path d="M 100 228 L 155 228 L 155 308.167969 L 100 308.167969 Z M 100 228 "/>
</clipPath>
</defs>
<g id="surface1">
<g clip-path="url(#clip1)" clip-rule="nonzero">
<path style=" stroke:none;fill-rule:nonzero;fill:rgb(6.269836%,36.859131%,52.549744%);fill-opacity:1;" d="M 105.957031 300.0625 C 103.789062 300.0625 101.859375 299.929688 100.222656 299.675781 L 100.222656 306.875 C 103.582031 308.210938 106.359375 308.878906 108.632812 308.878906 C 117.144531 308.878906 124.988281 303.683594 132.148438 293.25 C 141.300781 279.742188 148.699219 258.054688 154.3125 228.25 L 141.242188 228.25 C 138.910156 246.550781 134.777344 263.503906 128.835938 279 C 129.253906 275.898438 128.226562 270.449219 125.792969 262.640625 L 114.992188 228.25 L 101.472656 228.25 L 116.535156 274.25 C 118.808594 281.152344 119.953125 285.753906 119.953125 288.007812 C 119.953125 291.261719 118.496094 294.199219 115.570312 296.824219 C 113.132812 298.964844 109.941406 300.0625 105.957031 300.0625 Z M 105.957031 300.0625 "/>
</g>
<path style=" stroke:none;fill-rule:nonzero;fill:rgb(87.059021%,54.119873%,1.179504%);fill-opacity:1;" d="M 298.339844 207.128906 L 298.339844 287.710938 L 337.410156 287.710938 L 337.410156 277.796875 L 311.488281 277.796875 L 311.488281 207.128906 Z M 298.339844 207.128906 "/>
<path style=" stroke:none;fill-rule:nonzero;fill:rgb(6.269836%,36.859131%,52.549744%);fill-opacity:1;" d="M 24.371094 223.441406 L 24.519531 223.441406 L 45.316406 287.710938 L 55.789062 287.710938 L 76.738281 223.441406 L 76.855469 223.441406 C 79.039062 243.554688 80.421875 264.941406 80.867188 287.710938 L 94.683594 287.710938 C 94.03125 263.371094 91.921875 236.488281 88.324219 207.128906 L 72.058594 207.128906 L 52.046875 266.351562 L 51.929688 266.351562 L 32.097656 207.128906 L 15.011719 207.128906 C 11.773438 232.183594 9.738281 259.066406 8.921875 287.710938 L 21.472656 287.710938 C 21.875 264.140625 22.839844 242.722656 24.371094 223.441406 Z M 24.371094 223.441406 "/>
<path style=" stroke:none;fill-rule:nonzero;fill:rgb(87.059021%,54.119873%,1.179504%);fill-opacity:1;" d="M 286.410156 245.914062 C 286.410156 219.253906 275.746094 205.894531 254.398438 205.894531 C 243.9375 205.894531 235.769531 209.28125 229.886719 216.050781 C 223.496094 223.457031 220.289062 234.351562 220.289062 248.761719 C 220.289062 262.925781 223.113281 273.328125 228.816406 279.949219 C 234.015625 285.929688 241.84375 288.914062 252.332031 288.914062 C 256.253906 288.914062 259.851562 288.441406 263.101562 287.488281 L 282.785156 298.742188 L 288.136719 289.6875 L 288.089844 289.6875 L 272.996094 282.398438 C 274.335938 281.285156 275.625 280.097656 276.785156 278.761719 C 283.21875 271.371094 286.410156 260.414062 286.410156 245.914062 Z M 253.683594 278.941406 C 247.074219 278.941406 242.246094 276.503906 239.15625 271.652344 L 239.183594 271.578125 C 235.84375 266.339844 234.179688 257.878906 234.179688 246.285156 C 234.179688 225.980469 240.476562 215.828125 253.046875 215.828125 C 259.625 215.828125 264.484375 218.261719 267.558594 223.113281 C 270.886719 228.382812 272.550781 236.753906 272.550781 248.230469 C 272.550781 268.683594 266.253906 278.941406 253.683594 278.941406 Z M 253.683594 278.941406 "/>
<path style=" stroke:none;fill-rule:nonzero;fill:rgb(87.059021%,54.119873%,1.179504%);fill-opacity:1;" d="M 205.015625 248.40625 C 205.015625 248.40625 193.222656 241.773438 187.382812 238.640625 C 180.964844 235.136719 177.488281 231.027344 177.488281 226.261719 C 177.488281 223.144531 178.902344 220.605469 181.171875 218.617188 C 183.429688 216.597656 186.683594 215.617188 190.890625 215.617188 C 196.074219 215.617188 201.347656 216.746094 206.695312 218.972656 L 209.859375 212.042969 C 203.621094 208.046875 196.667969 206.074219 189.0625 206.074219 C 181.632812 206.074219 175.617188 208.0625 170.9375 212.117188 C 166.289062 216.125 163.957031 221.363281 163.957031 227.921875 C 163.957031 235.804688 167.074219 240.601562 173.34375 245.082031 C 173.34375 245.082031 184.859375 251.554688 190.621094 254.65625 C 196.832031 258.085938 200.25 262.167969 200.25 266.976562 C 200.25 270.777344 198.585938 273.789062 195.792969 275.941406 C 192.96875 278.078125 189.089844 279.148438 184.160156 279.148438 C 178.855469 279.148438 172.988281 277.574219 166.480469 274.367188 L 162.960938 281.300781 C 170.523438 286.300781 178.261719 288.8125 186.328125 288.8125 C 194.960938 288.8125 201.777344 286.628906 206.890625 282.25 C 212 277.886719 214.554688 272.261719 214.554688 265.402344 L 214.644531 265.449219 C 214.644531 257.59375 211.449219 252.859375 205.015625 248.40625 Z M 205.015625 248.40625 "/>
<path style=" stroke:none;fill-rule:nonzero;fill:rgb(6.269836%,36.859131%,52.549744%);fill-opacity:1;" d="M 252.628906 95.433594 C 250.921875 95.433594 249.761719 95.640625 248.558594 95.90625 L 248.558594 96.101562 L 248.765625 96.101562 C 249.570312 97.613281 250.9375 98.726562 251.945312 100.078125 C 252.75 101.636719 253.433594 103.195312 254.234375 104.738281 L 254.441406 104.515625 C 255.839844 103.550781 256.523438 102.007812 256.523438 99.664062 C 255.925781 98.980469 255.839844 98.296875 255.332031 97.628906 C 254.738281 96.648438 253.460938 96.175781 252.660156 95.402344 Z M 252.628906 95.433594 "/>
<path style=" stroke:none;fill-rule:nonzero;fill:rgb(6.269836%,36.859131%,52.549744%);fill-opacity:1;" d="M 360.929688 205.746094 C 358.046875 201.960938 354.464844 198.652344 350.601562 195.90625 C 347.425781 193.785156 340.472656 190.800781 339.164062 187.238281 L 338.972656 187.03125 C 341.140625 186.835938 343.726562 186.066406 345.804688 185.488281 C 349.175781 184.609375 352.265625 184.804688 355.757812 183.941406 C 357.332031 183.558594 358.921875 183.066406 360.511719 182.578125 L 360.511719 181.703125 C 358.730469 179.949219 357.390625 177.574219 355.550781 175.941406 C 350.5 171.636719 344.898438 167.46875 339.148438 163.949219 C 336.03125 161.988281 332.078125 160.742188 328.796875 159.082031 C 327.605469 158.5 325.617188 158.203125 324.933594 157.226562 C 323.148438 155.101562 322.109375 152.265625 320.847656 149.730469 C 317.996094 144.371094 315.203125 138.433594 312.722656 132.777344 C 310.9375 128.964844 309.855469 125.164062 307.671875 121.660156 C 297.417969 105.09375 286.324219 95.046875 269.253906 85.234375 C 265.582031 83.203125 261.1875 82.324219 256.535156 81.242188 C 254.054688 81.125 251.574219 80.945312 249.109375 80.839844 C 247.476562 80.160156 245.898438 78.304688 244.503906 77.414062 C 238.859375 73.910156 224.242188 66.339844 220.082031 76.359375 C 217.40625 82.683594 224.046875 88.917969 226.351562 92.121094 C 228.058594 94.347656 230.210938 96.902344 231.402344 99.410156 C 232.097656 101.101562 232.292969 102.839844 232.992188 104.605469 C 234.566406 108.894531 236.066406 113.660156 238.144531 117.683594 C 239.230469 119.714844 240.417969 121.867188 241.816406 123.695312 C 242.617188 124.761719 243.984375 125.253906 244.296875 127.003906 C 242.898438 128.992188 242.808594 131.871094 242.007812 134.292969 C 238.441406 145.320312 239.839844 158.960938 244.890625 167.082031 C 246.480469 169.5 250.269531 174.859375 255.332031 172.808594 C 259.789062 171.058594 258.808594 165.523438 260.085938 160.640625 C 260.382812 159.464844 260.191406 158.695312 260.800781 157.90625 L 260.800781 158.128906 C 262.195312 160.875 263.59375 163.472656 264.871094 166.21875 C 267.929688 171 273.277344 175.957031 277.75 179.265625 C 280.128906 181.019531 282.015625 184.046875 284.984375 185.128906 L 284.984375 184.832031 L 284.761719 184.832031 C 284.125 183.988281 283.277344 183.585938 282.476562 182.890625 C 280.691406 181.136719 278.6875 179 277.273438 177.054688 C 273.117188 171.5625 269.445312 165.539062 266.179688 159.304688 C 264.542969 156.246094 263.175781 152.949219 261.871094 149.9375 C 261.277344 148.777344 261.277344 147.027344 260.28125 146.433594 C 258.792969 148.554688 256.609375 150.410156 255.527344 153.039062 C 253.640625 157.238281 253.445312 162.390625 252.734375 167.765625 C 252.332031 167.867188 252.527344 167.765625 252.332031 167.972656 C 249.152344 167.214844 248.070312 163.980469 246.878906 161.261719 C 243.910156 154.34375 243.417969 143.226562 245.988281 135.242188 C 246.6875 133.207031 249.660156 126.765625 248.46875 124.808594 C 247.847656 122.953125 245.886719 121.898438 244.800781 120.398438 C 243.507812 118.585938 242.125 116.242188 241.234375 114.179688 C 238.859375 108.730469 237.667969 102.691406 235.085938 97.242188 C 233.898438 94.71875 231.816406 92.078125 230.125 89.761719 C 228.238281 87.136719 226.15625 85.292969 224.65625 82.175781 C 224.167969 81.109375 223.46875 79.34375 224.253906 78.183594 C 224.464844 77.398438 224.878906 77.085938 225.652344 76.878906 C 226.957031 75.824219 230.628906 77.203125 231.921875 77.785156 C 235.589844 79.238281 238.679688 80.605469 241.753906 82.652344 C 243.152344 83.617188 244.652344 85.457031 246.433594 85.949219 L 248.515625 85.949219 C 251.695312 86.628906 255.273438 86.15625 258.246094 87.015625 C 263.519531 88.679688 268.273438 91.097656 272.535156 93.726562 C 285.550781 101.828125 296.246094 113.320312 303.511719 127.035156 C 304.699219 129.273438 305.21875 131.339844 306.304688 133.667969 C 308.382812 138.476562 310.953125 143.332031 313.0625 147.976562 C 315.144531 152.5625 317.148438 157.253906 320.132812 161.054688 C 321.621094 163.089844 327.59375 164.15625 330.265625 165.226562 C 332.242188 166.101562 335.316406 166.902344 337.097656 167.972656 C 340.515625 170.003906 343.84375 172.351562 347.054688 174.589844 C 348.6875 175.703125 353.632812 178.140625 353.929688 180.097656 C 345.984375 179.890625 339.816406 180.675781 334.664062 182.84375 C 333.175781 183.421875 330.800781 183.421875 330.59375 185.277344 C 331.410156 186.050781 331.527344 187.3125 332.226562 188.394531 C 333.414062 190.339844 335.464844 192.953125 337.367188 194.332031 C 339.445312 195.9375 341.527344 197.480469 343.710938 198.84375 C 347.574219 201.175781 351.957031 202.554688 355.742188 204.902344 C 357.898438 206.265625 360.097656 208.003906 362.28125 209.457031 C 363.363281 210.1875 364.0625 211.507812 365.460938 211.96875 L 365.460938 211.683594 C 364.777344 210.808594 364.566406 209.546875 363.898438 208.566406 C 362.902344 207.589844 361.910156 206.710938 360.929688 205.746094 Z M 360.929688 205.746094 "/>
</g>
</svg>
