<?xml version="1.0" encoding="UTF-8"?>
<svg xmlns="http://www.w3.org/2000/svg" xmlns:xlink="http://www.w3.org/1999/xlink" width="375pt" height="374.999991pt" viewBox="0 0 375 374.999991" version="1.2">
<defs>
<clipPath id="clip1">
  <path d="M 31.089844 10 L 343.78125 10 L 343.78125 366.496094 L 31.089844 366.496094 Z M 31.089844 10 "/>
</clipPath>
</defs>
<g id="surface1">
<g clip-path="url(#clip1)" clip-rule="nonzero">
<path style=" stroke:none;fill-rule:nonzero;fill:rgb(54.899597%,75.289917%,24.308777%);fill-opacity:1;" d="M 149.089844 322.578125 C 139.953125 327.882812 138.21875 328.507812 129.632812 331.550781 C 127.558594 332.265625 124.414062 333.527344 130.820312 337.210938 L 173.824219 363.027344 C 177.929688 365.449219 182.675781 366.710938 187.347656 366.710938 L 187.375 366.742188 C 192.105469 366.742188 196.777344 365.464844 200.886719 363.058594 L 329.628906 287.640625 C 337.992188 282.695312 343.152344 273.558594 343.152344 263.800781 L 343.152344 113.054688 C 343.152344 103.222656 338.003906 94.085938 329.628906 89.214844 L 200.886719 13.722656 C 192.804688 9.058594 181.992188 9.058594 173.835938 13.722656 L 45.242188 89.140625 C 36.894531 94.027344 31.734375 103.222656 31.734375 112.980469 L 31.734375 263.726562 C 31.734375 273.558594 36.878906 282.695312 45.242188 287.566406 L 78.980469 307.308594 C 95.289062 315.523438 101.132812 315.523438 108.589844 315.523438 C 132.777344 315.523438 146.714844 300.667969 146.714844 274.777344 L 146.714844 125.875 C 146.714844 123.765625 144.980469 122.128906 142.949219 122.128906 L 126.636719 122.128906 C 124.546875 122.128906 122.871094 123.75 122.871094 125.875 L 122.871094 274.703125 C 122.871094 286.230469 111.15625 297.625 91.984375 287.9375 L 56.722656 267.273438 C 55.492188 266.636719 54.71875 265.226562 54.71875 263.800781 L 54.71875 113.054688 C 54.71875 111.585938 55.492188 110.15625 56.734375 109.445312 L 185.328125 34.027344 C 186.5 33.316406 188.117188 33.316406 189.304688 34.027344 L 317.972656 109.371094 C 319.21875 110.144531 319.988281 111.496094 319.988281 112.980469 L 319.988281 263.800781 C 319.988281 265.195312 319.230469 266.621094 318.046875 267.335938 L 189.304688 342.75 C 188.191406 343.464844 186.515625 343.464844 185.328125 342.75 L 152.292969 322.875 C 151.3125 322.238281 150.066406 322.015625 149.089844 322.578125 Z M 149.089844 322.578125 "/>
</g>
<path style=" stroke:none;fill-rule:nonzero;fill:rgb(54.899597%,75.289917%,24.308777%);fill-opacity:1;" d="M 227.085938 240.015625 C 193.011719 240.015625 185.539062 231.3125 183.046875 214.125 C 182.765625 212.285156 181.238281 210.945312 179.355469 210.945312 L 162.703125 210.945312 C 160.609375 210.945312 159.007812 212.640625 159.007812 214.691406 C 159.007812 236.691406 170.78125 262.9375 227.160156 262.9375 C 267.851562 262.863281 291.296875 246.539062 291.296875 218.089844 L 291.25 218.105469 C 291.25 189.882812 272.433594 182.382812 232.914062 177.078125 C 192.90625 171.699219 188.875 168.9375 188.875 159.460938 C 188.875 151.617188 192.300781 141.144531 221.914062 141.144531 C 248.335938 141.144531 258.09375 146.9375 262.128906 165.046875 C 262.46875 166.753906 264.011719 168.015625 265.761719 168.015625 L 282.488281 168.015625 C 283.523438 168.015625 284.503906 167.601562 285.199219 166.8125 C 285.898438 166.027344 286.238281 164.972656 286.179688 163.917969 C 283.597656 132.722656 263.179688 118.222656 221.914062 118.222656 C 185.183594 118.222656 163.292969 133.941406 163.292969 160.308594 C 163.292969 188.886719 185.109375 196.820312 220.3125 200.339844 C 262.484375 204.53125 265.746094 210.8125 265.746094 219.234375 C 265.773438 233.808594 254.207031 240.015625 227.085938 240.015625 Z M 227.085938 240.015625 "/>
</g>
</svg>
