<?xml version="1.0" encoding="UTF-8"?>
<svg xmlns="http://www.w3.org/2000/svg" xmlns:xlink="http://www.w3.org/1999/xlink" width="375pt" height="374.999991pt" viewBox="0 0 375 374.999991" version="1.2">
<defs>
<clipPath id="clip1">
  <path d="M 3.195312 22 L 371.09375 22 L 371.09375 353 L 3.195312 353 Z M 3.195312 22 "/>
</clipPath>
</defs>
<g id="surface1">
<path style=" stroke:none;fill-rule:nonzero;fill:rgb(22.349548%,75.689697%,84.309387%);fill-opacity:1;" d="M 220.160156 187.320312 C 220.160156 188.402344 220.105469 189.480469 220 190.558594 C 219.894531 191.636719 219.738281 192.703125 219.527344 193.765625 C 219.316406 194.828125 219.050781 195.875 218.738281 196.910156 C 218.425781 197.945312 218.0625 198.964844 217.648438 199.964844 C 217.234375 200.964844 216.769531 201.941406 216.261719 202.894531 C 215.75 203.851562 215.195312 204.777344 214.597656 205.675781 C 213.996094 206.578125 213.351562 207.445312 212.664062 208.28125 C 211.980469 209.117188 211.253906 209.921875 210.488281 210.683594 C 209.726562 211.449219 208.925781 212.175781 208.089844 212.863281 C 207.253906 213.550781 206.386719 214.195312 205.488281 214.792969 C 204.585938 215.394531 203.660156 215.953125 202.707031 216.460938 C 201.753906 216.972656 200.777344 217.433594 199.777344 217.847656 C 198.78125 218.261719 197.761719 218.625 196.726562 218.941406 C 195.691406 219.253906 194.644531 219.519531 193.585938 219.730469 C 192.523438 219.941406 191.457031 220.097656 190.378906 220.203125 C 189.304688 220.3125 188.226562 220.363281 187.144531 220.363281 C 186.0625 220.363281 184.984375 220.3125 183.90625 220.203125 C 182.832031 220.097656 181.761719 219.941406 180.703125 219.730469 C 179.640625 219.519531 178.59375 219.253906 177.558594 218.941406 C 176.523438 218.625 175.507812 218.261719 174.507812 217.847656 C 173.507812 217.433594 172.535156 216.972656 171.578125 216.460938 C 170.625 215.953125 169.699219 215.394531 168.800781 214.792969 C 167.902344 214.195312 167.035156 213.550781 166.199219 212.863281 C 165.363281 212.175781 164.5625 211.449219 163.796875 210.683594 C 163.03125 209.921875 162.308594 209.117188 161.621094 208.28125 C 160.933594 207.445312 160.292969 206.578125 159.691406 205.675781 C 159.089844 204.777344 158.535156 203.851562 158.027344 202.894531 C 157.515625 201.941406 157.054688 200.964844 156.640625 199.964844 C 156.226562 198.964844 155.863281 197.945312 155.546875 196.910156 C 155.234375 195.875 154.972656 194.828125 154.761719 193.765625 C 154.550781 192.703125 154.390625 191.636719 154.285156 190.558594 C 154.179688 189.480469 154.128906 188.402344 154.128906 187.320312 C 154.128906 186.238281 154.179688 185.15625 154.285156 184.078125 C 154.390625 183.003906 154.550781 181.933594 154.761719 180.871094 C 154.972656 179.8125 155.234375 178.761719 155.546875 177.726562 C 155.863281 176.691406 156.226562 175.671875 156.640625 174.671875 C 157.054688 173.671875 157.515625 172.695312 158.027344 171.742188 C 158.535156 170.789062 159.089844 169.859375 159.691406 168.960938 C 160.292969 168.058594 160.933594 167.191406 161.621094 166.355469 C 162.308594 165.519531 163.03125 164.71875 163.796875 163.953125 C 164.5625 163.1875 165.363281 162.460938 166.199219 161.773438 C 167.035156 161.089844 167.902344 160.445312 168.800781 159.84375 C 169.699219 159.242188 170.625 158.6875 171.578125 158.175781 C 172.535156 157.664062 173.507812 157.203125 174.507812 156.789062 C 175.507812 156.375 176.523438 156.011719 177.558594 155.695312 C 178.59375 155.382812 179.640625 155.121094 180.703125 154.910156 C 181.761719 154.699219 182.832031 154.539062 183.90625 154.433594 C 184.984375 154.328125 186.0625 154.273438 187.144531 154.273438 C 188.226562 154.273438 189.304688 154.328125 190.378906 154.433594 C 191.457031 154.539062 192.523438 154.699219 193.585938 154.910156 C 194.644531 155.121094 195.691406 155.382812 196.726562 155.695312 C 197.761719 156.011719 198.78125 156.375 199.777344 156.789062 C 200.777344 157.203125 201.753906 157.664062 202.707031 158.175781 C 203.660156 158.6875 204.585938 159.242188 205.488281 159.84375 C 206.386719 160.445312 207.253906 161.089844 208.089844 161.773438 C 208.925781 162.460938 209.726562 163.1875 210.488281 163.953125 C 211.253906 164.71875 211.980469 165.519531 212.664062 166.355469 C 213.351562 167.191406 213.996094 168.058594 214.597656 168.960938 C 215.195312 169.859375 215.75 170.789062 216.261719 171.742188 C 216.769531 172.695312 217.234375 173.671875 217.648438 174.671875 C 218.0625 175.671875 218.425781 176.691406 218.738281 177.726562 C 219.050781 178.761719 219.316406 179.8125 219.527344 180.871094 C 219.738281 181.933594 219.894531 183.003906 220 184.078125 C 220.105469 185.15625 220.160156 186.238281 220.160156 187.320312 Z M 220.160156 187.320312 "/>
<path style=" stroke:none;fill-rule:nonzero;fill:rgb(12.159729%,12.939453%,16.859436%);fill-opacity:1;" d="M 187.144531 225.085938 C 166.339844 225.085938 149.410156 208.140625 149.410156 187.320312 C 149.410156 166.496094 166.339844 149.554688 187.144531 149.554688 C 207.949219 149.554688 224.875 166.496094 224.875 187.320312 C 224.875 208.140625 207.949219 225.085938 187.144531 225.085938 Z M 187.144531 158.996094 C 171.535156 158.996094 158.84375 171.699219 158.84375 187.320312 C 158.84375 202.941406 171.535156 215.644531 187.144531 215.644531 C 202.75 215.644531 215.445312 202.941406 215.445312 187.320312 C 215.445312 171.699219 202.75 158.996094 187.144531 158.996094 Z M 187.144531 158.996094 "/>
<path style=" stroke:none;fill-rule:nonzero;fill:rgb(22.349548%,75.689697%,84.309387%);fill-opacity:1;" d="M 368.734375 187.320312 C 368.734375 161.941406 338.199219 139.976562 290.824219 126.902344 C 303.003906 79.242188 299.253906 41.765625 277.492188 29.046875 C 268.90625 24.03125 258.492188 23.113281 246.539062 26.3125 C 228.53125 31.140625 207.898438 45.246094 187.144531 65.964844 C 166.390625 45.246094 145.753906 31.144531 127.746094 26.3125 C 115.792969 23.109375 105.378906 24.03125 96.796875 29.046875 C 75.035156 41.765625 71.285156 79.238281 83.460938 126.902344 C 36.089844 139.976562 5.550781 161.941406 5.550781 187.320312 C 5.550781 212.699219 36.089844 234.664062 83.460938 247.738281 C 71.285156 295.398438 75.035156 332.878906 96.796875 345.59375 C 102.042969 348.660156 107.964844 350.203125 114.511719 350.199219 C 118.675781 350.199219 123.097656 349.574219 127.746094 348.328125 C 145.753906 343.5 166.390625 329.398438 187.144531 308.679688 C 207.898438 329.398438 228.53125 343.5 246.539062 348.328125 C 251.191406 349.574219 255.609375 350.199219 259.773438 350.199219 C 266.320312 350.199219 272.246094 348.664062 277.492188 345.59375 C 299.253906 332.878906 303 295.398438 290.824219 247.738281 C 338.199219 234.664062 368.734375 212.699219 368.734375 187.320312 Z M 250.199219 39.992188 C 253.621094 39.078125 256.789062 38.617188 259.710938 38.617188 C 263.765625 38.617188 267.332031 39.503906 270.355469 41.273438 C 284.9375 49.800781 287.914062 81.023438 277.050781 123.464844 C 262.085938 120.097656 245.757812 117.5625 228.40625 115.992188 C 218.222656 101.296875 207.628906 87.917969 196.953125 76.203125 C 215.90625 57.191406 234.5 44.203125 250.199219 39.992188 Z M 237.871094 217.054688 C 232.308594 226.808594 226.457031 236.148438 220.453125 245.089844 C 209.792969 245.890625 198.679688 246.328125 187.144531 246.328125 C 175.605469 246.328125 164.496094 245.890625 153.839844 245.089844 C 147.835938 236.148438 141.980469 226.808594 136.421875 217.054688 C 130.671875 206.972656 125.511719 197.039062 120.890625 187.324219 C 125.511719 177.609375 130.671875 167.675781 136.421875 157.589844 C 141.988281 147.832031 147.835938 138.488281 153.84375 129.546875 C 164.5 128.75 175.605469 128.308594 187.144531 128.308594 C 198.679688 128.308594 209.789062 128.75 220.449219 129.546875 C 226.453125 138.488281 232.304688 147.835938 237.871094 157.589844 C 243.621094 167.671875 248.78125 177.605469 253.402344 187.324219 C 248.78125 197.039062 243.621094 206.972656 237.871094 217.054688 Z M 260.929688 204.054688 C 265.839844 215.671875 269.898438 226.855469 273.179688 237.484375 C 262.449219 239.878906 250.867188 241.875 238.492188 243.355469 C 242.464844 237.09375 246.378906 230.691406 250.15625 224.070312 C 253.984375 217.371094 257.554688 210.691406 260.929688 204.054688 Z M 187.144531 288.140625 C 179.425781 279.597656 171.726562 270.144531 164.203125 259.914062 C 171.710938 260.277344 179.351562 260.488281 187.144531 260.488281 C 194.9375 260.488281 202.578125 260.277344 210.085938 259.914062 C 202.5625 270.140625 194.859375 279.59375 187.144531 288.140625 Z M 135.789062 243.355469 C 123.421875 241.875 111.832031 239.878906 101.101562 237.484375 C 104.386719 226.855469 108.441406 215.667969 113.351562 204.054688 C 116.730469 210.691406 120.304688 217.371094 124.125 224.070312 C 127.90625 230.699219 131.816406 237.097656 135.789062 243.355469 Z M 113.355469 170.589844 C 108.445312 158.972656 104.386719 147.78125 101.105469 137.148438 C 111.835938 134.753906 123.425781 132.757812 135.796875 131.28125 C 131.820312 137.539062 127.910156 143.945312 124.132812 150.566406 C 120.304688 157.273438 116.734375 163.953125 113.355469 170.589844 Z M 187.144531 86.503906 C 194.859375 95.042969 202.5625 104.5 210.085938 114.730469 C 202.578125 114.359375 194.9375 114.148438 187.144531 114.148438 C 179.351562 114.148438 171.710938 114.359375 164.203125 114.722656 C 171.726562 104.5 179.425781 95.042969 187.144531 86.503906 Z M 250.15625 150.574219 C 246.378906 143.945312 242.464844 137.542969 238.492188 131.285156 C 250.867188 132.761719 262.449219 134.757812 273.183594 137.152344 C 269.902344 147.789062 265.847656 158.972656 260.9375 170.59375 C 257.554688 163.953125 253.984375 157.273438 250.15625 150.574219 Z M 103.933594 41.273438 C 106.960938 39.503906 110.515625 38.617188 114.578125 38.617188 C 117.492188 38.617188 120.671875 39.078125 124.085938 39.992188 C 139.789062 44.203125 158.382812 57.1875 177.332031 76.199219 C 166.660156 87.914062 156.066406 101.296875 145.882812 115.988281 C 128.53125 117.554688 112.195312 120.089844 97.234375 123.460938 C 86.371094 81.019531 89.347656 49.796875 103.933594 41.273438 Z M 19.703125 187.320312 C 19.703125 170.34375 45.175781 152.195312 87.316406 140.578125 C 91.886719 155.492188 97.886719 171.199219 105.265625 187.320312 C 97.886719 203.441406 91.886719 219.144531 87.316406 234.058594 C 45.175781 222.441406 19.703125 204.292969 19.703125 187.320312 Z M 124.085938 334.648438 C 115.914062 336.828125 109.136719 336.398438 103.933594 333.367188 C 89.347656 324.84375 86.378906 293.621094 97.234375 251.175781 C 112.195312 254.546875 128.53125 257.082031 145.878906 258.648438 C 156.0625 273.34375 166.65625 286.722656 177.328125 298.445312 C 158.382812 317.449219 139.789062 330.4375 124.085938 334.648438 Z M 270.355469 333.367188 C 265.152344 336.410156 258.378906 336.832031 250.199219 334.648438 C 234.5 330.4375 215.90625 317.449219 196.953125 298.441406 C 207.628906 286.722656 218.222656 273.339844 228.40625 258.644531 C 245.757812 257.078125 262.085938 254.542969 277.046875 251.171875 C 287.914062 293.621094 284.9375 324.84375 270.355469 333.367188 Z M 286.972656 234.058594 C 282.402344 219.144531 276.402344 203.441406 269.019531 187.320312 C 276.402344 171.199219 282.402344 155.488281 286.972656 140.578125 C 329.109375 152.195312 354.585938 170.34375 354.585938 187.320312 C 354.585938 204.292969 329.109375 222.441406 286.972656 234.058594 Z M 286.972656 234.058594 "/>
<g clip-path="url(#clip1)" clip-rule="nonzero">
<path style=" stroke:none;fill-rule:nonzero;fill:rgb(12.159729%,12.939453%,16.859436%);fill-opacity:1;" d="M 114.484375 352.554688 C 107.546875 352.554688 101.195312 350.894531 95.613281 347.628906 C 73.765625 334.859375 68.335938 299.121094 80.621094 249.386719 C 31.375 235.371094 3.195312 212.8125 3.195312 187.320312 C 3.195312 161.828125 31.375 139.265625 80.617188 125.25 C 68.335938 75.519531 73.765625 39.777344 95.613281 27.007812 C 104.753906 21.65625 115.765625 20.65625 128.359375 24.035156 C 145.898438 28.734375 166.1875 42.066406 187.144531 62.644531 C 208.105469 42.066406 228.394531 28.734375 245.925781 24.035156 C 258.515625 20.664062 269.535156 21.664062 278.679688 27.007812 C 300.523438 39.777344 305.953125 75.519531 293.667969 125.25 C 342.910156 139.265625 371.09375 161.828125 371.09375 187.320312 C 371.09375 212.8125 342.910156 235.371094 293.667969 249.386719 C 305.953125 299.121094 300.527344 334.855469 278.679688 347.628906 C 269.589844 352.941406 258.464844 353.964844 245.933594 350.605469 C 228.390625 345.902344 208.101562 332.570312 187.144531 311.996094 C 166.1875 332.570312 145.898438 345.90625 128.359375 350.605469 C 123.535156 351.898438 118.875 352.554688 114.511719 352.554688 C 114.503906 352.554688 114.492188 352.554688 114.484375 352.554688 Z M 114.527344 26.808594 C 108.390625 26.808594 102.855469 28.234375 97.984375 31.085938 C 78.0625 42.734375 73.488281 78.332031 85.746094 126.316406 C 86.0625 127.5625 85.324219 128.839844 84.085938 129.179688 C 36.390625 142.339844 7.910156 164.078125 7.910156 187.320312 C 7.910156 210.558594 36.390625 232.296875 84.089844 245.460938 C 85.328125 245.800781 86.066406 247.074219 85.75 248.320312 C 73.488281 296.304688 78.0625 331.910156 97.984375 343.550781 C 102.84375 346.386719 108.394531 347.828125 114.484375 347.828125 C 114.492188 347.828125 114.503906 347.828125 114.511719 347.828125 C 118.464844 347.828125 122.710938 347.226562 127.136719 346.042969 C 144.339844 341.429688 164.519531 327.933594 185.480469 307.003906 C 186.398438 306.085938 187.890625 306.085938 188.808594 307.003906 C 209.769531 327.929688 229.949219 341.425781 247.148438 346.042969 C 258.441406 349.058594 268.304688 348.21875 276.300781 343.550781 C 296.226562 331.90625 300.800781 296.304688 288.539062 248.320312 C 288.222656 247.074219 288.957031 245.800781 290.199219 245.460938 C 337.898438 232.296875 366.375 210.558594 366.375 187.320312 C 366.375 164.078125 337.898438 142.339844 290.199219 129.179688 C 288.957031 128.839844 288.222656 127.5625 288.539062 126.316406 C 300.796875 78.332031 296.222656 42.726562 276.296875 31.085938 C 268.285156 26.398438 258.472656 25.5625 247.144531 28.59375 C 229.941406 33.207031 209.769531 46.703125 188.804688 67.636719 C 187.882812 68.550781 186.394531 68.550781 185.472656 67.636719 C 164.507812 46.703125 144.335938 33.207031 127.132812 28.59375 C 122.695312 27.40625 118.488281 26.808594 114.527344 26.808594 Z M 259.714844 338.375 C 256.585938 338.375 253.210938 337.894531 249.59375 336.925781 C 233.882812 332.710938 215.105469 319.984375 195.285156 300.105469 C 194.398438 299.214844 194.363281 297.777344 195.210938 296.847656 C 205.890625 285.121094 216.40625 271.816406 226.464844 257.296875 C 226.863281 256.722656 227.496094 256.355469 228.191406 256.292969 C 245.230469 254.753906 261.492188 252.257812 276.535156 248.867188 C 277.765625 248.589844 279.019531 249.34375 279.335938 250.585938 C 290.351562 293.652344 287.367188 326.15625 271.542969 335.402344 C 268.152344 337.386719 264.195312 338.375 259.714844 338.375 Z M 200.214844 298.355469 C 218.847656 316.738281 236.308594 328.476562 250.808594 332.367188 C 258.351562 334.382812 264.53125 334.035156 269.167969 331.328125 C 282.632812 323.453125 285 293.21875 275.324219 253.96875 C 261.042969 257.082031 245.71875 259.410156 229.714844 260.894531 C 220.207031 274.546875 210.292969 287.132812 200.214844 298.355469 Z M 114.574219 338.375 C 110.09375 338.375 106.136719 337.386719 102.742188 335.40625 C 86.917969 326.15625 83.929688 293.652344 94.953125 250.585938 C 95.269531 249.347656 96.523438 248.609375 97.753906 248.867188 C 112.789062 252.257812 129.054688 254.753906 146.09375 256.292969 C 146.789062 256.355469 147.425781 256.722656 147.820312 257.296875 C 157.882812 271.816406 168.394531 285.121094 179.078125 296.847656 C 179.925781 297.777344 179.894531 299.214844 179.003906 300.105469 C 159.183594 319.980469 140.40625 332.710938 124.699219 336.925781 C 121.078125 337.890625 117.695312 338.375 114.574219 338.375 Z M 98.960938 253.96875 C 89.289062 293.214844 91.65625 323.453125 105.121094 331.328125 C 109.753906 334.027344 115.933594 334.382812 123.476562 332.367188 C 137.976562 328.476562 155.4375 316.734375 174.074219 298.355469 C 164 287.132812 154.085938 274.546875 144.574219 260.894531 C 128.574219 259.410156 113.242188 257.082031 98.960938 253.96875 Z M 187.144531 290.496094 C 186.480469 290.496094 185.84375 290.210938 185.394531 289.714844 C 177.550781 281.035156 169.78125 271.476562 162.300781 261.308594 C 161.761719 260.574219 161.691406 259.59375 162.121094 258.789062 C 162.550781 257.988281 163.351562 257.496094 164.316406 257.550781 C 179.910156 258.308594 194.378906 258.308594 209.972656 257.550781 C 210.914062 257.492188 211.734375 257.988281 212.164062 258.789062 C 212.59375 259.59375 212.527344 260.570312 211.984375 261.308594 C 204.503906 271.46875 196.738281 281.03125 188.894531 289.714844 C 188.445312 290.210938 187.808594 290.496094 187.144531 290.496094 Z M 169.066406 262.492188 C 174.964844 270.304688 181.03125 277.71875 187.144531 284.601562 C 193.261719 277.71875 199.320312 270.308594 205.222656 262.492188 C 192.902344 262.964844 181.382812 262.964844 169.066406 262.492188 Z M 187.144531 248.6875 C 175.96875 248.6875 164.707031 248.273438 153.660156 247.445312 C 152.9375 247.394531 152.28125 247.011719 151.878906 246.40625 C 145.570312 237.019531 139.679688 227.535156 134.367188 218.226562 C 128.804688 208.464844 123.550781 198.40625 118.757812 188.332031 C 118.449219 187.691406 118.449219 186.945312 118.757812 186.304688 C 123.550781 176.230469 128.804688 166.175781 134.367188 156.414062 C 139.675781 147.113281 145.566406 137.628906 151.882812 128.226562 C 152.28125 127.625 152.941406 127.242188 153.664062 127.1875 C 175.757812 125.535156 198.535156 125.535156 220.621094 127.1875 C 221.34375 127.238281 222 127.621094 222.40625 128.226562 C 228.722656 137.628906 234.613281 147.113281 239.917969 156.414062 C 245.484375 166.175781 250.738281 176.230469 255.53125 186.304688 C 255.835938 186.945312 255.835938 187.691406 255.53125 188.332031 C 250.738281 198.40625 245.484375 208.464844 239.917969 218.226562 C 234.605469 227.535156 228.714844 237.019531 222.410156 246.40625 C 222.007812 247.007812 221.347656 247.390625 220.628906 247.445312 C 209.582031 248.273438 198.316406 248.6875 187.144531 248.6875 Z M 155.15625 242.820312 C 176.28125 244.339844 198.007812 244.339844 219.128906 242.820312 C 225.132812 233.835938 230.746094 224.777344 235.820312 215.878906 C 241.140625 206.546875 246.171875 196.945312 250.785156 187.320312 C 246.171875 177.695312 241.140625 168.085938 235.820312 158.757812 C 230.75 149.871094 225.136719 140.808594 219.121094 131.8125 C 197.996094 130.292969 176.277344 130.292969 155.152344 131.8125 C 149.140625 140.808594 143.523438 149.871094 138.453125 158.757812 C 133.132812 168.089844 128.101562 177.695312 123.488281 187.320312 C 128.101562 196.945312 133.132812 206.550781 138.453125 215.878906 C 143.539062 224.78125 149.152344 233.835938 155.15625 242.820312 Z M 238.5 245.71875 C 237.695312 245.71875 236.9375 245.308594 236.503906 244.617188 C 236.019531 243.84375 236.023438 242.863281 236.507812 242.09375 C 240.886719 235.195312 244.683594 228.917969 248.109375 222.902344 C 251.714844 216.585938 255.316406 209.882812 258.832031 202.988281 C 259.246094 202.171875 260.121094 201.683594 261.015625 201.703125 C 261.929688 201.734375 262.746094 202.292969 263.105469 203.144531 C 267.894531 214.46875 272.039062 225.792969 275.433594 236.796875 C 275.632812 237.425781 275.550781 238.109375 275.222656 238.675781 C 274.890625 239.246094 274.335938 239.652344 273.695312 239.792969 C 262.609375 242.273438 250.859375 244.261719 238.777344 245.703125 C 238.683594 245.714844 238.589844 245.71875 238.5 245.71875 Z M 260.703125 209.652344 C 257.902344 215.023438 255.054688 220.25 252.210938 225.242188 C 249.460938 230.066406 246.472656 235.054688 243.152344 240.390625 C 252.445312 239.152344 261.5 237.589844 270.167969 235.730469 C 267.445312 227.167969 264.273438 218.429688 260.703125 209.652344 Z M 135.789062 245.71875 C 135.695312 245.71875 135.601562 245.714844 135.503906 245.703125 C 123.425781 244.253906 111.675781 242.269531 100.59375 239.789062 C 99.953125 239.648438 99.398438 239.242188 99.066406 238.671875 C 98.734375 238.101562 98.660156 237.417969 98.851562 236.792969 C 102.25 225.785156 106.394531 214.464844 111.183594 203.136719 C 111.539062 202.292969 112.355469 201.730469 113.273438 201.699219 C 114.128906 201.609375 115.039062 202.164062 115.457031 202.980469 C 118.96875 209.878906 122.574219 216.582031 126.175781 222.898438 C 129.609375 228.914062 133.40625 235.191406 137.777344 242.089844 C 138.269531 242.859375 138.269531 243.839844 137.785156 244.613281 C 137.351562 245.308594 136.59375 245.71875 135.789062 245.71875 Z M 104.125 235.730469 C 112.789062 237.589844 121.847656 239.152344 131.136719 240.390625 C 127.8125 235.054688 124.832031 230.066406 122.082031 225.242188 C 119.234375 220.25 116.390625 215.019531 113.585938 209.652344 C 110.011719 218.429688 106.84375 227.167969 104.125 235.730469 Z M 286.972656 236.417969 C 285.957031 236.417969 285.027344 235.761719 284.71875 234.746094 C 280.117188 219.742188 274.113281 204.117188 266.878906 188.304688 C 266.589844 187.683594 266.589844 186.960938 266.878906 186.335938 C 274.113281 170.527344 280.117188 154.898438 284.722656 139.886719 C 285.097656 138.664062 286.390625 137.976562 287.605469 138.304688 C 330.375 150.101562 356.941406 168.878906 356.941406 187.320312 C 356.941406 205.757812 330.371094 224.535156 287.59375 236.335938 C 287.386719 236.390625 287.175781 236.417969 286.972656 236.417969 Z M 271.613281 187.320312 C 278.386719 202.210938 284.082031 216.949219 288.542969 231.164062 C 327.308594 220.105469 352.226562 203 352.226562 187.320312 C 352.226562 171.636719 327.308594 154.535156 288.542969 143.472656 C 284.074219 157.691406 278.382812 172.429688 271.613281 187.320312 Z M 87.316406 236.417969 C 87.109375 236.417969 86.902344 236.390625 86.6875 236.335938 C 43.917969 224.535156 17.34375 205.757812 17.34375 187.320312 C 17.34375 168.878906 43.914062 150.101562 86.6875 138.304688 C 87.90625 137.976562 89.191406 138.664062 89.570312 139.886719 C 94.171875 154.898438 100.179688 170.527344 107.414062 186.335938 C 107.699219 186.960938 107.699219 187.675781 107.414062 188.304688 C 100.171875 204.121094 94.171875 219.746094 89.574219 234.746094 C 89.265625 235.761719 88.328125 236.417969 87.316406 236.417969 Z M 85.746094 143.472656 C 46.980469 154.535156 22.0625 171.636719 22.0625 187.320312 C 22.0625 203 46.980469 220.105469 85.746094 231.164062 C 90.210938 216.949219 95.898438 202.21875 102.671875 187.320312 C 95.90625 172.429688 90.210938 157.691406 85.746094 143.472656 Z M 260.9375 172.953125 C 260.050781 172.953125 259.238281 172.457031 258.832031 171.664062 C 255.261719 164.640625 251.753906 158.121094 248.117188 151.742188 C 244.691406 145.738281 240.894531 139.460938 236.507812 132.550781 C 236.019531 131.78125 236.019531 130.796875 236.503906 130.023438 C 236.988281 129.253906 237.855469 128.828125 238.78125 128.9375 C 250.871094 130.386719 262.621094 132.375 273.703125 134.847656 C 274.34375 134.988281 274.898438 135.394531 275.230469 135.96875 C 275.5625 136.539062 275.636719 137.21875 275.445312 137.847656 C 272.042969 148.875 267.894531 160.199219 263.113281 171.507812 C 262.757812 172.355469 261.941406 172.917969 261.023438 172.949219 C 260.988281 172.953125 260.960938 172.953125 260.9375 172.953125 Z M 252.207031 149.402344 C 255.085938 154.453125 257.890625 159.589844 260.699219 164.988281 C 264.265625 156.226562 267.433594 147.480469 270.15625 138.90625 C 261.492188 137.046875 252.4375 135.484375 243.140625 134.25 C 246.480469 139.59375 249.460938 144.582031 252.207031 149.402344 Z M 113.351562 172.953125 C 113.324219 172.953125 113.296875 172.953125 113.265625 172.953125 C 112.351562 172.921875 111.535156 172.363281 111.175781 171.515625 C 106.398438 160.203125 102.25 148.878906 98.847656 137.851562 C 98.648438 137.222656 98.730469 136.539062 99.058594 135.972656 C 99.390625 135.402344 99.945312 134.996094 100.589844 134.851562 C 111.671875 132.375 123.421875 130.386719 135.511719 128.941406 C 136.429688 128.847656 137.304688 129.257812 137.789062 130.027344 C 138.273438 130.800781 138.269531 131.785156 137.785156 132.554688 C 133.398438 139.464844 129.601562 145.742188 126.175781 151.75 C 122.539062 158.125 119.03125 164.640625 115.460938 171.667969 C 115.050781 172.457031 114.238281 172.953125 113.351562 172.953125 Z M 104.125 138.90625 C 106.847656 147.480469 110.023438 156.226562 113.582031 164.988281 C 116.398438 159.589844 119.195312 154.453125 122.078125 149.402344 C 124.828125 144.582031 127.808594 139.59375 131.136719 134.25 C 121.847656 135.484375 112.789062 137.046875 104.125 138.90625 Z M 277.058594 125.828125 C 276.882812 125.828125 276.714844 125.808594 276.539062 125.769531 C 261.5 122.382812 245.234375 119.882812 228.191406 118.34375 C 227.5 118.285156 226.863281 117.914062 226.464844 117.339844 C 216.40625 102.816406 205.886719 89.515625 195.210938 77.792969 C 194.359375 76.863281 194.394531 75.429688 195.285156 74.535156 C 215.097656 54.664062 233.882812 41.925781 249.59375 37.714844 C 258.40625 35.355469 265.808594 35.886719 271.542969 39.234375 C 287.367188 48.488281 290.359375 80.988281 279.339844 124.058594 C 279.066406 125.113281 278.113281 125.828125 277.058594 125.828125 Z M 229.710938 113.742188 C 245.714844 115.230469 261.042969 117.554688 275.324219 120.667969 C 285 81.425781 282.632812 51.183594 269.160156 43.308594 C 264.542969 40.613281 258.355469 40.257812 250.808594 42.269531 C 236.308594 46.160156 218.84375 57.90625 200.207031 76.289062 C 210.289062 87.5 220.203125 100.085938 229.710938 113.742188 Z M 97.230469 125.828125 C 96.171875 125.828125 95.222656 125.113281 94.949219 124.050781 C 83.929688 80.984375 86.914062 48.488281 102.738281 39.234375 C 102.738281 39.234375 102.738281 39.234375 102.742188 39.234375 C 108.480469 35.886719 115.890625 35.355469 124.691406 37.714844 C 140.40625 41.929688 159.183594 54.664062 178.996094 74.535156 C 179.882812 75.429688 179.917969 76.863281 179.074219 77.792969 C 168.394531 89.515625 157.875 102.824219 147.816406 117.339844 C 147.421875 117.914062 146.789062 118.285156 146.089844 118.34375 C 129.054688 119.882812 112.785156 122.382812 97.746094 125.769531 C 97.574219 125.808594 97.40625 125.828125 97.230469 125.828125 Z M 105.121094 43.308594 C 91.65625 51.183594 89.289062 81.425781 98.957031 120.667969 C 113.238281 117.554688 128.566406 115.230469 144.570312 113.742188 C 154.085938 100.085938 163.996094 87.5 174.070312 76.28125 C 155.433594 57.902344 137.972656 46.15625 123.46875 42.265625 C 115.957031 40.257812 109.757812 40.609375 105.121094 43.308594 Z M 210.085938 117.085938 C 210.046875 117.085938 210.011719 117.085938 209.972656 117.085938 C 194.378906 116.324219 179.914062 116.324219 164.320312 117.085938 C 163.347656 117.109375 162.554688 116.640625 162.125 115.84375 C 161.699219 115.039062 161.761719 114.0625 162.304688 113.328125 C 169.792969 103.152344 177.558594 93.59375 185.398438 84.917969 C 186.292969 83.929688 188.003906 83.929688 188.898438 84.917969 C 196.734375 93.589844 204.5 103.148438 211.992188 113.328125 C 212.527344 114.058594 212.597656 115.039062 212.171875 115.84375 C 211.75 116.609375 210.949219 117.085938 210.085938 117.085938 Z M 187.144531 111.789062 C 193 111.789062 199.0625 111.910156 205.222656 112.152344 C 199.316406 104.328125 193.25 96.914062 187.144531 90.039062 C 181.035156 96.917969 174.96875 104.328125 169.066406 112.152344 C 175.226562 111.910156 181.285156 111.789062 187.144531 111.789062 Z M 187.144531 111.789062 "/>
</g>
</g>
</svg>
