<?xml version="1.0" encoding="UTF-8"?>
<svg xmlns="http://www.w3.org/2000/svg" xmlns:xlink="http://www.w3.org/1999/xlink" width="375pt" height="374.999991pt" viewBox="0 0 375 374.999991" version="1.2">
<defs>
<clipPath id="clip1">
  <path d="M 3.074219 27.742188 L 372 27.742188 L 372 347.242188 L 3.074219 347.242188 Z M 3.074219 27.742188 "/>
</clipPath>
</defs>
<g id="surface1">
<g clip-path="url(#clip1)" clip-rule="nonzero">
<path style=" stroke:none;fill-rule:nonzero;fill:rgb(100%,100%,100%);fill-opacity:1;" d="M 187.574219 27.742188 C 121.207031 27.742188 64.25 68.351562 40.046875 126.050781 L 67.324219 126.050781 C 81.347656 98.59375 104.496094 76.609375 132.734375 64.03125 C 121.976562 80.449219 113.332031 101.472656 107.953125 126.050781 L 133.40625 126.050781 C 144.546875 80.929688 166.828125 52.320312 187.574219 52.320312 C 208.320312 52.320312 230.605469 80.929688 241.746094 126.050781 L 267.199219 126.050781 C 261.820312 101.472656 253.175781 80.449219 242.417969 64.03125 C 270.65625 76.609375 293.804688 98.59375 307.828125 126.050781 L 335.105469 126.050781 C 310.898438 68.351562 253.945312 27.742188 187.574219 27.742188 Z M 3.167969 150.628906 L 27.179688 248.933594 L 50.421875 248.933594 L 64.636719 186.246094 L 78.851562 248.933594 L 102.09375 248.933594 L 126.105469 150.628906 L 101.519531 150.628906 L 89.800781 209.765625 L 76.929688 150.628906 L 52.34375 150.628906 L 39.472656 209.765625 L 27.753906 150.628906 Z M 126.105469 150.628906 L 150.117188 248.933594 L 173.359375 248.933594 L 187.574219 186.246094 L 201.789062 248.933594 L 225.035156 248.933594 L 249.046875 150.628906 L 224.457031 150.628906 L 212.742188 209.765625 L 199.871094 150.628906 L 175.28125 150.628906 L 162.410156 209.765625 L 150.695312 150.628906 Z M 249.046875 150.628906 L 273.152344 248.933594 L 296.300781 248.933594 L 310.515625 186.246094 L 324.730469 248.933594 L 347.878906 248.933594 L 371.984375 150.628906 L 347.398438 150.628906 L 335.777344 209.765625 L 322.808594 150.628906 L 298.222656 150.628906 L 285.253906 209.765625 L 273.632812 150.628906 Z M 53.109375 273.511719 C 81.539062 317.769531 131.101562 347.242188 187.574219 347.242188 C 244.050781 347.242188 293.613281 317.769531 322.042969 273.511719 L 291.785156 273.511719 C 278.53125 289.449219 261.628906 302.21875 242.515625 310.761719 C 249.429688 300.199219 255.578125 287.71875 260.378906 273.511719 L 233.871094 273.511719 C 221.769531 304.042969 204.289062 322.664062 187.574219 322.664062 C 170.863281 322.664062 153.382812 304.042969 141.28125 273.511719 L 114.773438 273.511719 C 119.574219 287.71875 125.722656 300.199219 132.636719 310.761719 C 113.523438 302.21875 96.621094 289.449219 83.363281 273.511719 Z M 53.109375 273.511719 "/>
</g>
</g>
</svg>
