<?xml version="1.0" encoding="UTF-8"?>
<svg xmlns="http://www.w3.org/2000/svg" xmlns:xlink="http://www.w3.org/1999/xlink" width="375pt" height="374.999991pt" viewBox="0 0 375 374.999991" version="1.2">
<defs>
<clipPath id="clip1">
  <path d="M 56 35.628906 L 318 35.628906 L 318 112 L 56 112 Z M 56 35.628906 "/>
</clipPath>
<clipPath id="clip2">
  <path d="M 56 263 L 318 263 L 318 339.378906 L 56 339.378906 Z M 56 263 "/>
</clipPath>
<clipPath id="clip3">
  <path d="M 5.074219 141 L 112 141 L 112 234 L 5.074219 234 Z M 5.074219 141 "/>
</clipPath>
<clipPath id="clip4">
  <path d="M 263 141 L 369.574219 141 L 369.574219 234 L 263 234 Z M 263 141 "/>
</clipPath>
</defs>
<g id="surface1">
<g clip-path="url(#clip1)" clip-rule="nonzero">
<path style=" stroke:none;fill-rule:nonzero;fill:rgb(16.079712%,88.238525%,54.899597%);fill-opacity:1;" d="M 93.253906 111.566406 C 106.910156 94.863281 125.117188 81.191406 144.839844 73.597656 C 140.289062 84.230469 137.253906 97.898438 134.21875 111.566406 L 166.082031 111.566406 C 172.152344 81.191406 182.773438 66.003906 187.324219 66.003906 C 191.875 66.003906 202.496094 81.191406 210.082031 111.566406 L 241.945312 111.566406 C 238.910156 97.898438 235.878906 84.230469 229.808594 73.597656 C 249.53125 81.191406 267.738281 94.863281 281.394531 111.566406 L 317.808594 111.566406 C 292.015625 66.003906 241.945312 35.628906 187.324219 35.628906 C 132.703125 35.628906 82.632812 66.003906 56.839844 111.566406 Z M 93.253906 111.566406 "/>
</g>
<g clip-path="url(#clip2)" clip-rule="nonzero">
<path style=" stroke:none;fill-rule:nonzero;fill:rgb(16.079712%,88.238525%,54.899597%);fill-opacity:1;" d="M 281.394531 263.441406 C 267.738281 280.148438 249.53125 293.816406 229.808594 301.410156 C 234.359375 290.78125 238.910156 277.113281 241.945312 263.441406 L 210.082031 263.441406 C 202.496094 293.816406 193.394531 309.003906 187.324219 309.003906 C 181.253906 309.003906 172.152344 293.816406 164.566406 263.441406 L 134.21875 263.441406 C 137.253906 277.113281 140.289062 290.78125 146.359375 301.410156 C 125.117188 293.816406 106.910156 280.148438 93.253906 263.441406 L 56.839844 263.441406 C 82.632812 309.003906 132.703125 339.378906 187.324219 339.378906 C 241.945312 339.378906 292.015625 309.003906 317.808594 263.441406 Z M 281.394531 263.441406 "/>
</g>
<g clip-path="url(#clip3)" clip-rule="nonzero">
<path style=" stroke:none;fill-rule:nonzero;fill:rgb(16.079712%,88.238525%,54.899597%);fill-opacity:1;" d="M 81.113281 199.65625 L 90.21875 141.941406 L 111.460938 141.941406 L 91.734375 233.066406 L 72.011719 233.066406 L 59.875 179.910156 L 46.21875 233.066406 L 24.976562 233.066406 L 5.25 141.941406 L 26.492188 141.941406 L 37.113281 199.65625 L 49.253906 141.941406 L 67.460938 141.941406 Z M 81.113281 199.65625 "/>
</g>
<path style=" stroke:none;fill-rule:nonzero;fill:rgb(16.079712%,88.238525%,54.899597%);fill-opacity:1;" d="M 208.566406 199.65625 L 219.1875 141.941406 L 240.429688 141.941406 L 220.703125 233.066406 L 199.460938 233.066406 L 187.324219 179.910156 L 175.1875 233.066406 L 152.425781 233.066406 L 134.21875 141.941406 L 155.460938 141.941406 L 166.082031 199.65625 L 178.222656 141.941406 L 196.429688 141.941406 Z M 208.566406 199.65625 "/>
<g clip-path="url(#clip4)" clip-rule="nonzero">
<path style=" stroke:none;fill-rule:nonzero;fill:rgb(16.079712%,88.238525%,54.899597%);fill-opacity:1;" d="M 337.535156 199.65625 L 348.15625 141.941406 L 369.398438 141.941406 L 349.671875 233.066406 L 328.429688 233.066406 L 316.292969 179.910156 L 304.15625 233.066406 L 282.914062 233.066406 L 263.1875 141.941406 L 284.429688 141.941406 L 295.050781 199.65625 L 307.1875 141.941406 L 325.398438 141.941406 Z M 337.535156 199.65625 "/>
</g>
</g>
</svg>
