<?xml version="1.0" encoding="UTF-8"?>
<svg xmlns="http://www.w3.org/2000/svg" xmlns:xlink="http://www.w3.org/1999/xlink" width="375pt" height="374.999991pt" viewBox="0 0 375 374.999991" version="1.2">
<defs>
<clipPath id="clip1">
  <path d="M 51.640625 6.050781 L 323.140625 6.050781 L 323.140625 369 L 51.640625 369 Z M 51.640625 6.050781 "/>
</clipPath>
</defs>
<g id="surface1">
<g clip-path="url(#clip1)" clip-rule="nonzero">
<path style=" stroke:none;fill-rule:nonzero;fill:rgb(16.079712%,88.238525%,54.899597%);fill-opacity:1;" d="M 311.136719 356.710938 L 63.710938 356.710938 L 63.710938 18.398438 L 232.683594 18.398438 L 232.683594 96.9375 L 311.136719 96.9375 Z M 235.703125 6.316406 L 51.640625 6.316406 L 51.640625 368.792969 L 323.207031 368.792969 L 323.207031 96.9375 L 235.703125 6.316406 "/>
</g>
<path style=" stroke:none;fill-rule:nonzero;fill:rgb(16.079712%,88.238525%,54.899597%);fill-opacity:1;" d="M 274.929688 175.472656 L 105.953125 175.472656 L 105.953125 163.386719 L 274.929688 163.386719 L 274.929688 175.472656 "/>
<path style=" stroke:none;fill-rule:nonzero;fill:rgb(16.079712%,88.238525%,54.899597%);fill-opacity:1;" d="M 274.929688 320.460938 L 105.953125 320.460938 L 105.953125 308.382812 L 274.929688 308.382812 L 274.929688 320.460938 "/>
<path style=" stroke:none;fill-rule:nonzero;fill:rgb(16.079712%,88.238525%,54.899597%);fill-opacity:1;" d="M 274.929688 247.964844 L 105.953125 247.964844 L 105.953125 235.882812 L 274.929688 235.882812 L 274.929688 247.964844 "/>
<path style=" stroke:none;fill-rule:nonzero;fill:rgb(16.079712%,88.238525%,54.899597%);fill-opacity:1;" d="M 274.929688 211.722656 L 105.953125 211.722656 L 105.953125 199.632812 L 274.929688 199.632812 L 274.929688 211.722656 "/>
<path style=" stroke:none;fill-rule:nonzero;fill:rgb(16.079712%,88.238525%,54.899597%);fill-opacity:1;" d="M 274.929688 284.214844 L 105.953125 284.214844 L 105.953125 272.132812 L 274.929688 272.132812 L 274.929688 284.214844 "/>
<path style=" stroke:none;fill-rule:nonzero;fill:rgb(16.079712%,88.238525%,54.899597%);fill-opacity:1;" d="M 140.582031 90.746094 L 148.472656 92.738281 C 146.816406 99.226562 143.839844 104.175781 139.546875 107.574219 C 135.25 110.980469 129.992188 112.683594 123.789062 112.683594 C 117.363281 112.683594 112.140625 111.375 108.113281 108.753906 C 104.085938 106.136719 101.023438 102.347656 98.921875 97.378906 C 96.820312 92.414062 95.769531 87.082031 95.769531 81.382812 C 95.769531 75.167969 96.960938 69.75 99.328125 65.117188 C 101.699219 60.492188 105.074219 56.980469 109.453125 54.578125 C 113.832031 52.179688 118.652344 50.976562 123.910156 50.976562 C 129.871094 50.976562 134.886719 52.496094 138.953125 55.535156 C 143.019531 58.578125 145.855469 62.851562 147.453125 68.359375 L 139.6875 70.1875 C 138.304688 65.847656 136.296875 62.683594 133.667969 60.703125 C 131.042969 58.726562 127.734375 57.730469 123.75 57.730469 C 119.167969 57.730469 115.332031 58.828125 112.261719 61.027344 C 109.183594 63.230469 107.019531 66.179688 105.777344 69.886719 C 104.523438 73.585938 103.90625 77.40625 103.90625 81.34375 C 103.90625 86.417969 104.640625 90.84375 106.121094 94.632812 C 107.597656 98.417969 109.894531 101.246094 113.011719 103.121094 C 116.128906 104.992188 119.503906 105.925781 123.136719 105.925781 C 127.558594 105.925781 131.292969 104.652344 134.359375 102.105469 C 137.421875 99.550781 139.496094 95.765625 140.582031 90.746094 "/>
<path style=" stroke:none;fill-rule:nonzero;fill:rgb(16.079712%,88.238525%,54.899597%);fill-opacity:1;" d="M 175.222656 109.019531 L 152.132812 54.644531 L 160.667969 54.644531 L 176.164062 96.671875 C 177.40625 100.144531 178.449219 102.734375 179.296875 105.777344 C 180.210938 102.523438 181.289062 100.257812 182.503906 97 L 198.609375 54.644531 L 206.65625 54.644531 L 183.316406 109.019531 L 175.222656 109.019531 "/>
</g>
</svg>
