<?xml version="1.0" encoding="UTF-8"?>
<svg xmlns="http://www.w3.org/2000/svg" xmlns:xlink="http://www.w3.org/1999/xlink" width="375pt" height="374.999991pt" viewBox="0 0 375 374.999991" version="1.2">
<defs>
<clipPath id="clip1">
  <path d="M 27 8.191406 L 349 8.191406 L 349 365 L 27 365 Z M 27 8.191406 "/>
</clipPath>
</defs>
<g id="surface1">
<g clip-path="url(#clip1)" clip-rule="nonzero">
<path style=" stroke:none;fill-rule:nonzero;fill:rgb(100%,100%,100%);fill-opacity:1;" d="M 91.1875 14 L 279.460938 122.585938 L 225.15625 176.636719 L 57.882812 10.171875 C 61.789062 8.988281 65.777344 8.375 69.855469 8.339844 C 73.597656 8.339844 77.277344 8.820312 80.890625 9.78125 C 84.507812 10.742188 87.9375 12.148438 91.1875 14 Z M 27.246094 322.570312 L 27.246094 50.886719 C 27.28125 47.753906 27.65625 44.664062 28.378906 41.613281 C 29.097656 38.5625 30.144531 35.628906 31.511719 32.808594 C 32.882812 29.992188 34.546875 27.355469 36.503906 24.90625 C 38.457031 22.453125 40.65625 20.246094 43.101562 18.28125 L 213.671875 188.105469 L 44.5625 356.375 C 43.238281 355.402344 41.976562 354.355469 40.773438 353.238281 C 39.570312 352.117188 38.433594 350.929688 37.371094 349.679688 C 36.304688 348.429688 35.316406 347.121094 34.402344 345.753906 C 33.488281 344.390625 32.65625 342.976562 31.90625 341.515625 C 31.160156 340.050781 30.496094 338.550781 29.921875 337.011719 C 29.347656 335.472656 28.863281 333.90625 28.472656 332.3125 C 28.082031 330.71875 27.78125 329.105469 27.578125 327.476562 C 27.371094 325.847656 27.261719 324.210938 27.246094 322.570312 Z M 91.1875 359.441406 C 88.84375 360.75 86.398438 361.835938 83.851562 362.691406 C 81.304688 363.550781 78.703125 364.164062 76.042969 364.539062 C 73.382812 364.914062 70.710938 365.042969 68.027344 364.921875 C 65.34375 364.800781 62.691406 364.433594 60.078125 363.820312 L 225.15625 199.609375 L 277.753906 251.941406 Z M 326.8125 223.617188 L 292.328125 243.488281 L 236.65625 188.074219 L 294.046875 130.972656 L 326.8125 149.855469 C 327.617188 150.320312 328.40625 150.8125 329.179688 151.328125 C 329.953125 151.847656 330.707031 152.386719 331.445312 152.953125 C 332.183594 153.519531 332.902344 154.109375 333.601562 154.722656 C 334.300781 155.335938 334.976562 155.972656 335.636719 156.628906 C 336.292969 157.289062 336.925781 157.964844 337.539062 158.664062 C 338.152344 159.363281 338.742188 160.082031 339.308594 160.820312 C 339.875 161.558594 340.414062 162.3125 340.929688 163.085938 C 341.449219 163.855469 341.9375 164.644531 342.402344 165.449219 C 342.867188 166.253906 343.304688 167.074219 343.714844 167.910156 C 344.128906 168.742188 344.511719 169.585938 344.867188 170.445312 C 345.222656 171.304688 345.550781 172.171875 345.847656 173.054688 C 346.148438 173.933594 346.417969 174.820312 346.65625 175.71875 C 346.898438 176.617188 347.109375 177.519531 347.289062 178.433594 C 347.46875 179.34375 347.621094 180.257812 347.742188 181.179688 C 347.863281 182.101562 347.957031 183.027344 348.015625 183.953125 C 348.078125 184.878906 348.109375 185.808594 348.109375 186.738281 C 348.109375 187.664062 348.078125 188.59375 348.015625 189.519531 C 347.957031 190.449219 347.863281 191.371094 347.742188 192.292969 C 347.621094 193.214844 347.46875 194.128906 347.289062 195.039062 C 347.109375 195.953125 346.898438 196.855469 346.65625 197.753906 C 346.417969 198.652344 346.148438 199.539062 345.847656 200.417969 C 345.550781 201.300781 345.222656 202.167969 344.867188 203.027344 C 344.511719 203.886719 344.128906 204.730469 343.714844 205.566406 C 343.304688 206.398438 342.867188 207.21875 342.402344 208.023438 C 341.9375 208.828125 341.449219 209.617188 340.929688 210.386719 C 340.414062 211.160156 339.875 211.917969 339.308594 212.652344 C 338.742188 213.390625 338.152344 214.109375 337.539062 214.808594 C 336.925781 215.507812 336.292969 216.183594 335.636719 216.84375 C 334.976562 217.5 334.300781 218.136719 333.601562 218.75 C 332.902344 219.363281 332.183594 219.953125 331.445312 220.519531 C 330.707031 221.085938 329.953125 221.625 329.179688 222.144531 C 328.40625 222.660156 327.617188 223.152344 326.8125 223.617188 Z M 326.8125 223.617188 "/>
</g>
</g>
</svg>
