<?xml version="1.0" encoding="UTF-8"?>
<svg xmlns="http://www.w3.org/2000/svg" xmlns:xlink="http://www.w3.org/1999/xlink" width="375pt" height="374.999991pt" viewBox="0 0 375 374.999991" version="1.2">
<defs>
<clipPath id="clip1">
  <path d="M 180 77.550781 L 374 77.550781 L 374 297.300781 L 180 297.300781 Z M 180 77.550781 "/>
</clipPath>
</defs>
<g id="surface1">
<g clip-path="url(#clip1)" clip-rule="nonzero">
<path style=" stroke:none;fill-rule:nonzero;fill:rgb(16.079712%,88.238525%,54.899597%);fill-opacity:1;" d="M 190.351562 77.550781 L 293.75 180.257812 L 322.097656 151.894531 L 196.765625 79.488281 C 194.675781 78.277344 192.4375 77.605469 190.351562 77.550781 Z M 181.695312 82.328125 C 180.765625 83.988281 180.203125 85.945312 180.203125 88.148438 L 180.203125 287.746094 C 180.203125 289.351562 180.539062 290.785156 181.097656 292.074219 L 286.886719 186.976562 Z M 330.75 156.820312 L 300.460938 186.976562 L 330.75 216.984375 L 367.753906 195.785156 C 373.011719 192.742188 373.757812 188.878906 373.722656 186.828125 C 373.664062 183.429688 371.519531 180.257812 367.902344 178.316406 C 364.75 176.621094 341.34375 162.980469 330.75 156.820312 Z M 293.75 193.695312 L 189.453125 297.148438 C 191.1875 297.058594 193.074219 296.683594 194.828125 295.65625 C 198.910156 293.289062 281.511719 245.496094 281.511719 245.496094 L 322.246094 222.058594 Z M 293.75 193.695312 "/>
</g>
<path style=" stroke:none;fill-rule:nonzero;fill:rgb(16.079712%,88.238525%,54.899597%);fill-opacity:1;" d="M 91.453125 172.453125 L 91.453125 205.0625 L 137.925781 205.0625 C 131.847656 224.820312 115.332031 238.960938 91.453125 238.960938 C 63.015625 238.960938 39.964844 215.910156 39.964844 187.480469 C 39.964844 159.050781 63.015625 136 91.453125 136 C 104.238281 136 115.914062 140.6875 124.917969 148.402344 L 148.933594 124.386719 C 133.769531 110.566406 113.59375 102.136719 91.453125 102.136719 C 44.308594 102.136719 6.09375 140.34375 6.09375 187.480469 C 6.09375 234.617188 44.308594 272.824219 91.453125 272.824219 C 163.109375 272.824219 178.925781 205.832031 171.898438 172.5625 Z M 91.453125 172.453125 "/>
</g>
</svg>
