<?xml version="1.0" encoding="UTF-8"?>
<svg xmlns="http://www.w3.org/2000/svg" xmlns:xlink="http://www.w3.org/1999/xlink" width="375pt" height="374.999991pt" viewBox="0 0 375 374.999991" version="1.2">
<defs>
<clipPath id="clip1">
  <path d="M 5.523438 5.523438 L 369.273438 5.523438 L 369.273438 369.273438 L 5.523438 369.273438 Z M 5.523438 5.523438 "/>
</clipPath>
</defs>
<g id="surface1">
<g clip-path="url(#clip1)" clip-rule="nonzero">
<path style=" stroke:none;fill-rule:nonzero;fill:rgb(16.079712%,88.238525%,54.899597%);fill-opacity:1;" d="M 187.613281 5.523438 C 87.472656 5.523438 5.949219 86.972656 5.914062 187.113281 C 5.894531 219.125 14.28125 250.375 30.175781 277.910156 L 5.523438 369.273438 L 100.6875 346.789062 C 127.222656 361.265625 157.09375 368.863281 187.503906 368.882812 L 187.574219 368.882812 C 287.699219 368.882812 369.183594 287.414062 369.238281 187.292969 C 369.273438 138.75 350.398438 93.109375 316.097656 58.769531 C 281.792969 24.453125 236.207031 5.542969 187.613281 5.523438 Z M 187.574219 41.898438 C 226.425781 41.917969 262.933594 57.0625 290.378906 84.488281 C 317.824219 111.953125 332.898438 148.445312 332.863281 187.257812 C 332.828125 267.355469 267.675781 332.507812 187.539062 332.507812 C 163.296875 332.488281 139.28125 326.402344 118.128906 314.851562 L 105.875 308.175781 L 92.339844 311.371094 L 56.535156 319.824219 L 65.273438 287.359375 L 69.214844 272.792969 L 61.683594 259.722656 C 48.988281 237.75 42.269531 212.632812 42.289062 187.113281 C 42.324219 107.050781 107.496094 41.898438 187.574219 41.898438 Z M 123.316406 103.28125 C 120.277344 103.28125 115.367188 104.417969 111.203125 108.964844 C 107.039062 113.492188 95.289062 124.460938 95.289062 146.796875 C 95.289062 169.128906 111.558594 190.71875 113.832031 193.757812 C 116.085938 196.777344 145.234375 244.054688 191.375 262.242188 C 229.714844 277.359375 237.503906 274.375 245.832031 273.609375 C 254.164062 272.867188 272.707031 262.652344 276.488281 252.050781 C 280.273438 241.445312 280.28125 232.324219 279.152344 230.453125 C 278.023438 228.558594 274.996094 227.433594 270.449219 225.160156 C 265.921875 222.886719 243.605469 211.925781 239.4375 210.417969 C 235.273438 208.90625 232.226562 208.144531 229.207031 212.691406 C 226.1875 217.238281 217.511719 227.433594 214.855469 230.453125 C 212.203125 233.488281 209.5625 233.898438 205.015625 231.625 C 200.46875 229.332031 185.851562 224.527344 168.5 209.066406 C 155.003906 197.046875 145.898438 182.210938 143.242188 177.664062 C 140.605469 173.136719 142.996094 170.648438 145.269531 168.394531 C 147.304688 166.355469 149.78125 163.09375 152.054688 160.4375 C 154.308594 157.78125 155.089844 155.890625 156.601562 152.871094 C 158.109375 149.851562 157.335938 147.1875 156.210938 144.914062 C 155.082031 142.640625 146.25 120.222656 142.214844 111.238281 C 138.8125 103.691406 135.21875 103.515625 131.984375 103.386719 C 129.347656 103.277344 126.335938 103.28125 123.316406 103.28125 Z M 123.316406 103.28125 "/>
</g>
</g>
</svg>
