<?xml version="1.0" encoding="UTF-8"?>
<svg xmlns="http://www.w3.org/2000/svg" xmlns:xlink="http://www.w3.org/1999/xlink" width="375pt" height="374.999991pt" viewBox="0 0 375 374.999991" version="1.2">
<defs>
<clipPath id="clip1">
  <path d="M 63 78.695312 L 315 78.695312 L 315 198 L 63 198 Z M 63 78.695312 "/>
</clipPath>
<clipPath id="clip2">
  <path d="M 50.136719 219 L 324.414062 219 L 324.414062 244 L 50.136719 244 Z M 50.136719 219 "/>
</clipPath>
<clipPath id="clip3">
  <path d="M 50.136719 241 L 324.414062 241 L 324.414062 270 L 50.136719 270 Z M 50.136719 241 "/>
</clipPath>
</defs>
<g id="surface1">
<path style=" stroke:none;fill-rule:nonzero;fill:rgb(97.648621%,68.629456%,25.878906%);fill-opacity:1;" d="M 315.292969 281.988281 C 315.292969 288.808594 311.011719 295.855469 307.417969 295.855469 L 69.238281 295.855469 C 65.644531 295.855469 62.683594 288.808594 62.683594 281.988281 L 62.683594 280.21875 C 62.683594 273.398438 65.644531 266.183594 69.238281 266.183594 L 307.417969 266.183594 C 311.011719 266.183594 315.292969 273.398438 315.292969 280.21875 Z M 315.292969 281.988281 "/>
<g clip-path="url(#clip1)" clip-rule="nonzero">
<path style=" stroke:none;fill-rule:nonzero;fill:rgb(97.648621%,68.629456%,25.878906%);fill-opacity:1;" d="M 74.769531 197.300781 C 67.902344 197.300781 62.6875 191.691406 63.183594 184.839844 C 63.183594 184.839844 70.601562 82.335938 187.160156 79.003906 C 303.714844 75.671875 314.179688 184.863281 314.179688 184.863281 C 314.835938 191.707031 309.753906 197.304688 302.882812 197.304688 Z M 74.769531 197.300781 "/>
</g>
<path style=" stroke:none;fill-rule:nonzero;fill:rgb(68.629456%,12.159729%,26.269531%);fill-opacity:1;" d="M 301.605469 203.398438 C 301.605469 206.617188 298.082031 210.265625 294.871094 210.265625 L 81.734375 210.265625 C 78.519531 210.265625 75.226562 206.617188 75.226562 203.398438 L 75.226562 202.5625 C 75.226562 199.34375 78.519531 197.144531 81.734375 197.144531 L 294.871094 197.144531 C 298.085938 197.144531 301.605469 199.34375 301.605469 202.5625 Z M 301.605469 203.398438 "/>
<g clip-path="url(#clip2)" clip-rule="nonzero">
<path style=" stroke:none;fill-rule:nonzero;fill:rgb(37.649536%,22.749329%,8.628845%);fill-opacity:1;" d="M 324.414062 233.898438 C 324.414062 240.734375 320.679688 243.359375 316.738281 243.359375 L 55.832031 243.359375 C 51.894531 243.359375 50.136719 240.738281 50.136719 233.898438 L 50.136719 232.125 C 50.136719 225.292969 51.894531 219.394531 55.832031 219.394531 L 316.738281 219.394531 C 320.679688 219.394531 324.414062 225.292969 324.414062 232.125 Z M 324.414062 233.898438 "/>
</g>
<g clip-path="url(#clip3)" clip-rule="nonzero">
<path style=" stroke:none;fill-rule:nonzero;fill:rgb(37.649536%,22.749329%,8.628845%);fill-opacity:1;" d="M 324.414062 258.375 C 324.414062 265.210938 320.679688 269.609375 316.738281 269.609375 L 55.832031 269.609375 C 51.894531 269.609375 50.136719 265.210938 50.136719 258.375 L 50.136719 256.605469 C 50.136719 249.769531 51.894531 241.648438 55.832031 241.648438 L 316.738281 241.648438 C 320.679688 241.648438 324.414062 249.769531 324.414062 256.605469 Z M 324.414062 258.375 "/>
</g>
<path style=" stroke:none;fill-rule:nonzero;fill:rgb(96.859741%,83.918762%,19.999695%);fill-opacity:1;" d="M 59.914062 241.648438 C 68.066406 247.355469 112.90625 284.484375 119.023438 282.441406 C 125.136719 280.402344 196.476562 241.648438 196.476562 241.648438 Z M 59.914062 241.648438 "/>
<path style=" stroke:none;fill-rule:nonzero;fill:rgb(96.859741%,83.918762%,19.999695%);fill-opacity:1;" d="M 181.277344 217.683594 C 189.429688 221.109375 234.269531 260.519531 240.386719 258.476562 C 246.5 256.4375 317.839844 217.683594 317.839844 217.683594 Z M 181.277344 217.683594 "/>
<path style=" stroke:none;fill-rule:nonzero;fill:rgb(22.349548%,70.979309%,29.019165%);fill-opacity:1;" d="M 322.703125 214.308594 C 322.703125 216.246094 319.414062 219.394531 315.570312 219.394531 L 60.980469 219.394531 C 57.136719 219.394531 53.558594 216.246094 53.558594 214.308594 L 53.558594 213.8125 C 53.558594 211.875 57.136719 210.265625 60.980469 210.265625 L 315.570312 210.265625 C 319.414062 210.265625 322.703125 211.875 322.703125 213.8125 Z M 322.703125 214.308594 "/>
<path style=" stroke:none;fill-rule:nonzero;fill:rgb(100%,100%,100%);fill-opacity:0.498;" d="M 105.527344 154.847656 C 105.527344 155.308594 105.480469 155.75 105.390625 156.175781 C 105.296875 156.597656 105.167969 156.972656 104.996094 157.300781 C 104.828125 157.625 104.632812 157.875 104.410156 158.050781 C 104.1875 158.226562 103.957031 158.316406 103.71875 158.316406 C 103.476562 158.316406 103.246094 158.226562 103.027344 158.050781 C 102.804688 157.875 102.609375 157.625 102.4375 157.300781 C 102.269531 156.972656 102.136719 156.597656 102.046875 156.175781 C 101.953125 155.75 101.910156 155.308594 101.910156 154.847656 C 101.910156 154.386719 101.953125 153.945312 102.046875 153.519531 C 102.136719 153.09375 102.269531 152.71875 102.4375 152.394531 C 102.609375 152.070312 102.804688 151.820312 103.027344 151.644531 C 103.246094 151.46875 103.476562 151.378906 103.71875 151.378906 C 103.957031 151.378906 104.1875 151.46875 104.410156 151.644531 C 104.632812 151.820312 104.828125 152.070312 104.996094 152.394531 C 105.167969 152.71875 105.296875 153.09375 105.390625 153.519531 C 105.480469 153.945312 105.527344 154.386719 105.527344 154.847656 Z M 105.527344 154.847656 "/>
<path style=" stroke:none;fill-rule:nonzero;fill:rgb(100%,100%,100%);fill-opacity:0.498;" d="M 204.535156 154.847656 C 204.535156 155.308594 204.488281 155.75 204.398438 156.175781 C 204.304688 156.597656 204.175781 156.972656 204.003906 157.300781 C 203.835938 157.625 203.640625 157.875 203.417969 158.050781 C 203.195312 158.226562 202.964844 158.316406 202.722656 158.316406 C 202.484375 158.316406 202.253906 158.226562 202.03125 158.050781 C 201.808594 157.875 201.613281 157.625 201.445312 157.300781 C 201.273438 156.972656 201.144531 156.597656 201.050781 156.175781 C 200.960938 155.75 200.914062 155.308594 200.914062 154.847656 C 200.914062 154.386719 200.960938 153.945312 201.050781 153.519531 C 201.144531 153.09375 201.273438 152.71875 201.445312 152.394531 C 201.613281 152.070312 201.808594 151.820312 202.03125 151.644531 C 202.253906 151.46875 202.484375 151.378906 202.722656 151.378906 C 202.964844 151.378906 203.195312 151.46875 203.417969 151.644531 C 203.640625 151.820312 203.835938 152.070312 204.003906 152.394531 C 204.175781 152.71875 204.304688 153.09375 204.398438 153.519531 C 204.488281 153.945312 204.535156 154.386719 204.535156 154.847656 Z M 204.535156 154.847656 "/>
<path style=" stroke:none;fill-rule:nonzero;fill:rgb(100%,100%,100%);fill-opacity:0.498;" d="M 127.945312 160.453125 C 127.945312 160.914062 127.898438 161.355469 127.804688 161.78125 C 127.714844 162.207031 127.582031 162.582031 127.414062 162.90625 C 127.246094 163.230469 127.046875 163.484375 126.828125 163.660156 C 126.605469 163.835938 126.375 163.921875 126.132812 163.921875 C 125.894531 163.921875 125.664062 163.835938 125.441406 163.660156 C 125.21875 163.484375 125.023438 163.230469 124.855469 162.90625 C 124.683594 162.582031 124.554688 162.207031 124.460938 161.78125 C 124.371094 161.355469 124.324219 160.914062 124.324219 160.453125 C 124.324219 159.996094 124.371094 159.550781 124.460938 159.125 C 124.554688 158.703125 124.683594 158.328125 124.855469 158 C 125.023438 157.675781 125.21875 157.425781 125.441406 157.25 C 125.664062 157.074219 125.894531 156.984375 126.132812 156.984375 C 126.375 156.984375 126.605469 157.074219 126.828125 157.25 C 127.046875 157.425781 127.246094 157.675781 127.414062 158 C 127.582031 158.328125 127.714844 158.703125 127.804688 159.125 C 127.898438 159.550781 127.945312 159.996094 127.945312 160.453125 Z M 127.945312 160.453125 "/>
<path style=" stroke:none;fill-rule:nonzero;fill:rgb(100%,100%,100%);fill-opacity:0.498;" d="M 180.25 160.453125 C 180.25 160.914062 180.203125 161.355469 180.113281 161.78125 C 180.019531 162.207031 179.890625 162.582031 179.71875 162.90625 C 179.550781 163.230469 179.355469 163.484375 179.132812 163.660156 C 178.910156 163.835938 178.679688 163.921875 178.441406 163.921875 C 178.199219 163.921875 177.96875 163.835938 177.746094 163.660156 C 177.523438 163.484375 177.328125 163.230469 177.160156 162.90625 C 176.992188 162.582031 176.859375 162.207031 176.769531 161.78125 C 176.675781 161.355469 176.628906 160.914062 176.628906 160.453125 C 176.628906 159.996094 176.675781 159.550781 176.769531 159.125 C 176.859375 158.703125 176.992188 158.328125 177.160156 158 C 177.328125 157.675781 177.523438 157.425781 177.746094 157.25 C 177.96875 157.074219 178.199219 156.984375 178.441406 156.984375 C 178.679688 156.984375 178.910156 157.074219 179.132812 157.25 C 179.355469 157.425781 179.550781 157.675781 179.71875 158 C 179.890625 158.328125 180.019531 158.703125 180.113281 159.125 C 180.203125 159.550781 180.25 159.996094 180.25 160.453125 Z M 180.25 160.453125 "/>
<path style=" stroke:none;fill-rule:nonzero;fill:rgb(100%,100%,100%);fill-opacity:0.498;" d="M 155.964844 164.191406 C 155.964844 164.652344 155.917969 165.09375 155.828125 165.519531 C 155.734375 165.945312 155.605469 166.320312 155.433594 166.644531 C 155.265625 166.972656 155.070312 167.222656 154.847656 167.398438 C 154.625 167.574219 154.394531 167.660156 154.15625 167.660156 C 153.914062 167.660156 153.683594 167.574219 153.460938 167.398438 C 153.242188 167.222656 153.046875 166.972656 152.875 166.644531 C 152.707031 166.320312 152.574219 165.945312 152.484375 165.519531 C 152.390625 165.09375 152.34375 164.652344 152.34375 164.191406 C 152.34375 163.734375 152.390625 163.289062 152.484375 162.867188 C 152.574219 162.441406 152.707031 162.066406 152.875 161.738281 C 153.046875 161.414062 153.242188 161.164062 153.460938 160.988281 C 153.683594 160.8125 153.914062 160.722656 154.15625 160.722656 C 154.394531 160.722656 154.625 160.8125 154.847656 160.988281 C 155.070312 161.164062 155.265625 161.414062 155.433594 161.738281 C 155.605469 162.066406 155.734375 162.441406 155.828125 162.867188 C 155.917969 163.289062 155.964844 163.734375 155.964844 164.191406 Z M 155.964844 164.191406 "/>
<path style=" stroke:none;fill-rule:nonzero;fill:rgb(100%,100%,100%);fill-opacity:0.498;" d="M 126.074219 143.632812 C 126.074219 144.089844 126.03125 144.535156 125.9375 144.957031 C 125.847656 145.382812 125.714844 145.757812 125.546875 146.085938 C 125.375 146.410156 125.179688 146.660156 124.957031 146.835938 C 124.738281 147.011719 124.507812 147.101562 124.265625 147.101562 C 124.027344 147.101562 123.796875 147.011719 123.574219 146.835938 C 123.351562 146.660156 123.15625 146.410156 122.988281 146.085938 C 122.816406 145.757812 122.6875 145.382812 122.59375 144.957031 C 122.503906 144.535156 122.457031 144.089844 122.457031 143.632812 C 122.457031 143.171875 122.503906 142.730469 122.59375 142.304688 C 122.6875 141.878906 122.816406 141.503906 122.988281 141.179688 C 123.15625 140.851562 123.351562 140.601562 123.574219 140.425781 C 123.796875 140.25 124.027344 140.164062 124.265625 140.164062 C 124.507812 140.164062 124.738281 140.25 124.957031 140.425781 C 125.179688 140.601562 125.375 140.851562 125.546875 141.179688 C 125.714844 141.503906 125.847656 141.878906 125.9375 142.304688 C 126.03125 142.730469 126.074219 143.171875 126.074219 143.632812 Z M 126.074219 143.632812 "/>
<path style=" stroke:none;fill-rule:nonzero;fill:rgb(100%,100%,100%);fill-opacity:0.498;" d="M 178.382812 143.632812 C 178.382812 144.089844 178.335938 144.535156 178.242188 144.957031 C 178.152344 145.382812 178.019531 145.757812 177.851562 146.085938 C 177.683594 146.410156 177.484375 146.660156 177.265625 146.835938 C 177.042969 147.011719 176.8125 147.101562 176.570312 147.101562 C 176.332031 147.101562 176.101562 147.011719 175.878906 146.835938 C 175.65625 146.660156 175.460938 146.410156 175.292969 146.085938 C 175.121094 145.757812 174.992188 145.382812 174.898438 144.957031 C 174.808594 144.535156 174.761719 144.089844 174.761719 143.632812 C 174.761719 143.171875 174.808594 142.730469 174.898438 142.304688 C 174.992188 141.878906 175.121094 141.503906 175.292969 141.179688 C 175.460938 140.851562 175.65625 140.601562 175.878906 140.425781 C 176.101562 140.25 176.332031 140.164062 176.570312 140.164062 C 176.8125 140.164062 177.042969 140.25 177.265625 140.425781 C 177.484375 140.601562 177.683594 140.851562 177.851562 141.179688 C 178.019531 141.503906 178.152344 141.878906 178.242188 142.304688 C 178.335938 142.730469 178.382812 143.171875 178.382812 143.632812 Z M 178.382812 143.632812 "/>
<path style=" stroke:none;fill-rule:nonzero;fill:rgb(100%,100%,100%);fill-opacity:0.498;" d="M 155.964844 147.371094 C 155.964844 147.828125 155.917969 148.273438 155.828125 148.699219 C 155.734375 149.121094 155.605469 149.496094 155.433594 149.824219 C 155.265625 150.148438 155.070312 150.398438 154.847656 150.574219 C 154.625 150.75 154.394531 150.839844 154.15625 150.839844 C 153.914062 150.839844 153.683594 150.75 153.460938 150.574219 C 153.242188 150.398438 153.046875 150.148438 152.875 149.824219 C 152.707031 149.496094 152.574219 149.121094 152.484375 148.699219 C 152.390625 148.273438 152.34375 147.828125 152.34375 147.371094 C 152.34375 146.910156 152.390625 146.46875 152.484375 146.042969 C 152.574219 145.617188 152.707031 145.242188 152.875 144.917969 C 153.046875 144.59375 153.242188 144.339844 153.460938 144.164062 C 153.683594 143.988281 153.914062 143.902344 154.15625 143.902344 C 154.394531 143.902344 154.625 143.988281 154.847656 144.164062 C 155.070312 144.339844 155.265625 144.59375 155.433594 144.917969 C 155.605469 145.242188 155.734375 145.617188 155.828125 146.042969 C 155.917969 146.46875 155.964844 146.910156 155.964844 147.371094 Z M 155.964844 147.371094 "/>
<path style=" stroke:none;fill-rule:nonzero;fill:rgb(100%,100%,100%);fill-opacity:0.498;" d="M 226.949219 160.453125 C 226.949219 160.914062 226.90625 161.355469 226.8125 161.78125 C 226.722656 162.207031 226.589844 162.582031 226.421875 162.90625 C 226.25 163.230469 226.054688 163.484375 225.832031 163.660156 C 225.613281 163.835938 225.378906 163.921875 225.140625 163.921875 C 224.902344 163.921875 224.667969 163.835938 224.449219 163.660156 C 224.226562 163.484375 224.03125 163.230469 223.859375 162.90625 C 223.691406 162.582031 223.558594 162.207031 223.46875 161.78125 C 223.375 161.355469 223.332031 160.914062 223.332031 160.453125 C 223.332031 159.996094 223.375 159.550781 223.46875 159.125 C 223.558594 158.703125 223.691406 158.328125 223.859375 158 C 224.03125 157.675781 224.226562 157.425781 224.449219 157.25 C 224.667969 157.074219 224.902344 156.984375 225.140625 156.984375 C 225.378906 156.984375 225.613281 157.074219 225.832031 157.25 C 226.054688 157.425781 226.25 157.675781 226.421875 158 C 226.589844 158.328125 226.722656 158.703125 226.8125 159.125 C 226.90625 159.550781 226.949219 159.996094 226.949219 160.453125 Z M 226.949219 160.453125 "/>
<path style=" stroke:none;fill-rule:nonzero;fill:rgb(100%,100%,100%);fill-opacity:0.498;" d="M 139.152344 115.59375 C 139.152344 116.050781 139.105469 116.496094 139.015625 116.917969 C 138.921875 117.34375 138.792969 117.71875 138.621094 118.046875 C 138.453125 118.371094 138.257812 118.621094 138.035156 118.796875 C 137.8125 118.972656 137.582031 119.0625 137.34375 119.0625 C 137.101562 119.0625 136.871094 118.972656 136.652344 118.796875 C 136.429688 118.621094 136.234375 118.371094 136.0625 118.046875 C 135.894531 117.71875 135.761719 117.34375 135.671875 116.917969 C 135.578125 116.496094 135.535156 116.050781 135.535156 115.59375 C 135.535156 115.132812 135.578125 114.691406 135.671875 114.265625 C 135.761719 113.839844 135.894531 113.464844 136.0625 113.140625 C 136.234375 112.8125 136.429688 112.5625 136.652344 112.386719 C 136.871094 112.210938 137.101562 112.125 137.34375 112.125 C 137.582031 112.125 137.8125 112.210938 138.035156 112.386719 C 138.257812 112.5625 138.453125 112.8125 138.621094 113.140625 C 138.792969 113.464844 138.921875 113.839844 139.015625 114.265625 C 139.105469 114.691406 139.152344 115.132812 139.152344 115.59375 Z M 139.152344 115.59375 "/>
<path style=" stroke:none;fill-rule:nonzero;fill:rgb(100%,100%,100%);fill-opacity:0.498;" d="M 247.5 156.714844 C 247.5 157.175781 247.453125 157.617188 247.359375 158.042969 C 247.269531 158.46875 247.136719 158.84375 246.96875 159.167969 C 246.796875 159.492188 246.601562 159.746094 246.382812 159.921875 C 246.160156 160.097656 245.929688 160.183594 245.6875 160.183594 C 245.449219 160.183594 245.21875 160.097656 244.996094 159.921875 C 244.773438 159.746094 244.578125 159.492188 244.410156 159.167969 C 244.238281 158.84375 244.109375 158.46875 244.015625 158.042969 C 243.925781 157.617188 243.878906 157.175781 243.878906 156.714844 C 243.878906 156.257812 243.925781 155.8125 244.015625 155.390625 C 244.109375 154.964844 244.238281 154.589844 244.410156 154.265625 C 244.578125 153.9375 244.773438 153.6875 244.996094 153.511719 C 245.21875 153.335938 245.449219 153.25 245.6875 153.25 C 245.929688 153.25 246.160156 153.335938 246.382812 153.511719 C 246.601562 153.6875 246.796875 153.9375 246.96875 154.265625 C 247.136719 154.589844 247.269531 154.964844 247.359375 155.390625 C 247.453125 155.8125 247.5 156.257812 247.5 156.714844 Z M 247.5 156.714844 "/>
<path style=" stroke:none;fill-rule:nonzero;fill:rgb(100%,100%,100%);fill-opacity:0.498;" d="M 275.519531 160.453125 C 275.519531 160.914062 275.472656 161.355469 275.382812 161.78125 C 275.289062 162.207031 275.160156 162.582031 274.988281 162.90625 C 274.820312 163.230469 274.625 163.484375 274.402344 163.660156 C 274.179688 163.835938 273.949219 163.921875 273.710938 163.921875 C 273.46875 163.921875 273.238281 163.835938 273.015625 163.660156 C 272.796875 163.484375 272.601562 163.230469 272.429688 162.90625 C 272.261719 162.582031 272.128906 162.207031 272.039062 161.78125 C 271.945312 161.355469 271.898438 160.914062 271.898438 160.453125 C 271.898438 159.996094 271.945312 159.550781 272.039062 159.125 C 272.128906 158.703125 272.261719 158.328125 272.429688 158 C 272.601562 157.675781 272.796875 157.425781 273.015625 157.25 C 273.238281 157.074219 273.46875 156.984375 273.710938 156.984375 C 273.949219 156.984375 274.179688 157.074219 274.402344 157.25 C 274.625 157.425781 274.820312 157.675781 274.988281 158 C 275.160156 158.328125 275.289062 158.703125 275.382812 159.125 C 275.472656 159.550781 275.519531 159.996094 275.519531 160.453125 Z M 275.519531 160.453125 "/>
<path style=" stroke:none;fill-rule:nonzero;fill:rgb(100%,100%,100%);fill-opacity:0.498;" d="M 245.632812 139.894531 C 245.628906 140.351562 245.585938 140.796875 245.492188 141.21875 C 245.402344 141.644531 245.269531 142.019531 245.101562 142.34375 C 244.929688 142.671875 244.734375 142.921875 244.511719 143.097656 C 244.292969 143.273438 244.0625 143.363281 243.820312 143.363281 C 243.582031 143.363281 243.351562 143.273438 243.128906 143.097656 C 242.90625 142.921875 242.710938 142.671875 242.542969 142.34375 C 242.371094 142.019531 242.242188 141.644531 242.148438 141.21875 C 242.058594 140.796875 242.011719 140.351562 242.011719 139.894531 C 242.011719 139.433594 242.058594 138.992188 242.148438 138.566406 C 242.242188 138.140625 242.371094 137.765625 242.542969 137.441406 C 242.710938 137.113281 242.90625 136.863281 243.128906 136.6875 C 243.351562 136.511719 243.582031 136.425781 243.820312 136.425781 C 244.0625 136.425781 244.292969 136.511719 244.511719 136.6875 C 244.734375 136.863281 244.929688 137.113281 245.101562 137.441406 C 245.269531 137.765625 245.402344 138.140625 245.492188 138.566406 C 245.585938 138.992188 245.628906 139.433594 245.632812 139.894531 Z M 245.632812 139.894531 "/>
<path style=" stroke:none;fill-rule:nonzero;fill:rgb(100%,100%,100%);fill-opacity:0.498;" d="M 275.519531 143.632812 C 275.519531 144.089844 275.472656 144.535156 275.382812 144.957031 C 275.289062 145.382812 275.160156 145.757812 274.988281 146.085938 C 274.820312 146.410156 274.625 146.660156 274.402344 146.835938 C 274.179688 147.011719 273.949219 147.101562 273.710938 147.101562 C 273.46875 147.101562 273.238281 147.011719 273.015625 146.835938 C 272.796875 146.660156 272.601562 146.410156 272.429688 146.085938 C 272.261719 145.757812 272.128906 145.382812 272.039062 144.957031 C 271.945312 144.535156 271.898438 144.089844 271.898438 143.632812 C 271.898438 143.171875 271.945312 142.730469 272.039062 142.304688 C 272.128906 141.878906 272.261719 141.503906 272.429688 141.179688 C 272.601562 140.851562 272.796875 140.601562 273.015625 140.425781 C 273.238281 140.25 273.46875 140.164062 273.710938 140.164062 C 273.949219 140.164062 274.179688 140.25 274.402344 140.425781 C 274.625 140.601562 274.820312 140.851562 274.988281 141.179688 C 275.160156 141.503906 275.289062 141.878906 275.382812 142.304688 C 275.472656 142.730469 275.519531 143.171875 275.519531 143.632812 Z M 275.519531 143.632812 "/>
<path style=" stroke:none;fill-rule:nonzero;fill:rgb(100%,100%,100%);fill-opacity:0.498;" d="M 113 128.675781 C 113 129.136719 112.953125 129.578125 112.863281 130.003906 C 112.769531 130.429688 112.640625 130.804688 112.46875 131.128906 C 112.300781 131.457031 112.105469 131.707031 111.882812 131.882812 C 111.660156 132.058594 111.429688 132.144531 111.191406 132.144531 C 110.949219 132.144531 110.71875 132.058594 110.496094 131.882812 C 110.277344 131.707031 110.082031 131.457031 109.910156 131.128906 C 109.742188 130.804688 109.609375 130.429688 109.519531 130.003906 C 109.425781 129.578125 109.378906 129.136719 109.378906 128.675781 C 109.378906 128.21875 109.425781 127.773438 109.519531 127.351562 C 109.609375 126.925781 109.742188 126.550781 109.910156 126.222656 C 110.082031 125.898438 110.277344 125.648438 110.496094 125.472656 C 110.71875 125.296875 110.949219 125.207031 111.191406 125.207031 C 111.429688 125.207031 111.660156 125.296875 111.882812 125.472656 C 112.105469 125.648438 112.300781 125.898438 112.46875 126.222656 C 112.640625 126.550781 112.769531 126.925781 112.863281 127.351562 C 112.953125 127.773438 113 128.21875 113 128.675781 Z M 113 128.675781 "/>
<path style=" stroke:none;fill-rule:nonzero;fill:rgb(100%,100%,100%);fill-opacity:0.498;" d="M 158.558594 121.753906 C 158.558594 122.210938 158.511719 122.65625 158.421875 123.078125 C 158.328125 123.503906 158.199219 123.878906 158.027344 124.203125 C 157.859375 124.53125 157.664062 124.78125 157.441406 124.957031 C 157.21875 125.132812 156.988281 125.21875 156.75 125.21875 C 156.507812 125.21875 156.277344 125.132812 156.054688 124.957031 C 155.835938 124.78125 155.640625 124.53125 155.46875 124.203125 C 155.300781 123.878906 155.167969 123.503906 155.078125 123.078125 C 154.984375 122.65625 154.9375 122.210938 154.9375 121.753906 C 154.9375 121.292969 154.984375 120.851562 155.078125 120.425781 C 155.167969 120 155.300781 119.625 155.46875 119.300781 C 155.640625 118.976562 155.835938 118.722656 156.054688 118.546875 C 156.277344 118.371094 156.507812 118.285156 156.75 118.285156 C 156.988281 118.285156 157.21875 118.371094 157.441406 118.546875 C 157.664062 118.722656 157.859375 118.976562 158.027344 119.300781 C 158.199219 119.625 158.328125 120 158.421875 120.425781 C 158.511719 120.851562 158.558594 121.292969 158.558594 121.753906 Z M 158.558594 121.753906 "/>
<path style=" stroke:none;fill-rule:nonzero;fill:rgb(100%,100%,100%);fill-opacity:0.498;" d="M 257.566406 121.753906 C 257.566406 122.210938 257.519531 122.65625 257.425781 123.078125 C 257.335938 123.503906 257.203125 123.878906 257.035156 124.203125 C 256.867188 124.53125 256.667969 124.78125 256.449219 124.957031 C 256.226562 125.132812 255.996094 125.21875 255.753906 125.21875 C 255.515625 125.21875 255.285156 125.132812 255.0625 124.957031 C 254.839844 124.78125 254.644531 124.53125 254.476562 124.203125 C 254.304688 123.878906 254.175781 123.503906 254.082031 123.078125 C 253.992188 122.65625 253.945312 122.210938 253.945312 121.753906 C 253.945312 121.292969 253.992188 120.851562 254.082031 120.425781 C 254.175781 120 254.304688 119.625 254.476562 119.300781 C 254.644531 118.976562 254.839844 118.722656 255.0625 118.546875 C 255.285156 118.371094 255.515625 118.285156 255.753906 118.285156 C 255.996094 118.285156 256.226562 118.371094 256.449219 118.546875 C 256.667969 118.722656 256.867188 118.976562 257.035156 119.300781 C 257.203125 119.625 257.335938 120 257.425781 120.425781 C 257.519531 120.851562 257.566406 121.292969 257.566406 121.753906 Z M 257.566406 121.753906 "/>
<path style=" stroke:none;fill-rule:nonzero;fill:rgb(100%,100%,100%);fill-opacity:0.498;" d="M 233.277344 127.359375 C 233.277344 127.820312 233.234375 128.261719 233.140625 128.6875 C 233.050781 129.113281 232.917969 129.488281 232.75 129.8125 C 232.578125 130.136719 232.382812 130.386719 232.164062 130.5625 C 231.941406 130.742188 231.710938 130.828125 231.46875 130.828125 C 231.230469 130.828125 231 130.742188 230.777344 130.5625 C 230.554688 130.386719 230.359375 130.136719 230.191406 129.8125 C 230.019531 129.488281 229.890625 129.113281 229.796875 128.6875 C 229.707031 128.261719 229.660156 127.820312 229.660156 127.359375 C 229.660156 126.898438 229.707031 126.457031 229.796875 126.03125 C 229.890625 125.605469 230.019531 125.230469 230.191406 124.90625 C 230.359375 124.582031 230.554688 124.332031 230.777344 124.15625 C 231 123.980469 231.230469 123.890625 231.46875 123.890625 C 231.710938 123.890625 231.941406 123.980469 232.164062 124.15625 C 232.382812 124.332031 232.578125 124.582031 232.75 124.90625 C 232.917969 125.230469 233.050781 125.605469 233.140625 126.03125 C 233.234375 126.457031 233.277344 126.898438 233.277344 127.359375 Z M 233.277344 127.359375 "/>
<path style=" stroke:none;fill-rule:nonzero;fill:rgb(100%,100%,100%);fill-opacity:0.498;" d="M 208.996094 131.097656 C 208.996094 131.558594 208.949219 132 208.859375 132.425781 C 208.765625 132.851562 208.636719 133.226562 208.464844 133.550781 C 208.296875 133.875 208.101562 134.125 207.878906 134.304688 C 207.65625 134.480469 207.425781 134.566406 207.1875 134.566406 C 206.945312 134.566406 206.714844 134.480469 206.492188 134.304688 C 206.273438 134.125 206.078125 133.875 205.90625 133.550781 C 205.738281 133.226562 205.605469 132.851562 205.515625 132.425781 C 205.421875 132 205.378906 131.558594 205.378906 131.097656 C 205.378906 130.636719 205.421875 130.195312 205.515625 129.769531 C 205.605469 129.347656 205.738281 128.972656 205.90625 128.644531 C 206.078125 128.320312 206.273438 128.070312 206.492188 127.894531 C 206.714844 127.71875 206.945312 127.628906 207.1875 127.628906 C 207.425781 127.628906 207.65625 127.71875 207.878906 127.894531 C 208.101562 128.070312 208.296875 128.320312 208.464844 128.644531 C 208.636719 128.972656 208.765625 129.347656 208.859375 129.769531 C 208.949219 130.195312 208.996094 130.636719 208.996094 131.097656 Z M 208.996094 131.097656 "/>
<path style=" stroke:none;fill-rule:nonzero;fill:rgb(100%,100%,100%);fill-opacity:0.498;" d="M 179.105469 110.535156 C 179.105469 110.996094 179.0625 111.4375 178.96875 111.863281 C 178.878906 112.289062 178.746094 112.664062 178.578125 112.988281 C 178.40625 113.316406 178.210938 113.566406 177.988281 113.742188 C 177.769531 113.917969 177.535156 114.003906 177.296875 114.003906 C 177.058594 114.003906 176.824219 113.917969 176.605469 113.742188 C 176.382812 113.566406 176.1875 113.316406 176.015625 112.988281 C 175.847656 112.664062 175.714844 112.289062 175.625 111.863281 C 175.53125 111.4375 175.488281 110.996094 175.488281 110.535156 C 175.488281 110.078125 175.53125 109.632812 175.625 109.210938 C 175.714844 108.785156 175.847656 108.410156 176.015625 108.085938 C 176.1875 107.757812 176.382812 107.507812 176.605469 107.332031 C 176.824219 107.15625 177.058594 107.066406 177.296875 107.066406 C 177.535156 107.066406 177.769531 107.15625 177.988281 107.332031 C 178.210938 107.507812 178.40625 107.757812 178.578125 108.085938 C 178.746094 108.410156 178.878906 108.785156 178.96875 109.210938 C 179.0625 109.632812 179.105469 110.078125 179.105469 110.535156 Z M 179.105469 110.535156 "/>
<path style=" stroke:none;fill-rule:nonzero;fill:rgb(100%,100%,100%);fill-opacity:0.498;" d="M 231.414062 110.535156 C 231.414062 110.996094 231.367188 111.4375 231.273438 111.863281 C 231.183594 112.289062 231.050781 112.664062 230.882812 112.988281 C 230.710938 113.316406 230.515625 113.566406 230.296875 113.742188 C 230.074219 113.917969 229.84375 114.003906 229.601562 114.003906 C 229.363281 114.003906 229.132812 113.917969 228.910156 113.742188 C 228.6875 113.566406 228.492188 113.316406 228.324219 112.988281 C 228.152344 112.664062 228.023438 112.289062 227.929688 111.863281 C 227.839844 111.4375 227.792969 110.996094 227.792969 110.535156 C 227.792969 110.078125 227.839844 109.632812 227.929688 109.210938 C 228.023438 108.785156 228.152344 108.410156 228.324219 108.085938 C 228.492188 107.757812 228.6875 107.507812 228.910156 107.332031 C 229.132812 107.15625 229.363281 107.066406 229.601562 107.066406 C 229.84375 107.066406 230.074219 107.15625 230.296875 107.332031 C 230.515625 107.507812 230.710938 107.757812 230.882812 108.085938 C 231.050781 108.410156 231.183594 108.785156 231.273438 109.210938 C 231.367188 109.632812 231.414062 110.078125 231.414062 110.535156 Z M 231.414062 110.535156 "/>
<path style=" stroke:none;fill-rule:nonzero;fill:rgb(100%,100%,100%);fill-opacity:0.498;" d="M 208.996094 114.277344 C 208.996094 114.734375 208.949219 115.179688 208.859375 115.601562 C 208.765625 116.027344 208.636719 116.402344 208.464844 116.726562 C 208.296875 117.054688 208.101562 117.304688 207.878906 117.480469 C 207.65625 117.65625 207.425781 117.742188 207.1875 117.742188 C 206.945312 117.742188 206.714844 117.65625 206.492188 117.480469 C 206.273438 117.304688 206.078125 117.054688 205.90625 116.726562 C 205.738281 116.402344 205.605469 116.027344 205.515625 115.601562 C 205.421875 115.179688 205.378906 114.734375 205.378906 114.277344 C 205.378906 113.816406 205.421875 113.371094 205.515625 112.949219 C 205.605469 112.523438 205.738281 112.148438 205.90625 111.824219 C 206.078125 111.496094 206.273438 111.246094 206.492188 111.070312 C 206.714844 110.894531 206.945312 110.808594 207.1875 110.808594 C 207.425781 110.808594 207.65625 110.894531 207.878906 111.070312 C 208.101562 111.246094 208.296875 111.496094 208.464844 111.824219 C 208.636719 112.148438 208.765625 112.523438 208.859375 112.949219 C 208.949219 113.371094 208.996094 113.816406 208.996094 114.277344 Z M 208.996094 114.277344 "/>
<path style=" stroke:none;fill-rule:nonzero;fill:rgb(100%,100%,100%);fill-opacity:0.498;" d="M 279.980469 127.359375 C 279.980469 127.820312 279.933594 128.261719 279.84375 128.6875 C 279.75 129.113281 279.621094 129.488281 279.449219 129.8125 C 279.28125 130.136719 279.085938 130.386719 278.863281 130.5625 C 278.640625 130.742188 278.410156 130.828125 278.171875 130.828125 C 277.929688 130.828125 277.699219 130.742188 277.480469 130.5625 C 277.257812 130.386719 277.0625 130.136719 276.890625 129.8125 C 276.722656 129.488281 276.589844 129.113281 276.5 128.6875 C 276.40625 128.261719 276.363281 127.820312 276.363281 127.359375 C 276.363281 126.898438 276.40625 126.457031 276.5 126.03125 C 276.589844 125.605469 276.722656 125.230469 276.890625 124.90625 C 277.0625 124.582031 277.257812 124.332031 277.480469 124.15625 C 277.699219 123.980469 277.929688 123.890625 278.171875 123.890625 C 278.410156 123.890625 278.640625 123.980469 278.863281 124.15625 C 279.085938 124.332031 279.28125 124.582031 279.449219 124.90625 C 279.621094 125.230469 279.75 125.605469 279.84375 126.03125 C 279.933594 126.457031 279.980469 126.898438 279.980469 127.359375 Z M 279.980469 127.359375 "/>
<path style=" stroke:none;fill-rule:nonzero;fill:rgb(100%,100%,100%);fill-opacity:0.498;" d="M 191.613281 95.621094 C 191.613281 96.082031 191.566406 96.523438 191.476562 96.949219 C 191.382812 97.375 191.253906 97.75 191.082031 98.074219 C 190.914062 98.398438 190.71875 98.648438 190.496094 98.824219 C 190.273438 99.003906 190.042969 99.089844 189.804688 99.089844 C 189.5625 99.089844 189.332031 99.003906 189.109375 98.824219 C 188.890625 98.648438 188.695312 98.398438 188.523438 98.074219 C 188.355469 97.75 188.222656 97.375 188.132812 96.949219 C 188.039062 96.523438 187.992188 96.082031 187.992188 95.621094 C 187.992188 95.160156 188.039062 94.71875 188.132812 94.292969 C 188.222656 93.871094 188.355469 93.492188 188.523438 93.167969 C 188.695312 92.84375 188.890625 92.59375 189.109375 92.417969 C 189.332031 92.242188 189.5625 92.152344 189.804688 92.152344 C 190.042969 92.152344 190.273438 92.242188 190.496094 92.417969 C 190.71875 92.59375 190.914062 92.84375 191.082031 93.167969 C 191.253906 93.492188 191.382812 93.871094 191.476562 94.292969 C 191.566406 94.71875 191.613281 95.160156 191.613281 95.621094 Z M 191.613281 95.621094 "/>
<path style=" stroke:none;fill-rule:nonzero;fill:rgb(100%,100%,100%);fill-opacity:0.498;" d="M 186.898438 123.917969 C 186.898438 124.375 186.851562 124.820312 186.761719 125.242188 C 186.667969 125.667969 186.539062 126.042969 186.367188 126.367188 C 186.199219 126.695312 186.003906 126.945312 185.78125 127.121094 C 185.558594 127.296875 185.328125 127.386719 185.089844 127.386719 C 184.847656 127.386719 184.617188 127.296875 184.394531 127.121094 C 184.171875 126.945312 183.976562 126.695312 183.808594 126.367188 C 183.636719 126.042969 183.507812 125.667969 183.414062 125.242188 C 183.324219 124.820312 183.277344 124.375 183.277344 123.917969 C 183.277344 123.457031 183.324219 123.015625 183.414062 122.589844 C 183.507812 122.164062 183.636719 121.789062 183.808594 121.464844 C 183.976562 121.136719 184.171875 120.886719 184.394531 120.710938 C 184.617188 120.535156 184.847656 120.449219 185.089844 120.449219 C 185.328125 120.449219 185.558594 120.535156 185.78125 120.710938 C 186.003906 120.886719 186.199219 121.136719 186.367188 121.464844 C 186.539062 121.789062 186.667969 122.164062 186.761719 122.589844 C 186.851562 123.015625 186.898438 123.457031 186.898438 123.917969 Z M 186.898438 123.917969 "/>
<path style=" stroke:none;fill-rule:nonzero;fill:rgb(100%,100%,100%);fill-opacity:0.498;" d="M 166.03125 95.582031 C 166.03125 96.042969 165.984375 96.484375 165.894531 96.910156 C 165.800781 97.335938 165.671875 97.710938 165.5 98.035156 C 165.332031 98.359375 165.136719 98.609375 164.914062 98.789062 C 164.691406 98.964844 164.460938 99.050781 164.222656 99.050781 C 163.980469 99.050781 163.75 98.964844 163.527344 98.789062 C 163.308594 98.609375 163.109375 98.359375 162.941406 98.035156 C 162.773438 97.710938 162.640625 97.335938 162.550781 96.910156 C 162.457031 96.484375 162.410156 96.042969 162.410156 95.582031 C 162.410156 95.121094 162.457031 94.679688 162.550781 94.253906 C 162.640625 93.832031 162.773438 93.457031 162.941406 93.128906 C 163.109375 92.804688 163.308594 92.554688 163.527344 92.378906 C 163.75 92.203125 163.980469 92.113281 164.222656 92.113281 C 164.460938 92.113281 164.691406 92.203125 164.914062 92.378906 C 165.136719 92.554688 165.332031 92.804688 165.5 93.128906 C 165.671875 93.457031 165.800781 93.832031 165.894531 94.253906 C 165.984375 94.679688 166.03125 95.121094 166.03125 95.582031 Z M 166.03125 95.582031 "/>
</g>
</svg>
