<?xml version="1.0" encoding="UTF-8"?>
<svg xmlns="http://www.w3.org/2000/svg" xmlns:xlink="http://www.w3.org/1999/xlink" width="375pt" height="374.999991pt" viewBox="0 0 375 374.999991" version="1.2">
<defs>
<clipPath id="clip1">
  <path d="M 205 159 L 219 159 L 219 187 L 205 187 Z M 205 159 "/>
</clipPath>
<clipPath id="clip2">
  <path d="M 214.429688 139.972656 L 232.492188 147.324219 L 207.605469 208.453125 L 189.542969 201.097656 Z M 214.429688 139.972656 "/>
</clipPath>
<clipPath id="clip3">
  <path d="M 214.429688 139.972656 L 232.492188 147.324219 L 207.605469 208.453125 L 189.542969 201.097656 Z M 214.429688 139.972656 "/>
</clipPath>
<clipPath id="clip4">
  <path d="M 214.429688 139.972656 L 232.835938 147.464844 L 207.941406 208.601562 L 189.539062 201.109375 Z M 214.429688 139.972656 "/>
</clipPath>
<clipPath id="clip5">
  <path d="M 197 180 L 211 180 L 211 206 L 197 206 Z M 197 180 "/>
</clipPath>
<clipPath id="clip6">
  <path d="M 214.429688 139.972656 L 232.492188 147.324219 L 207.605469 208.453125 L 189.542969 201.097656 Z M 214.429688 139.972656 "/>
</clipPath>
<clipPath id="clip7">
  <path d="M 214.429688 139.972656 L 232.492188 147.324219 L 207.605469 208.453125 L 189.542969 201.097656 Z M 214.429688 139.972656 "/>
</clipPath>
<clipPath id="clip8">
  <path d="M 214.429688 139.972656 L 232.835938 147.464844 L 207.941406 208.601562 L 189.539062 201.109375 Z M 214.429688 139.972656 "/>
</clipPath>
<clipPath id="clip9">
  <path d="M 205.859375 180.421875 L 210.714844 182.398438 L 201.136719 205.921875 L 196.28125 203.945312 Z M 205.859375 180.421875 "/>
</clipPath>
<clipPath id="clip10">
  <path d="M 205.859375 180.421875 L 210.714844 182.398438 L 201.167969 205.847656 L 196.3125 203.871094 Z M 205.859375 180.421875 "/>
</clipPath>
<clipPath id="clip11">
  <path d="M 198 181 L 211 181 L 211 206 L 198 206 Z M 198 181 "/>
</clipPath>
<clipPath id="clip12">
  <path d="M 214.429688 139.972656 L 232.492188 147.324219 L 207.605469 208.453125 L 189.542969 201.097656 Z M 214.429688 139.972656 "/>
</clipPath>
<clipPath id="clip13">
  <path d="M 214.429688 139.972656 L 232.492188 147.324219 L 207.605469 208.453125 L 189.542969 201.097656 Z M 214.429688 139.972656 "/>
</clipPath>
<clipPath id="clip14">
  <path d="M 214.429688 139.972656 L 232.835938 147.464844 L 207.941406 208.601562 L 189.539062 201.109375 Z M 214.429688 139.972656 "/>
</clipPath>
<clipPath id="clip15">
  <path d="M 208.285156 181.410156 L 210.714844 182.398438 L 201.136719 205.921875 L 198.710938 204.933594 Z M 208.285156 181.410156 "/>
</clipPath>
<clipPath id="clip16">
  <path d="M 208.285156 181.410156 L 210.714844 182.398438 L 201.167969 205.847656 L 198.738281 204.859375 Z M 208.285156 181.410156 "/>
</clipPath>
<clipPath id="clip17">
  <path d="M 204 179 L 212 179 L 212 184 L 204 184 Z M 204 179 "/>
</clipPath>
<clipPath id="clip18">
  <path d="M 214.429688 139.972656 L 232.492188 147.324219 L 207.605469 208.453125 L 189.542969 201.097656 Z M 214.429688 139.972656 "/>
</clipPath>
<clipPath id="clip19">
  <path d="M 214.429688 139.972656 L 232.492188 147.324219 L 207.605469 208.453125 L 189.542969 201.097656 Z M 214.429688 139.972656 "/>
</clipPath>
<clipPath id="clip20">
  <path d="M 214.429688 139.972656 L 232.835938 147.464844 L 207.941406 208.601562 L 189.539062 201.109375 Z M 214.429688 139.972656 "/>
</clipPath>
<clipPath id="clip21">
  <path d="M 207 180 L 212 180 L 212 184 L 207 184 Z M 207 180 "/>
</clipPath>
<clipPath id="clip22">
  <path d="M 214.429688 139.972656 L 232.492188 147.324219 L 207.605469 208.453125 L 189.542969 201.097656 Z M 214.429688 139.972656 "/>
</clipPath>
<clipPath id="clip23">
  <path d="M 214.429688 139.972656 L 232.492188 147.324219 L 207.605469 208.453125 L 189.542969 201.097656 Z M 214.429688 139.972656 "/>
</clipPath>
<clipPath id="clip24">
  <path d="M 214.429688 139.972656 L 232.835938 147.464844 L 207.941406 208.601562 L 189.539062 201.109375 Z M 214.429688 139.972656 "/>
</clipPath>
<clipPath id="clip25">
  <path d="M 213 158 L 220 158 L 220 165 L 213 165 Z M 213 158 "/>
</clipPath>
<clipPath id="clip26">
  <path d="M 214.429688 139.972656 L 232.492188 147.324219 L 207.605469 208.453125 L 189.542969 201.097656 Z M 214.429688 139.972656 "/>
</clipPath>
<clipPath id="clip27">
  <path d="M 214.429688 139.972656 L 232.492188 147.324219 L 207.605469 208.453125 L 189.542969 201.097656 Z M 214.429688 139.972656 "/>
</clipPath>
<clipPath id="clip28">
  <path d="M 214.429688 139.972656 L 232.835938 147.464844 L 207.941406 208.601562 L 189.539062 201.109375 Z M 214.429688 139.972656 "/>
</clipPath>
<clipPath id="clip29">
  <path d="M 208 140 L 232 140 L 232 165 L 208 165 Z M 208 140 "/>
</clipPath>
<clipPath id="clip30">
  <path d="M 214.429688 139.972656 L 232.492188 147.324219 L 207.605469 208.453125 L 189.542969 201.097656 Z M 214.429688 139.972656 "/>
</clipPath>
<clipPath id="clip31">
  <path d="M 214.429688 139.972656 L 232.492188 147.324219 L 207.605469 208.453125 L 189.542969 201.097656 Z M 214.429688 139.972656 "/>
</clipPath>
<clipPath id="clip32">
  <path d="M 214.429688 139.972656 L 232.835938 147.464844 L 207.941406 208.601562 L 189.539062 201.109375 Z M 214.429688 139.972656 "/>
</clipPath>
<clipPath id="clip33">
  <path d="M 214.460938 139.984375 L 232.941406 147.507812 L 225.691406 165.3125 L 207.210938 157.789062 Z M 214.460938 139.984375 "/>
</clipPath>
<clipPath id="clip34">
  <path d="M 214.460938 139.984375 L 232.8125 147.457031 L 225.5625 165.261719 L 207.210938 157.789062 Z M 214.460938 139.984375 "/>
</clipPath>
<clipPath id="clip35">
  <path d="M 16 76.332031 L 310 76.332031 L 310 347 L 16 347 Z M 16 76.332031 "/>
</clipPath>
<clipPath id="clip36">
  <path d="M 208 60 L 300 60 L 300 113 L 208 113 Z M 208 60 "/>
</clipPath>
<clipPath id="clip37">
  <path d="M 201.894531 61.71875 L 299.875 54.433594 L 304.042969 110.53125 L 206.066406 117.816406 Z M 201.894531 61.71875 "/>
</clipPath>
<clipPath id="clip38">
  <path d="M 201.894531 61.71875 L 299.875 54.433594 L 304.042969 110.53125 L 206.066406 117.816406 Z M 201.894531 61.71875 "/>
</clipPath>
<clipPath id="clip39">
  <path d="M 201.894531 61.71875 L 300.039062 54.421875 L 304.207031 110.496094 L 206.0625 117.792969 Z M 201.894531 61.71875 "/>
</clipPath>
<clipPath id="clip40">
  <path d="M 205 57 L 303 57 L 303 116 L 205 116 Z M 205 57 "/>
</clipPath>
<clipPath id="clip41">
  <path d="M 201.894531 61.71875 L 299.875 54.433594 L 304.042969 110.53125 L 206.066406 117.816406 Z M 201.894531 61.71875 "/>
</clipPath>
<clipPath id="clip42">
  <path d="M 201.894531 61.71875 L 299.875 54.433594 L 304.042969 110.53125 L 206.066406 117.816406 Z M 201.894531 61.71875 "/>
</clipPath>
<clipPath id="clip43">
  <path d="M 201.894531 61.71875 L 300.039062 54.421875 L 304.207031 110.496094 L 206.0625 117.792969 Z M 201.894531 61.71875 "/>
</clipPath>
<clipPath id="clip44">
  <path d="M 302 196.769531 L 348 196.769531 L 348 274 L 302 274 Z M 302 196.769531 "/>
</clipPath>
<clipPath id="clip45">
  <path d="M 215.652344 275 L 249.433594 275 L 249.433594 291.5625 L 215.652344 291.5625 Z M 215.652344 275 "/>
</clipPath>
<clipPath id="clip46">
  <path d="M 342 227 L 354.777344 227 L 354.777344 250 L 342 250 Z M 342 227 "/>
</clipPath>
</defs>
<g id="surface1">
<g clip-path="url(#clip1)" clip-rule="nonzero">
<g clip-path="url(#clip2)" clip-rule="nonzero">
<g clip-path="url(#clip3)" clip-rule="nonzero">
<g clip-path="url(#clip4)" clip-rule="nonzero">
<path style=" stroke:none;fill-rule:nonzero;fill:rgb(82.749939%,82.348633%,82.348633%);fill-opacity:1;" d="M 207.746094 186.21875 L 205.320312 185.230469 L 215.859375 159.34375 L 218.289062 160.332031 L 207.746094 186.21875 "/>
</g>
</g>
</g>
</g>
<g clip-path="url(#clip5)" clip-rule="nonzero">
<g clip-path="url(#clip6)" clip-rule="nonzero">
<g clip-path="url(#clip7)" clip-rule="nonzero">
<g clip-path="url(#clip8)" clip-rule="nonzero">
<g clip-path="url(#clip9)" clip-rule="nonzero">
<g clip-path="url(#clip10)" clip-rule="nonzero">
<path style=" stroke:none;fill-rule:nonzero;fill:rgb(71.369934%,14.118958%,16.468811%);fill-opacity:1;" d="M 199.199219 203.746094 C 198.527344 203.472656 198.195312 202.726562 198.460938 202.082031 C 198.722656 201.433594 199.480469 201.132812 200.148438 201.40625 C 200.820312 201.679688 201.152344 202.421875 200.886719 203.070312 C 200.625 203.714844 199.867188 204.019531 199.199219 203.746094 Z M 205.929688 180.492188 L 197.316406 201.644531 C 196.808594 202.894531 197.445312 204.335938 198.742188 204.863281 C 200.039062 205.390625 201.5 204.804688 202.011719 203.554688 L 210.625 182.402344 L 205.929688 180.492188 "/>
</g>
</g>
</g>
</g>
</g>
</g>
<g clip-path="url(#clip11)" clip-rule="nonzero">
<g clip-path="url(#clip12)" clip-rule="nonzero">
<g clip-path="url(#clip13)" clip-rule="nonzero">
<g clip-path="url(#clip14)" clip-rule="nonzero">
<g clip-path="url(#clip15)" clip-rule="nonzero">
<g clip-path="url(#clip16)" clip-rule="nonzero">
<path style=" stroke:none;fill-rule:nonzero;fill:rgb(65.098572%,10.978699%,13.328552%);fill-opacity:1;" d="M 208.277344 181.445312 L 200.148438 201.40625 C 200.820312 201.679688 201.152344 202.421875 200.886719 203.070312 C 200.625 203.714844 199.867188 204.019531 199.199219 203.746094 L 198.742188 204.863281 C 200.039062 205.390625 201.5 204.804688 202.011719 203.554688 L 210.625 182.402344 L 208.277344 181.445312 "/>
</g>
</g>
</g>
</g>
</g>
</g>
<g clip-path="url(#clip17)" clip-rule="nonzero">
<g clip-path="url(#clip18)" clip-rule="nonzero">
<g clip-path="url(#clip19)" clip-rule="nonzero">
<g clip-path="url(#clip20)" clip-rule="nonzero">
<path style=" stroke:none;fill-rule:nonzero;fill:rgb(47.059631%,10.198975%,11.759949%);fill-opacity:1;" d="M 210.40625 183.847656 L 205.074219 181.679688 C 204.648438 181.503906 204.4375 181.027344 204.605469 180.613281 L 204.726562 180.316406 C 204.894531 179.902344 205.378906 179.710938 205.804688 179.882812 L 211.136719 182.054688 C 211.5625 182.226562 211.773438 182.703125 211.605469 183.117188 L 211.484375 183.417969 C 211.316406 183.828125 210.832031 184.023438 210.40625 183.847656 "/>
</g>
</g>
</g>
</g>
<g clip-path="url(#clip21)" clip-rule="nonzero">
<g clip-path="url(#clip22)" clip-rule="nonzero">
<g clip-path="url(#clip23)" clip-rule="nonzero">
<g clip-path="url(#clip24)" clip-rule="nonzero">
<path style=" stroke:none;fill-rule:nonzero;fill:rgb(28.62854%,7.449341%,10.5896%);fill-opacity:1;" d="M 210.980469 181.992188 L 208.46875 180.96875 L 207.738281 182.761719 L 210.25 183.785156 C 210.765625 183.992188 211.34375 183.761719 211.546875 183.265625 C 211.746094 182.769531 211.492188 182.199219 210.980469 181.992188 "/>
</g>
</g>
</g>
</g>
<g clip-path="url(#clip25)" clip-rule="nonzero">
<g clip-path="url(#clip26)" clip-rule="nonzero">
<g clip-path="url(#clip27)" clip-rule="nonzero">
<g clip-path="url(#clip28)" clip-rule="nonzero">
<path style=" stroke:none;fill-rule:nonzero;fill:rgb(82.749939%,82.348633%,82.348633%);fill-opacity:1;" d="M 219.148438 162.503906 C 218.5625 163.949219 216.871094 164.625 215.375 164.011719 C 213.875 163.402344 213.136719 161.742188 213.726562 160.296875 C 214.3125 158.855469 216.003906 158.179688 217.5 158.789062 C 219 159.398438 219.734375 161.0625 219.148438 162.503906 "/>
</g>
</g>
</g>
</g>
<g clip-path="url(#clip29)" clip-rule="nonzero">
<g clip-path="url(#clip30)" clip-rule="nonzero">
<g clip-path="url(#clip31)" clip-rule="nonzero">
<g clip-path="url(#clip32)" clip-rule="nonzero">
<g clip-path="url(#clip33)" clip-rule="nonzero">
<g clip-path="url(#clip34)" clip-rule="nonzero">
<path style=" stroke:none;fill-rule:nonzero;fill:rgb(82.749939%,82.348633%,82.348633%);fill-opacity:1;" d="M 224.300781 160.160156 C 224.125 160.589844 223.621094 160.792969 223.175781 160.609375 C 222.726562 160.429688 222.507812 159.933594 222.683594 159.5 L 226.777344 149.441406 C 226.953125 149.011719 227.460938 148.808594 227.90625 148.992188 C 228.351562 149.171875 228.574219 149.671875 228.398438 150.101562 Z M 220.632812 158.667969 C 220.457031 159.097656 219.953125 159.300781 219.507812 159.117188 C 219.058594 158.933594 218.839844 158.4375 219.015625 158.007812 L 223.109375 147.949219 C 223.285156 147.515625 223.789062 147.316406 224.238281 147.496094 C 224.683594 147.679688 224.902344 148.175781 224.730469 148.605469 Z M 216.964844 157.171875 C 216.789062 157.601562 216.285156 157.804688 215.835938 157.621094 C 215.390625 157.441406 215.167969 156.945312 215.34375 156.511719 L 219.441406 146.453125 C 219.613281 146.023438 220.121094 145.820312 220.566406 146.003906 C 221.015625 146.183594 221.234375 146.683594 221.058594 147.113281 Z M 213.292969 155.679688 C 213.117188 156.109375 212.613281 156.3125 212.167969 156.128906 C 211.71875 155.945312 211.5 155.449219 211.675781 155.019531 L 215.769531 144.960938 C 215.945312 144.527344 216.449219 144.328125 216.898438 144.507812 C 217.34375 144.691406 217.566406 145.1875 217.390625 145.617188 Z M 230.265625 146.417969 L 217.007812 141.019531 C 215.601562 140.445312 214.011719 141.082031 213.460938 142.4375 L 208.257812 155.210938 C 207.707031 156.566406 208.402344 158.128906 209.808594 158.703125 L 223.066406 164.101562 C 224.472656 164.671875 226.0625 164.039062 226.613281 162.683594 L 231.8125 149.910156 C 232.363281 148.554688 231.671875 146.992188 230.265625 146.417969 "/>
</g>
</g>
</g>
</g>
</g>
</g>
<path style=" stroke:none;fill-rule:evenodd;fill:rgb(91.758728%,16.468811%,16.468811%);fill-opacity:1;" d="M 121.253906 201.785156 C 122.378906 213.070312 125.496094 224.082031 132.324219 230.515625 C 134.363281 230.175781 135.191406 227.472656 137.433594 228.242188 C 139.753906 230.855469 136.046875 233.53125 135.164062 235.636719 C 137.335938 237.132812 142.382812 234.46875 142.824219 237.628906 C 143.128906 239.796875 139.082031 241.402344 136.011719 241.042969 C 133.972656 240.800781 132.683594 238.730469 131.472656 239.90625 C 132.214844 242.574219 136.070312 242.121094 136.011719 245.59375 C 135.179688 247.511719 131.746094 247.234375 130.054688 246.449219 C 127.621094 245.320312 127.65625 241.746094 125.230469 241.042969 C 124.597656 243.375 126.246094 246.90625 123.527344 247.300781 C 121.648438 247.574219 119.59375 243.734375 119.835938 240.757812 C 120.007812 238.636719 121.621094 238.148438 121.824219 236.492188 C 120.632812 235.125 119.015625 234.222656 117.851562 232.792969 C 112.847656 226.652344 111.214844 217.171875 111.039062 207.757812 C 108.902344 208.097656 109.722656 212.140625 109.902344 214.585938 C 110.578125 223.667969 115.007812 231.636719 119.550781 237.058594 C 117.3125 241.496094 119.214844 246.824219 122.390625 249.007812 C 123.214844 248.695312 124.40625 248.75 125.230469 248.441406 C 126.039062 247.828125 126.15625 246.523438 126.648438 245.59375 C 128.675781 249.480469 139.703125 249.890625 136.863281 242.75 C 139.738281 242.386719 144.359375 240.957031 144.246094 237.628906 C 144.140625 234.648438 141.113281 234.90625 138.566406 234.214844 C 139.84375 231.511719 140.804688 227.261719 137.433594 226.535156 C 134.933594 225.992188 134.089844 227.984375 132.324219 228.242188 C 126.855469 222.246094 123.125 211.804688 123.242188 202.070312 C 122.632812 201.847656 121.65625 201.378906 121.253906 201.785156 M 296.933594 154.277344 C 297.71875 157.144531 296.8125 160.847656 297.785156 163.949219 C 303.675781 166.4375 302.382812 155.960938 300.902344 153.707031 C 299.535156 153.296875 297.886719 153.511719 296.933594 154.277344 M 290.121094 153.707031 C 288.839844 157.082031 288 164.070312 290.40625 167.078125 C 295.710938 166.84375 295.226562 152.855469 290.121094 153.707031 M 66.480469 150.296875 C 65.972656 151.632812 62.332031 152.707031 63.644531 153.996094 C 64.75 151.878906 69.039062 150.492188 71.875 149.15625 C 70.207031 147.5625 68.554688 150.453125 66.480469 150.296875 M 53.992188 119.003906 C 54.480469 120.507812 55.230469 121.75 55.414062 123.554688 C 63.15625 136.84375 71.214844 149.816406 82.65625 159.398438 C 79.273438 162.929688 75 165.570312 72.441406 169.925781 C 74.484375 169.855469 76.058594 166.941406 77.265625 165.089844 C 78.195312 165.667969 78.824219 163.921875 79.535156 163.382812 C 81.34375 162.632812 82.523438 161.257812 84.359375 160.535156 C 88.761719 165.324219 94.691406 168.578125 99.402344 173.050781 C 98.023438 172.8125 98.03125 173.953125 97.132812 174.191406 C 95.4375 177.003906 93.089844 178.882812 90.886719 181.300781 C 89.449219 182.886719 86.832031 184.773438 87.765625 186.992188 C 89.3125 185.886719 90.644531 182.105469 92.875 180.734375 C 94.800781 178.683594 96.933594 176.839844 99.117188 175.042969 C 99.738281 174.507812 99.90625 173.730469 99.96875 173.339844 C 104.972656 176.480469 111.140625 179.960938 116.996094 181.300781 C 117.558594 178.890625 114.636719 179.089844 113.59375 178.742188 C 108.582031 177.074219 105.324219 175.0625 101.390625 172.484375 C 94.992188 168.296875 88.476562 162.949219 83.226562 157.976562 C 78.796875 153.78125 74.117188 149.789062 70.453125 145.175781 C 67.820312 141.859375 66.289062 138.1875 63.925781 134.367188 C 62.707031 132.394531 60.859375 130.96875 59.667969 128.960938 C 57.75 125.726562 55.910156 121.925781 55.128906 117.863281 L 54.277344 117.863281 C 54.1875 118.25 53.871094 118.410156 53.992188 119.003906 M 247.546875 122.703125 C 248.1875 125.949219 252.964844 129.503906 257.199219 128.960938 C 260.945312 128.480469 264.355469 122.71875 263.445312 117.863281 C 263.019531 115.632812 260.828125 114.304688 260.601562 112.175781 C 252.757812 109.84375 246.234375 116.015625 247.546875 122.703125 M 240.738281 100.800781 C 237.5 98.589844 229.65625 96.378906 226.265625 95.394531 C 226.042969 95.453125 225.933594 95.628906 225.980469 95.960938 C 229.527344 101.136719 227.066406 113.316406 235.34375 113.316406 C 235.777344 112.515625 235.25 112.148438 235.628906 111.039062 C 230.917969 109.976562 230.273438 103.320312 230.238281 98.519531 C 233.542969 99.667969 236.667969 100.988281 239.601562 102.503906 C 240.804688 103.988281 242.09375 106.789062 243.859375 106.769531 C 245.433594 104.644531 242.636719 102.09375 240.738281 100.800781 M 259.472656 98.238281 C 262.292969 96.171875 262.5625 91.976562 266.566406 91.410156 C 268.789062 91.09375 270.472656 92.34375 273.09375 93.117188 C 271.296875 96.152344 269.632812 99.320312 267.414062 101.9375 C 267.816406 106.46875 271.722656 107.476562 272.808594 111.324219 C 268.203125 117.140625 274.972656 125.828125 281.039062 120.996094 C 283.742188 125.300781 288.859375 127.1875 292.109375 130.953125 C 291.738281 137.394531 295.132812 140.054688 300.902344 140.339844 C 301.457031 146.554688 305.230469 150.277344 304.59375 158.261719 C 304.199219 163.246094 302.953125 168.414062 302.039062 173.339844 C 301.0625 178.613281 300.425781 181.941406 298.066406 185 C 289.65625 189.800781 278.472656 186.511719 268.832031 184.148438 C 267.847656 181.382812 269.046875 178.070312 268.550781 175.042969 C 268.234375 173.132812 266.648438 171.851562 267.132812 169.925781 C 266.546875 168.953125 265.554688 169.871094 264.863281 169.355469 C 261.558594 165.246094 256.15625 163.984375 251.808594 161.105469 C 247.507812 158.261719 243.285156 155.246094 239.035156 152.570312 C 239.207031 151.332031 237.515625 150.066406 237.332031 148.875 C 236.800781 145.390625 239.171875 142.023438 239.601562 138.914062 C 240.324219 133.710938 237.832031 128.300781 235.0625 124.40625 C 231.46875 119.355469 226.539062 116.28125 217.75 117.582031 C 209.195312 113.519531 194.589844 116.855469 191.921875 124.695312 C 184.929688 124.359375 174.453125 127.914062 172.054688 135.21875 C 171.167969 137.929688 171.5 141.433594 170.921875 144.605469 C 160.234375 148.578125 152.726562 160.230469 155.597656 174.191406 C 144.121094 179.242188 140.144531 202.941406 149.066406 213.734375 C 146.316406 217.78125 143.183594 221.707031 143.960938 228.242188 C 144.574219 233.40625 147.320312 238.964844 147.933594 243.035156 C 143.589844 247.171875 138.375 250.207031 138.566406 256.972656 C 138.601562 258.191406 140.03125 260.195312 139.703125 261.523438 C 139.269531 263.289062 132.675781 266.171875 131.1875 267.496094 C 127.816406 270.503906 126.164062 274.101562 124.945312 278.308594 C 127.914062 289.363281 122.917969 301.144531 117.28125 308.746094 C 114.285156 312.785156 111.898438 314.398438 107.347656 316.429688 C 105.992188 318.746094 107.066406 323.425781 107.066406 325.53125 C 107.066406 328.09375 105.550781 332.296875 107.347656 333.777344 C 108.304688 334.570312 109.179688 333.851562 110.753906 334.0625 C 113.71875 334.46875 118.042969 335.417969 118.132812 337.476562 C 118.277344 340.84375 114 339.957031 112.171875 339.46875 C 110.617188 340.332031 113.089844 341.070312 112.171875 342.03125 C 108.488281 343.363281 106.953125 341.582031 104.796875 340.039062 C 103.75 341.199219 105.253906 342.21875 105.363281 343.167969 C 101.136719 343.066406 95.066406 341.363281 89.183594 340.890625 C 86.421875 340.671875 82.871094 341.527344 81.804688 338.902344 C 82.578125 338.058594 84.082031 339.246094 84.644531 338.617188 C 85.265625 337.910156 85.515625 336.835938 86.628906 336.625 C 86.847656 334.957031 86.742188 334.523438 87.484375 333.210938 C 88.007812 320.089844 88.296875 307.585938 86.914062 294.238281 C 86.25 287.792969 85.027344 282.871094 81.523438 278.308594 C 75.324219 270.242188 63.066406 266.617188 51.722656 270.628906 C 46.636719 272.425781 40.316406 278.796875 39.519531 285.136719 C 38.378906 294.191406 44.300781 299.105469 49.453125 303.910156 C 51.496094 303.976562 53.5625 305.957031 55.980469 305.902344 C 60.996094 305.792969 71.164062 299.335938 70.171875 292.53125 C 69.847656 290.304688 67.628906 289.71875 67.898438 287.410156 C 72.617188 287.46875 74 292.621094 74.710938 296.230469 C 76.222656 303.878906 71.429688 310.390625 67.617188 314.4375 C 63.851562 318.433594 58.804688 322.84375 51.4375 323.253906 C 44.761719 323.625 36.25 321.882812 32.140625 317.847656 C 29.503906 315.261719 27.929688 311.90625 25.898438 308.179688 C 24.167969 305.007812 21.410156 301.125 20.789062 297.652344 C 19.757812 291.921875 20.503906 286.1875 21.070312 280.867188 C 22.285156 269.507812 27.035156 262.5625 35.546875 258.394531 C 40.273438 256.078125 46.664062 255.273438 53.140625 253.84375 C 58.316406 252.699219 65.601562 254.265625 70.738281 254.414062 C 76.261719 254.566406 79.457031 252.480469 83.507812 250.429688 C 85.433594 248.484375 86.914062 246.316406 88.617188 243.886719 C 90.152344 241.695312 92.289062 239.804688 94.011719 237.628906 C 97.097656 233.71875 99.6875 228.660156 102.242188 223.6875 C 106.046875 216.269531 109.183594 208.441406 106.496094 198.085938 C 98.21875 195.269531 85.691406 194.722656 77.546875 199.507812 C 82.179688 179.96875 62.992188 171.835938 47.183594 171.917969 C 50.058594 167.25 54.863281 163.425781 55.980469 157.691406 C 58.6875 143.777344 48.585938 132.210938 39.519531 126.402344 C 47.40625 123.304688 50.460938 115.367188 50.871094 104.78125 C 55.539062 111.101562 61.449219 116.179688 66.765625 121.847656 C 66.535156 122.835938 67.1875 122.941406 67.050781 123.839844 C 75.195312 132.171875 82.539062 141.3125 90.886719 149.441406 C 95.636719 156.863281 103.230469 163.621094 112.171875 168.21875 C 115.769531 170.066406 118.996094 173.46875 123.808594 171.917969 C 124.167969 165.15625 129.066406 156.933594 132.039062 150.863281 C 134.351562 146.148438 136.519531 141.660156 140.269531 138.347656 C 140.351562 137.386719 140.722656 136.714844 140.554688 135.503906 C 146.980469 124.492188 155.351562 113 165.8125 103.640625 C 170.742188 99.234375 176.042969 94.683594 181.992188 91.125 C 187.832031 87.632812 194.875 84.058594 201.574219 82.308594 C 207.8125 80.675781 214.660156 81.449219 221.152344 82.023438 C 234.722656 83.21875 250.910156 88.355469 258.050781 95.960938 C 258.625 96.570312 259.101562 97.433594 259.472656 98.238281 "/>
<path style=" stroke:none;fill-rule:evenodd;fill:rgb(91.758728%,16.468811%,16.468811%);fill-opacity:1;" d="M 105.078125 105.632812 C 105.253906 111.925781 106.914062 115.515625 109.050781 120.425781 C 112.269531 127.8125 115.015625 132.863281 120.121094 137.78125 C 122.449219 140.023438 125.3125 143.214844 128.632812 143.183594 C 128.398438 141.242188 126.496094 140.96875 124.945312 140.339844 C 115.199219 132.09375 107.613281 120.476562 106.214844 104.78125 L 105.359375 104.78125 C 105.347656 105.144531 105 105.175781 105.078125 105.632812 M 137.148438 138.917969 C 134.300781 143.078125 131.160156 147.9375 128.632812 152.855469 C 125.984375 158.023438 124.816406 164.546875 120.6875 167.648438 C 113.574219 163.871094 114.066406 152.476562 103.941406 151.71875 C 103.695312 149.160156 104.867188 146.160156 104.511719 143.753906 C 103.640625 137.875 100.105469 135.769531 94.863281 135.503906 C 98.765625 129.777344 101.839844 116.933594 95.996094 111.039062 C 97.648438 104.9375 100.566406 101.808594 104.226562 97.671875 C 104.746094 94.773438 106.464844 93.082031 108.199219 91.410156 C 108.660156 91.328125 108.6875 91.679688 109.050781 91.695312 C 107.574219 103.167969 111.070312 111.171875 115.863281 120.144531 C 120.753906 129.292969 126.46875 136.609375 137.148438 138.917969 "/>
<path style=" stroke:none;fill-rule:evenodd;fill:rgb(0%,0%,0%);fill-opacity:1;" d="M 243.859375 106.773438 C 242.09375 106.789062 240.804688 103.984375 239.601562 102.503906 C 236.667969 100.988281 233.542969 99.667969 230.238281 98.523438 C 230.273438 103.320312 230.917969 109.972656 235.628906 111.039062 C 235.25 112.148438 235.777344 112.515625 235.34375 113.316406 C 227.066406 113.316406 229.527344 101.136719 225.980469 95.960938 C 225.933594 95.628906 226.042969 95.453125 226.265625 95.394531 C 229.65625 96.378906 237.5 98.585938 240.738281 100.800781 C 242.636719 102.09375 245.433594 104.644531 243.859375 106.773438 "/>
<path style=" stroke:none;fill-rule:evenodd;fill:rgb(0%,0%,0%);fill-opacity:1;" d="M 105.363281 104.78125 L 106.214844 104.78125 C 107.613281 120.476562 115.199219 132.097656 124.945312 140.339844 C 126.492188 140.96875 128.398438 141.238281 128.636719 143.183594 C 125.3125 143.214844 122.449219 140.019531 120.121094 137.777344 C 115.015625 132.863281 112.269531 127.816406 109.050781 120.425781 C 106.910156 115.515625 105.253906 111.925781 105.078125 105.632812 C 105 105.175781 105.347656 105.144531 105.363281 104.78125 "/>
<path style=" stroke:none;fill-rule:evenodd;fill:rgb(100%,100%,100%);fill-opacity:1;" d="M 277.066406 115.589844 C 277.625 115.980469 278.6875 115.863281 279.335938 116.160156 C 282.363281 113.902344 276.265625 110.925781 277.066406 115.589844 M 272.808594 117.582031 C 272.710938 114.25 273.660156 110.394531 276.214844 109.332031 C 278.769531 108.269531 283.046875 110.046875 283.59375 112.175781 C 284.867188 117.132812 275.335938 125.15625 272.808594 117.582031 "/>
<path style=" stroke:none;fill-rule:evenodd;fill:rgb(0%,0%,0%);fill-opacity:1;" d="M 248.96875 122.417969 C 249.597656 125.191406 254.128906 127.808594 257.199219 127.253906 C 263.667969 126.085938 263.496094 111.691406 254.929688 113.316406 C 250.988281 114.058594 247.976562 118.019531 248.96875 122.417969 M 260.601562 112.179688 C 260.828125 114.304688 263.019531 115.632812 263.445312 117.863281 C 264.355469 122.71875 260.945312 128.484375 257.199219 128.957031 C 252.964844 129.503906 248.1875 125.949219 247.546875 122.703125 C 246.234375 116.015625 252.757812 109.84375 260.601562 112.179688 "/>
<path style=" stroke:none;fill-rule:evenodd;fill:rgb(100%,100%,100%);fill-opacity:1;" d="M 254.078125 120.425781 C 254.652344 121.5625 256.582031 122.1875 258.050781 121.5625 C 258.855469 117.789062 254.421875 117.242188 254.078125 120.425781 M 254.929688 113.316406 C 263.496094 111.691406 263.667969 126.085938 257.199219 127.253906 C 254.128906 127.808594 249.597656 125.191406 248.96875 122.417969 C 247.976562 118.019531 250.988281 114.058594 254.929688 113.316406 "/>
<path style=" stroke:none;fill-rule:evenodd;fill:rgb(0%,0%,0%);fill-opacity:1;" d="M 279.335938 116.160156 C 278.6875 115.863281 277.625 115.980469 277.066406 115.589844 C 276.265625 110.925781 282.363281 113.902344 279.335938 116.160156 "/>
<path style=" stroke:none;fill-rule:evenodd;fill:rgb(100%,59.999084%,59.999084%);fill-opacity:1;" d="M 151.621094 285.988281 C 149.03125 285.648438 147.546875 284.195312 146.230469 282.574219 C 144.972656 285.113281 149.363281 288.128906 151.621094 285.988281 M 164.675781 250.148438 C 164.953125 252.242188 168.648438 250.90625 170.636719 251.28125 C 170.8125 248.160156 166.46875 250.714844 164.675781 250.148438 M 166.378906 215.15625 C 168.519531 214.546875 171.375 214.660156 173.191406 213.734375 C 172.371094 212.136719 166.542969 212.65625 166.378906 215.15625 M 165.53125 191.261719 C 165.441406 191.644531 165.125 191.804688 165.246094 192.398438 C 167.164062 193.339844 169.957031 192.832031 171.773438 192.964844 L 171.773438 191.542969 C 170.085938 191.359375 166.710938 191.609375 165.53125 191.261719 M 172.910156 165.371094 C 172.6875 165.433594 172.578125 165.609375 172.625 165.941406 C 173.804688 167.226562 175.765625 167.726562 177.449219 168.5 C 177.601562 165.9375 174.042969 165.710938 172.910156 165.371094 M 233.359375 124.976562 C 217.386719 118.96875 200.078125 126.875 192.207031 136.925781 C 182.570312 151.226562 179.722656 172.898438 176.882812 193.535156 C 176.464844 196.570312 177.03125 198.554688 177.449219 200.933594 C 178.234375 205.394531 178.097656 209.972656 178.300781 214.300781 C 178.636719 221.410156 179.425781 227.820312 180.285156 235.066406 C 180.742188 238.894531 181.679688 241.738281 181.992188 245.308594 C 183.808594 266.195312 168.957031 276.003906 159.003906 291.964844 C 160.449219 297.53125 164.257812 300.730469 166.949219 305.050781 C 166.238281 306.757812 164.433594 307.78125 162.976562 309.03125 C 161.585938 310.21875 159.527344 311.230469 159.285156 312.730469 C 161.085938 313.335938 163.148438 310.984375 164.675781 309.597656 C 166.371094 308.066406 168.304688 306.253906 169.21875 304.480469 C 170.167969 304.292969 170.605469 303.59375 171.488281 303.339844 C 174.046875 300.535156 176.78125 292.46875 181.707031 296.515625 C 182.679688 297.519531 180.363281 298.269531 181.421875 299.359375 C 181.902344 300.183594 184.089844 298.519531 184.828125 299.929688 C 186.171875 301.429688 183.808594 302.597656 183.125 303.910156 C 182.671875 304.777344 182.808594 305.738281 182.273438 306.472656 C 181.734375 307.210938 180.332031 308.261719 179.152344 309.316406 C 176.210938 311.929688 172.21875 314.78125 168.933594 316.992188 C 165.5 319.3125 161.046875 323.5 157.015625 321.265625 C 153.636719 312.988281 146.027344 308.949219 140.839844 302.488281 C 132.960938 306.628906 128.730469 314.4375 115.863281 313.582031 C 115.660156 312.113281 117.472656 310.402344 118.703125 308.746094 C 124.132812 301.425781 129.359375 289.074219 126.648438 277.457031 C 128.984375 269.9375 134.417969 265.519531 141.691406 262.945312 C 137.832031 254.105469 143.078125 247.007812 149.917969 244.171875 C 146.816406 235.550781 141.535156 219.773438 151.339844 214.585938 C 148.582031 209.84375 145.042969 204.796875 145.097656 198.085938 C 145.15625 190.28125 148.578125 183.011719 152.191406 177.890625 C 153.25 177.722656 153.660156 176.894531 154.460938 176.46875 C 155.152344 175.925781 156.835938 176.382812 157.582031 175.898438 C 153.109375 161.753906 161.308594 148.570312 172.339844 145.746094 C 171.464844 132.132812 180.070312 125.078125 192.492188 126.683594 C 194.414062 125.171875 194.34375 122.488281 196.464844 120.710938 C 201.597656 116.40625 212.886719 116.105469 218.03125 119.289062 C 224.792969 117.589844 231.160156 120.304688 233.359375 124.976562 "/>
<path style=" stroke:none;fill-rule:evenodd;fill:rgb(0%,0%,0%);fill-opacity:1;" d="M 54.277344 117.863281 L 55.128906 117.863281 C 55.910156 121.925781 57.753906 125.722656 59.667969 128.960938 C 60.859375 130.96875 62.707031 132.394531 63.925781 134.363281 C 66.289062 138.1875 67.820312 141.863281 70.453125 145.175781 C 74.117188 149.789062 78.796875 153.78125 83.226562 157.976562 C 88.476562 162.949219 94.988281 168.296875 101.390625 172.484375 C 105.324219 175.058594 108.585938 177.074219 113.59375 178.742188 C 114.636719 179.089844 117.558594 178.890625 117 181.304688 C 111.140625 179.960938 104.972656 176.480469 99.96875 173.335938 C 99.90625 173.726562 99.738281 174.507812 99.117188 175.042969 C 96.933594 176.839844 94.800781 178.683594 92.875 180.734375 C 90.644531 182.105469 89.3125 185.886719 87.765625 186.992188 C 86.832031 184.773438 89.449219 182.890625 90.886719 181.304688 C 93.089844 178.882812 95.433594 177.003906 97.132812 174.191406 C 98.03125 173.953125 98.023438 172.808594 99.402344 173.054688 C 94.691406 168.578125 88.761719 165.324219 84.359375 160.535156 C 82.523438 161.257812 81.34375 162.632812 79.535156 163.382812 C 78.824219 163.921875 78.195312 165.667969 77.265625 165.089844 C 76.058594 166.941406 74.488281 169.855469 72.441406 169.925781 C 75.003906 165.570312 79.273438 162.929688 82.65625 159.398438 C 71.214844 149.816406 63.15625 136.84375 55.410156 123.554688 C 55.230469 121.75 54.480469 120.507812 53.992188 119.003906 C 53.871094 118.410156 54.1875 118.25 54.277344 117.863281 "/>
<path style=" stroke:none;fill-rule:evenodd;fill:rgb(0%,0%,0%);fill-opacity:1;" d="M 258.050781 121.5625 C 256.582031 122.1875 254.652344 121.5625 254.078125 120.425781 C 254.421875 117.242188 258.855469 117.789062 258.050781 121.5625 "/>
<path style=" stroke:none;fill-rule:evenodd;fill:rgb(83.918762%,78.819275%,74.119568%);fill-opacity:1;" d="M 303.742188 129.246094 C 304.191406 132.730469 301.898438 135.929688 300.339844 138.347656 C 296.375 138.242188 294.164062 136.382812 293.808594 132.65625 C 297.664062 133.152344 301.609375 131.414062 303.742188 129.246094 "/>
<path style=" stroke:none;fill-rule:evenodd;fill:rgb(100%,100%,100%);fill-opacity:1;" d="M 89.753906 140.339844 C 97.339844 139.417969 102.273438 145.765625 98.835938 152.285156 C 95.066406 149.042969 91.703125 145.402344 89.753906 140.339844 "/>
<path style=" stroke:none;fill-rule:evenodd;fill:rgb(0%,0%,0%);fill-opacity:1;" d="M 71.871094 149.15625 C 69.039062 150.492188 64.75 151.878906 63.644531 153.992188 C 62.332031 152.707031 65.972656 151.632812 66.480469 150.296875 C 68.554688 150.453125 70.207031 147.5625 71.871094 149.15625 "/>
<path style=" stroke:none;fill-rule:evenodd;fill:rgb(0%,0%,0%);fill-opacity:1;" d="M 291.257812 165.371094 C 293.171875 163.726562 292.695312 157.199219 290.972656 155.703125 L 290.40625 155.703125 C 290.820312 159.425781 289.425781 163.285156 291.257812 165.371094 M 290.40625 167.078125 C 288 164.070312 288.839844 157.082031 290.121094 153.707031 C 295.226562 152.855469 295.710938 166.84375 290.40625 167.078125 "/>
<path style=" stroke:none;fill-rule:evenodd;fill:rgb(0%,0%,0%);fill-opacity:1;" d="M 299.488281 162.8125 C 300.890625 161.300781 301.230469 156.488281 299.203125 155.414062 C 298.90625 157.707031 298.054688 161.222656 299.488281 162.8125 M 300.902344 153.710938 C 302.382812 155.960938 303.675781 166.4375 297.785156 163.953125 C 296.8125 160.847656 297.71875 157.144531 296.933594 154.277344 C 297.886719 153.515625 299.535156 153.296875 300.902344 153.710938 "/>
<path style=" stroke:none;fill-rule:evenodd;fill:rgb(100%,100%,100%);fill-opacity:1;" d="M 100.820312 155.132812 C 105.457031 154.753906 109.03125 157.902344 109.902344 162.242188 C 106.5 160.246094 103.726562 157.621094 100.820312 155.132812 "/>
<path style=" stroke:none;fill-rule:evenodd;fill:rgb(84.709167%,38.038635%,38.038635%);fill-opacity:1;" d="M 299.203125 155.414062 C 301.230469 156.488281 300.890625 161.300781 299.488281 162.8125 C 298.054688 161.222656 298.90625 157.707031 299.203125 155.414062 "/>
<path style=" stroke:none;fill-rule:evenodd;fill:rgb(84.709167%,38.038635%,38.038635%);fill-opacity:1;" d="M 290.40625 155.699219 L 290.972656 155.699219 C 292.695312 157.199219 293.171875 163.726562 291.257812 165.371094 C 289.425781 163.285156 290.820312 159.425781 290.40625 155.699219 "/>
<path style=" stroke:none;fill-rule:evenodd;fill:rgb(0%,0%,0%);fill-opacity:1;" d="M 177.449219 168.503906 C 175.765625 167.726562 173.804688 167.226562 172.625 165.941406 C 172.578125 165.609375 172.6875 165.4375 172.910156 165.371094 C 174.042969 165.710938 177.601562 165.9375 177.449219 168.503906 "/>
<path style=" stroke:none;fill-rule:evenodd;fill:rgb(91.758728%,16.468811%,16.468811%);fill-opacity:1;" d="M 204.125 187.5625 C 203.371094 187.273438 202.511719 187.09375 202.425781 186.140625 C 203.746094 185.390625 204.15625 186.597656 204.125 187.5625 "/>
<path style=" stroke:none;fill-rule:evenodd;fill:rgb(91.758728%,16.468811%,16.468811%);fill-opacity:1;" d="M 194.195312 187.5625 C 195.199219 189.625 193.574219 192.644531 195.328125 194.105469 C 198.6875 193.488281 199.859375 190.679688 201.289062 188.128906 C 202.613281 188.035156 202.960938 188.917969 203.558594 189.550781 C 203.089844 191.546875 201.027344 191.941406 200.4375 193.820312 C 203.152344 195.242188 208.328125 194.449219 207.816406 197.800781 C 207.339844 200.921875 203.195312 198.757812 201.003906 200.078125 C 202.972656 201.453125 205.253906 205.507812 202.707031 208.042969 C 200.722656 206.242188 199.039062 204.136719 196.464844 202.921875 C 191.449219 205.667969 185.214844 207.199219 179.71875 209.464844 C 179.203125 206.636719 179.253906 203.839844 178.867188 201.5 C 183.078125 201.695312 188.203125 198.246094 192.207031 196.378906 C 193.457031 193.457031 191.769531 190.488281 192.207031 187.84375 C 193.101562 187.988281 193.210938 187.332031 194.195312 187.5625 "/>
<path style=" stroke:none;fill-rule:evenodd;fill:rgb(0%,0%,0%);fill-opacity:1;" d="M 171.773438 191.542969 L 171.773438 192.964844 C 169.957031 192.832031 167.167969 193.339844 165.246094 192.398438 C 165.125 191.804688 165.441406 191.644531 165.53125 191.261719 C 166.710938 191.609375 170.085938 191.359375 171.773438 191.542969 "/>
<path style=" stroke:none;fill-rule:evenodd;fill:rgb(0%,0%,0%);fill-opacity:1;" d="M 123.242188 202.070312 C 123.125 211.804688 126.855469 222.246094 132.324219 228.242188 C 134.09375 227.984375 134.933594 225.992188 137.433594 226.535156 C 140.800781 227.261719 139.84375 231.511719 138.566406 234.214844 C 141.113281 234.90625 144.140625 234.648438 144.246094 237.628906 C 144.359375 240.957031 139.738281 242.386719 136.863281 242.75 C 139.707031 249.890625 128.675781 249.480469 126.648438 245.59375 C 126.15625 246.523438 126.039062 247.828125 125.226562 248.441406 C 124.402344 248.75 123.214844 248.695312 122.390625 249.007812 C 119.214844 246.824219 117.3125 241.496094 119.554688 237.058594 C 115.007812 231.636719 110.578125 223.667969 109.902344 214.585938 C 109.722656 212.140625 108.902344 208.097656 111.039062 207.757812 C 111.214844 217.171875 112.847656 226.652344 117.851562 232.792969 C 119.015625 234.222656 120.632812 235.125 121.824219 236.492188 C 121.621094 238.148438 120.007812 238.636719 119.835938 240.757812 C 119.59375 243.734375 121.648438 247.574219 123.527344 247.300781 C 126.246094 246.90625 124.597656 243.375 125.226562 241.042969 C 127.65625 241.746094 127.621094 245.320312 130.054688 246.449219 C 131.746094 247.234375 135.179688 247.511719 136.011719 245.59375 C 136.070312 242.121094 132.214844 242.574219 131.472656 239.90625 C 132.683594 238.730469 133.972656 240.800781 136.011719 241.042969 C 139.082031 241.402344 143.128906 239.796875 142.824219 237.628906 C 142.382812 234.46875 137.332031 237.132812 135.164062 235.636719 C 136.046875 233.53125 139.753906 230.855469 137.433594 228.242188 C 135.191406 227.472656 134.363281 230.175781 132.324219 230.515625 C 125.496094 224.082031 122.378906 213.070312 121.253906 201.785156 C 121.65625 201.378906 122.632812 201.847656 123.242188 202.070312 "/>
<path style=" stroke:none;fill-rule:evenodd;fill:rgb(0%,0%,0%);fill-opacity:1;" d="M 173.191406 213.734375 C 171.371094 214.660156 168.519531 214.546875 166.378906 215.15625 C 166.542969 212.65625 172.371094 212.136719 173.191406 213.734375 "/>
<path style=" stroke:none;fill-rule:evenodd;fill:rgb(0%,0%,0%);fill-opacity:1;" d="M 170.636719 251.28125 C 168.648438 250.90625 164.953125 252.242188 164.675781 250.148438 C 166.464844 250.714844 170.8125 248.160156 170.636719 251.28125 "/>
<path style=" stroke:none;fill-rule:evenodd;fill:rgb(0%,0%,0%);fill-opacity:1;" d="M 146.230469 282.574219 C 147.542969 284.195312 149.027344 285.648438 151.621094 285.988281 C 149.363281 288.128906 144.972656 285.113281 146.230469 282.574219 "/>
<g clip-path="url(#clip35)" clip-rule="nonzero">
<path style=" stroke:none;fill-rule:evenodd;fill:rgb(0%,0%,0%);fill-opacity:1;" d="M 192.207031 187.84375 C 191.769531 190.488281 193.457031 193.457031 192.207031 196.378906 C 188.203125 198.246094 183.078125 201.695312 178.867188 201.5 C 179.253906 203.839844 179.203125 206.636719 179.71875 209.464844 C 185.210938 207.199219 191.449219 205.667969 196.464844 202.921875 C 199.039062 204.136719 200.722656 206.242188 202.707031 208.042969 C 205.253906 205.507812 202.972656 201.453125 201.003906 200.078125 C 203.195312 198.761719 207.339844 200.921875 207.816406 197.804688 C 208.328125 194.449219 203.152344 195.242188 200.4375 193.820312 C 201.027344 191.945312 203.089844 191.546875 203.558594 189.554688 C 202.960938 188.917969 202.613281 188.035156 201.289062 188.128906 C 199.859375 190.679688 198.6875 193.488281 195.328125 194.105469 C 193.574219 192.644531 195.199219 189.625 194.195312 187.5625 C 193.210938 187.332031 193.101562 187.984375 192.207031 187.84375 M 202.425781 186.140625 C 202.511719 187.09375 203.371094 187.273438 204.125 187.5625 C 204.15625 186.597656 203.746094 185.390625 202.425781 186.140625 M 109.902344 162.242188 C 109.03125 157.902344 105.457031 154.753906 100.820312 155.132812 C 103.726562 157.621094 106.5 160.246094 109.902344 162.242188 M 98.835938 152.285156 C 102.273438 145.765625 97.34375 139.417969 89.753906 140.339844 C 91.703125 145.402344 95.070312 149.042969 98.835938 152.285156 M 293.808594 132.65625 C 294.164062 136.382812 296.375 138.242188 300.339844 138.347656 C 301.898438 135.929688 304.191406 132.730469 303.742188 129.246094 C 301.609375 131.414062 297.664062 133.148438 293.808594 132.65625 M 218.03125 119.289062 C 212.886719 116.105469 201.597656 116.40625 196.464844 120.710938 C 194.34375 122.488281 194.414062 125.175781 192.492188 126.683594 C 180.070312 125.078125 171.464844 132.132812 172.339844 145.742188 C 161.308594 148.570312 153.105469 161.757812 157.582031 175.898438 C 156.835938 176.382812 155.152344 175.925781 154.460938 176.46875 C 153.660156 176.894531 153.253906 177.71875 152.191406 177.890625 C 148.578125 183.011719 145.15625 190.28125 145.097656 198.085938 C 145.042969 204.796875 148.582031 209.84375 151.339844 214.585938 C 141.535156 219.773438 146.816406 235.550781 149.921875 244.171875 C 143.078125 247.007812 137.832031 254.105469 141.691406 262.945312 C 134.417969 265.519531 128.984375 269.9375 126.648438 277.457031 C 129.359375 289.074219 124.132812 301.425781 118.703125 308.746094 C 117.472656 310.402344 115.660156 312.113281 115.863281 313.582031 C 128.730469 314.4375 132.957031 306.632812 140.835938 302.488281 C 146.027344 308.949219 153.636719 312.988281 157.015625 321.265625 C 161.046875 323.5 165.5 319.3125 168.933594 316.992188 C 172.21875 314.78125 176.210938 311.929688 179.152344 309.316406 C 180.332031 308.261719 181.734375 307.210938 182.273438 306.472656 C 182.808594 305.738281 182.671875 304.777344 183.125 303.910156 C 183.808594 302.597656 186.171875 301.429688 184.828125 299.929688 C 184.089844 298.519531 181.902344 300.183594 181.421875 299.359375 C 180.363281 298.269531 182.679688 297.519531 181.707031 296.515625 C 176.78125 292.46875 174.046875 300.535156 171.488281 303.339844 C 170.605469 303.59375 170.167969 304.292969 169.21875 304.480469 C 168.304688 306.253906 166.371094 308.066406 164.675781 309.597656 C 163.148438 310.984375 161.085938 313.335938 159.285156 312.730469 C 159.527344 311.230469 161.585938 310.21875 162.976562 309.03125 C 164.433594 307.78125 166.234375 306.757812 166.949219 305.050781 C 164.257812 300.730469 160.449219 297.53125 159.003906 291.960938 C 168.957031 276.003906 183.808594 266.195312 181.992188 245.308594 C 181.679688 241.738281 180.742188 238.894531 180.285156 235.066406 C 179.425781 227.820312 178.636719 221.410156 178.300781 214.300781 C 178.097656 209.972656 178.230469 205.394531 177.449219 200.933594 C 177.03125 198.554688 176.464844 196.566406 176.882812 193.535156 C 179.722656 172.898438 182.570312 151.226562 192.207031 136.925781 C 200.078125 126.875 217.386719 118.96875 233.359375 124.976562 C 231.160156 120.304688 224.792969 117.589844 218.03125 119.289062 M 283.59375 112.175781 C 283.046875 110.046875 278.769531 108.269531 276.214844 109.332031 C 273.660156 110.394531 272.710938 114.25 272.808594 117.582031 C 275.335938 125.15625 284.867188 117.132812 283.59375 112.175781 M 115.863281 120.144531 C 111.070312 111.171875 107.574219 103.167969 109.050781 91.695312 C 108.6875 91.679688 108.660156 91.328125 108.199219 91.410156 C 106.464844 93.082031 104.742188 94.773438 104.226562 97.671875 C 100.566406 101.808594 97.648438 104.9375 95.996094 111.039062 C 101.839844 116.933594 98.765625 129.777344 94.859375 135.503906 C 100.105469 135.769531 103.640625 137.875 104.511719 143.753906 C 104.871094 146.164062 103.695312 149.160156 103.945312 151.71875 C 114.066406 152.476562 113.574219 163.875 120.6875 167.648438 C 124.820312 164.546875 125.984375 158.023438 128.636719 152.855469 C 131.160156 147.9375 134.300781 143.078125 137.148438 138.917969 C 126.46875 136.609375 120.753906 129.292969 115.863281 120.144531 M 258.050781 95.960938 C 250.910156 88.355469 234.722656 83.21875 221.152344 82.023438 C 214.660156 81.449219 207.8125 80.675781 201.574219 82.304688 C 194.875 84.058594 187.832031 87.632812 181.992188 91.125 C 176.042969 94.683594 170.742188 99.234375 165.8125 103.640625 C 155.351562 113 146.980469 124.492188 140.554688 135.503906 C 140.722656 136.714844 140.351562 137.386719 140.269531 138.347656 C 136.519531 141.660156 134.351562 146.148438 132.039062 150.863281 C 129.066406 156.933594 124.167969 165.15625 123.808594 171.917969 C 118.996094 173.46875 115.769531 170.066406 112.171875 168.21875 C 103.230469 163.621094 95.636719 156.863281 90.886719 149.441406 C 82.539062 141.3125 75.195312 132.171875 67.050781 123.839844 C 67.1875 122.941406 66.535156 122.835938 66.765625 121.847656 C 61.449219 116.179688 55.539062 111.101562 50.871094 104.78125 C 50.460938 115.371094 47.40625 123.304688 39.519531 126.402344 C 48.585938 132.210938 58.6875 143.777344 55.980469 157.691406 C 54.863281 163.425781 50.058594 167.246094 47.183594 171.917969 C 62.992188 171.839844 82.179688 179.96875 77.546875 199.511719 C 85.691406 194.722656 98.21875 195.269531 106.496094 198.085938 C 109.183594 208.441406 106.046875 216.269531 102.242188 223.6875 C 99.6875 228.660156 97.097656 233.71875 94.011719 237.628906 C 92.289062 239.804688 90.152344 241.695312 88.617188 243.886719 C 86.914062 246.316406 85.433594 248.484375 83.507812 250.429688 C 79.457031 252.480469 76.261719 254.566406 70.738281 254.414062 C 65.601562 254.265625 58.316406 252.699219 53.140625 253.84375 C 46.664062 255.273438 40.273438 256.078125 35.546875 258.394531 C 27.035156 262.5625 22.285156 269.507812 21.070312 280.867188 C 20.503906 286.1875 19.757812 291.921875 20.789062 297.652344 C 21.410156 301.125 24.167969 305.007812 25.898438 308.179688 C 27.929688 311.90625 29.503906 315.261719 32.140625 317.847656 C 36.25 321.882812 44.761719 323.625 51.4375 323.253906 C 58.804688 322.84375 63.851562 318.433594 67.617188 314.4375 C 71.429688 310.390625 76.222656 303.878906 74.710938 296.230469 C 74 292.621094 72.617188 287.46875 67.898438 287.410156 C 67.628906 289.71875 69.847656 290.304688 70.171875 292.53125 C 71.164062 299.335938 60.996094 305.792969 55.980469 305.902344 C 53.5625 305.957031 51.496094 303.976562 49.453125 303.910156 C 44.300781 299.105469 38.378906 294.191406 39.519531 285.136719 C 40.316406 278.796875 46.636719 272.425781 51.722656 270.628906 C 63.066406 266.617188 75.324219 270.242188 81.523438 278.308594 C 85.027344 282.871094 86.25 287.792969 86.914062 294.238281 C 88.296875 307.585938 88.007812 320.085938 87.484375 333.210938 C 86.742188 334.523438 86.847656 334.957031 86.628906 336.625 C 85.515625 336.835938 85.265625 337.910156 84.644531 338.617188 C 84.082031 339.246094 82.578125 338.058594 81.804688 338.902344 C 82.871094 341.527344 86.421875 340.671875 89.183594 340.890625 C 95.066406 341.363281 101.136719 343.066406 105.363281 343.167969 C 105.253906 342.21875 103.75 341.199219 104.796875 340.039062 C 106.953125 341.582031 108.488281 343.363281 112.171875 342.03125 C 113.089844 341.070312 110.617188 340.332031 112.171875 339.46875 C 114 339.957031 118.277344 340.84375 118.132812 337.476562 C 118.042969 335.417969 113.71875 334.46875 110.753906 334.0625 C 109.179688 333.851562 108.304688 334.570312 107.347656 333.777344 C 105.550781 332.296875 107.066406 328.09375 107.066406 325.53125 C 107.066406 323.425781 105.992188 318.746094 107.347656 316.429688 C 111.898438 314.398438 114.285156 312.785156 117.28125 308.746094 C 122.917969 301.144531 127.914062 289.363281 124.945312 278.308594 C 126.164062 274.101562 127.816406 270.503906 131.1875 267.496094 C 132.675781 266.171875 139.269531 263.289062 139.703125 261.523438 C 140.03125 260.195312 138.601562 258.191406 138.566406 256.972656 C 138.375 250.203125 143.589844 247.171875 147.933594 243.035156 C 147.320312 238.964844 144.574219 233.40625 143.960938 228.242188 C 143.183594 221.707031 146.316406 217.78125 149.066406 213.734375 C 140.144531 202.9375 144.121094 179.242188 155.597656 174.191406 C 152.726562 160.230469 160.234375 148.578125 170.921875 144.605469 C 171.5 141.433594 171.167969 137.929688 172.054688 135.21875 C 174.453125 127.914062 184.929688 124.359375 191.921875 124.695312 C 194.589844 116.855469 209.195312 113.519531 217.75 117.582031 C 226.539062 116.28125 231.46875 119.359375 235.0625 124.40625 C 237.832031 128.300781 240.324219 133.710938 239.601562 138.917969 C 239.171875 142.023438 236.800781 145.390625 237.332031 148.875 C 237.515625 150.066406 239.207031 151.332031 239.035156 152.570312 C 243.285156 155.246094 247.507812 158.261719 251.808594 161.105469 C 256.15625 163.984375 261.558594 165.246094 264.863281 169.355469 C 265.554688 169.871094 266.546875 168.953125 267.132812 169.925781 C 266.648438 171.851562 268.234375 173.132812 268.550781 175.042969 C 269.046875 178.070312 267.847656 181.382812 268.832031 184.148438 C 278.472656 186.511719 289.652344 189.800781 298.066406 185 C 300.425781 181.941406 301.0625 178.613281 302.039062 173.335938 C 302.953125 168.414062 304.199219 163.246094 304.59375 158.261719 C 305.230469 150.277344 301.457031 146.554688 300.902344 140.339844 C 295.132812 140.054688 291.738281 137.394531 292.109375 130.949219 C 288.859375 127.191406 283.742188 125.300781 281.039062 120.996094 C 274.972656 125.828125 268.203125 117.140625 272.808594 111.324219 C 271.722656 107.476562 267.816406 106.46875 267.414062 101.9375 C 269.632812 99.320312 271.296875 96.148438 273.09375 93.117188 C 270.472656 92.339844 268.789062 91.09375 266.566406 91.410156 C 262.5625 91.976562 262.292969 96.171875 259.472656 98.238281 C 259.101562 97.433594 258.625 96.574219 258.050781 95.960938 M 258.902344 91.695312 C 263.292969 85.191406 276.441406 88.09375 279.621094 94.535156 C 276.960938 95.5 271.113281 99.984375 271.675781 103.640625 C 272.15625 106.804688 274.910156 104.6875 277.066406 104.78125 C 284.515625 105.105469 291.351562 114.367188 285.011719 120.425781 C 287.84375 123.65625 291.503906 126.054688 294.945312 128.675781 C 299.988281 127.566406 302.832031 124.253906 305.445312 120.710938 C 310.433594 122.355469 309.257812 127.128906 308 132.375 C 307.113281 136.070312 304.878906 139.8125 305.164062 142.902344 C 305.378906 145.25 307.109375 147.589844 307.714844 150.011719 C 308.960938 154.964844 308.8125 160.578125 308 165.941406 C 306.757812 174.121094 305.394531 182.265625 301.191406 188.414062 C 295.097656 191.324219 289.921875 192.226562 281.324219 190.691406 C 275.488281 189.648438 266.304688 188.964844 264.296875 184.433594 C 262.726562 180.890625 265.179688 175.003906 262.023438 171.628906 C 259.398438 168.828125 254.15625 167.050781 249.535156 163.949219 C 245.375 161.15625 240.722656 158.488281 237.617188 155.984375 C 235.699219 154.4375 233.375 150.878906 233.074219 147.738281 C 232.707031 143.890625 236.339844 137.882812 235.0625 133.796875 C 234.355469 131.53125 230.015625 127.984375 227.683594 127.253906 C 224.035156 126.105469 218.753906 126.679688 215.761719 127.253906 C 205.191406 129.285156 197.609375 136.234375 192.492188 144.605469 C 186.148438 159.015625 184.457031 178.085938 181.136719 195.527344 C 183.125 195.710938 186.050781 194.386719 188.234375 193.820312 C 187.875 189.804688 187.089844 185.777344 189.367188 183.292969 C 192.195312 181.902344 195.476562 183.40625 197.316406 184.714844 C 198.910156 184.636719 199.289062 182.871094 201.003906 182.441406 C 205.539062 181.304688 210.40625 185.863281 207.816406 191.542969 C 210.160156 193.152344 213.535156 196.933594 211.789062 200.933594 C 211.179688 202.332031 209.496094 202.839844 207.816406 203.492188 C 209.890625 205.964844 207.800781 210.777344 205.828125 212.59375 C 201.804688 213.316406 199.300781 211.308594 197.597656 208.898438 C 193.792969 210.617188 190.691406 210.8125 186.246094 211.457031 C 189.285156 227.015625 188.308594 245.132812 186.246094 257.824219 C 185.226562 264.097656 182.449219 270.023438 179.4375 273.1875 C 178.957031 273.691406 178.542969 274.46875 177.449219 274.324219 C 174.203125 280.933594 168.230469 284.808594 164.675781 291.109375 C 165.871094 294.179688 167.90625 296.40625 169.503906 299.074219 C 171.519531 297.339844 172.976562 293.253906 175.746094 291.960938 C 177.59375 291.101562 181.078125 290.410156 183.125 291.109375 C 184.882812 291.710938 184.792969 293.875 186.53125 296.230469 C 187.460938 297.488281 189.648438 297.976562 189.652344 300.496094 C 189.65625 302.972656 187.269531 303.878906 187.382812 306.472656 C 184.277344 310.152344 180.070312 313.046875 175.460938 316.710938 C 172.136719 319.359375 168.773438 322.253906 165.8125 323.824219 C 161.886719 325.902344 157.710938 326.226562 153.609375 324.390625 C 151.070312 317.644531 145.636719 313.800781 141.40625 308.746094 C 137.238281 311.738281 132.214844 314.664062 126.082031 316.140625 C 121.523438 317.238281 115.007812 316.273438 111.039062 318.132812 C 110.113281 321.71875 111.714844 325.90625 110.1875 329.511719 C 114.289062 331.875 121.773438 331.867188 122.105469 337.195312 C 122.257812 339.589844 120.375 340.320312 120.121094 342.882812 C 117.5625 344.425781 110.410156 346.324219 106.214844 346.867188 C 102.003906 347.410156 96.707031 345.804688 91.453125 344.871094 C 86.1875 343.941406 79.152344 345.246094 77.546875 341.175781 C 76.011719 337.277344 79.929688 333.683594 83.226562 333.777344 C 84.070312 316.398438 86.828125 291.132812 76.980469 279.730469 C 72.640625 274.703125 61.875 269.320312 52.859375 274.042969 C 47.867188 276.652344 42.265625 283.1875 44.34375 290.824219 C 45.355469 294.542969 50.832031 301.203125 54.558594 301.917969 C 59.460938 302.859375 66.171875 297.894531 66.199219 294.523438 C 66.21875 291.71875 63.058594 291.082031 63.074219 288.546875 C 63.113281 282.40625 73.148438 284.023438 76.128906 286.273438 C 79.042969 288.472656 80.996094 294.371094 80.386719 300.210938 C 79.878906 305.074219 75.0625 312.046875 71.875 315.855469 C 68.089844 320.382812 64.039062 323.035156 57.398438 324.960938 C 43.808594 328.90625 30.5 324.59375 24.191406 314.722656 C 22.871094 312.652344 21.496094 309.597656 20.21875 307.039062 C 17.351562 301.296875 16.117188 295.4375 16.246094 288.265625 C 16.433594 278.089844 19.433594 265.46875 25.328125 260.101562 C 27.167969 258.429688 29.882812 256.894531 32.140625 255.550781 C 38.863281 251.554688 50.019531 249.871094 59.386719 249.859375 C 63.535156 249.855469 68.273438 251.585938 73.007812 251 C 80.128906 250.117188 84.378906 243.289062 88.335938 237.914062 C 92.542969 232.191406 95.839844 225.191406 99.117188 218 C 101.410156 212.96875 103.644531 208.605469 102.808594 202.921875 C 97.449219 201.023438 91.054688 198.875 85.496094 200.078125 C 81.109375 201.027344 77.773438 204.738281 73.574219 204.628906 C 73.457031 198.695312 76.386719 194.558594 73.574219 188.984375 C 68.703125 179.316406 53.347656 174.167969 40.9375 176.183594 C 40.9375 172.714844 44.082031 170.414062 46.046875 167.933594 C 48.109375 165.328125 49.761719 162.5625 51.722656 159.96875 C 54.8125 143.832031 43.5 134.195312 33.84375 127.253906 C 35.078125 122.402344 40.101562 123.929688 43.207031 120.425781 C 44.519531 118.949219 46.621094 112.628906 46.898438 110.183594 C 47.582031 104.101562 44.28125 98.324219 42.074219 94.824219 C 42.511719 92.871094 44.234375 90.253906 46.328125 90.273438 C 48.3125 90.289062 51.90625 94.75 53.710938 96.8125 C 56.210938 99.671875 58.238281 101.726562 60.519531 103.925781 C 65.0625 108.296875 71.949219 113.539062 74.144531 117.867188 C 74.433594 118.4375 74.585938 120.046875 74.992188 120.996094 C 76.082031 123.515625 78.617188 125.398438 80.953125 128.390625 C 82.585938 130.484375 85.003906 135.980469 86.347656 136.070312 C 87.601562 136.160156 91.273438 129.617188 91.742188 128.105469 C 93.847656 121.265625 90.132812 114.625 88.050781 110.46875 C 89.617188 107.605469 92.578125 106.496094 94.859375 103.925781 C 98.050781 100.335938 100.316406 94.988281 103.375 90.839844 C 104.808594 88.898438 106.460938 86.511719 107.917969 84.582031 C 109.175781 82.917969 110.910156 79.738281 113.59375 81.167969 C 114.09375 88.210938 111.773438 99.859375 114.726562 108.191406 C 117.027344 114.683594 122.492188 124.5 126.363281 128.960938 C 128.640625 131.582031 131.726562 133.550781 135.445312 134.367188 C 137.472656 131.65625 139.660156 129.105469 140.835938 125.546875 C 145.488281 120.0625 149.101562 113.539062 154.175781 108.480469 C 163.148438 101.839844 170.4375 93.285156 180.570312 87.425781 C 182.164062 86.503906 184.210938 85.808594 185.964844 84.867188 C 189.8125 82.800781 194.105469 80.355469 199.019531 78.894531 C 205.746094 76.890625 215.074219 76.671875 222.574219 76.332031 C 237.777344 78.351562 249.351562 84.007812 258.902344 91.695312 "/>
</g>
<g clip-path="url(#clip36)" clip-rule="nonzero">
<g clip-path="url(#clip37)" clip-rule="nonzero">
<g clip-path="url(#clip38)" clip-rule="nonzero">
<g clip-path="url(#clip39)" clip-rule="nonzero">
<path style=" stroke:none;fill-rule:nonzero;fill:rgb(100%,100%,100%);fill-opacity:1;" d="M 298.800781 82.121094 C 300.152344 86.386719 299.859375 89.566406 294.367188 93.199219 C 291.125 95.339844 288.609375 96.457031 287.128906 97 C 287.238281 95.410156 287.308594 94.269531 287.277344 93.851562 C 287.203125 92.859375 284.304688 90.667969 278.214844 89.0625 C 281.023438 87.664062 284.949219 86.753906 284.992188 86.742188 L 284.902344 85.738281 C 284.351562 85.714844 283.769531 85.726562 283.171875 85.769531 C 279.683594 86.027344 276.207031 87.359375 274.292969 88.207031 C 272.085938 87.8125 269.582031 87.507812 266.777344 87.332031 C 268.371094 85.152344 270.632812 81.78125 270.757812 81.59375 L 271.808594 80.03125 L 270.109375 80.855469 C 267.398438 82.171875 264.5625 85.527344 263.261719 87.191406 C 262.246094 87.167969 261.195312 87.164062 260.109375 87.179688 C 258.765625 87.199219 257.414062 87.257812 256.097656 87.355469 C 251.839844 87.671875 248.113281 88.363281 244.917969 89.214844 C 243.375 87.304688 239.613281 82.839844 237 81.289062 L 236.304688 81.992188 C 236.460938 82.246094 239.703125 87.476562 242.253906 89.988281 C 240.980469 90.398438 239.8125 90.824219 238.75 91.253906 C 237.328125 90.800781 234.617188 90.128906 231.519531 90.359375 C 228.824219 90.558594 226.410156 91.40625 224.363281 92.878906 L 224.859375 93.757812 C 224.886719 93.746094 227.261719 92.738281 230.496094 92.5 C 232.1875 92.371094 233.792969 92.480469 235.300781 92.808594 C 232.625 94.160156 231.179688 95.25 231.035156 95.359375 L 229.894531 96.242188 L 231.339844 96.269531 C 231.417969 96.269531 231.5 96.265625 231.585938 96.261719 C 232.425781 96.199219 233.484375 95.769531 235.089844 95.113281 C 238.789062 93.601562 244.984375 91.070312 255.722656 90.273438 C 256.253906 90.234375 256.796875 90.195312 257.34375 90.167969 C 273.027344 89.296875 283.132812 94.234375 284.320312 95.113281 C 284.3125 95.5 284.285156 96.472656 284.257812 97.5625 C 284.1875 99.921875 284.082031 103.457031 284.035156 106.8125 C 280.410156 105.832031 270.179688 103.542969 256.402344 104.375 C 255.9375 104.40625 255.476562 104.4375 255.011719 104.46875 C 240.410156 105.554688 230.3125 109.53125 226.125 112.425781 C 225.460938 110.75 224.851562 109.53125 224.429688 108.761719 C 227.851562 106.660156 228.84375 104.894531 228.890625 104.800781 L 229.660156 103.363281 L 228.207031 104.109375 C 221.546875 107.519531 218.035156 108.917969 215.660156 109.09375 C 213.003906 109.292969 211.757812 107.839844 210.265625 104.914062 C 207.386719 99.265625 207.34375 97.898438 209.796875 90.253906 C 212.328125 82.371094 215.203125 74.441406 220.019531 71.71875 C 221.414062 70.929688 223.125 70.453125 225.09375 70.304688 C 227.226562 70.148438 229.222656 70.410156 230.476562 70.644531 C 227.390625 74.273438 225.992188 77.105469 225.894531 77.304688 L 226.757812 77.828125 C 226.847656 77.714844 235.613281 66.335938 245.078125 62.582031 C 247.066406 61.792969 249.007812 61.324219 250.855469 61.1875 C 254.542969 60.914062 257.09375 62.027344 258.398438 62.816406 C 255.492188 64.652344 254.152344 66.253906 254.054688 66.371094 L 254.726562 67.121094 C 260.632812 63.328125 268.007812 60.851562 274.957031 60.335938 C 280.789062 59.902344 285.53125 60.910156 287.644531 63.03125 C 292.125 67.527344 292.042969 76.753906 292.042969 76.84375 L 292.015625 78.621094 L 292.976562 77.128906 C 293.328125 76.585938 293.546875 75.714844 293.648438 74.644531 C 295.171875 76.105469 297.789062 78.945312 298.800781 82.121094 Z M 298.800781 82.121094 "/>
</g>
</g>
</g>
</g>
<g clip-path="url(#clip40)" clip-rule="nonzero">
<g clip-path="url(#clip41)" clip-rule="nonzero">
<g clip-path="url(#clip42)" clip-rule="nonzero">
<g clip-path="url(#clip43)" clip-rule="nonzero">
<path style=" stroke:none;fill-rule:nonzero;fill:rgb(0%,0%,0%);fill-opacity:1;" d="M 235.089844 95.113281 C 233.484375 95.769531 232.425781 96.199219 231.585938 96.261719 C 231.5 96.265625 231.417969 96.269531 231.339844 96.269531 L 229.894531 96.242188 L 231.035156 95.359375 C 231.179688 95.25 232.625 94.160156 235.300781 92.808594 C 233.792969 92.480469 232.1875 92.371094 230.496094 92.5 C 227.261719 92.738281 224.886719 93.746094 224.859375 93.757812 L 224.363281 92.878906 C 226.410156 91.40625 228.824219 90.558594 231.519531 90.359375 C 234.617188 90.128906 237.328125 90.800781 238.75 91.253906 C 239.8125 90.824219 240.980469 90.398438 242.253906 89.988281 C 239.703125 87.476562 236.460938 82.246094 236.304688 81.992188 L 237 81.289062 C 239.613281 82.839844 243.375 87.304688 244.917969 89.214844 C 248.113281 88.363281 251.839844 87.671875 256.097656 87.355469 C 257.414062 87.257812 258.765625 87.199219 260.109375 87.179688 C 261.195312 87.164062 262.246094 87.167969 263.261719 87.191406 C 264.5625 85.527344 267.398438 82.171875 270.109375 80.855469 L 271.808594 80.03125 L 270.757812 81.59375 C 270.636719 81.78125 268.371094 85.152344 266.777344 87.332031 C 269.582031 87.507812 272.085938 87.8125 274.292969 88.207031 C 276.207031 87.359375 279.683594 86.027344 283.171875 85.769531 C 283.769531 85.726562 284.351562 85.714844 284.902344 85.738281 L 284.992188 86.742188 C 284.949219 86.753906 281.023438 87.664062 278.214844 89.0625 C 284.304688 90.667969 287.203125 92.859375 287.277344 93.851562 C 287.308594 94.269531 287.238281 95.410156 287.128906 97 C 288.609375 96.457031 291.125 95.339844 294.367188 93.199219 C 299.859375 89.566406 300.152344 86.386719 298.800781 82.121094 C 297.789062 78.945312 295.171875 76.105469 293.648438 74.644531 C 293.546875 75.714844 293.328125 76.585938 292.976562 77.128906 L 292.015625 78.621094 L 292.042969 76.84375 C 292.042969 76.753906 292.125 67.527344 287.644531 63.03125 C 285.53125 60.910156 280.789062 59.902344 274.957031 60.335938 C 268.007812 60.851562 260.632812 63.328125 254.726562 67.121094 L 254.054688 66.371094 C 254.152344 66.253906 255.492188 64.652344 258.398438 62.816406 C 257.09375 62.027344 254.542969 60.914062 250.855469 61.1875 C 249.007812 61.324219 247.066406 61.792969 245.078125 62.582031 C 235.613281 66.335938 226.847656 77.714844 226.757812 77.828125 L 225.894531 77.304688 C 225.992188 77.105469 227.390625 74.273438 230.476562 70.644531 C 229.222656 70.410156 227.226562 70.148438 225.09375 70.304688 C 223.125 70.453125 221.414062 70.929688 220.019531 71.71875 C 215.203125 74.441406 212.328125 82.371094 209.796875 90.253906 C 207.34375 97.898438 207.386719 99.265625 210.265625 104.914062 C 211.757812 107.839844 213.003906 109.292969 215.660156 109.09375 C 218.035156 108.917969 221.546875 107.519531 228.207031 104.109375 L 229.660156 103.363281 L 228.890625 104.800781 C 228.84375 104.894531 227.851562 106.660156 224.429688 108.761719 C 224.851562 109.53125 225.460938 110.75 226.125 112.425781 C 230.3125 109.53125 240.410156 105.554688 255.011719 104.46875 C 255.476562 104.4375 255.9375 104.40625 256.402344 104.375 C 270.179688 103.542969 280.410156 105.832031 284.035156 106.8125 C 284.082031 103.457031 284.1875 99.921875 284.257812 97.5625 C 284.285156 96.472656 284.3125 95.5 284.320312 95.113281 C 283.132812 94.234375 273.027344 89.296875 257.34375 90.167969 C 256.796875 90.195312 256.253906 90.234375 255.722656 90.273438 C 244.984375 91.070312 238.789062 93.601562 235.089844 95.113281 Z M 293.699219 72.28125 C 300.441406 77.507812 302.230469 84.601562 302.316406 86.730469 C 302.425781 89.214844 300.421875 91.710938 294.675781 96.285156 C 291.230469 99.027344 288.519531 99.902344 286.898438 100.164062 C 286.726562 102.628906 286.546875 105.417969 286.46875 108 C 286.351562 111.648438 282.710938 109.335938 280.472656 108.699219 C 277.25 107.785156 274.019531 107.136719 270.6875 106.742188 C 265.398438 106.117188 260.003906 105.964844 254.703125 106.460938 C 247.261719 107.15625 238.914062 108.976562 232.167969 112.234375 C 231.472656 112.566406 224.433594 115.648438 224.4375 115.664062 C 223.644531 113.378906 222.792969 111.257812 222.144531 110.007812 C 221.894531 110.128906 221.648438 110.25 221.382812 110.375 C 218.667969 111.621094 216.515625 112.285156 214.804688 112.414062 C 213.074219 112.539062 211.722656 112.117188 210.652344 111.121094 C 208.898438 109.472656 204.792969 101.136719 205.015625 98.519531 C 205.238281 95.917969 210.574219 75.515625 216.535156 71.085938 C 218.632812 69.527344 221.5 68.597656 225.054688 68.335938 C 228.101562 68.109375 230.859375 68.425781 232.28125 68.644531 C 234.238281 66.597656 236.691406 64.417969 239.691406 62.375 C 243.316406 59.910156 247.175781 58.511719 251.179688 58.214844 C 255.914062 57.859375 259.859375 59.195312 262.074219 60.84375 C 264.050781 59.945312 266.429688 59.089844 269.25 58.433594 C 271.371094 57.9375 273.492188 57.605469 275.542969 57.453125 C 282.707031 56.921875 288.921875 58.597656 291.011719 61.632812 C 292.523438 63.832031 293.5625 68.527344 293.699219 72.28125 Z M 293.699219 72.28125 "/>
</g>
</g>
</g>
</g>
<path style=" stroke:none;fill-rule:nonzero;fill:rgb(13.729858%,12.159729%,12.548828%);fill-opacity:1;" d="M 309.089844 283.007812 C 304.113281 286.222656 293.507812 286.21875 288.53125 283.007812 C 293.496094 279.792969 304.125 279.792969 309.089844 283.007812 C 307.726562 283.890625 307.726562 282.125 309.089844 283.007812 Z M 298.808594 291.238281 C 303.882812 291.238281 315.703125 290.292969 315.703125 283.007812 C 315.703125 275.726562 303.914062 274.777344 298.808594 274.777344 C 293.691406 274.777344 282.527344 275.625 281.949219 282.574219 C 281.320312 290.179688 293.722656 291.238281 298.808594 291.238281 "/>
<g clip-path="url(#clip44)" clip-rule="nonzero">
<path style=" stroke:none;fill-rule:nonzero;fill:rgb(13.729858%,12.159729%,12.548828%);fill-opacity:1;" d="M 346.445312 240.742188 C 343.359375 261.425781 323.617188 276.214844 302.839844 273.441406 C 306.175781 251.09375 309.511719 228.75 312.851562 206.402344 C 313.328125 203.199219 313.804688 199.992188 314.285156 196.792969 C 334.96875 200.175781 349.535156 220.0625 346.445312 240.742188 C 343.3125 261.734375 349.578125 219.753906 346.445312 240.742188 "/>
</g>
<path style=" stroke:none;fill-rule:nonzero;fill:rgb(13.729858%,12.159729%,12.548828%);fill-opacity:1;" d="M 304.199219 271.820312 C 304.46875 290.363281 291.0625 306.9375 272.765625 310.464844 C 254.230469 314.039062 235.289062 303.394531 228.808594 285.699219 C 227.453125 281.992188 226.230469 277.539062 226.480469 273.5625 C 226.636719 271.066406 226.1875 272.230469 227.855469 271.820312 C 231.203125 270.992188 235.832031 271.820312 239.265625 271.820312 C 252.058594 271.820312 264.851562 271.820312 277.644531 271.820312 C 286.496094 271.820312 295.347656 271.820312 304.199219 271.820312 "/>
<path style=" stroke:none;fill-rule:nonzero;fill:rgb(13.729858%,12.159729%,12.548828%);fill-opacity:1;" d="M 273.652344 291.210938 C 282.734375 306.234375 291.8125 321.257812 300.894531 336.285156 C 302.429688 338.828125 305.699219 341.355469 307.980469 337.511719 C 309.339844 335.226562 306.554688 332.148438 305.414062 330.257812 C 299.757812 320.898438 294.101562 311.542969 288.445312 302.1875 C 285.953125 298.054688 283.453125 293.925781 280.957031 289.792969 C 280.574219 289.15625 280.183594 288.164062 279.648438 287.628906 C 277.46875 285.453125 271.578125 287.777344 273.652344 291.210938 "/>
<path style=" stroke:none;fill-rule:nonzero;fill:rgb(13.729858%,12.159729%,12.548828%);fill-opacity:1;" d="M 257.164062 291.210938 C 248.085938 306.238281 239.007812 321.261719 229.921875 336.285156 C 228.386719 338.828125 225.121094 341.355469 222.835938 337.511719 C 221.476562 335.226562 224.265625 332.148438 225.40625 330.257812 C 231.0625 320.898438 236.71875 311.542969 242.371094 302.1875 C 244.871094 298.054688 247.367188 293.925781 249.863281 289.792969 C 250.25 289.15625 250.632812 288.164062 251.171875 287.628906 C 253.347656 285.453125 259.242188 287.777344 257.164062 291.210938 "/>
<path style=" stroke:none;fill-rule:nonzero;fill:rgb(65.098572%,10.978699%,13.328552%);fill-opacity:1;" d="M 226.492188 271.945312 C 226.492188 275.269531 249.707031 275.375 251.835938 275.453125 C 266.101562 275.957031 280.648438 276.007812 294.84375 274.3125 C 296.070312 274.167969 302.964844 273.910156 303.453125 272.261719 C 303.933594 270.640625 299.289062 270.226562 298.324219 270.066406 C 285.101562 267.835938 271.210938 268.039062 257.855469 268.28125 C 255.34375 268.328125 226.492188 268.179688 226.492188 271.945312 "/>
<path style=" stroke:none;fill-rule:nonzero;fill:rgb(13.729858%,12.159729%,12.548828%);fill-opacity:1;" d="M 300.070312 271.945312 C 288.769531 274.386719 276.523438 274.132812 265.039062 274.132812 C 253.554688 274.132812 241.308594 274.386719 230.007812 271.945312 C 241.308594 269.503906 253.554688 269.761719 265.039062 269.761719 C 276.523438 269.761719 288.769531 269.503906 300.070312 271.945312 C 295.089844 273.023438 295.089844 270.871094 300.070312 271.945312 Z M 265.039062 277.222656 C 272.210938 277.222656 279.394531 277.113281 286.550781 276.652344 C 291.644531 276.324219 297.421875 276.203125 302.25 274.34375 C 304.820312 273.355469 306.230469 271.6875 303.351562 270.003906 C 299.441406 267.714844 293.378906 267.761719 289.015625 267.417969 C 274.796875 266.296875 260.320312 266.351562 246.082031 267.09375 C 244.121094 267.199219 220.992188 268.613281 225.871094 273.390625 C 228.84375 276.300781 236.714844 276.117188 240.464844 276.429688 C 248.628906 277.105469 256.847656 277.222656 265.039062 277.222656 "/>
<path style=" stroke:none;fill-rule:nonzero;fill:rgb(13.729858%,12.159729%,12.548828%);fill-opacity:1;" d="M 288.429688 331.945312 C 288.429688 346.726562 311.382812 346.671875 311.382812 331.945312 C 311.382812 317.21875 288.429688 317.167969 288.429688 331.945312 "/>
<path style=" stroke:none;fill-rule:nonzero;fill:rgb(65.098572%,10.978699%,13.328552%);fill-opacity:1;" d="M 296.683594 331.945312 C 296.683594 336.066406 303.128906 336.066406 303.128906 331.945312 C 303.128906 327.847656 296.683594 327.785156 296.683594 331.945312 "/>
<g clip-path="url(#clip45)" clip-rule="nonzero">
<path style=" stroke:none;fill-rule:nonzero;fill:rgb(13.729858%,12.159729%,12.548828%);fill-opacity:1;" d="M 242.417969 283.265625 C 237.453125 286.480469 226.820312 286.480469 221.855469 283.265625 C 226.820312 280.046875 237.453125 280.046875 242.417969 283.265625 C 241.054688 284.148438 241.054688 282.382812 242.417969 283.265625 Z M 232.136719 291.496094 C 237.214844 291.496094 249.03125 290.550781 249.03125 283.265625 C 249.03125 275.980469 237.242188 275.03125 232.136719 275.03125 C 227.019531 275.03125 215.851562 275.882812 215.277344 282.828125 C 214.648438 290.4375 227.046875 291.496094 232.136719 291.496094 "/>
</g>
<g clip-path="url(#clip46)" clip-rule="nonzero">
<path style=" stroke:none;fill-rule:nonzero;fill:rgb(13.729858%,12.159729%,12.548828%);fill-opacity:1;" d="M 352.976562 249.09375 C 353.574219 241.910156 354.175781 234.730469 354.777344 227.546875 C 352.351562 227.394531 349.921875 227.246094 347.496094 227.09375 C 344.476562 226.90625 344.945312 226.972656 344.753906 230.015625 C 346.980469 230.152344 349.203125 230.292969 351.429688 230.429688 C 351.070312 234.734375 350.710938 239.039062 350.351562 243.347656 C 350.199219 245.144531 350.582031 245.4375 349.273438 245.898438 C 347.628906 246.484375 344.613281 245.765625 342.832031 245.710938 C 342.800781 246.738281 342.769531 247.769531 342.742188 248.796875 C 346.152344 248.898438 349.566406 248.996094 352.976562 249.09375 "/>
</g>
<path style=" stroke:none;fill-rule:nonzero;fill:rgb(13.729858%,12.159729%,12.548828%);fill-opacity:1;" d="M 283.589844 281.304688 C 287.097656 279.796875 286.394531 279.996094 284.917969 276.582031 C 283.789062 273.976562 282.660156 271.367188 281.535156 268.761719 C 278.027344 270.273438 278.730469 270.074219 280.207031 273.488281 C 281.335938 276.09375 282.460938 278.699219 283.589844 281.304688 "/>
<path style=" stroke:none;fill-rule:nonzero;fill:rgb(13.729858%,12.159729%,12.548828%);fill-opacity:1;" d="M 272.945312 278.28125 C 276.054688 277.410156 276.03125 277.820312 275.15625 274.71875 C 274.46875 272.28125 273.78125 269.847656 273.089844 267.414062 C 269.984375 268.285156 270.003906 267.875 270.882812 270.976562 C 271.566406 273.414062 272.257812 275.847656 272.945312 278.28125 "/>
<path style=" stroke:none;fill-rule:nonzero;fill:rgb(13.729858%,12.159729%,12.548828%);fill-opacity:1;" d="M 262.058594 277.722656 C 263.085938 277.644531 264.117188 277.570312 265.148438 277.492188 C 264.960938 274.996094 264.773438 272.496094 264.582031 270 C 264.347656 266.84375 264.496094 267.191406 261.285156 267.429688 C 261.542969 270.863281 261.800781 274.289062 262.058594 277.722656 "/>
<path style=" stroke:none;fill-rule:nonzero;fill:rgb(13.729858%,12.159729%,12.548828%);fill-opacity:1;" d="M 256.367188 277.558594 C 256.796875 274.472656 257.226562 271.386719 257.65625 268.300781 C 254.742188 267.898438 254.671875 267.308594 254.273438 270.164062 C 253.949219 272.488281 253.628906 274.8125 253.304688 277.136719 C 254.324219 277.277344 255.34375 277.417969 256.367188 277.558594 "/>
<path style=" stroke:none;fill-rule:nonzero;fill:rgb(13.729858%,12.159729%,12.548828%);fill-opacity:1;" d="M 247.019531 276.039062 C 247.601562 274.289062 248.671875 272.285156 248.878906 270.46875 C 249.117188 268.378906 248.730469 268.890625 246.402344 268.117188 C 245.820312 269.863281 244.75 271.867188 244.539062 273.683594 C 244.304688 275.773438 244.691406 275.261719 247.019531 276.039062 "/>
<path style=" stroke:none;fill-rule:nonzero;fill:rgb(13.729858%,12.159729%,12.548828%);fill-opacity:1;" d="M 236.347656 275.238281 C 237.007812 273.980469 238.558594 272.066406 238.742188 270.679688 C 238.945312 269.121094 238.179688 269.3125 236.441406 268.402344 C 235.777344 269.660156 234.230469 271.570312 234.046875 272.960938 C 233.839844 274.515625 234.605469 274.328125 236.347656 275.238281 "/>
<path style=" stroke:none;fill-rule:nonzero;fill:rgb(13.729858%,12.159729%,12.548828%);fill-opacity:1;" d="M 290.6875 277.84375 C 293.121094 276.777344 293.492188 277.289062 292.820312 275.007812 C 292.25 273.054688 291.121094 271.140625 290.296875 269.269531 C 287.863281 270.335938 287.492188 269.824219 288.164062 272.105469 C 288.738281 274.058594 289.863281 275.972656 290.6875 277.84375 "/>
<path style=" stroke:none;fill-rule:nonzero;fill:rgb(13.729858%,12.159729%,12.548828%);fill-opacity:1;" d="M 271.171875 226.589844 C 272.777344 232.5625 278.734375 235.890625 280.582031 241.738281 C 282.871094 248.992188 278.945312 256.265625 277.503906 263.253906 C 281.183594 258.425781 286.996094 256.570312 289.144531 250.425781 C 291.0625 244.941406 289.8125 239.515625 286.558594 234.859375 C 283.152344 229.992188 279.132812 226.046875 278.804688 219.753906 C 278.496094 213.816406 280.363281 206.695312 284.058594 201.972656 C 276.984375 207.914062 268.421875 216.355469 271.171875 226.589844 C 272.757812 232.480469 269.898438 221.855469 271.171875 226.589844 "/>
<path style=" stroke:none;fill-rule:nonzero;fill:rgb(13.729858%,12.159729%,12.548828%);fill-opacity:1;" d="M 267.914062 251.300781 C 266.675781 253.335938 264.339844 254.226562 262.863281 256.058594 C 261.277344 258.035156 260.363281 260.667969 260.191406 263.179688 C 256.550781 256.5625 264.253906 249.039062 262.371094 241.859375 C 261.554688 238.746094 259.832031 235.890625 259.292969 232.699219 C 258.878906 230.265625 259.8125 223.730469 263.886719 225.214844 C 258.339844 234.640625 273.703125 241.773438 267.914062 251.300781 C 267.519531 251.953125 269.125 249.3125 267.914062 251.300781 "/>
<path style=" stroke:none;fill-rule:nonzero;fill:rgb(13.729858%,12.159729%,12.548828%);fill-opacity:1;" d="M 234.828125 227.847656 C 236.433594 233.816406 242.390625 237.144531 244.238281 242.996094 C 246.527344 250.25 242.601562 257.523438 241.160156 264.511719 C 244.839844 259.679688 250.648438 257.824219 252.800781 251.679688 C 254.71875 246.199219 253.46875 240.773438 250.214844 236.117188 C 246.808594 231.246094 242.789062 227.300781 242.460938 221.007812 C 242.152344 215.074219 244.019531 207.949219 247.714844 203.230469 C 240.640625 209.167969 232.078125 217.609375 234.828125 227.847656 "/>
<path style=" stroke:none;fill-rule:nonzero;fill:rgb(65.098572%,10.978699%,13.328552%);fill-opacity:1;" d="M 232.332031 277.179688 C 230.167969 278.171875 239.050781 296.828125 243.410156 297.957031 C 238.714844 296.730469 238.65625 279.40625 242.347656 279.40625 C 239.695312 279.199219 236.902344 278.914062 234.347656 278.101562 C 234.085938 278.019531 232.265625 277.1875 232.332031 277.179688 "/>
<path style=" stroke:none;fill-rule:nonzero;fill:rgb(65.098572%,10.978699%,13.328552%);fill-opacity:1;" d="M 316.335938 203.324219 C 317.183594 200.925781 327.304688 206.082031 328.738281 206.9375 C 333.71875 209.902344 339.820312 214.332031 339.5625 220.824219 C 339.542969 219.972656 336.792969 218.503906 336.21875 218.125 C 333.636719 216.398438 330.832031 214.90625 327.894531 213.890625 C 324.886719 212.855469 321.613281 212.355469 318.433594 212.738281 C 317.082031 212.902344 316.03125 213.621094 314.800781 213.878906 C 315.277344 210.804688 315.292969 206.097656 316.335938 203.324219 "/>
</g>
</svg>
