<?xml version="1.0" encoding="UTF-8"?>
<svg xmlns="http://www.w3.org/2000/svg" xmlns:xlink="http://www.w3.org/1999/xlink" width="375pt" height="374.999991pt" viewBox="0 0 375 374.999991" version="1.2">
<defs>
<clipPath id="clip1">
  <path d="M 17.074219 37.5 L 356 37.5 L 356 350 L 17.074219 350 Z M 17.074219 37.5 "/>
</clipPath>
<clipPath id="clip2">
  <path d="M 221 161 L 324 161 L 324 268 L 221 268 Z M 221 161 "/>
</clipPath>
<clipPath id="clip3">
  <path d="M 245.054688 142.339844 L 393.472656 219.4375 L 344.722656 313.28125 L 196.304688 236.183594 Z M 245.054688 142.339844 "/>
</clipPath>
<clipPath id="clip4">
  <path d="M 245.054688 142.339844 L 393.472656 219.4375 L 344.722656 313.28125 L 196.304688 236.183594 Z M 245.054688 142.339844 "/>
</clipPath>
<clipPath id="clip5">
  <path d="M 329 232 L 375 232 L 375 277 L 329 277 Z M 329 232 "/>
</clipPath>
<clipPath id="clip6">
  <path d="M 245.054688 142.339844 L 393.472656 219.4375 L 344.722656 313.28125 L 196.304688 236.183594 Z M 245.054688 142.339844 "/>
</clipPath>
<clipPath id="clip7">
  <path d="M 245.054688 142.339844 L 393.472656 219.4375 L 344.722656 313.28125 L 196.304688 236.183594 Z M 245.054688 142.339844 "/>
</clipPath>
<clipPath id="clip8">
  <path d="M 285 203 L 331 203 L 331 240 L 285 240 Z M 285 203 "/>
</clipPath>
<clipPath id="clip9">
  <path d="M 245.054688 142.339844 L 393.472656 219.4375 L 344.722656 313.28125 L 196.304688 236.183594 Z M 245.054688 142.339844 "/>
</clipPath>
<clipPath id="clip10">
  <path d="M 245.054688 142.339844 L 393.472656 219.4375 L 344.722656 313.28125 L 196.304688 236.183594 Z M 245.054688 142.339844 "/>
</clipPath>
<clipPath id="clip11">
  <path d="M 330 204 L 365 204 L 365 239 L 330 239 Z M 330 204 "/>
</clipPath>
<clipPath id="clip12">
  <path d="M 245.054688 142.339844 L 393.472656 219.4375 L 344.722656 313.28125 L 196.304688 236.183594 Z M 245.054688 142.339844 "/>
</clipPath>
<clipPath id="clip13">
  <path d="M 245.054688 142.339844 L 393.472656 219.4375 L 344.722656 313.28125 L 196.304688 236.183594 Z M 245.054688 142.339844 "/>
</clipPath>
<clipPath id="clip14">
  <path d="M 269 70.097656 L 284 70.097656 L 284 92.988281 L 269 92.988281 Z M 269 70.097656 "/>
</clipPath>
<clipPath id="clip15">
  <path d="M 269 70.097656 L 281 70.097656 L 281 92.988281 L 269 92.988281 Z M 269 70.097656 "/>
</clipPath>
<clipPath id="clip16">
  <path d="M 278 70.097656 L 284 70.097656 L 284 92 L 278 92 Z M 278 70.097656 "/>
</clipPath>
<clipPath id="clip17">
  <path d="M 269 70.097656 L 280 70.097656 L 280 92.988281 L 269 92.988281 Z M 269 70.097656 "/>
</clipPath>
<clipPath id="clip18">
  <path d="M 253.722656 23 L 326.472656 23 L 326.472656 71 L 253.722656 71 Z M 253.722656 23 "/>
</clipPath>
<clipPath id="clip19">
  <path d="M 264 22.492188 L 301 22.492188 L 301 40 L 264 40 Z M 264 22.492188 "/>
</clipPath>
<clipPath id="clip20">
  <path d="M 270 22.492188 L 301 22.492188 L 301 40 L 270 40 Z M 270 22.492188 "/>
</clipPath>
<clipPath id="clip21">
  <path d="M 288 22.492188 L 312 22.492188 L 312 39 L 288 39 Z M 288 22.492188 "/>
</clipPath>
<clipPath id="clip22">
  <path d="M 253.722656 57 L 326.472656 57 L 326.472656 72 L 253.722656 72 Z M 253.722656 57 "/>
</clipPath>
<clipPath id="clip23">
  <path d="M 253.722656 52 L 280 52 L 280 65 L 253.722656 65 Z M 253.722656 52 "/>
</clipPath>
</defs>
<g id="surface1">
<path style=" stroke:none;fill-rule:evenodd;fill:rgb(91.758728%,16.468811%,16.468811%);fill-opacity:1;" d="M 138.648438 182.253906 C 139.945312 195.277344 143.542969 207.980469 151.421875 215.40625 C 153.777344 215.015625 154.730469 211.894531 157.316406 212.78125 C 159.996094 215.800781 155.71875 218.882812 154.699219 221.316406 C 157.203125 223.039062 163.027344 219.96875 163.539062 223.613281 C 163.890625 226.113281 159.222656 227.96875 155.679688 227.554688 C 153.324219 227.273438 151.835938 224.882812 150.4375 226.238281 C 151.296875 229.320312 155.746094 228.796875 155.679688 232.804688 C 154.71875 235.019531 150.753906 234.695312 148.804688 233.789062 C 145.996094 232.484375 146.035156 228.363281 143.234375 227.554688 C 142.503906 230.242188 144.410156 234.316406 141.269531 234.773438 C 139.105469 235.085938 136.730469 230.660156 137.011719 227.222656 C 137.210938 224.777344 139.070312 224.210938 139.304688 222.300781 C 137.929688 220.722656 136.0625 219.679688 134.71875 218.03125 C 128.945312 210.945312 127.0625 200.007812 126.859375 189.148438 C 124.394531 189.535156 125.339844 194.203125 125.546875 197.027344 C 126.324219 207.503906 131.4375 216.699219 136.683594 222.957031 C 134.097656 228.074219 136.292969 234.222656 139.960938 236.742188 C 140.910156 236.382812 142.285156 236.445312 143.234375 236.085938 C 144.167969 235.382812 144.304688 233.878906 144.871094 232.804688 C 147.214844 237.289062 159.9375 237.761719 156.664062 229.519531 C 159.976562 229.101562 165.308594 227.457031 165.179688 223.613281 C 165.0625 220.175781 161.566406 220.472656 158.625 219.675781 C 160.101562 216.554688 161.207031 211.652344 157.316406 210.8125 C 154.433594 210.1875 153.460938 212.484375 151.421875 212.78125 C 145.113281 205.863281 140.804688 193.816406 140.941406 182.582031 C 140.242188 182.324219 139.113281 181.785156 138.648438 182.253906 M 341.382812 127.4375 C 342.289062 130.746094 341.242188 135.019531 342.363281 138.597656 C 349.160156 141.46875 347.671875 129.378906 345.964844 126.78125 C 344.386719 126.308594 342.480469 126.554688 341.382812 127.4375 M 333.519531 126.78125 C 332.042969 130.671875 331.074219 138.734375 333.847656 142.207031 C 339.96875 141.9375 339.414062 125.796875 333.519531 126.78125 M 75.4375 122.84375 C 74.851562 124.386719 70.652344 125.625 72.164062 127.109375 C 73.445312 124.671875 78.390625 123.070312 81.664062 121.53125 C 79.738281 119.6875 77.832031 123.023438 75.4375 122.84375 M 61.027344 86.738281 C 61.589844 88.472656 62.453125 89.902344 62.664062 91.988281 C 71.601562 107.320312 80.902344 122.289062 94.109375 133.34375 C 90.199219 137.417969 85.273438 140.46875 82.316406 145.492188 C 84.675781 145.410156 86.492188 142.046875 87.882812 139.910156 C 88.957031 140.578125 89.683594 138.566406 90.503906 137.941406 C 92.589844 137.078125 93.953125 135.492188 96.070312 134.660156 C 101.152344 140.179688 107.996094 143.9375 113.429688 149.101562 C 111.839844 148.824219 111.847656 150.140625 110.808594 150.414062 C 108.855469 153.660156 106.144531 155.828125 103.605469 158.621094 C 101.945312 160.449219 98.925781 162.625 100.003906 165.1875 C 101.789062 163.910156 103.328125 159.546875 105.898438 157.964844 C 108.121094 155.597656 110.582031 153.46875 113.101562 151.398438 C 113.816406 150.78125 114.011719 149.882812 114.085938 149.429688 C 119.859375 153.058594 126.976562 157.074219 133.734375 158.621094 C 134.382812 155.835938 131.011719 156.070312 129.804688 155.667969 C 124.023438 153.742188 120.261719 151.417969 115.722656 148.445312 C 108.339844 143.613281 100.820312 137.445312 94.761719 131.707031 C 89.652344 126.867188 84.253906 122.257812 80.023438 116.933594 C 76.984375 113.109375 75.21875 108.871094 72.492188 104.460938 C 71.085938 102.1875 68.953125 100.542969 67.578125 98.222656 C 65.367188 94.492188 63.238281 90.105469 62.335938 85.421875 L 61.355469 85.421875 C 61.253906 85.867188 60.886719 86.050781 61.027344 86.738281 M 284.390625 91.003906 C 285.128906 94.75 290.640625 98.851562 295.527344 98.222656 C 299.851562 97.671875 303.789062 91.023438 302.734375 85.421875 C 302.246094 82.84375 299.71875 81.3125 299.457031 78.859375 C 290.402344 76.167969 282.875 83.289062 284.390625 91.003906 M 276.535156 65.730469 C 272.796875 63.179688 263.742188 60.632812 259.828125 59.492188 C 259.574219 59.5625 259.449219 59.765625 259.5 60.148438 C 263.59375 66.121094 260.753906 80.175781 270.308594 80.171875 C 270.808594 79.25 270.199219 78.824219 270.636719 77.546875 C 265.203125 76.316406 264.457031 68.640625 264.414062 63.101562 C 268.226562 64.421875 271.835938 65.949219 275.222656 67.699219 C 276.609375 69.410156 278.097656 72.640625 280.136719 72.621094 C 281.949219 70.167969 278.726562 67.226562 276.535156 65.730469 M 298.152344 62.777344 C 301.40625 60.394531 301.71875 55.550781 306.335938 54.898438 C 308.902344 54.53125 310.847656 55.972656 313.871094 56.867188 C 311.796875 60.367188 309.878906 64.027344 307.320312 67.042969 C 307.78125 72.273438 312.289062 73.4375 313.542969 77.875 C 308.226562 84.585938 316.039062 94.609375 323.039062 89.035156 C 326.160156 94.003906 332.066406 96.179688 335.8125 100.523438 C 335.386719 107.957031 339.300781 111.027344 345.964844 111.355469 C 346.605469 118.527344 350.957031 122.820312 350.226562 132.035156 C 349.765625 137.789062 348.328125 143.75 347.277344 149.429688 C 346.148438 155.519531 345.410156 159.355469 342.6875 162.886719 C 332.984375 168.429688 320.082031 164.628906 308.953125 161.902344 C 307.816406 158.714844 309.203125 154.890625 308.628906 151.398438 C 308.265625 149.191406 306.433594 147.714844 306.992188 145.492188 C 306.316406 144.371094 305.167969 145.429688 304.371094 144.835938 C 300.5625 140.09375 294.324219 138.636719 289.304688 135.316406 C 284.347656 132.035156 279.472656 128.554688 274.566406 125.46875 C 274.765625 124.039062 272.8125 122.578125 272.601562 121.203125 C 271.992188 117.183594 274.726562 113.296875 275.222656 109.710938 C 276.054688 103.707031 273.175781 97.460938 269.984375 92.972656 C 265.835938 87.144531 260.144531 83.59375 250.003906 85.097656 C 240.132812 80.40625 223.28125 84.257812 220.199219 93.300781 C 212.128906 92.914062 200.039062 97.019531 197.273438 105.445312 C 196.25 108.574219 196.632812 112.617188 195.964844 116.277344 C 183.628906 120.859375 174.96875 134.308594 178.277344 150.414062 C 165.039062 156.246094 160.449219 183.585938 170.746094 196.039062 C 167.570312 200.710938 163.957031 205.242188 164.851562 212.78125 C 165.558594 218.738281 168.726562 225.152344 169.433594 229.851562 C 164.421875 234.625 158.40625 238.125 158.625 245.933594 C 158.667969 247.335938 160.3125 249.652344 159.9375 251.183594 C 159.4375 253.222656 151.824219 256.550781 150.109375 258.078125 C 146.222656 261.546875 144.3125 265.695312 142.90625 270.550781 C 146.332031 283.308594 140.570312 296.902344 134.0625 305.671875 C 130.605469 310.332031 127.851562 312.195312 122.601562 314.535156 C 121.035156 317.210938 122.273438 322.609375 122.273438 325.039062 C 122.273438 328 120.523438 332.847656 122.601562 334.558594 C 123.703125 335.46875 124.714844 334.640625 126.53125 334.886719 C 129.949219 335.351562 134.945312 336.449219 135.046875 338.824219 C 135.214844 342.710938 130.273438 341.683594 128.167969 341.121094 C 126.375 342.121094 129.226562 342.96875 128.167969 344.078125 C 123.917969 345.617188 122.144531 343.558594 119.652344 341.78125 C 118.445312 343.117188 120.183594 344.296875 120.308594 345.390625 C 115.429688 345.273438 108.425781 343.308594 101.640625 342.765625 C 98.453125 342.507812 94.351562 343.496094 93.125 340.464844 C 94.015625 339.496094 95.753906 340.863281 96.398438 340.136719 C 97.113281 339.324219 97.40625 338.085938 98.691406 337.839844 C 98.941406 335.914062 98.820312 335.414062 99.675781 333.902344 C 100.28125 318.761719 100.613281 304.335938 99.019531 288.933594 C 98.25 281.496094 96.84375 275.816406 92.796875 270.550781 C 85.644531 261.242188 71.5 257.0625 58.40625 261.6875 C 52.539062 263.761719 45.246094 271.113281 44.324219 278.429688 C 43.011719 288.878906 49.84375 294.550781 55.789062 300.09375 C 58.144531 300.171875 60.53125 302.453125 63.320312 302.390625 C 69.109375 302.265625 80.84375 294.816406 79.695312 286.964844 C 79.320312 284.394531 76.761719 283.71875 77.074219 281.054688 C 82.523438 281.125 84.113281 287.066406 84.9375 291.230469 C 86.679688 300.058594 81.148438 307.570312 76.75 312.238281 C 72.402344 316.851562 66.582031 321.9375 58.082031 322.414062 C 50.375 322.839844 40.550781 320.828125 35.808594 316.175781 C 32.769531 313.191406 30.953125 309.320312 28.605469 305.015625 C 26.609375 301.359375 23.429688 296.878906 22.710938 292.871094 C 21.519531 286.261719 22.378906 279.644531 23.035156 273.503906 C 24.4375 260.394531 29.917969 252.382812 39.738281 247.574219 C 45.195312 244.902344 52.570312 243.972656 60.046875 242.324219 C 66.015625 241.003906 74.425781 242.8125 80.351562 242.980469 C 86.726562 243.160156 90.410156 240.75 95.089844 238.382812 C 97.3125 236.140625 99.019531 233.636719 100.984375 230.832031 C 102.753906 228.308594 105.222656 226.125 107.207031 223.613281 C 110.769531 219.101562 113.761719 213.261719 116.707031 207.527344 C 121.101562 198.96875 124.71875 189.9375 121.617188 177.988281 C 112.066406 174.738281 97.605469 174.105469 88.210938 179.628906 C 93.554688 157.082031 71.410156 147.699219 53.167969 147.789062 C 56.488281 142.402344 62.03125 137.992188 63.320312 131.378906 C 66.445312 115.320312 54.785156 101.976562 44.324219 95.273438 C 53.425781 91.699219 56.953125 82.542969 57.425781 70.324219 C 62.8125 77.617188 69.632812 83.476562 75.765625 90.019531 C 75.503906 91.160156 76.253906 91.28125 76.09375 92.316406 C 85.496094 101.933594 93.96875 112.476562 103.605469 121.859375 C 109.082031 130.421875 117.847656 138.21875 128.167969 143.523438 C 132.320312 145.652344 136.042969 149.582031 141.597656 147.789062 C 142.011719 139.992188 147.660156 130.503906 151.09375 123.5 C 153.761719 118.058594 156.261719 112.878906 160.59375 109.054688 C 160.683594 107.945312 161.113281 107.171875 160.917969 105.773438 C 168.335938 93.066406 177.996094 79.808594 190.070312 69.007812 C 195.753906 63.925781 201.875 58.671875 208.738281 54.566406 C 215.476562 50.539062 223.605469 46.414062 231.335938 44.394531 C 238.535156 42.511719 246.4375 43.40625 253.933594 44.066406 C 269.589844 45.445312 288.273438 51.371094 296.511719 60.148438 C 297.171875 60.851562 297.726562 61.847656 298.152344 62.777344 "/>
<path style=" stroke:none;fill-rule:evenodd;fill:rgb(91.758728%,16.468811%,16.468811%);fill-opacity:1;" d="M 119.980469 71.308594 C 120.183594 78.566406 122.097656 82.710938 124.566406 88.378906 C 128.277344 96.902344 131.449219 102.730469 137.339844 108.402344 C 140.027344 110.988281 143.332031 114.671875 147.164062 114.636719 C 146.890625 112.394531 144.695312 112.078125 142.90625 111.355469 C 131.660156 101.84375 122.90625 88.433594 121.289062 70.324219 L 120.308594 70.324219 C 120.289062 70.742188 119.890625 70.777344 119.980469 71.308594 M 156.992188 109.714844 C 153.703125 114.515625 150.078125 120.121094 147.164062 125.796875 C 144.105469 131.761719 142.761719 139.285156 137.996094 142.863281 C 129.785156 138.507812 130.351562 125.359375 118.671875 124.484375 C 118.382812 121.535156 119.738281 118.074219 119.324219 115.292969 C 118.320312 108.511719 114.242188 106.082031 108.191406 105.773438 C 112.695312 99.167969 116.242188 84.347656 109.5 77.546875 C 111.40625 70.503906 114.773438 66.894531 119 62.121094 C 119.59375 58.777344 121.578125 56.828125 123.585938 54.898438 C 124.113281 54.804688 124.144531 55.207031 124.566406 55.226562 C 122.863281 68.464844 126.898438 77.699219 132.425781 88.050781 C 138.070312 98.609375 144.664062 107.050781 156.992188 109.714844 "/>
<path style=" stroke:none;fill-rule:evenodd;fill:rgb(0%,0%,0%);fill-opacity:1;" d="M 280.136719 72.621094 C 278.097656 72.640625 276.609375 69.40625 275.222656 67.699219 C 271.835938 65.949219 268.226562 64.421875 264.414062 63.105469 C 264.457031 68.640625 265.203125 76.316406 270.636719 77.546875 C 270.199219 78.828125 270.808594 79.246094 270.308594 80.171875 C 260.757812 80.175781 263.59375 66.121094 259.5 60.148438 C 259.449219 59.765625 259.574219 59.5625 259.828125 59.492188 C 263.742188 60.632812 272.796875 63.179688 276.535156 65.730469 C 278.726562 67.226562 281.949219 70.167969 280.136719 72.621094 "/>
<path style=" stroke:none;fill-rule:evenodd;fill:rgb(0%,0%,0%);fill-opacity:1;" d="M 120.308594 70.324219 L 121.292969 70.324219 C 122.90625 88.433594 131.660156 101.84375 142.90625 111.355469 C 144.695312 112.078125 146.890625 112.394531 147.164062 114.636719 C 143.332031 114.671875 140.027344 110.988281 137.339844 108.398438 C 131.449219 102.730469 128.277344 96.902344 124.566406 88.378906 C 122.097656 82.710938 120.183594 78.566406 119.980469 71.308594 C 119.890625 70.777344 120.289062 70.742188 120.308594 70.324219 "/>
<path style=" stroke:none;fill-rule:evenodd;fill:rgb(100%,100%,100%);fill-opacity:1;" d="M 318.457031 82.796875 C 319.101562 83.246094 320.324219 83.113281 321.074219 83.453125 C 324.570312 80.851562 317.53125 77.414062 318.457031 82.796875 M 313.542969 85.09375 C 313.429688 81.25 314.523438 76.800781 317.472656 75.578125 C 320.421875 74.351562 325.359375 76.402344 325.988281 78.859375 C 327.457031 84.578125 316.460938 93.835938 313.542969 85.09375 "/>
<path style=" stroke:none;fill-rule:evenodd;fill:rgb(0%,0%,0%);fill-opacity:1;" d="M 286.03125 90.675781 C 286.753906 93.878906 291.988281 96.894531 295.527344 96.253906 C 302.992188 94.910156 302.796875 78.300781 292.910156 80.171875 C 288.363281 81.03125 284.882812 85.601562 286.03125 90.675781 M 299.457031 78.859375 C 299.71875 81.3125 302.246094 82.84375 302.734375 85.421875 C 303.789062 91.023438 299.851562 97.675781 295.527344 98.222656 C 290.640625 98.851562 285.128906 94.75 284.390625 91.003906 C 282.875 83.289062 290.402344 76.167969 299.457031 78.859375 "/>
<path style=" stroke:none;fill-rule:evenodd;fill:rgb(100%,100%,100%);fill-opacity:1;" d="M 291.925781 88.378906 C 292.589844 89.691406 294.816406 90.410156 296.511719 89.691406 C 297.441406 85.335938 292.324219 84.707031 291.925781 88.378906 M 292.910156 80.171875 C 302.796875 78.300781 302.992188 94.910156 295.527344 96.257812 C 291.988281 96.894531 286.753906 93.878906 286.03125 90.675781 C 284.882812 85.601562 288.363281 81.03125 292.910156 80.171875 "/>
<path style=" stroke:none;fill-rule:evenodd;fill:rgb(0%,0%,0%);fill-opacity:1;" d="M 321.074219 83.453125 C 320.324219 83.113281 319.101562 83.246094 318.457031 82.796875 C 317.53125 77.414062 324.570312 80.851562 321.074219 83.453125 "/>
<path style=" stroke:none;fill-rule:evenodd;fill:rgb(100%,59.999084%,59.999084%);fill-opacity:1;" d="M 173.691406 279.414062 C 170.699219 279.023438 168.988281 277.347656 167.472656 275.476562 C 166.019531 278.402344 171.085938 281.882812 173.691406 279.414062 M 188.757812 238.058594 C 189.074219 240.476562 193.34375 238.933594 195.636719 239.367188 C 195.839844 235.765625 190.824219 238.714844 188.757812 238.058594 M 190.722656 197.683594 C 193.191406 196.980469 196.484375 197.109375 198.585938 196.039062 C 197.636719 194.199219 190.910156 194.796875 190.722656 197.683594 M 189.742188 170.109375 C 189.640625 170.554688 189.273438 170.738281 189.414062 171.421875 C 191.628906 172.507812 194.851562 171.921875 196.945312 172.078125 L 196.945312 170.4375 C 195 170.222656 191.105469 170.515625 189.742188 170.109375 M 198.257812 140.238281 C 198.003906 140.3125 197.875 140.511719 197.929688 140.894531 C 199.289062 142.378906 201.550781 142.957031 203.496094 143.851562 C 203.671875 140.890625 199.566406 140.628906 198.257812 140.238281 M 268.019531 93.628906 C 249.585938 86.695312 229.609375 95.820312 220.527344 107.417969 C 209.40625 123.917969 206.121094 148.921875 202.84375 172.734375 C 202.359375 176.234375 203.015625 178.527344 203.496094 181.269531 C 204.402344 186.417969 204.242188 191.699219 204.480469 196.695312 C 204.867188 204.898438 205.777344 212.292969 206.773438 220.660156 C 207.296875 225.074219 208.378906 228.355469 208.738281 232.476562 C 210.835938 256.574219 193.699219 267.890625 182.210938 286.308594 C 183.878906 292.730469 188.273438 296.421875 191.378906 301.40625 C 190.558594 303.375 188.476562 304.558594 186.792969 306 C 185.191406 307.375 182.8125 308.539062 182.535156 310.269531 C 184.613281 310.96875 186.996094 308.257812 188.757812 306.65625 C 190.710938 304.886719 192.941406 302.796875 194 300.75 C 195.09375 300.535156 195.601562 299.730469 196.617188 299.4375 C 199.570312 296.199219 202.726562 286.890625 208.410156 291.558594 C 209.53125 292.71875 206.863281 293.582031 208.082031 294.84375 C 208.636719 295.792969 211.160156 293.875 212.011719 295.5 C 213.566406 297.230469 210.835938 298.578125 210.046875 300.09375 C 209.523438 301.09375 209.679688 302.203125 209.0625 303.046875 C 208.441406 303.898438 206.824219 305.113281 205.460938 306.328125 C 202.070312 309.347656 197.460938 312.636719 193.671875 315.1875 C 189.707031 317.863281 184.566406 322.695312 179.917969 320.117188 C 176.015625 310.566406 167.238281 305.90625 161.25 298.453125 C 152.15625 303.230469 147.277344 312.242188 132.425781 311.253906 C 132.195312 309.558594 134.285156 307.582031 135.703125 305.671875 C 141.96875 297.226562 148 282.972656 144.871094 269.566406 C 147.570312 260.894531 153.839844 255.792969 162.230469 252.824219 C 157.777344 242.625 163.832031 234.433594 171.726562 231.164062 C 168.144531 221.21875 162.050781 203.011719 173.367188 197.027344 C 170.183594 191.554688 166.101562 185.730469 166.160156 177.988281 C 166.230469 168.980469 170.179688 160.589844 174.347656 154.683594 C 175.574219 154.488281 176.042969 153.535156 176.96875 153.039062 C 177.765625 152.417969 179.707031 152.941406 180.570312 152.382812 C 175.40625 136.066406 184.871094 120.855469 197.601562 117.589844 C 196.589844 101.886719 206.519531 93.742188 220.855469 95.597656 C 223.074219 93.855469 222.996094 90.753906 225.441406 88.703125 C 231.363281 83.738281 244.390625 83.390625 250.332031 87.066406 C 258.132812 85.101562 265.480469 88.234375 268.019531 93.628906 "/>
<path style=" stroke:none;fill-rule:evenodd;fill:rgb(0%,0%,0%);fill-opacity:1;" d="M 61.355469 85.421875 L 62.339844 85.421875 C 63.238281 90.105469 65.367188 94.492188 67.578125 98.222656 C 68.953125 100.542969 71.085938 102.1875 72.492188 104.460938 C 75.21875 108.871094 76.984375 113.113281 80.023438 116.933594 C 84.253906 122.257812 89.652344 126.867188 94.761719 131.707031 C 100.820312 137.445312 108.339844 143.613281 115.722656 148.449219 C 120.261719 151.417969 124.027344 153.742188 129.804688 155.667969 C 131.011719 156.066406 134.382812 155.835938 133.738281 158.621094 C 126.976562 157.074219 119.859375 153.058594 114.085938 149.429688 C 114.011719 149.878906 113.816406 150.78125 113.101562 151.398438 C 110.582031 153.46875 108.121094 155.597656 105.898438 157.964844 C 103.324219 159.546875 101.789062 163.910156 100.003906 165.1875 C 98.925781 162.625 101.945312 160.453125 103.605469 158.621094 C 106.144531 155.828125 108.851562 153.660156 110.8125 150.414062 C 111.847656 150.140625 111.839844 148.820312 113.429688 149.101562 C 107.992188 143.9375 101.152344 140.179688 96.070312 134.660156 C 93.953125 135.492188 92.589844 137.078125 90.503906 137.941406 C 89.683594 138.566406 88.957031 140.578125 87.882812 139.910156 C 86.492188 142.046875 84.679688 145.410156 82.316406 145.492188 C 85.273438 140.46875 90.199219 137.417969 94.109375 133.347656 C 80.902344 122.289062 71.601562 107.320312 62.664062 91.988281 C 62.453125 89.902344 61.589844 88.472656 61.027344 86.734375 C 60.886719 86.050781 61.253906 85.867188 61.355469 85.421875 "/>
<path style=" stroke:none;fill-rule:evenodd;fill:rgb(0%,0%,0%);fill-opacity:1;" d="M 296.511719 89.691406 C 294.816406 90.410156 292.589844 89.691406 291.925781 88.378906 C 292.324219 84.707031 297.441406 85.335938 296.511719 89.691406 "/>
<path style=" stroke:none;fill-rule:evenodd;fill:rgb(83.918762%,78.819275%,74.119568%);fill-opacity:1;" d="M 349.238281 98.554688 C 349.757812 102.574219 347.113281 106.265625 345.3125 109.054688 C 340.738281 108.9375 338.183594 106.789062 337.777344 102.492188 C 342.226562 103.058594 346.777344 101.054688 349.238281 98.554688 "/>
<path style=" stroke:none;fill-rule:evenodd;fill:rgb(100%,100%,100%);fill-opacity:1;" d="M 102.296875 111.355469 C 111.050781 110.289062 116.746094 117.617188 112.777344 125.140625 C 108.429688 121.398438 104.546875 117.195312 102.296875 111.355469 "/>
<path style=" stroke:none;fill-rule:evenodd;fill:rgb(0%,0%,0%);fill-opacity:1;" d="M 81.660156 121.53125 C 78.390625 123.070312 73.441406 124.671875 72.164062 127.109375 C 70.652344 125.625 74.851562 124.386719 75.441406 122.84375 C 77.832031 123.023438 79.738281 119.6875 81.660156 121.53125 "/>
<path style=" stroke:none;fill-rule:evenodd;fill:rgb(0%,0%,0%);fill-opacity:1;" d="M 334.832031 140.238281 C 337.042969 138.339844 336.488281 130.804688 334.503906 129.082031 L 333.847656 129.082031 C 334.324219 133.378906 332.71875 137.828125 334.832031 140.238281 M 333.847656 142.207031 C 331.074219 138.734375 332.042969 130.675781 333.519531 126.78125 C 339.414062 125.796875 339.96875 141.9375 333.847656 142.207031 "/>
<path style=" stroke:none;fill-rule:evenodd;fill:rgb(0%,0%,0%);fill-opacity:1;" d="M 344.328125 137.285156 C 345.949219 135.542969 346.34375 129.988281 344 128.75 C 343.660156 131.394531 342.679688 135.449219 344.328125 137.285156 M 345.964844 126.78125 C 347.671875 129.378906 349.160156 141.46875 342.363281 138.601562 C 341.242188 135.019531 342.289062 130.746094 341.382812 127.4375 C 342.480469 126.554688 344.386719 126.308594 345.964844 126.78125 "/>
<path style=" stroke:none;fill-rule:evenodd;fill:rgb(100%,100%,100%);fill-opacity:1;" d="M 115.070312 128.421875 C 120.417969 127.988281 124.542969 131.621094 125.546875 136.628906 C 121.625 134.324219 118.421875 131.296875 115.070312 128.421875 "/>
<path style=" stroke:none;fill-rule:evenodd;fill:rgb(84.709167%,38.038635%,38.038635%);fill-opacity:1;" d="M 344 128.75 C 346.34375 129.988281 345.949219 135.542969 344.328125 137.285156 C 342.679688 135.449219 343.660156 131.394531 344 128.75 "/>
<path style=" stroke:none;fill-rule:evenodd;fill:rgb(84.709167%,38.038635%,38.038635%);fill-opacity:1;" d="M 333.847656 129.078125 L 334.503906 129.078125 C 336.488281 130.804688 337.042969 138.339844 334.832031 140.238281 C 332.71875 137.828125 334.324219 133.378906 333.847656 129.078125 "/>
<path style=" stroke:none;fill-rule:evenodd;fill:rgb(0%,0%,0%);fill-opacity:1;" d="M 203.496094 143.851562 C 201.550781 142.953125 199.289062 142.378906 197.929688 140.894531 C 197.875 140.515625 198.003906 140.3125 198.257812 140.238281 C 199.566406 140.628906 203.671875 140.894531 203.496094 143.851562 "/>
<path style=" stroke:none;fill-rule:evenodd;fill:rgb(91.758728%,16.468811%,16.468811%);fill-opacity:1;" d="M 234.28125 165.84375 C 233.414062 165.507812 232.417969 165.304688 232.316406 164.203125 C 233.84375 163.335938 234.316406 164.730469 234.28125 165.84375 "/>
<path style=" stroke:none;fill-rule:evenodd;fill:rgb(91.758728%,16.468811%,16.468811%);fill-opacity:1;" d="M 222.820312 165.84375 C 223.980469 168.222656 222.105469 171.707031 224.128906 173.390625 C 228.007812 172.679688 229.359375 169.441406 231.007812 166.5 C 232.539062 166.386719 232.9375 167.410156 233.628906 168.136719 C 233.085938 170.441406 230.703125 170.898438 230.027344 173.066406 C 233.15625 174.707031 239.132812 173.789062 238.542969 177.660156 C 237.992188 181.257812 233.210938 178.761719 230.679688 180.285156 C 232.949219 181.871094 235.585938 186.550781 232.648438 189.476562 C 230.351562 187.398438 228.410156 184.96875 225.441406 183.566406 C 219.652344 186.738281 212.457031 188.5 206.117188 191.117188 C 205.519531 187.855469 205.578125 184.625 205.132812 181.925781 C 209.992188 182.152344 215.90625 178.171875 220.527344 176.019531 C 221.96875 172.644531 220.023438 169.222656 220.527344 166.171875 C 221.5625 166.332031 221.683594 165.578125 222.820312 165.84375 "/>
<path style=" stroke:none;fill-rule:evenodd;fill:rgb(0%,0%,0%);fill-opacity:1;" d="M 196.945312 170.4375 L 196.945312 172.078125 C 194.851562 171.921875 191.632812 172.507812 189.414062 171.421875 C 189.273438 170.738281 189.640625 170.554688 189.742188 170.109375 C 191.105469 170.515625 195 170.222656 196.945312 170.4375 "/>
<path style=" stroke:none;fill-rule:evenodd;fill:rgb(0%,0%,0%);fill-opacity:1;" d="M 140.941406 182.582031 C 140.808594 193.816406 145.113281 205.863281 151.421875 212.78125 C 153.460938 212.484375 154.433594 210.1875 157.316406 210.8125 C 161.207031 211.652344 160.101562 216.554688 158.625 219.675781 C 161.566406 220.472656 165.0625 220.175781 165.179688 223.613281 C 165.308594 227.457031 159.980469 229.101562 156.664062 229.519531 C 159.941406 237.761719 147.214844 237.289062 144.871094 232.804688 C 144.304688 233.878906 144.167969 235.382812 143.234375 236.089844 C 142.28125 236.445312 140.910156 236.382812 139.960938 236.742188 C 136.292969 234.222656 134.097656 228.074219 136.683594 222.957031 C 131.441406 216.699219 126.328125 207.503906 125.546875 197.027344 C 125.339844 194.203125 124.394531 189.535156 126.859375 189.148438 C 127.0625 200.007812 128.945312 210.945312 134.71875 218.03125 C 136.0625 219.679688 137.929688 220.722656 139.304688 222.300781 C 139.070312 224.210938 137.210938 224.777344 137.011719 227.222656 C 136.734375 230.660156 139.105469 235.085938 141.269531 234.773438 C 144.410156 234.316406 142.503906 230.242188 143.234375 227.554688 C 146.035156 228.363281 145.992188 232.484375 148.804688 233.789062 C 150.757812 234.695312 154.71875 235.019531 155.679688 232.804688 C 155.746094 228.796875 151.296875 229.320312 150.441406 226.238281 C 151.835938 224.882812 153.324219 227.273438 155.679688 227.554688 C 159.21875 227.96875 163.890625 226.113281 163.539062 223.613281 C 163.027344 219.96875 157.203125 223.039062 154.699219 221.316406 C 155.71875 218.882812 159.996094 215.800781 157.316406 212.78125 C 154.730469 211.894531 153.777344 215.015625 151.421875 215.40625 C 143.542969 207.980469 139.945312 195.277344 138.648438 182.253906 C 139.109375 181.785156 140.242188 182.328125 140.941406 182.582031 "/>
<path style=" stroke:none;fill-rule:evenodd;fill:rgb(0%,0%,0%);fill-opacity:1;" d="M 198.585938 196.039062 C 196.484375 197.109375 193.191406 196.980469 190.722656 197.683594 C 190.910156 194.796875 197.636719 194.199219 198.585938 196.039062 "/>
<path style=" stroke:none;fill-rule:evenodd;fill:rgb(0%,0%,0%);fill-opacity:1;" d="M 195.636719 239.367188 C 193.34375 238.933594 189.074219 240.476562 188.757812 238.058594 C 190.824219 238.714844 195.839844 235.765625 195.636719 239.367188 "/>
<path style=" stroke:none;fill-rule:evenodd;fill:rgb(0%,0%,0%);fill-opacity:1;" d="M 167.472656 275.476562 C 168.988281 277.347656 170.699219 279.023438 173.691406 279.414062 C 171.085938 281.882812 166.019531 278.402344 167.472656 275.476562 "/>
<g clip-path="url(#clip1)" clip-rule="nonzero">
<path style=" stroke:none;fill-rule:evenodd;fill:rgb(0%,0%,0%);fill-opacity:1;" d="M 220.527344 166.171875 C 220.023438 169.21875 221.96875 172.648438 220.527344 176.015625 C 215.90625 178.171875 209.992188 182.152344 205.132812 181.925781 C 205.578125 184.625 205.519531 187.855469 206.117188 191.117188 C 212.457031 188.5 219.652344 186.738281 225.441406 183.566406 C 228.410156 184.96875 230.351562 187.398438 232.648438 189.476562 C 235.585938 186.550781 232.949219 181.871094 230.679688 180.285156 C 233.210938 178.765625 237.992188 181.257812 238.542969 177.660156 C 239.132812 173.789062 233.15625 174.707031 230.027344 173.066406 C 230.703125 170.898438 233.085938 170.441406 233.628906 168.140625 C 232.9375 167.40625 232.539062 166.386719 231.007812 166.5 C 229.359375 169.441406 228.007812 172.679688 224.128906 173.390625 C 222.105469 171.707031 223.980469 168.222656 222.820312 165.84375 C 221.683594 165.578125 221.5625 166.332031 220.527344 166.171875 M 232.316406 164.203125 C 232.417969 165.304688 233.414062 165.507812 234.28125 165.84375 C 234.316406 164.730469 233.84375 163.335938 232.316406 164.203125 M 125.546875 136.628906 C 124.542969 131.621094 120.417969 127.988281 115.066406 128.421875 C 118.421875 131.296875 121.621094 134.324219 125.546875 136.628906 M 112.777344 125.140625 C 116.746094 117.617188 111.054688 110.289062 102.296875 111.355469 C 104.546875 117.195312 108.429688 121.398438 112.777344 125.140625 M 337.777344 102.492188 C 338.183594 106.789062 340.738281 108.933594 345.3125 109.058594 C 347.113281 106.265625 349.757812 102.574219 349.238281 98.554688 C 346.777344 101.054688 342.226562 103.058594 337.777344 102.492188 M 250.332031 87.066406 C 244.390625 83.390625 231.363281 83.738281 225.441406 88.707031 C 222.992188 90.753906 223.074219 93.855469 220.855469 95.597656 C 206.519531 93.742188 196.589844 101.886719 197.601562 117.589844 C 184.871094 120.855469 175.40625 136.066406 180.570312 152.386719 C 179.710938 152.941406 177.765625 152.417969 176.96875 153.039062 C 176.042969 153.535156 175.574219 154.488281 174.347656 154.683594 C 170.179688 160.59375 166.230469 168.980469 166.160156 177.988281 C 166.101562 185.730469 170.183594 191.554688 173.367188 197.027344 C 162.050781 203.011719 168.144531 221.21875 171.730469 231.164062 C 163.832031 234.433594 157.777344 242.625 162.230469 252.824219 C 153.839844 255.792969 147.570312 260.894531 144.871094 269.566406 C 148 282.972656 141.96875 297.226562 135.703125 305.671875 C 134.285156 307.582031 132.195312 309.558594 132.425781 311.253906 C 147.277344 312.242188 152.15625 303.230469 161.246094 298.453125 C 167.238281 305.90625 176.015625 310.566406 179.917969 320.117188 C 184.566406 322.695312 189.707031 317.863281 193.671875 315.1875 C 197.460938 312.636719 202.070312 309.347656 205.460938 306.328125 C 206.824219 305.113281 208.441406 303.898438 209.0625 303.046875 C 209.679688 302.203125 209.523438 301.09375 210.046875 300.09375 C 210.835938 298.578125 213.566406 297.230469 212.011719 295.5 C 211.160156 293.875 208.636719 295.792969 208.082031 294.84375 C 206.863281 293.582031 209.53125 292.71875 208.410156 291.558594 C 202.726562 286.890625 199.570312 296.199219 196.617188 299.4375 C 195.601562 299.730469 195.09375 300.535156 193.996094 300.75 C 192.941406 302.796875 190.710938 304.886719 188.757812 306.65625 C 186.996094 308.257812 184.613281 310.96875 182.535156 310.269531 C 182.8125 308.539062 185.191406 307.375 186.792969 306 C 188.476562 304.558594 190.558594 303.375 191.378906 301.40625 C 188.273438 296.421875 183.878906 292.730469 182.210938 286.304688 C 193.699219 267.890625 210.835938 256.574219 208.738281 232.476562 C 208.378906 228.355469 207.296875 225.074219 206.773438 220.660156 C 205.777344 212.292969 204.867188 204.898438 204.480469 196.695312 C 204.242188 191.699219 204.402344 186.417969 203.496094 181.269531 C 203.015625 178.527344 202.359375 176.234375 202.84375 172.734375 C 206.117188 148.921875 209.40625 123.917969 220.527344 107.417969 C 229.609375 95.820312 249.585938 86.695312 268.019531 93.628906 C 265.480469 88.234375 258.132812 85.105469 250.332031 87.066406 M 325.988281 78.859375 C 325.359375 76.402344 320.421875 74.351562 317.472656 75.578125 C 314.523438 76.800781 313.429688 81.25 313.542969 85.09375 C 316.460938 93.832031 327.457031 84.578125 325.988281 78.859375 M 132.425781 88.050781 C 126.898438 77.699219 122.863281 68.464844 124.566406 55.226562 C 124.148438 55.207031 124.113281 54.804688 123.585938 54.898438 C 121.578125 56.828125 119.59375 58.777344 118.996094 62.121094 C 114.773438 66.894531 111.40625 70.503906 109.5 77.546875 C 116.242188 84.347656 112.695312 99.167969 108.1875 105.773438 C 114.242188 106.082031 118.320312 108.511719 119.324219 115.292969 C 119.738281 118.074219 118.382812 121.535156 118.671875 124.484375 C 130.351562 125.359375 129.785156 138.507812 137.992188 142.863281 C 142.761719 139.289062 144.105469 131.761719 147.164062 125.796875 C 150.078125 120.121094 153.703125 114.515625 156.992188 109.714844 C 144.664062 107.050781 138.070312 98.609375 132.425781 88.050781 M 296.511719 60.148438 C 288.273438 51.371094 269.589844 45.445312 253.933594 44.066406 C 246.4375 43.40625 238.535156 42.511719 231.335938 44.390625 C 223.605469 46.414062 215.476562 50.539062 208.738281 54.566406 C 201.875 58.671875 195.753906 63.925781 190.070312 69.011719 C 177.996094 79.808594 168.335938 93.066406 160.917969 105.773438 C 161.113281 107.171875 160.683594 107.945312 160.59375 109.058594 C 156.261719 112.878906 153.761719 118.058594 151.09375 123.5 C 147.660156 130.503906 142.011719 139.992188 141.597656 147.789062 C 136.042969 149.582031 132.320312 145.652344 128.167969 143.519531 C 117.847656 138.21875 109.082031 130.421875 103.605469 121.859375 C 93.96875 112.476562 85.496094 101.933594 76.09375 92.316406 C 76.253906 91.28125 75.503906 91.160156 75.765625 90.019531 C 69.632812 83.476562 62.8125 77.617188 57.425781 70.324219 C 56.953125 82.542969 53.425781 91.699219 44.324219 95.273438 C 54.785156 101.972656 66.445312 115.320312 63.320312 131.378906 C 62.03125 137.992188 56.488281 142.402344 53.167969 147.789062 C 71.410156 147.699219 93.554688 157.082031 88.210938 179.628906 C 97.605469 174.105469 112.066406 174.738281 121.617188 177.988281 C 124.71875 189.9375 121.101562 198.96875 116.707031 207.527344 C 113.761719 213.261719 110.769531 219.101562 107.207031 223.613281 C 105.222656 226.125 102.753906 228.308594 100.984375 230.832031 C 99.019531 233.636719 97.3125 236.140625 95.089844 238.382812 C 90.410156 240.75 86.726562 243.160156 80.351562 242.980469 C 74.425781 242.8125 66.015625 241.003906 60.046875 242.324219 C 52.570312 243.972656 45.195312 244.902344 39.738281 247.574219 C 29.917969 252.382812 24.4375 260.394531 23.035156 273.503906 C 22.378906 279.644531 21.519531 286.257812 22.710938 292.871094 C 23.429688 296.878906 26.609375 301.359375 28.605469 305.015625 C 30.953125 309.320312 32.769531 313.191406 35.808594 316.171875 C 40.550781 320.828125 50.375 322.839844 58.082031 322.414062 C 66.582031 321.9375 72.402344 316.851562 76.75 312.238281 C 81.148438 307.570312 86.679688 300.058594 84.9375 291.230469 C 84.113281 287.066406 82.523438 281.125 77.074219 281.054688 C 76.761719 283.71875 79.320312 284.394531 79.695312 286.964844 C 80.84375 294.816406 69.109375 302.265625 63.320312 302.390625 C 60.53125 302.453125 58.144531 300.171875 55.789062 300.09375 C 49.84375 294.550781 43.011719 288.878906 44.324219 278.429688 C 45.246094 271.113281 52.539062 263.761719 58.40625 261.6875 C 71.5 257.0625 85.644531 261.242188 92.796875 270.550781 C 96.84375 275.816406 98.25 281.496094 99.019531 288.933594 C 100.613281 304.335938 100.28125 318.757812 99.675781 333.902344 C 98.820312 335.414062 98.941406 335.914062 98.691406 337.839844 C 97.40625 338.085938 97.113281 339.324219 96.398438 340.136719 C 95.753906 340.863281 94.015625 339.496094 93.125 340.464844 C 94.351562 343.496094 98.453125 342.507812 101.640625 342.765625 C 108.425781 343.308594 115.429688 345.273438 120.308594 345.390625 C 120.183594 344.296875 118.445312 343.117188 119.652344 341.78125 C 122.144531 343.558594 123.917969 345.617188 128.167969 344.078125 C 129.226562 342.96875 126.375 342.121094 128.167969 341.121094 C 130.273438 341.683594 135.214844 342.710938 135.046875 338.824219 C 134.945312 336.449219 129.949219 335.351562 126.53125 334.886719 C 124.714844 334.640625 123.703125 335.46875 122.601562 334.558594 C 120.523438 332.847656 122.273438 328 122.273438 325.039062 C 122.273438 322.609375 121.035156 317.210938 122.601562 314.535156 C 127.851562 312.195312 130.605469 310.332031 134.0625 305.671875 C 140.570312 296.902344 146.332031 283.308594 142.90625 270.550781 C 144.3125 265.695312 146.222656 261.546875 150.109375 258.078125 C 151.824219 256.550781 159.4375 253.222656 159.9375 251.183594 C 160.3125 249.652344 158.667969 247.335938 158.625 245.933594 C 158.40625 238.125 164.421875 234.625 169.433594 229.851562 C 168.726562 225.152344 165.558594 218.738281 164.851562 212.78125 C 163.957031 205.242188 167.570312 200.710938 170.746094 196.039062 C 160.449219 183.585938 165.039062 156.246094 178.277344 150.414062 C 174.96875 134.308594 183.628906 120.859375 195.964844 116.277344 C 196.632812 112.617188 196.25 108.574219 197.273438 105.445312 C 200.039062 97.019531 212.128906 92.914062 220.199219 93.300781 C 223.28125 84.257812 240.132812 80.40625 250.003906 85.09375 C 260.144531 83.59375 265.835938 87.144531 269.984375 92.972656 C 273.175781 97.460938 276.054688 103.707031 275.222656 109.714844 C 274.726562 113.296875 271.992188 117.183594 272.601562 121.203125 C 272.8125 122.578125 274.765625 124.039062 274.566406 125.46875 C 279.472656 128.554688 284.347656 132.035156 289.304688 135.316406 C 294.324219 138.636719 300.5625 140.09375 304.371094 144.835938 C 305.167969 145.429688 306.316406 144.371094 306.992188 145.492188 C 306.433594 147.71875 308.265625 149.195312 308.628906 151.398438 C 309.203125 154.890625 307.816406 158.714844 308.953125 161.902344 C 320.082031 164.628906 332.980469 168.429688 342.6875 162.886719 C 345.410156 159.355469 346.148438 155.519531 347.277344 149.429688 C 348.328125 143.75 349.765625 137.789062 350.226562 132.035156 C 350.957031 122.820312 346.605469 118.527344 345.964844 111.355469 C 339.300781 111.027344 335.386719 107.953125 335.8125 100.519531 C 332.066406 96.183594 326.160156 94.003906 323.039062 89.035156 C 316.039062 94.609375 308.226562 84.585938 313.542969 77.875 C 312.289062 73.4375 307.78125 72.273438 307.320312 67.042969 C 309.878906 64.027344 311.796875 60.367188 313.871094 56.867188 C 310.847656 55.972656 308.902344 54.53125 306.335938 54.898438 C 301.71875 55.550781 301.40625 60.394531 298.152344 62.777344 C 297.726562 61.847656 297.171875 60.855469 296.511719 60.148438 M 297.492188 55.226562 C 302.5625 47.71875 317.738281 51.070312 321.402344 58.503906 C 318.332031 59.617188 311.585938 64.789062 312.234375 69.011719 C 312.789062 72.660156 315.964844 70.214844 318.457031 70.324219 C 327.050781 70.699219 334.941406 81.386719 327.625 88.378906 C 330.894531 92.105469 335.117188 94.871094 339.089844 97.898438 C 344.910156 96.617188 348.191406 92.792969 351.207031 88.707031 C 356.960938 90.601562 355.605469 96.109375 354.152344 102.164062 C 353.132812 106.429688 350.554688 110.75 350.878906 114.308594 C 351.128906 117.019531 353.125 119.71875 353.828125 122.515625 C 355.261719 128.230469 355.09375 134.707031 354.152344 140.894531 C 352.71875 150.332031 351.144531 159.734375 346.296875 166.828125 C 339.265625 170.183594 333.289062 171.226562 323.371094 169.453125 C 316.632812 168.25 306.035156 167.460938 303.71875 162.230469 C 301.90625 158.144531 304.738281 151.355469 301.097656 147.460938 C 298.070312 144.226562 292.019531 142.175781 286.6875 138.597656 C 281.882812 135.375 276.515625 132.292969 272.929688 129.410156 C 270.714844 127.625 268.039062 123.515625 267.6875 119.890625 C 267.265625 115.453125 271.457031 108.519531 269.984375 103.804688 C 269.167969 101.1875 264.160156 97.101562 261.46875 96.253906 C 257.253906 94.933594 251.164062 95.589844 247.710938 96.253906 C 235.511719 98.601562 226.761719 106.621094 220.855469 116.277344 C 213.535156 132.90625 211.582031 154.910156 207.753906 175.03125 C 210.042969 175.246094 213.425781 173.714844 215.941406 173.066406 C 215.53125 168.433594 214.621094 163.785156 217.25 160.917969 C 220.511719 159.3125 224.300781 161.046875 226.421875 162.558594 C 228.265625 162.464844 228.699219 160.429688 230.679688 159.933594 C 235.914062 158.625 241.53125 163.882812 238.542969 170.4375 C 241.246094 172.292969 245.140625 176.65625 243.125 181.269531 C 242.421875 182.886719 240.476562 183.472656 238.542969 184.222656 C 240.933594 187.078125 238.523438 192.632812 236.25 194.726562 C 231.601562 195.558594 228.714844 193.246094 226.75 190.460938 C 222.355469 192.449219 218.78125 192.671875 213.648438 193.414062 C 217.152344 211.367188 216.027344 232.273438 213.648438 246.917969 C 212.472656 254.15625 209.265625 260.992188 205.789062 264.644531 C 205.238281 265.222656 204.757812 266.125 203.496094 265.953125 C 199.75 273.582031 192.859375 278.050781 188.757812 285.324219 C 190.136719 288.867188 192.484375 291.4375 194.328125 294.511719 C 196.652344 292.507812 198.335938 287.800781 201.53125 286.304688 C 203.664062 285.3125 207.683594 284.515625 210.046875 285.324219 C 212.078125 286.015625 211.972656 288.511719 213.976562 291.230469 C 215.050781 292.683594 217.574219 293.246094 217.582031 296.15625 C 217.585938 299.011719 214.828125 300.058594 214.960938 303.046875 C 211.378906 307.296875 206.519531 310.632812 201.203125 314.863281 C 197.367188 317.917969 193.488281 321.257812 190.070312 323.070312 C 185.539062 325.46875 180.71875 325.84375 175.984375 323.726562 C 173.054688 315.941406 166.785156 311.507812 161.902344 305.671875 C 157.09375 309.125 151.296875 312.5 144.21875 314.207031 C 138.960938 315.472656 131.441406 314.359375 126.859375 316.503906 C 125.792969 320.640625 127.640625 325.472656 125.875 329.636719 C 130.609375 332.363281 139.246094 332.351562 139.632812 338.5 C 139.804688 341.261719 137.632812 342.105469 137.339844 345.0625 C 134.390625 346.84375 126.132812 349.03125 121.289062 349.660156 C 116.429688 350.285156 110.320312 348.433594 104.257812 347.359375 C 98.179688 346.285156 90.0625 347.789062 88.210938 343.09375 C 86.4375 338.597656 90.960938 334.445312 94.761719 334.558594 C 95.734375 314.503906 98.921875 285.351562 87.554688 272.195312 C 82.546875 266.390625 70.125 260.183594 59.71875 265.628906 C 53.960938 268.640625 47.492188 276.179688 49.894531 284.996094 C 51.058594 289.28125 57.382812 296.96875 61.683594 297.796875 C 67.335938 298.882812 75.082031 293.148438 75.113281 289.261719 C 75.136719 286.023438 71.488281 285.289062 71.507812 282.367188 C 71.554688 275.28125 83.136719 277.148438 86.574219 279.742188 C 89.9375 282.277344 92.1875 289.085938 91.488281 295.824219 C 90.902344 301.4375 85.34375 309.480469 81.664062 313.878906 C 77.292969 319.097656 72.625 322.160156 64.957031 324.382812 C 49.277344 328.933594 33.917969 323.957031 26.636719 312.566406 C 25.113281 310.179688 23.527344 306.65625 22.054688 303.703125 C 18.742188 297.074219 17.316406 290.316406 17.46875 282.039062 C 17.683594 270.300781 21.144531 255.738281 27.949219 249.542969 C 30.070312 247.613281 33.203125 245.839844 35.808594 244.292969 C 43.566406 239.679688 56.445312 237.738281 67.25 237.726562 C 72.039062 237.722656 77.507812 239.714844 82.972656 239.039062 C 91.1875 238.023438 96.09375 230.144531 100.660156 223.941406 C 105.515625 217.339844 109.320312 209.261719 113.101562 200.964844 C 115.746094 195.15625 118.324219 190.125 117.359375 183.566406 C 111.175781 181.378906 103.796875 178.894531 97.382812 180.285156 C 92.320312 181.382812 88.472656 185.660156 83.625 185.539062 C 83.488281 178.6875 86.867188 173.917969 83.625 167.484375 C 78.003906 156.328125 60.285156 150.386719 45.960938 152.710938 C 45.960938 148.710938 49.589844 146.054688 51.855469 143.191406 C 54.238281 140.1875 56.144531 136.996094 58.40625 134.003906 C 61.976562 115.386719 48.921875 104.265625 37.773438 96.253906 C 39.199219 90.65625 45 92.417969 48.582031 88.378906 C 50.09375 86.671875 52.523438 79.378906 52.839844 76.558594 C 53.632812 69.542969 49.820312 62.875 47.273438 58.835938 C 47.777344 56.582031 49.765625 53.5625 52.183594 53.582031 C 54.472656 53.605469 58.617188 58.75 60.699219 61.132812 C 63.585938 64.433594 65.925781 66.804688 68.558594 69.339844 C 73.800781 74.382812 81.75 80.433594 84.28125 85.421875 C 84.617188 86.082031 84.792969 87.9375 85.261719 89.035156 C 86.515625 91.941406 89.445312 94.113281 92.140625 97.570312 C 94.027344 99.984375 96.8125 106.324219 98.363281 106.429688 C 99.816406 106.53125 104.050781 98.984375 104.589844 97.238281 C 107.019531 89.347656 102.734375 81.683594 100.328125 76.890625 C 102.136719 73.585938 105.554688 72.304688 108.1875 69.339844 C 111.871094 65.195312 114.484375 59.027344 118.015625 54.242188 C 119.671875 51.996094 121.578125 49.242188 123.253906 47.019531 C 124.707031 45.097656 126.710938 41.425781 129.804688 43.082031 C 130.382812 51.207031 127.707031 64.644531 131.117188 74.261719 C 133.769531 81.753906 140.078125 93.078125 144.542969 98.222656 C 147.167969 101.25 150.730469 103.523438 155.023438 104.460938 C 157.363281 101.335938 159.886719 98.394531 161.246094 94.285156 C 166.617188 87.960938 170.785156 80.429688 176.640625 74.59375 C 186.996094 66.933594 195.40625 57.058594 207.097656 50.300781 C 208.9375 49.238281 211.300781 48.433594 213.324219 47.347656 C 217.761719 44.960938 222.71875 42.140625 228.386719 40.457031 C 236.152344 38.144531 246.917969 37.890625 255.570312 37.5 C 273.117188 39.828125 286.472656 46.359375 297.492188 55.226562 "/>
</g>
<g clip-path="url(#clip2)" clip-rule="nonzero">
<g clip-path="url(#clip3)" clip-rule="nonzero">
<g clip-path="url(#clip4)" clip-rule="nonzero">
<path style=" stroke:none;fill-rule:evenodd;fill:rgb(13.729858%,12.159729%,12.548828%);fill-opacity:1;" d="M 259.246094 168.980469 C 251.195312 169.171875 243.03125 169.78125 236.3125 174.636719 C 228.25 180.453125 229.746094 187.421875 235.328125 194.09375 L 253.996094 179.027344 C 254.332031 174.976562 255.726562 171.199219 259.183594 169.023438 Z M 269.089844 221.257812 C 268.324219 220.925781 267.496094 220.550781 266.609375 220.136719 C 268.324219 222.648438 269.984375 224.777344 271.441406 226.226562 C 272.855469 227.632812 274.058594 228.796875 275.078125 229.757812 C 272.925781 226.960938 270.921875 224.09375 269.089844 221.257812 Z M 237.96875 196.949219 C 238.917969 197.882812 239.929688 198.804688 240.996094 199.71875 C 244.824219 196.773438 248.96875 193.675781 252.828125 190.3125 C 252.414062 193.691406 257.234375 204.566406 262.636719 213.816406 C 263.605469 214.324219 264.535156 214.800781 265.425781 215.242188 C 260.921875 207.386719 256.964844 198.570312 255.023438 190.015625 C 254.613281 188.207031 254.238281 186.128906 254.046875 183.972656 Z M 226.421875 219.765625 C 226.621094 215.925781 227.8125 211.960938 229.9375 209.445312 C 231.957031 207.050781 234.746094 204.636719 237.898438 202.132812 C 236.871094 201.226562 235.890625 200.304688 234.96875 199.371094 L 227.910156 205.0625 C 224.835938 206.996094 224.488281 212.542969 226.421875 219.765625 Z M 273.023438 204.148438 C 269.617188 197.5625 266.75 190.507812 265.1875 183.617188 C 264.3125 179.765625 263.59375 174.671875 264.496094 170.261719 L 261.253906 172.304688 C 258.550781 174 257.484375 177.867188 257.863281 183.101562 C 258.78125 180.222656 260.84375 179.46875 262.503906 178.265625 C 264.042969 190.851562 268.859375 198.554688 273.023438 204.148438 Z M 228.050781 186.398438 C 228.605469 189.144531 232.402344 199.097656 247.761719 208.570312 C 263.117188 218.046875 269.046875 219.875 269.046875 219.875 C 269.046875 219.875 256.03125 213.699219 244.738281 205.480469 C 237.121094 199.933594 231.371094 193.785156 228.050781 186.398438 Z M 311.613281 192.921875 C 316.128906 200.0625 320.421875 208.34375 323.175781 216.667969 C 320.648438 216.199219 317.941406 216.386719 315.371094 216.996094 C 314.480469 217.210938 313.425781 217.445312 312.273438 217.675781 C 314.414062 216.453125 316.269531 214.546875 317.382812 212.371094 C 317.460938 212.527344 317.539062 212.679688 317.613281 212.832031 C 317.546875 212.664062 317.476562 212.496094 317.40625 212.328125 C 318.917969 209.339844 319.027344 205.847656 316.550781 202.914062 C 315.257812 201.378906 313.542969 200.753906 311.765625 200.738281 C 310.695312 198.832031 309.554688 196.910156 308.335938 194.984375 C 295.269531 174.316406 278.742188 161.296875 271.417969 165.90625 C 269.410156 167.171875 268.300781 169.632812 268.023438 172.960938 C 268.019531 172.996094 268.640625 173.011719 269.863281 173.40625 C 269.863281 173.269531 269.921875 173.214844 269.921875 173.214844 C 272.1875 170.761719 279.765625 163.8125 292.867188 178.371094 C 298.765625 184.929688 305.167969 192.648438 310.601562 200.8125 C 309.546875 200.953125 308.496094 201.285156 307.519531 201.75 C 304.984375 202.953125 302.921875 205.566406 301.007812 207.578125 C 300.761719 207.839844 300.507812 208.097656 300.253906 208.347656 C 299.175781 206.367188 298.035156 204.417969 296.839844 202.519531 C 292.03125 194.894531 277.933594 176.921875 267.964844 175.667969 C 268.289062 184.640625 273.242188 198.121094 281.8125 211.675781 C 282.320312 212.484375 282.839844 213.277344 283.359375 214.0625 C 283.707031 214.820312 284.179688 215.515625 284.75 216.109375 C 285.578125 217.304688 286.414062 218.46875 287.261719 219.601562 C 287.3125 219.738281 287.371094 219.875 287.4375 220.007812 C 287.65625 220.453125 287.953125 220.871094 288.242188 221.269531 C 289.089844 222.414062 290.042969 223.527344 290.957031 224.621094 C 295.457031 229.984375 301.515625 236.269531 308.382812 239.636719 C 309.070312 240 309.746094 240.3125 310.402344 240.582031 C 310.402344 240.566406 310.402344 240.546875 310.402344 240.53125 C 312.515625 241.367188 314.699219 241.902344 316.921875 242.035156 C 319.320312 242.175781 321.625 241.839844 323.824219 241.058594 C 323.082031 242.191406 322.128906 243.179688 320.914062 243.964844 C 320.878906 243.988281 320.84375 244.011719 320.808594 244.035156 L 310.640625 250.429688 C 307.265625 252.554688 303.355469 252.246094 299.628906 250.886719 L 266.414062 266.480469 C 260.882812 269.726562 253.929688 265.636719 249.539062 262.179688 C 242.96875 257 237.136719 249.625 232.6875 242.59375 C 228.242188 235.554688 224.082031 227.125 222.230469 218.980469 C 220.996094 213.535156 220.289062 205.503906 225.621094 201.925781 L 232.355469 196.492188 C 226.664062 189.632812 224.441406 182.214844 230.039062 175.214844 C 236.089844 167.644531 246.652344 165.585938 255.785156 165.289062 C 259.0625 165.183594 262.339844 165.078125 265.621094 164.972656 L 269.332031 162.636719 L 269.34375 162.628906 L 269.351562 162.621094 C 269.382812 162.601562 269.417969 162.582031 269.453125 162.5625 C 276.125 158.476562 284.847656 163.773438 290.125 167.925781 C 298.5 174.523438 305.949219 183.953125 311.613281 192.921875 "/>
</g>
</g>
</g>
<g clip-path="url(#clip5)" clip-rule="nonzero">
<g clip-path="url(#clip6)" clip-rule="nonzero">
<g clip-path="url(#clip7)" clip-rule="nonzero">
<path style=" stroke:none;fill-rule:evenodd;fill:rgb(100%,34.118652%,34.118652%);fill-opacity:1;" d="M 338.457031 271.015625 C 335.082031 271.144531 333.324219 267.796875 332.640625 265.554688 C 330.925781 259.941406 335.050781 250.542969 330.882812 241.34375 C 329.335938 237.929688 327.457031 235.402344 331.9375 239.097656 C 336.0625 242.5 342.5625 248.632812 345.375 255.449219 C 347.863281 261.480469 345.683594 270.738281 338.457031 271.015625 Z M 361.183594 272.460938 C 360.308594 274.457031 358.785156 276.199219 356.25 276.546875 C 351.394531 277.210938 347.300781 274.007812 348.316406 267.191406 C 349.332031 260.375 349.113281 255.226562 347.492188 252.421875 C 345.265625 248.566406 344.71875 248.023438 349.140625 251.117188 C 355.628906 255.660156 365.054688 263.652344 361.183594 272.460938 Z M 371.425781 255.625 C 364.5 258.574219 348.972656 249.664062 340.414062 241.792969 C 336.917969 238.578125 334.660156 237.238281 340.308594 239.832031 C 349.382812 244 354.054688 245.851562 366.34375 243.667969 C 372.691406 242.539062 376.015625 245.261719 376.003906 249.832031 C 375.996094 252.84375 373.738281 254.640625 371.425781 255.625 Z M 370.78125 232.492188 C 373.28125 233.003906 374.957031 235.140625 374.523438 237.261719 C 374.09375 239.382812 371.71875 240.6875 369.21875 240.175781 C 366.71875 239.664062 365.039062 237.53125 365.472656 235.40625 C 365.90625 233.289062 368.28125 231.980469 370.78125 232.492188 Z M 372.828125 233.863281 C 372.160156 233.496094 371.367188 233.65625 371.050781 234.222656 C 370.738281 234.789062 371.027344 235.546875 371.695312 235.917969 C 372.363281 236.285156 373.160156 236.125 373.472656 235.558594 C 373.785156 234.992188 373.5 234.234375 372.828125 233.863281 Z M 374.992188 248.304688 C 374.882812 247.136719 373.277344 245.003906 370.914062 244.792969 C 368.546875 244.585938 364.453125 245.527344 362.875 245.128906 C 361.292969 244.726562 362.570312 245.878906 364.863281 246.210938 C 367.152344 246.539062 371.589844 246.527344 373.175781 248.144531 C 374.757812 249.761719 374.992188 248.304688 374.992188 248.304688 Z M 359.148438 273.050781 C 362.316406 271.628906 361.101562 266.117188 360.082031 263.636719 C 359.285156 261.691406 357.980469 259.980469 357.570312 260.339844 C 357.445312 260.449219 358.546875 262.570312 358.984375 265.5 C 359.292969 267.546875 359.097656 270.503906 358.703125 271.28125 C 357.691406 273.300781 359.148438 273.050781 359.148438 273.050781 Z M 343.476562 264.847656 C 346.648438 263.421875 345.433594 257.910156 344.414062 255.429688 C 343.613281 253.480469 342.3125 251.773438 341.902344 252.132812 C 341.777344 252.242188 342.875 254.359375 343.316406 257.292969 C 343.625 259.339844 343.429688 262.296875 343.035156 263.078125 C 342.019531 265.097656 343.476562 264.847656 343.476562 264.847656 "/>
</g>
</g>
</g>
<g clip-path="url(#clip8)" clip-rule="nonzero">
<g clip-path="url(#clip9)" clip-rule="nonzero">
<g clip-path="url(#clip10)" clip-rule="nonzero">
<path style=" stroke:none;fill-rule:evenodd;fill:rgb(100%,34.118652%,34.118652%);fill-opacity:1;" d="M 314.433594 204.695312 C 317.789062 208.671875 313.925781 214.316406 309.515625 215.917969 C 304.535156 217.722656 298.125 217.242188 294.320312 216.695312 C 290.183594 216.105469 292.4375 215.878906 295 215.050781 C 301.910156 212.804688 304.902344 206.058594 308.714844 204.25 C 310.238281 203.523438 312.867188 202.835938 314.433594 204.695312 Z M 325.152344 237.4375 C 313.003906 244.058594 300.390625 231.5625 293.082031 222.84375 C 288.101562 216.90625 288.949219 217.621094 294.746094 220.328125 C 298.964844 222.296875 306.371094 221.976562 316.015625 219.6875 C 325.660156 217.398438 330.757812 222.859375 330.398438 229.878906 C 330.210938 233.546875 327.90625 235.9375 325.152344 237.4375 Z M 325.75 234.453125 C 324.097656 239.160156 316.050781 238.101562 312.371094 236.949219 C 309.480469 236.046875 306.871094 234.394531 307.339844 233.765625 C 307.480469 233.574219 310.648438 234.882812 314.902344 235.152344 C 317.875 235.335938 322.089844 234.695312 323.160156 234.039062 C 325.925781 232.335938 325.75 234.453125 325.75 234.453125 Z M 313.589844 210.355469 C 314.371094 212.730469 310.855469 214.753906 309.042969 215.414062 C 307.617188 215.933594 306.082031 216.070312 306.074219 215.679688 C 306.070312 215.558594 307.730469 215.117188 309.5 213.929688 C 310.734375 213.101562 312.210938 211.5625 312.4375 210.976562 C 313.015625 209.457031 313.589844 210.355469 313.589844 210.355469 Z M 292.144531 212.632812 C 292.082031 213.324219 291.554688 213.839844 290.964844 213.785156 C 290.378906 213.730469 289.953125 213.125 290.015625 212.433594 C 290.078125 211.742188 290.609375 211.226562 291.195312 211.28125 C 291.785156 211.335938 292.210938 211.945312 292.144531 212.632812 Z M 292.542969 210.425781 C 292.054688 208.152344 290.09375 206.644531 288.160156 207.054688 C 286.226562 207.464844 285.054688 209.640625 285.542969 211.914062 C 286.03125 214.183594 287.992188 215.691406 289.925781 215.285156 C 291.859375 214.871094 293.03125 212.699219 292.542969 210.425781 "/>
</g>
</g>
</g>
<g clip-path="url(#clip11)" clip-rule="nonzero">
<g clip-path="url(#clip12)" clip-rule="nonzero">
<g clip-path="url(#clip13)" clip-rule="nonzero">
<path style=" stroke:none;fill-rule:evenodd;fill:rgb(100%,34.118652%,34.118652%);fill-opacity:1;" d="M 343.746094 237.933594 C 342.003906 238.753906 340.339844 237.386719 339.476562 236.363281 C 337.328125 233.796875 337.390625 227.945312 333.152344 224.042969 C 331.578125 222.597656 330.027344 221.691406 333.199219 222.632812 C 336.125 223.5 340.898438 225.269531 343.894531 228.21875 C 346.546875 230.832031 347.472656 236.175781 343.746094 237.933594 Z M 362.238281 217.886719 C 355.660156 209.097656 342.460938 213.929688 334.332031 217.796875 C 328.789062 220.425781 329.636719 220.191406 334.703125 220.15625 C 338.390625 220.132812 343.621094 222.8125 349.816406 227.652344 C 356.015625 232.492188 361.480469 230.242188 363.53125 225.066406 C 364.601562 222.363281 363.726562 219.878906 362.238281 217.886719 Z M 361.6875 220.234375 C 362.042969 216.296875 355.898438 214.398438 352.867188 214.011719 C 350.488281 213.707031 348.066406 214.03125 348.191406 214.640625 C 348.234375 214.824219 350.945312 214.929688 354.101562 216.144531 C 356.300781 216.992188 359.128906 218.847656 359.683594 219.675781 C 361.117188 221.816406 361.6875 220.234375 361.6875 220.234375 Z M 345 233.574219 C 346.34375 232.121094 344.472656 229.5 343.386719 228.425781 C 342.535156 227.582031 341.46875 226.972656 341.335938 227.253906 C 341.292969 227.339844 342.34375 228.207031 343.226562 229.648438 C 343.847656 230.652344 344.40625 232.25 344.375 232.746094 C 344.289062 234.03125 345 233.574219 345 233.574219 Z M 344.707031 207.484375 C 344.890625 206.964844 344.679688 206.417969 344.234375 206.265625 C 343.792969 206.109375 343.285156 206.40625 343.105469 206.925781 C 342.925781 207.445312 343.136719 207.992188 343.578125 208.148438 C 344.023438 208.300781 344.527344 208.007812 344.707031 207.484375 Z M 344.269531 209.207031 C 343.167969 210.683594 341.257812 211.121094 340 210.1875 C 338.742188 209.253906 338.613281 207.296875 339.714844 205.820312 C 340.8125 204.347656 342.722656 203.910156 343.980469 204.84375 C 345.238281 205.777344 345.367188 207.730469 344.269531 209.207031 "/>
</g>
</g>
</g>
<g clip-path="url(#clip14)" clip-rule="nonzero">
<path style=" stroke:none;fill-rule:nonzero;fill:rgb(72.938538%,90.979004%,98.039246%);fill-opacity:1;" d="M 279.601562 91.898438 C 276.574219 92.992188 272.6875 92.171875 270.507812 88.582031 C 266.363281 81.757812 278.726562 70.289062 278.933594 70.101562 C 278.9375 70.097656 278.9375 70.097656 278.9375 70.097656 C 277.722656 75.617188 283.699219 80.652344 283.886719 85.800781 C 283.996094 88.808594 282.089844 91 279.601562 91.898438 "/>
</g>
<g clip-path="url(#clip15)" clip-rule="nonzero">
<path style=" stroke:none;fill-rule:nonzero;fill:rgb(62.748718%,82.749939%,88.62915%);fill-opacity:1;" d="M 279.601562 91.898438 C 276.574219 92.992188 272.6875 92.171875 270.507812 88.582031 C 266.386719 81.792969 278.605469 70.40625 278.929688 70.105469 C 278.929688 70.105469 278.933594 70.105469 278.933594 70.101562 C 278.753906 70.339844 272.238281 78.976562 274.316406 82.203125 C 276.421875 85.472656 281.5625 86.050781 279.601562 91.898438 "/>
</g>
<path style=" stroke:none;fill-rule:nonzero;fill:rgb(100%,100%,99.609375%);fill-opacity:1;" d="M 275.777344 82.585938 C 275.777344 83.355469 275.160156 83.976562 274.398438 83.976562 C 273.636719 83.976562 273.019531 83.355469 273.019531 82.585938 C 273.019531 81.820312 273.636719 81.195312 274.398438 81.195312 C 275.160156 81.195312 275.777344 81.820312 275.777344 82.585938 "/>
<g clip-path="url(#clip16)" clip-rule="nonzero">
<path style=" stroke:none;fill-rule:nonzero;fill:rgb(79.998779%,93.328857%,98.039246%);fill-opacity:1;" d="M 279.601562 91.898438 C 282.558594 90.386719 283.042969 86.417969 280.039062 81.414062 C 276.253906 75.097656 278.886719 70.214844 278.933594 70.101562 C 278.9375 70.097656 278.9375 70.097656 278.9375 70.097656 C 277.722656 75.617188 283.699219 80.652344 283.886719 85.800781 C 283.996094 88.808594 282.089844 91 279.601562 91.898438 "/>
</g>
<g clip-path="url(#clip17)" clip-rule="nonzero">
<path style=" stroke:none;fill-rule:nonzero;fill:rgb(36.468506%,63.529968%,72.158813%);fill-opacity:1;" d="M 279.601562 91.898438 C 276.574219 92.992188 272.6875 92.171875 270.507812 88.582031 C 266.386719 81.792969 278.605469 70.40625 278.929688 70.105469 C 278.699219 70.351562 271.878906 77.671875 271.640625 82.9375 C 271.398438 88.296875 274.640625 89.695312 276.363281 89.808594 C 278.816406 89.972656 279.601562 91.898438 279.601562 91.898438 "/>
</g>
<path style=" stroke:none;fill-rule:nonzero;fill:rgb(100%,100%,99.609375%);fill-opacity:1;" d="M 276.382812 88.992188 C 276.382812 89.757812 275.765625 90.382812 275.003906 90.382812 C 274.246094 90.382812 273.628906 89.757812 273.628906 88.992188 C 273.628906 88.222656 274.246094 87.601562 275.003906 87.601562 C 275.765625 87.601562 276.382812 88.222656 276.382812 88.992188 "/>
<path style=" stroke:none;fill-rule:nonzero;fill:rgb(100%,100%,99.609375%);fill-opacity:1;" d="M 273.019531 85.84375 C 273.019531 86.226562 272.710938 86.539062 272.332031 86.539062 C 271.949219 86.539062 271.640625 86.226562 271.640625 85.84375 C 271.640625 85.457031 271.949219 85.148438 272.332031 85.148438 C 272.710938 85.148438 273.019531 85.457031 273.019531 85.84375 "/>
<g clip-path="url(#clip18)" clip-rule="nonzero">
<path style=" stroke:none;fill-rule:nonzero;fill:rgb(98.81897%,82.348633%,1.959229%);fill-opacity:1;" d="M 256.339844 52.960938 C 256.339844 52.960938 255.007812 23.949219 284.550781 23.949219 C 314.097656 23.949219 312.25 42.234375 313.277344 49.796875 C 313.277344 49.796875 313.039062 52.484375 315.226562 53.4375 C 317.414062 54.394531 325.382812 57.050781 326.101562 60.316406 C 326.820312 63.585938 319.355469 67.015625 309.6875 69.921875 C 299.839844 72.882812 288.144531 68.796875 280.550781 64.609375 C 280.550781 64.609375 278.5 63.484375 269.367188 62.464844 C 260.433594 61.464844 253.878906 60.929688 253.878906 57.050781 C 253.878906 53.609375 256.339844 52.960938 256.339844 52.960938 "/>
</g>
<path style=" stroke:none;fill-rule:nonzero;fill:rgb(99.21875%,87.838745%,25.878906%);fill-opacity:1;" d="M 285.691406 50.035156 C 299.195312 50.035156 310.144531 44.125 310.144531 36.835938 C 310.144531 35.847656 309.941406 34.886719 309.5625 33.960938 C 306.183594 28.476562 299.257812 23.949219 284.550781 23.949219 C 272.492188 23.949219 265.578125 28.78125 261.617188 34.503906 C 261.367188 35.261719 261.238281 36.039062 261.238281 36.835938 C 261.238281 44.125 272.183594 50.035156 285.691406 50.035156 "/>
<path style=" stroke:none;fill-rule:nonzero;fill:rgb(99.609375%,94.119263%,61.178589%);fill-opacity:1;" d="M 274.191406 29.292969 C 274.191406 32.355469 279.773438 34.839844 286.65625 34.839844 C 293.539062 34.839844 299.121094 32.355469 299.121094 29.292969 C 299.121094 27.300781 296.761719 25.554688 293.222656 24.574219 C 290.679688 24.171875 287.808594 23.949219 284.550781 23.949219 C 284.0625 23.949219 283.582031 23.957031 283.109375 23.972656 C 277.953125 24.652344 274.191406 26.777344 274.191406 29.292969 "/>
<g clip-path="url(#clip19)" clip-rule="nonzero">
<path style=" stroke:none;fill-rule:nonzero;fill:rgb(98.81897%,82.348633%,1.959229%);fill-opacity:1;" d="M 264.5625 31.011719 C 264.5625 31.011719 268.753906 22.515625 283.320312 22.515625 C 297.890625 22.515625 300.863281 37.945312 300.863281 37.945312 C 300.863281 37.945312 301.070312 38.964844 300.402344 39.066406 C 299.734375 39.171875 298.984375 28.011719 283.425781 24.867188 C 273.0625 22.773438 264.5625 31.011719 264.5625 31.011719 "/>
</g>
<path style=" stroke:none;fill-rule:nonzero;fill:rgb(100%,97.648621%,84.709167%);fill-opacity:1;" d="M 264.671875 30.816406 C 264.597656 30.941406 264.5625 31.011719 264.5625 31.011719 C 264.5625 31.011719 266.210938 29.414062 268.941406 27.804688 C 266.855469 29 265.359375 30.21875 264.671875 30.816406 "/>
<g clip-path="url(#clip20)" clip-rule="nonzero">
<path style=" stroke:none;fill-rule:nonzero;fill:rgb(100%,97.648621%,84.709167%);fill-opacity:1;" d="M 300.863281 37.945312 C 300.863281 37.945312 297.890625 22.515625 283.320312 22.515625 C 277.230469 22.515625 272.957031 24.003906 270.039062 25.730469 C 272.945312 24.078125 277.132812 22.695312 283.011719 22.695312 C 297.582031 22.695312 300.558594 38.125 300.558594 38.125 C 300.558594 38.125 300.679688 38.742188 300.417969 39.0625 C 301.066406 38.945312 300.863281 37.945312 300.863281 37.945312 "/>
</g>
<path style=" stroke:none;fill-rule:nonzero;fill:rgb(72.158813%,56.079102%,10.978699%);fill-opacity:1;" d="M 300.640625 38.832031 C 299.972656 38.933594 299.222656 27.777344 283.660156 24.632812 C 273.300781 22.535156 264.800781 30.777344 264.800781 30.777344 C 264.800781 30.777344 265.355469 29.65625 266.757812 28.230469 C 265.179688 29.765625 264.5625 31.011719 264.5625 31.011719 C 264.5625 31.011719 273.0625 22.773438 283.425781 24.867188 C 298.984375 28.011719 299.734375 39.171875 300.402344 39.066406 C 300.601562 39.039062 300.722656 38.925781 300.792969 38.785156 C 300.746094 38.804688 300.699219 38.824219 300.640625 38.832031 "/>
<g clip-path="url(#clip21)" clip-rule="nonzero">
<path style=" stroke:none;fill-rule:nonzero;fill:rgb(98.81897%,82.348633%,1.959229%);fill-opacity:1;" d="M 311.707031 38.886719 C 311.96875 38.5625 311.847656 37.945312 311.847656 37.945312 C 311.847656 37.945312 308.871094 22.515625 294.304688 22.515625 C 291.941406 22.515625 289.855469 22.742188 288.015625 23.113281 C 289.117188 23.414062 290.132812 23.8125 291.066406 24.285156 C 304.964844 25.828125 309.820312 32.410156 311.707031 38.886719 "/>
<path style=" stroke:none;fill-rule:nonzero;fill:rgb(99.609375%,94.119263%,61.178589%);fill-opacity:1;" d="M 311.847656 37.945312 C 311.847656 37.945312 308.871094 22.515625 294.304688 22.515625 C 291.941406 22.515625 289.855469 22.742188 288.015625 23.113281 C 288.132812 23.148438 288.242188 23.183594 288.359375 23.21875 C 290.027344 22.921875 291.890625 22.75 293.960938 22.75 C 308.527344 22.75 311.503906 38.175781 311.503906 38.175781 C 311.503906 38.175781 311.507812 38.207031 311.515625 38.257812 C 311.582031 38.46875 311.648438 38.675781 311.707031 38.886719 C 311.96875 38.5625 311.847656 37.945312 311.847656 37.945312 "/>
<path style=" stroke:none;fill-rule:nonzero;fill:rgb(72.158813%,56.079102%,10.978699%);fill-opacity:1;" d="M 311.707031 38.542969 C 309.820312 32.070312 304.964844 25.488281 291.066406 23.945312 C 290.335938 23.574219 289.550781 23.25 288.714844 22.984375 C 288.476562 23.023438 288.242188 23.070312 288.015625 23.113281 C 289.117188 23.414062 290.132812 23.8125 291.066406 24.285156 C 304.964844 25.828125 309.820312 32.410156 311.707031 38.886719 C 311.886719 38.664062 311.886719 38.304688 311.867188 38.101562 C 311.851562 38.257812 311.808594 38.421875 311.707031 38.542969 "/>
</g>
<path style=" stroke:none;fill-rule:nonzero;fill:rgb(99.21875%,86.268616%,18.429565%);fill-opacity:1;" d="M 314.996094 53.328125 C 313.269531 52.40625 313.253906 50.328125 313.273438 49.882812 C 313.195312 50.84375 311.761719 59.542969 285.691406 58.480469 C 261.390625 57.488281 257.144531 52.53125 256.476562 51.367188 C 256.386719 51.210938 256.363281 51.121094 256.363281 51.121094 C 256.308594 52.277344 256.339844 52.960938 256.339844 52.960938 C 256.339844 52.960938 255.519531 53.179688 254.828125 54.019531 C 257.640625 56.59375 263.953125 59.132812 276.789062 60.796875 C 312.558594 65.425781 314.996094 53.328125 314.996094 53.328125 "/>
<path style=" stroke:none;fill-rule:nonzero;fill:rgb(99.21875%,89.019775%,35.289001%);fill-opacity:1;" d="M 313.992188 53.109375 L 314.003906 53.078125 L 314.117188 52.617188 C 313.9375 52.402344 313.796875 52.171875 313.683594 51.941406 C 313.21875 52.839844 312.40625 53.925781 310.980469 55 C 306.925781 58.046875 299.847656 59.589844 289.941406 59.589844 L 289.9375 59.589844 C 288.566406 59.589844 287.121094 59.5625 285.648438 59.5 C 265.21875 58.667969 258.523438 55.082031 256.335938 52.839844 C 256.335938 52.917969 256.339844 52.960938 256.339844 52.960938 C 256.339844 52.960938 255.984375 53.054688 255.546875 53.359375 C 257.925781 55.625 263.582031 58.378906 276.78125 59.988281 C 282.15625 60.640625 287.21875 60.832031 291.570312 60.832031 L 291.578125 60.832031 C 302.304688 60.828125 307.855469 58.6875 310.621094 56.894531 C 313.519531 55.011719 313.988281 53.128906 313.992188 53.109375 "/>
<g clip-path="url(#clip22)" clip-rule="nonzero">
<path style=" stroke:none;fill-rule:nonzero;fill:rgb(69.799805%,54.508972%,11.369324%);fill-opacity:1;" d="M 309.6875 69.921875 C 299.839844 72.882812 288.144531 68.796875 280.550781 64.609375 C 280.550781 64.609375 278.5 63.484375 269.367188 62.464844 C 260.664062 61.488281 254.222656 60.957031 253.894531 57.34375 C 253.882812 57.484375 253.878906 57.628906 253.878906 57.785156 C 253.878906 61.664062 260.433594 62.199219 269.367188 63.199219 C 278.5 64.21875 280.550781 65.34375 280.550781 65.34375 C 288.144531 69.53125 299.839844 73.617188 309.6875 70.65625 C 319.28125 67.769531 326.707031 64.375 326.113281 61.128906 C 325.578125 64.148438 318.558594 67.253906 309.6875 69.921875 "/>
</g>
<path style=" stroke:none;fill-rule:nonzero;fill:rgb(92.158508%,70.588684%,5.488586%);fill-opacity:1;" d="M 313.277344 49.796875 C 313.277344 49.796875 313.039062 52.484375 315.226562 53.4375 C 315.285156 53.464844 315.351562 53.492188 315.417969 53.519531 C 315.28125 52.488281 314.980469 50.222656 314.84375 49.695312 C 314.664062 49.003906 314.378906 48.980469 314.378906 48.980469 L 313.179688 48.980469 C 313.210938 49.261719 313.242188 49.535156 313.277344 49.796875 "/>
<path style=" stroke:none;fill-rule:nonzero;fill:rgb(92.158508%,70.588684%,5.488586%);fill-opacity:1;" d="M 279.96875 61.851562 C 279.96875 61.851562 284.519531 62.703125 291.425781 62.429688 C 291.425781 62.429688 291.746094 62.464844 291.695312 62.125 C 291.644531 61.785156 291.347656 57.125 291.347656 57.125 C 291.347656 57.125 291.453125 56.664062 290.578125 56.613281 C 289.707031 56.5625 286.269531 56.84375 282.21875 56.386719 C 282.21875 56.386719 281.652344 56.386719 281.5 56.792969 C 281.347656 57.203125 279.96875 61.171875 279.96875 61.171875 C 279.96875 61.171875 279.746094 61.8125 279.96875 61.851562 "/>
<path style=" stroke:none;fill-rule:nonzero;fill:rgb(99.21875%,87.838745%,25.878906%);fill-opacity:1;" d="M 255.75 55.242188 L 256.902344 51.941406 C 256.902344 51.941406 258.984375 53.855469 261.484375 54.710938 C 261.484375 54.710938 261.859375 55.027344 261.726562 55.449219 C 261.59375 55.867188 260.785156 58.140625 260.785156 58.140625 C 260.785156 58.140625 259.039062 57.59375 257.570312 56.707031 C 256.101562 55.824219 255.75 55.242188 255.75 55.242188 "/>
<path style=" stroke:none;fill-rule:nonzero;fill:rgb(92.158508%,70.588684%,5.488586%);fill-opacity:1;" d="M 258.101562 51.589844 C 258.101562 51.589844 260.183594 53.503906 262.683594 54.359375 C 262.683594 54.359375 263.058594 54.675781 262.925781 55.097656 C 262.792969 55.515625 261.984375 57.789062 261.984375 57.789062 L 260.785156 58.140625 C 260.785156 58.140625 261.59375 55.867188 261.726562 55.449219 C 261.859375 55.027344 261.484375 54.710938 261.484375 54.710938 C 258.984375 53.855469 256.902344 51.941406 256.902344 51.941406 L 258.101562 51.589844 "/>
<g clip-path="url(#clip23)" clip-rule="nonzero">
<path style=" stroke:none;fill-rule:nonzero;fill:rgb(99.21875%,87.838745%,25.878906%);fill-opacity:1;" d="M 279.953125 64.371094 C 277.019531 62.914062 272.601562 61.953125 266.699219 61.441406 C 260.800781 60.929688 256.851562 59.933594 255.289062 57.484375 C 253.722656 55.03125 256.488281 53.132812 256.488281 53.132812 L 256.640625 52.695312 C 256.640625 52.695312 256.515625 52.53125 256.332031 52.34375 C 256.332031 52.742188 256.339844 52.960938 256.339844 52.960938 C 256.339844 52.960938 253.878906 53.609375 253.878906 57.050781 C 253.878906 60.929688 260.433594 61.464844 269.367188 62.464844 C 275.9375 63.199219 278.839844 63.988281 279.953125 64.371094 "/>
</g>
<path style=" stroke:none;fill-rule:nonzero;fill:rgb(98.81897%,82.348633%,1.959229%);fill-opacity:1;" d="M 315.84375 54.46875 C 315.84375 54.46875 318.507812 55.160156 321.820312 57.050781 C 325.128906 58.9375 325.972656 60.652344 324.972656 61.851562 C 324.972656 61.851562 325.472656 59.71875 321.703125 57.585938 C 317.933594 55.453125 315.84375 54.46875 315.84375 54.46875 "/>
</g>
</svg>
