<?xml version="1.0" encoding="UTF-8"?>
<svg xmlns="http://www.w3.org/2000/svg" xmlns:xlink="http://www.w3.org/1999/xlink" width="375pt" height="374.999991pt" viewBox="0 0 375 374.999991" version="1.2">
<defs>
<clipPath id="clip1">
  <path d="M 34.265625 9.457031 L 346.917969 9.457031 L 346.917969 365.699219 L 34.265625 365.699219 Z M 34.265625 9.457031 "/>
</clipPath>
</defs>
<g id="surface1">
<g clip-path="url(#clip1)" clip-rule="nonzero">
<path style=" stroke:none;fill-rule:nonzero;fill:rgb(100%,100%,100%);fill-opacity:1;" d="M 328.097656 265.515625 C 329.140625 262.085938 330.671875 254.066406 326.625 254.320312 C 323.390625 254.519531 324.894531 259.496094 324.265625 262.863281 C 319.761719 261.082031 316.214844 258.339844 311.886719 256.382812 C 312.078125 253.035156 315.878906 244.964844 311.886719 244.300781 C 308.070312 243.664062 308.78125 250.558594 307.757812 253.730469 C 305.207031 252.839844 303.316406 251.292969 300.976562 250.191406 C 302.445312 244.785156 303.949219 239.410156 305.398438 233.988281 C 305.304688 236.476562 310.523438 244.28125 312.179688 239.292969 C 313.40625 235.59375 307.929688 231.410156 307.757812 226.328125 C 307.574219 220.929688 311.113281 219.164062 310.703125 215.128906 C 313.21875 216.242188 312.574219 220.25 315.714844 220.140625 C 321.171875 219.941406 314.363281 211.125 312.769531 208.941406 C 313.09375 207.007812 313.640625 205.296875 314.242188 203.636719 C 314.445312 202.363281 315.546875 204.738281 316.894531 204.226562 C 317.6875 204.035156 318.015625 203.382812 318.667969 203.046875 C 318.9375 200.023438 317.550781 198.664062 316.011719 197.449219 C 316.660156 195.054688 317.261719 192.609375 318.074219 190.378906 C 318.398438 192.53125 322.484375 195.863281 323.675781 192.441406 C 324.675781 189.5625 320.566406 186.589844 320.136719 184.191406 C 319.53125 180.765625 322.109375 179.78125 321.613281 177.117188 C 322.730469 178.125 322.898438 179.578125 324.5625 179.476562 C 328.859375 179.214844 325.003906 171.621094 323.972656 169.457031 C 324.753906 166.703125 325.664062 164.074219 326.328125 161.207031 C 326.527344 163.355469 331.265625 169.957031 332.816406 165.332031 C 333.839844 162.277344 329.136719 157.382812 328.6875 154.722656 C 329.261719 151.171875 330.296875 148.082031 331.046875 144.707031 C 332.683594 145.9375 333.277344 150.84375 336.351562 148.832031 C 339.546875 146.738281 334.171875 140.621094 333.402344 137.929688 C 333.96875 135.742188 334.496094 133.519531 334.878906 131.152344 C 336.433594 131.199219 338.253906 131.148438 338.710938 129.382812 C 339.085938 127.9375 337.328125 126.328125 337.238281 124.671875 C 337.023438 120.742188 340.15625 117.601562 340.183594 114.355469 C 341.125 166.847656 341.265625 220.140625 341.953125 272.882812 C 337.117188 270.644531 333.074219 267.613281 328.097656 265.515625 Z M 203.105469 354.207031 C 205.910156 349.941406 211.15625 345.558594 214.894531 341.242188 C 218.410156 340.09375 229.144531 338.707031 228.75 334.761719 C 228.4375 331.617188 224.496094 332.945312 222.265625 334.171875 C 221.867188 333.339844 223.289062 332.300781 224.035156 331.519531 C 226.523438 328.898438 229.757812 325.601562 232.289062 322.972656 C 237.152344 325.582031 244.800781 319.28125 237.300781 318.261719 C 236.761719 317.578125 238.121094 316.570312 238.773438 315.902344 C 240.875 313.757812 243.832031 310.824219 245.851562 308.535156 C 250.832031 311.582031 257.605469 305.636719 249.976562 304.410156 C 252.933594 300.785156 256.488281 297.753906 259.410156 294.097656 C 260.515625 294.757812 262.71875 294.371094 263.539062 293.804688 C 264.308594 292.28125 263.785156 291.464844 263.242188 289.972656 C 266.476562 287.605469 268.382812 283.914062 271.792969 281.722656 C 276.019531 287.050781 281.574219 280.132812 274.742188 278.1875 C 279.804688 272.742188 284.953125 267.375 290.070312 261.980469 C 291.898438 264.050781 296.519531 267.007812 296.847656 262.863281 C 297.035156 260.554688 294.976562 260.175781 293.609375 258.738281 C 294.707031 256.890625 296.121094 255.359375 297.734375 254.027344 C 300.707031 255.078125 302.925781 256.886719 305.691406 258.148438 C 305.730469 260.128906 297.902344 268.789062 303.925781 268.757812 C 307.171875 268.738281 308 263.183594 309.820312 260.800781 C 314.53125 262.671875 318.21875 265.566406 322.792969 267.578125 C 321.5 269 317.792969 273.03125 321.023438 274.355469 C 323.996094 275.574219 325.105469 271.507812 326.917969 270.230469 C 331.601562 272.328125 335.578125 275.132812 340.183594 277.300781 C 294.722656 303.167969 248.628906 328.402344 203.105469 354.207031 Z M 190.429688 359.804688 C 157.628906 324.324219 122.933594 289.171875 90.785156 254.027344 C 92.359375 254.605469 94.484375 253.34375 96.386719 253.730469 C 98.617188 254.183594 101.230469 257.878906 103.167969 259.917969 C 107.378906 264.351562 111.222656 268.503906 115.550781 273.175781 C 116.996094 274.738281 123.289062 282.9375 124.390625 277.300781 C 124.816406 275.144531 120.433594 271.644531 119.675781 270.820312 C 114.269531 264.941406 109.058594 259.492188 104.050781 253.730469 C 108.769531 253.730469 113.484375 253.730469 118.203125 253.730469 C 120.285156 255.890625 123.050781 263.976562 126.457031 263.75 C 131.652344 263.398438 125.253906 255.628906 123.804688 254.027344 C 128.519531 253.335938 134.515625 253.925781 139.722656 253.730469 C 141.648438 256.464844 142.339844 259.375 144.144531 263.15625 C 145.257812 265.496094 147.179688 271.117188 149.746094 271.113281 C 154.585938 271.109375 150.183594 264.082031 148.859375 261.390625 C 147.359375 258.328125 145.988281 256.097656 145.324219 253.730469 C 150.53125 253.730469 155.738281 253.730469 160.945312 253.730469 C 161.640625 257.171875 161.046875 262.671875 164.1875 262.570312 C 167.566406 262.457031 166.082031 257.195312 165.664062 253.730469 C 169.988281 253.730469 174.3125 253.730469 178.636719 253.730469 C 180.613281 257.75 177.5 268.375 181.878906 268.757812 C 186.875 269.195312 183.058594 258.140625 183.648438 253.730469 C 187.980469 253.917969 193.070312 253.347656 196.914062 254.027344 C 197.851562 257.347656 195.632812 261.632812 199.269531 261.6875 C 202.199219 261.730469 202.117188 257.304688 201.628906 253.730469 C 206.640625 253.730469 211.652344 253.730469 216.664062 253.730469 C 217.664062 256.4375 209.140625 265.414062 214.011719 267.285156 C 217.25 268.527344 220.734375 257.921875 221.382812 253.730469 C 225.902344 253.730469 230.421875 253.730469 234.941406 253.730469 C 233.773438 255.957031 232.589844 258.300781 230.519531 261.390625 C 229.261719 263.269531 223.765625 269.328125 228.164062 270.230469 C 231.144531 270.84375 233.886719 264.949219 235.238281 262.863281 C 237.496094 259.375 238.773438 257.035156 240.25 253.730469 C 245.554688 253.730469 250.859375 253.730469 256.167969 253.730469 C 253.914062 257.445312 249.835938 261.964844 246.4375 266.105469 C 245.226562 267.582031 241.5625 271.535156 244.964844 272.589844 C 248.148438 273.570312 253.179688 265.546875 254.398438 264.042969 C 257.496094 260.222656 259.691406 257.34375 262.0625 253.730469 C 266.878906 253.730469 271.691406 253.730469 276.507812 253.730469 C 276.929688 254.609375 275.660156 255.390625 275.035156 256.085938 C 271.425781 260.097656 267.574219 264.238281 263.539062 268.757812 C 262.808594 269.570312 256.964844 274.796875 261.472656 275.828125 C 264.007812 276.40625 266.464844 272.171875 267.664062 270.820312 C 273.019531 264.773438 278.605469 259.070312 284.171875 253.730469 C 286.335938 253.730469 288.5 253.730469 290.660156 253.730469 C 291.359375 254.691406 289.234375 255.648438 288.300781 256.675781 C 256.824219 291.324219 222.695312 325.6875 190.429688 359.804688 Z M 41.257812 277.597656 C 43.988281 276.179688 47.808594 278.957031 50.988281 280.25 C 54.296875 281.59375 57.777344 283.890625 61.304688 282.605469 C 63.027344 277.320312 51.636719 276.1875 48.039062 274.0625 C 49.496094 272.398438 50.882812 272.179688 52.757812 271.113281 C 53.96875 270.425781 55.785156 268.582031 57.769531 268.460938 C 60.214844 268.3125 63.253906 270.25 65.433594 271.113281 C 68.003906 272.132812 74.523438 276.035156 74.867188 271.703125 C 75.175781 267.753906 65.382812 267.269531 63.371094 265.21875 C 69.539062 261.566406 75.933594 258.136719 82.234375 254.613281 C 86.316406 255.546875 88.238281 258.632812 90.488281 261.390625 C 84.292969 263.074219 89.960938 269.964844 93.734375 264.632812 C 97.699219 268.621094 101.753906 272.527344 105.230469 277.007812 C 102.652344 277.34375 103.417969 280.871094 105.230469 281.425781 C 106.554688 281.378906 107.746094 281.195312 108.769531 280.839844 C 113.972656 284.867188 117.671875 290.40625 122.625 294.6875 C 122.417969 295.558594 121.746094 295.96875 122.035156 297.339844 C 122.585938 298.554688 123.886719 299.023438 125.867188 298.8125 C 129.800781 302.148438 134.089844 306.703125 136.773438 310.304688 C 129.085938 310.320312 135.539062 317.660156 140.3125 314.136719 C 143.089844 315.972656 145.941406 319.308594 147.386719 321.5 C 144.40625 321.3125 140.558594 320.199219 140.3125 323.269531 C 139.941406 327.882812 147.875 325.050781 151.511719 325.921875 C 155.046875 326.765625 158.265625 333.898438 160.359375 335.054688 C 157.511719 334.460938 153.726562 333.714844 153.578125 336.527344 C 153.378906 340.304688 162.875 339.847656 166.550781 340.949219 C 170.285156 345.5625 174.621094 349.578125 178.636719 353.914062 C 133.113281 329.386719 87.175781 302.710938 41.257812 277.597656 Z M 40.964844 114.355469 C 42.972656 119.617188 44.382812 125.476562 45.976562 131.152344 C 46.75 132.011719 45.125 132.261719 45.386719 133.507812 C 45.507812 136.707031 44.996094 140.167969 44.503906 144.117188 C 44.105469 147.28125 42.375 152.40625 45.386719 152.957031 C 49.511719 153.707031 48.554688 146.472656 49.21875 142.941406 C 49.640625 145.058594 51.601562 147.621094 51.871094 151.1875 C 52.269531 156.40625 46.988281 164.484375 51.578125 165.039062 C 53.457031 165.265625 54.402344 163.667969 54.527344 161.5 C 56.113281 164.445312 56.601562 168.421875 57.769531 172.402344 C 58.847656 176.089844 60.882812 179.925781 61.011719 183.304688 C 61.128906 186.429688 59.152344 189.839844 63.074219 190.378906 C 65.601562 197.898438 68.027344 208.082031 70.738281 217.191406 C 71.660156 220.292969 73.421875 223.613281 73.390625 226.03125 C 73.332031 231.03125 68.089844 235.21875 68.972656 238.996094 C 70.292969 244.671875 76.058594 236.464844 75.457031 233.988281 C 77.613281 238.804688 78.476562 244.914062 80.46875 249.898438 C 75.21875 253.492188 69.125 256.242188 63.664062 259.621094 C 64.304688 257.851562 63.867188 255.671875 61.894531 255.496094 C 58.519531 255.199219 57.195312 262.5 55.410156 264.335938 C 51.148438 266.070312 47.820312 268.734375 43.617188 270.523438 C 44.566406 268.324219 46.117188 265.523438 47.449219 262.273438 C 48.761719 259.078125 52.460938 251.777344 48.335938 251.371094 C 45.664062 251.109375 44.132812 257.019531 43.324219 259.035156 C 41.863281 262.664062 41.171875 265.054688 39.785156 267.871094 C 39.6875 217.386719 40.886719 165.644531 40.964844 114.355469 Z M 185.710938 59.847656 C 184.902344 63.359375 181.867188 67.199219 180.109375 70.746094 C 175.488281 70.949219 171.566406 72.199219 166.84375 73.105469 C 163.367188 73.773438 155.417969 73.527344 155.050781 76.640625 C 154.527344 81.117188 162.773438 78.609375 165.367188 78.113281 C 169.675781 77.292969 173.363281 76.332031 177.160156 75.757812 C 175.402344 79.988281 172.894531 83.472656 170.96875 87.542969 C 163.757812 87.671875 156.339844 89.386719 147.976562 90.488281 C 145.164062 90.859375 142.003906 90.996094 141.785156 93.140625 C 141.335938 97.570312 151.089844 95.058594 154.167969 94.613281 C 159.203125 93.890625 163.210938 92.734375 167.730469 92.257812 C 168.191406 93.542969 166.707031 94.738281 165.960938 96.089844 C 163.753906 100.0625 161.402344 105.1875 158.882812 109.050781 C 155.28125 108.8125 152.214844 108.332031 147.976562 107.875 C 144.859375 107.535156 139.023438 106.042969 138.542969 109.050781 C 138.023438 112.320312 143.640625 112.292969 146.207031 112.589844 C 150.351562 113.0625 152.875 113.078125 156.230469 113.472656 C 153.78125 119.273438 150.339844 124.085938 147.683594 129.679688 C 144.84375 128.824219 139.109375 125.738281 139.132812 129.972656 C 139.148438 132.679688 142.632812 132.660156 145.027344 133.804688 C 142.5625 139.585938 139.058594 144.335938 136.480469 150.011719 C 134.480469 149.011719 132.261719 148.035156 129.40625 146.472656 C 127.09375 145.210938 121.390625 140.316406 120.558594 144.707031 C 120.027344 147.527344 124.476562 148.761719 126.75 150.011719 C 129.5625 151.554688 131.433594 152.992188 133.824219 154.132812 C 131.277344 159.738281 128.019531 164.636719 125.277344 170.046875 C 122.910156 169.355469 116.421875 163.371094 115.550781 167.984375 C 114.933594 171.21875 120.585938 172.550781 122.917969 174.171875 C 120.25 179.359375 117.183594 184.152344 114.664062 189.492188 C 110.871094 188.640625 107.402344 179.445312 102.871094 180.359375 C 97.578125 181.425781 104.65625 186.707031 106.410156 188.316406 C 108.765625 190.46875 110.410156 192.117188 112.011719 194.207031 C 108.429688 200.257812 105.039062 206.488281 101.691406 212.773438 C 99.660156 210.652344 98.625 208.160156 96.679688 205.109375 C 95.5 203.257812 93.226562 198.238281 90.785156 198.335938 C 85.210938 198.554688 92.363281 207.207031 93.441406 208.941406 C 95.601562 212.433594 96.976562 215.332031 99.039062 217.191406 C 96.964844 221.597656 94.367188 225.488281 92.261719 229.863281 C 90.667969 227.460938 89.828125 224.71875 88.425781 221.316406 C 87.535156 219.148438 86.179688 213.945312 83.710938 213.949219 C 78.582031 213.964844 84.285156 223.199219 85.183594 225.441406 C 86.730469 229.289062 87.644531 232.59375 89.3125 234.871094 C 87.6875 238.355469 85.523438 241.296875 84.003906 244.890625 C 69.585938 196.929688 56.128906 148.015625 41.847656 99.917969 C 89.117188 85.875 137.984375 73.429688 185.710938 59.847656 Z M 188.363281 15.351562 C 188.363281 19.773438 188.363281 24.191406 188.363281 28.609375 C 185.800781 30.261719 179.878906 31.347656 179.816406 34.503906 C 179.722656 39.210938 186.148438 35.210938 188.363281 33.914062 C 188.363281 36.761719 188.363281 39.609375 188.363281 42.460938 C 185.28125 43.511719 179.882812 43.785156 179.816406 46.878906 C 179.71875 51.132812 185.285156 47.964844 188.363281 47.46875 C 188.363281 49.730469 188.363281 51.988281 188.363281 54.246094 C 184.636719 55.429688 180.636719 56.34375 176.867188 57.488281 C 176.347656 52.710938 171.273438 54.179688 170.675781 59.253906 C 165.242188 60.601562 159.882812 62.023438 154.757812 63.675781 C 152.765625 60.5 149.136719 62.679688 148.269531 65.441406 C 145.003906 66.007812 142.292969 67.128906 139.132812 67.800781 C 141.363281 59.851562 131.789062 65.640625 132.058594 69.863281 C 128.4375 70.761719 124.824219 71.667969 121.445312 72.808594 C 119.53125 67.519531 113.613281 72.109375 112.304688 75.167969 C 107.898438 76.394531 101.273438 78.441406 97.988281 78.976562 C 100.292969 78.527344 103.914062 73.648438 99.925781 72.808594 C 97.222656 72.242188 88.25 79.324219 86.953125 82.238281 C 85.761719 82.519531 84.605469 82.839844 83.414062 83.121094 C 83.132812 82.074219 83.496094 79.734375 81.644531 79.292969 C 78.808594 78.613281 73.128906 84.230469 72.214844 86.363281 C 66.011719 87.730469 60.421875 89.703125 54.230469 91.078125 C 98.859375 65.75 143.367188 40.3125 188.363281 15.351562 Z M 294.195312 249.015625 C 225.371094 249.171875 155.890625 248.675781 87.542969 249.308594 C 87.308594 247.171875 88.949219 245.421875 89.898438 243.710938 C 123.257812 183.652344 157.195312 121.695312 190.722656 61.613281 C 225.214844 123.886719 260.46875 186.957031 294.195312 249.015625 Z M 193.375 15.351562 C 238.121094 40.363281 282.34375 65.894531 327.214844 90.785156 C 322.988281 90.585938 318.230469 88.371094 313.65625 87.542969 C 313.511719 86.613281 314.183594 86.503906 313.949219 85.480469 C 313.039062 84.683594 301.367188 75.640625 300.09375 80.175781 C 299.425781 82.550781 301.859375 83.367188 303.335938 84.300781 C 296.25 83.589844 291.976562 79.539062 285.351562 74.871094 C 283.640625 73.664062 281.625 72.382812 279.457031 70.746094 C 277.558594 69.316406 271.726562 64.203125 271.203125 68.980469 C 270.96875 71.097656 274.753906 73.167969 276.214844 74.285156 C 278.570312 76.082031 280.035156 77.175781 282.109375 78.40625 C 277.222656 77.988281 271.769531 75.582031 266.484375 74.578125 C 264.289062 73.671875 261.667969 66.914062 258.523438 67.210938 C 256.328125 67.417969 256.078125 70.433594 257.347656 71.925781 C 250.628906 70.09375 243.785156 68.390625 237.300781 66.324219 C 235.945312 66.316406 237.734375 65.488281 237.300781 64.558594 C 236.03125 62.65625 235.101562 59.085938 232.585938 59.253906 C 229.546875 59.457031 230.679688 63.300781 231.699219 64.851562 C 225.261719 63.332031 219.335938 61.300781 212.832031 59.847656 C 213.699219 54.773438 205.34375 50.207031 207.230469 58.074219 C 202.339844 56.972656 197.742188 55.574219 193.078125 54.246094 C 193.078125 51.691406 193.078125 49.140625 193.078125 46.585938 C 196.316406 46.613281 202.402344 50.410156 202.808594 46.289062 C 203.125 43.089844 196.882812 42.429688 193.078125 41.871094 C 193.078125 39.414062 193.078125 36.960938 193.078125 34.503906 C 195.382812 35.761719 200.503906 38.246094 200.746094 34.503906 C 200.957031 31.1875 195.101562 31 193.078125 28.90625 C 193.269531 24.476562 192.699219 19.292969 193.375 15.351562 Z M 299.503906 195.683594 C 296.890625 195.515625 296.085938 201.191406 295.671875 202.753906 C 293.347656 211.519531 290.957031 219.847656 288.300781 227.800781 C 285.527344 223.5 283.257812 218.699219 280.636719 214.246094 C 283.160156 207.8125 285.945312 201.539062 288.59375 194.207031 C 289.351562 192.113281 290.859375 188.539062 287.710938 188.316406 C 284.863281 188.113281 282.847656 196.253906 282.109375 198.039062 C 280.378906 202.234375 279.359375 205.273438 277.6875 208.648438 C 275.566406 205.367188 273.847656 201.683594 271.792969 198.335938 C 272.589844 194.453125 279.945312 190.117188 279.457031 186.253906 C 278.796875 181.039062 274.214844 186.582031 272.96875 188.316406 C 271.515625 190.34375 270.492188 191.597656 269.433594 193.324219 C 267.207031 190.839844 266.042969 187.285156 264.125 184.484375 C 265.929688 182.097656 267.886719 180.34375 270.613281 178.003906 C 272.171875 176.664062 280.488281 171.023438 275.332031 169.457031 C 272.835938 168.699219 269.929688 172.460938 267.960938 174.171875 C 265.1875 176.578125 263.535156 178.46875 261.472656 179.769531 C 259.84375 176.390625 257.9375 173.285156 256.167969 170.046875 C 257.945312 166.632812 265.964844 166.410156 265.894531 162.386719 C 265.792969 156.210938 256.210938 164.890625 253.808594 165.039062 C 251.5 162.238281 249.921875 158.710938 248.207031 155.3125 C 250.195312 154.453125 252.648438 152.570312 255.875 150.597656 C 258.757812 148.835938 265.167969 146.734375 261.472656 143.230469 C 254.417969 144.136719 251.484375 149.15625 245.554688 151.1875 C 244.035156 147.109375 241.3125 144.230469 239.953125 139.992188 C 242.121094 139.164062 244.886719 138.945312 244.964844 136.75 C 245.101562 133.046875 239.988281 134.773438 237.300781 135.867188 C 235.785156 132.765625 233.734375 130.199219 232.585938 126.730469 C 235.867188 125.269531 245.335938 125.800781 244.671875 121.429688 C 243.976562 116.867188 232.488281 122.78125 229.929688 122.902344 C 227.996094 118.257812 225.085938 114.582031 223.152344 109.9375 C 226.433594 109.519531 229 109.441406 232.878906 108.757812 C 235.210938 108.34375 240.363281 107.992188 240.25 105.222656 C 240.101562 101.761719 234.070312 103.566406 231.109375 104.042969 C 227.226562 104.671875 223.777344 105.558594 220.792969 105.222656 C 217.488281 100.960938 215.164062 95.722656 212.539062 90.785156 C 215.242188 90.195312 230.667969 93.984375 229.929688 88.722656 C 229.316406 84.359375 213.144531 87.722656 209.589844 85.773438 C 207.644531 82.121094 205.488281 78.679688 203.695312 74.871094 C 209.898438 75.898438 216.042969 77.929688 223.152344 78.996094 C 224.746094 79.234375 228.320312 79.734375 228.457031 77.230469 C 228.652344 73.703125 218.511719 73.222656 215.191406 72.515625 C 209.605469 71.328125 205.179688 70.425781 200.449219 69.273438 C 198.855469 66.058594 196.824219 63.273438 195.441406 59.847656 C 243.542969 72.957031 291.285156 86.425781 339.597656 99.328125 C 325.753906 147.960938 311.550781 196.234375 297.734375 244.890625 C 295.523438 241.402344 293.652344 237.578125 291.542969 233.988281 C 294.308594 224.589844 297.324219 214.949219 300.09375 204.519531 C 300.78125 201.925781 303.066406 195.910156 299.503906 195.683594 Z M 346.671875 266.988281 C 345.75 240.347656 345.785156 212.566406 345.785156 187.429688 C 345.785156 155.988281 344.609375 127.949219 345.199219 96.382812 C 333.28125 88.328125 320.089844 81.632812 307.167969 74.285156 C 272.441406 54.535156 236.5625 33.949219 201.335938 14.171875 C 198.023438 12.3125 193.660156 9.371094 190.722656 9.457031 C 186.878906 9.574219 182.992188 12.753906 179.519531 14.761719 C 134.484375 40.816406 90.433594 65.109375 45.089844 90.488281 C 42.421875 91.984375 36.707031 94.972656 36.246094 96.675781 C 35.605469 99.054688 36.542969 103.851562 36.542969 107.875 C 36.542969 119.210938 36.410156 131.484375 36.246094 142.054688 C 35.660156 180.292969 35.070312 217.070312 35.070312 255.792969 C 35.070312 262.636719 33.257812 273.304688 35.070312 278.1875 C 35.835938 280.253906 40.816406 282.636719 43.914062 284.371094 C 90.242188 310.34375 134.621094 335.03125 180.40625 360.691406 C 183.207031 362.261719 187.882812 365.773438 190.722656 365.699219 C 193.226562 365.632812 197.976562 362.234375 200.746094 360.691406 C 247.09375 334.898438 291.210938 309.984375 337.238281 284.371094 C 340.628906 282.488281 345.546875 280.421875 346.375 278.1875 C 347.289062 275.722656 346.804688 270.828125 346.671875 266.988281 "/>
</g>
<path style=" stroke:none;fill-rule:nonzero;fill:rgb(100%,100%,100%);fill-opacity:1;" d="M 163.898438 50.710938 C 161.480469 53.894531 156.738281 54.75 151.21875 54.835938 C 154.507812 52.59375 159.433594 50.839844 163.898438 50.710938 Z M 165.664062 43.34375 C 163.660156 45.171875 160.910156 46.25 156.824219 45.996094 C 159.007812 44.523438 162.707031 43.066406 165.664062 43.34375 Z M 167.730469 47.761719 C 169.585938 46.566406 170.425781 45.988281 170.675781 44.226562 C 172.214844 33.445312 147.09375 39.992188 152.105469 48.941406 C 149.269531 50.003906 146.773438 50.84375 146.207031 53.066406 C 142.890625 66.125 176.445312 56.953125 167.730469 47.761719 "/>
<path style=" stroke:none;fill-rule:nonzero;fill:rgb(100%,100%,100%);fill-opacity:1;" d="M 228.75 54.539062 C 231.9375 55.269531 236.125 55.667969 238.773438 56.898438 C 241.679688 58.25 242.210938 63.175781 246.144531 61.613281 C 247.25 61.3125 246.890625 59.09375 247.027344 58.667969 C 250.070312 59.792969 253.878906 59.96875 253.511719 56.898438 C 253.109375 53.472656 245.589844 54.007812 242.019531 53.066406 C 239.972656 52.210938 238.867188 46.617188 236.121094 46.878906 C 234.59375 47.023438 233.699219 49.023438 234.058594 51.003906 C 231.1875 50.339844 228.207031 49.785156 225.507812 48.941406 C 226.710938 46.5625 232.394531 45.503906 231.109375 41.578125 C 230.875 40.855469 229.472656 39.882812 228.164062 40.101562 C 226.859375 40.324219 224.921875 43.378906 223.148438 44.820312 C 220.132812 47.265625 217.113281 48.523438 219.023438 51.886719 C 221.863281 53.707031 225.378906 53.769531 228.75 54.539062 "/>
<path style=" stroke:none;fill-rule:nonzero;fill:rgb(100%,100%,100%);fill-opacity:1;" d="M 124.6875 64.558594 C 129.242188 61.066406 131.824219 58.890625 135.59375 55.425781 C 137.027344 54.109375 140.464844 52 140.015625 49.824219 C 139.695312 48.265625 138.425781 48.117188 137.070312 48.351562 C 133.613281 48.953125 131.171875 53.488281 127.636719 56.308594 C 126.167969 57.476562 118.609375 61.988281 118.792969 64.265625 C 119.054688 67.539062 122.796875 66.007812 124.6875 64.558594 "/>
<path style=" stroke:none;fill-rule:nonzero;fill:rgb(100%,100%,100%);fill-opacity:1;" d="M 265.011719 61.316406 C 265.066406 59.058594 261.179688 57.171875 259.410156 57.78125 C 253.566406 59.804688 264.859375 67.410156 265.011719 61.316406 "/>
<path style=" stroke:none;fill-rule:nonzero;fill:rgb(100%,100%,100%);fill-opacity:1;" d="M 107.882812 63.675781 C 105.730469 64.152344 103.632812 65.855469 104.347656 68.09375 C 106.183594 73.855469 116.808594 61.695312 107.882812 63.675781 "/>
<path style=" stroke:none;fill-rule:nonzero;fill:rgb(100%,100%,100%);fill-opacity:1;" d="M 143.554688 78.40625 C 141 77.035156 136.996094 78.429688 137.363281 81.0625 C 137.828125 84.414062 145.597656 83.347656 143.554688 78.40625 "/>
<path style=" stroke:none;fill-rule:nonzero;fill:rgb(100%,100%,100%);fill-opacity:1;" d="M 238.1875 81.058594 C 238.726562 84.09375 245.089844 83.65625 248.796875 84.300781 C 254.644531 79.832031 237.167969 75.328125 238.1875 81.058594 "/>
<path style=" stroke:none;fill-rule:nonzero;fill:rgb(100%,100%,100%);fill-opacity:1;" d="M 125.277344 94.320312 C 122.6875 93.394531 116.308594 93.949219 116.726562 97.265625 C 117.164062 100.722656 127.464844 99.789062 125.277344 94.320312 "/>
<path style=" stroke:none;fill-rule:nonzero;fill:rgb(100%,100%,100%);fill-opacity:1;" d="M 278.867188 104.042969 C 275.390625 101.917969 271.695312 97.898438 268.84375 101.6875 C 268.066406 106.785156 272.988281 106.183594 274.445312 109.050781 C 270.089844 110.882812 266.140625 113.128906 261.179688 114.355469 C 259.582031 112.539062 260.007812 111.390625 258.523438 110.820312 C 256.5 110.035156 254.441406 111.277344 254.105469 113.175781 C 253.675781 115.59375 256.292969 118.042969 258.234375 121.429688 C 260.542969 125.464844 261.09375 128.425781 263.242188 128.792969 C 269.011719 129.773438 266.152344 121.929688 264.421875 119.953125 C 271.363281 117.660156 277.335938 114.398438 283.582031 111.410156 C 285.703125 107.03125 282.128906 106.039062 278.867188 104.042969 "/>
<path style=" stroke:none;fill-rule:nonzero;fill:rgb(100%,100%,100%);fill-opacity:1;" d="M 246.144531 104.925781 C 248.34375 106.882812 255.066406 105.882812 252.925781 101.683594 C 250.421875 100.296875 244.054688 100.796875 246.144531 104.925781 "/>
<path style=" stroke:none;fill-rule:nonzero;fill:rgb(100%,100%,100%);fill-opacity:1;" d="M 85.480469 139.402344 C 89.296875 138.324219 85.789062 134.179688 85.773438 131.449219 C 85.742188 126.328125 90.335938 122.367188 93.734375 119.660156 C 97.609375 121.757812 96.917969 127.554688 97.269531 133.214844 C 97.652344 139.375 98.890625 150.035156 103.757812 150.011719 C 107.605469 149.992188 110.304688 140.617188 112.601562 137.046875 C 114.273438 134.441406 115.128906 133.222656 117.023438 130.5625 C 118.605469 128.339844 124.503906 121.414062 118.203125 121.132812 C 115.160156 121 111.824219 127.253906 110.535156 129.089844 C 108.40625 132.125 106.621094 135.40625 104.347656 138.8125 C 102.660156 128.65625 104.65625 116.40625 96.089844 113.765625 C 93.492188 112.964844 90.746094 113.820312 89.3125 114.652344 C 85.613281 116.789062 80.1875 124.363281 79.582031 129.679688 C 79 134.78125 81.296875 140.585938 85.480469 139.402344 "/>
<path style=" stroke:none;fill-rule:nonzero;fill:rgb(100%,100%,100%);fill-opacity:1;" d="M 297.144531 129.089844 C 293.199219 130.160156 279.09375 133 277.980469 134.394531 C 274.242188 139.078125 282.589844 144.082031 283.289062 148.539062 C 280.148438 149.070312 276.039062 152.980469 279.75 155.90625 C 282.976562 156.28125 284.226562 154.679688 286.53125 154.132812 C 289.011719 156.226562 289.292969 162.332031 293.3125 162.089844 C 298.742188 161.761719 294.117188 153.464844 292.132812 151.1875 C 294.644531 150.039062 299.765625 148.21875 298.617188 144.410156 C 297.238281 139.832031 291.390625 144.847656 288.890625 145.886719 C 288.007812 143.132812 286.042969 141.464844 285.058594 138.8125 C 288.359375 137.070312 298.324219 137.046875 300.386719 134.097656 C 302.378906 131.253906 299.503906 128.445312 297.144531 129.089844 "/>
<path style=" stroke:none;fill-rule:nonzero;fill:rgb(100%,100%,100%);fill-opacity:1;" d="M 162.125 186.839844 C 159.609375 189.355469 153.511719 196.835938 154.167969 201.574219 C 154.855469 206.554688 165.339844 204.394531 170.675781 204.226562 C 177.558594 204.011719 186.9375 206.472656 186.007812 200.691406 C 185.171875 195.511719 166.785156 199.003906 161.535156 198.335938 C 166.066406 187.496094 179.746094 185.222656 183.058594 174.761719 C 184.535156 170.09375 183.320312 164.089844 179.816406 160.910156 C 172.898438 154.640625 161.792969 159.222656 158 164.742188 C 156.3125 167.199219 152.476562 176.039062 158.589844 175.351562 C 161.1875 175.054688 161 171.519531 162.714844 168.867188 C 163.949219 166.964844 165.722656 165.378906 167.433594 164.742188 C 172.515625 162.847656 178.546875 165.390625 177.457031 172.109375 C 176.5 178.023438 166.722656 182.246094 162.125 186.839844 "/>
<path style=" stroke:none;fill-rule:nonzero;fill:rgb(100%,100%,100%);fill-opacity:1;" d="M 210.765625 167.097656 C 211.941406 166.511719 213.632812 166.34375 215.484375 166.214844 C 228.316406 165.328125 229.644531 194.035156 221.085938 199.511719 C 215.257812 203.242188 207.550781 198.660156 205.757812 193.621094 C 202.984375 185.824219 204.3125 170.351562 210.765625 167.097656 Z M 204.875 203.34375 C 210.558594 207.726562 219.980469 207.824219 224.917969 204.519531 C 227.621094 202.714844 230.398438 198.304688 231.402344 194.796875 C 235.792969 179.507812 230.394531 158.546875 214.894531 160.027344 C 211.820312 160.320312 209.515625 160.710938 207.527344 161.796875 C 197.40625 167.3125 193.832031 194.828125 204.875 203.34375 "/>
<path style=" stroke:none;fill-rule:nonzero;fill:rgb(100%,100%,100%);fill-opacity:1;" d="M 87.542969 168.574219 C 85.460938 172.84375 93.207031 177.230469 94.324219 173.582031 C 95.105469 171.015625 90.660156 166.726562 87.542969 168.574219 "/>
<path style=" stroke:none;fill-rule:nonzero;fill:rgb(100%,100%,100%);fill-opacity:1;" d="M 282.699219 177.414062 C 286.042969 179.503906 289.117188 175.421875 288.300781 172.992188 C 287.132812 169.523438 280.71875 173.496094 282.699219 177.414062 "/>
<path style=" stroke:none;fill-rule:nonzero;fill:rgb(100%,100%,100%);fill-opacity:1;" d="M 47.449219 180.359375 C 49.871094 180.117188 50.265625 176.03125 49.515625 172.992188 C 44.433594 168.9375 42.914062 180.8125 47.449219 180.359375 "/>
<path style=" stroke:none;fill-rule:nonzero;fill:rgb(100%,100%,100%);fill-opacity:1;" d="M 334.582031 181.242188 C 338.738281 181.136719 336 172.355469 332.222656 173.878906 C 329.1875 175.101562 331.964844 181.3125 334.582031 181.242188 "/>
<path style=" stroke:none;fill-rule:nonzero;fill:rgb(100%,100%,100%);fill-opacity:1;" d="M 306.875 182.714844 C 307.867188 179.898438 308.6875 172.511719 304.222656 175.941406 C 302.214844 177.476562 301.605469 184.257812 301.566406 186.253906 C 304.886719 188.335938 306.09375 184.933594 306.875 182.714844 "/>
<path style=" stroke:none;fill-rule:nonzero;fill:rgb(100%,100%,100%);fill-opacity:1;" d="M 49.21875 217.78125 C 52.515625 216.832031 47.574219 206.867188 47.449219 204.519531 C 46.792969 192.238281 56.046875 207.402344 58.949219 206.878906 C 63.007812 206.144531 59.257812 198.003906 58.359375 195.089844 C 57.089844 190.996094 55.128906 178.820312 50.105469 183.601562 C 50.53125 188.574219 53.015625 191.496094 53.640625 196.269531 C 48.164062 192.539062 43.378906 196.136719 42.734375 201.574219 C 42.015625 207.632812 45.679688 218.796875 49.21875 217.78125 "/>
<path style=" stroke:none;fill-rule:nonzero;fill:rgb(100%,100%,100%);fill-opacity:1;" d="M 84.300781 193.621094 C 88.234375 193.085938 84.527344 184.265625 81.058594 185.664062 C 77.660156 187.035156 81.460938 194.007812 84.300781 193.621094 "/>
<path style=" stroke:none;fill-rule:nonzero;fill:rgb(100%,100%,100%);fill-opacity:1;" d="M 328.394531 218.960938 C 326.867188 214.632812 328.789062 209.050781 330.457031 205.992188 C 334.046875 209.46875 331.824219 216.753906 328.394531 218.960938 Z M 332.816406 201.574219 C 323.027344 197.777344 318.644531 223.597656 328.6875 223.671875 C 330.5625 223.6875 330.859375 222.984375 332.816406 222.199219 C 332.804688 226.792969 328.601562 239.4375 335.46875 234.578125 C 337.386719 227.363281 340.371094 204.503906 332.816406 201.574219 "/>
<path style=" stroke:none;fill-rule:nonzero;fill:rgb(100%,100%,100%);fill-opacity:1;" d="M 58.359375 211.59375 C 56.875 211.730469 55.164062 213.566406 57.472656 216.898438 C 55.492188 219.742188 54.496094 222.410156 52.757812 226.328125 C 51.636719 228.839844 48.023438 233.410156 48.628906 236.34375 C 49.597656 241.03125 63.894531 239.359375 58.949219 234.28125 C 57.472656 233.546875 56.105469 234.535156 54.230469 234.28125 C 56.175781 230.136719 57.789062 225.660156 60.125 221.90625 C 61.210938 224.585938 65.183594 224.953125 65.433594 221.90625 C 65.570312 220.234375 60.371094 211.40625 58.359375 211.59375 "/>
<path style=" stroke:none;fill-rule:nonzero;fill:rgb(100%,100%,100%);fill-opacity:1;" d="M 129.109375 270.820312 C 128.789062 273.296875 133.617188 278.402344 135.59375 274.945312 C 136.550781 270.023438 129.65625 266.582031 129.109375 270.820312 "/>
<path style=" stroke:none;fill-rule:nonzero;fill:rgb(100%,100%,100%);fill-opacity:1;" d="M 304.21875 273.46875 C 303.628906 275.253906 305.457031 276.148438 305.105469 276.714844 C 301.644531 279.292969 283.449219 278.535156 287.121094 285.257812 C 290.007812 285.734375 294.636719 284.375 299.503906 283.195312 C 303.277344 282.28125 309.214844 281.292969 310.703125 279.363281 C 313.125 276.238281 307.238281 269.550781 304.21875 273.46875 "/>
<path style=" stroke:none;fill-rule:nonzero;fill:rgb(100%,100%,100%);fill-opacity:1;" d="M 96.679688 290.5625 C 90.40625 294.359375 81.773438 289.65625 80.171875 284.078125 C 86.285156 280.710938 97.265625 283.679688 96.679688 290.5625 Z M 99.039062 283.195312 C 96.234375 279.421875 89.707031 277.007812 81.644531 278.480469 C 72.429688 280.167969 75.730469 289.109375 81.058594 293.214844 C 84.371094 295.765625 89.265625 296.875 92.847656 296.75 C 101.65625 296.4375 103.835938 289.648438 99.039062 283.195312 "/>
<path style=" stroke:none;fill-rule:nonzero;fill:rgb(100%,100%,100%);fill-opacity:1;" d="M 217.546875 286.730469 C 220.648438 287.71875 223.933594 281.964844 221.675781 279.070312 C 217.460938 277.375 214.539062 285.773438 217.546875 286.730469 "/>
<path style=" stroke:none;fill-rule:nonzero;fill:rgb(100%,100%,100%);fill-opacity:1;" d="M 190.132812 296.75 C 189.371094 296.726562 187.847656 295.808594 186.59375 295.570312 C 183.105469 294.902344 177.757812 294.367188 177.75 290.855469 C 177.742188 286.367188 184.316406 286.785156 189.542969 286.4375 C 193.703125 286.160156 199.394531 286.40625 199.859375 290.265625 C 200.28125 293.730469 194.042969 296.867188 190.132812 296.75 Z M 198.386719 307.945312 C 196.925781 312.792969 183.761719 310.144531 181.289062 307.355469 C 181.414062 304.472656 185.921875 302.074219 189.839844 302.054688 C 193.457031 302.035156 199.820312 303.191406 198.386719 307.945312 Z M 190.722656 279.953125 C 181.316406 280.535156 171.179688 282.277344 171.265625 290.855469 C 171.3125 295.597656 174.824219 298.054688 178.046875 299.992188 C 176.667969 302.195312 175.21875 303.550781 175.097656 306.472656 C 174.6875 316.382812 193.507812 319.730469 201.039062 314.429688 C 206.347656 310.695312 205.472656 303.078125 201.335938 299.105469 C 211.550781 291.5 203.613281 279.15625 190.722656 279.953125 "/>
<path style=" stroke:none;fill-rule:nonzero;fill:rgb(100%,100%,100%);fill-opacity:1;" d="M 264.125 309.714844 C 265.40625 305.097656 268.738281 302.539062 272.675781 300.582031 C 272.386719 305.007812 268.894531 308.78125 264.125 309.714844 Z M 288.890625 294.390625 C 281.472656 291.265625 268.769531 295.734375 263.539062 301.167969 C 260.921875 303.886719 256.46875 312.464844 262.652344 314.429688 C 272.078125 314.15625 277.644531 307.113281 277.394531 299.105469 C 279.554688 298.183594 283.171875 297.949219 285.941406 298.515625 C 286.726562 302.3125 293.339844 304.328125 292.429688 298.222656 C 292.242188 296.96875 290.230469 294.957031 288.890625 294.390625 "/>
<path style=" stroke:none;fill-rule:nonzero;fill:rgb(100%,100%,100%);fill-opacity:1;" d="M 113.78125 298.222656 C 110.199219 298.523438 112.488281 302.84375 112.894531 303.820312 C 108.511719 304.449219 97.871094 300.707031 97.566406 305 C 97.46875 306.378906 99.898438 308.597656 101.105469 309.417969 C 103.308594 310.921875 105.804688 311.464844 108.769531 311.480469 C 109.738281 310.882812 109.890625 309.460938 110.242188 308.242188 C 112.789062 308.054688 114.449219 308.753906 117.023438 308.535156 C 118.261719 311.308594 122.777344 312.289062 122.917969 308.832031 C 122.980469 307.242188 115.421875 298.085938 113.78125 298.222656 "/>
</g>
</svg>
