<?xml version="1.0" encoding="UTF-8"?>
<svg xmlns="http://www.w3.org/2000/svg" xmlns:xlink="http://www.w3.org/1999/xlink" width="375pt" height="374.999991pt" viewBox="0 0 375 374.999991" version="1.2">
<defs>
<clipPath id="clip1">
  <path d="M 22.210938 35.847656 L 352 35.847656 L 352 338.554688 L 22.210938 338.554688 Z M 22.210938 35.847656 "/>
</clipPath>
<clipPath id="clip2">
  <path d="M 228 135 L 286.195312 135 L 286.195312 192.632812 L 228 192.632812 Z M 228 135 "/>
</clipPath>
</defs>
<g id="surface1">
<path style=" stroke:none;fill-rule:evenodd;fill:rgb(91.758728%,16.468811%,16.468811%);fill-opacity:1;" d="M 140.492188 175.945312 C 141.75 188.546875 145.253906 200.839844 152.917969 208.027344 C 155.207031 207.648438 156.136719 204.632812 158.652344 205.488281 C 161.261719 208.410156 157.097656 211.394531 156.105469 213.746094 C 158.542969 215.417969 164.210938 212.441406 164.707031 215.96875 C 165.050781 218.390625 160.503906 220.1875 157.058594 219.785156 C 154.765625 219.511719 153.320312 217.203125 151.960938 218.511719 C 152.792969 221.496094 157.125 220.988281 157.058594 224.863281 C 156.125 227.007812 152.269531 226.695312 150.371094 225.820312 C 147.636719 224.558594 147.675781 220.570312 144.953125 219.785156 C 144.242188 222.386719 146.097656 226.332031 143.039062 226.773438 C 140.933594 227.074219 138.625 222.789062 138.898438 219.464844 C 139.089844 217.097656 140.902344 216.550781 141.128906 214.699219 C 139.792969 213.175781 137.976562 212.164062 136.667969 210.570312 C 131.050781 203.710938 129.21875 193.125 129.019531 182.613281 C 126.625 182.992188 127.542969 187.507812 127.746094 190.238281 C 128.5 200.382812 133.476562 209.277344 138.578125 215.335938 C 136.0625 220.289062 138.199219 226.242188 141.765625 228.675781 C 142.691406 228.328125 144.027344 228.390625 144.953125 228.042969 C 145.859375 227.359375 145.992188 225.90625 146.542969 224.863281 C 148.824219 229.207031 161.203125 229.664062 158.015625 221.6875 C 161.242188 221.28125 166.429688 219.6875 166.300781 215.96875 C 166.1875 212.644531 162.785156 212.929688 159.925781 212.160156 C 161.363281 209.140625 162.4375 204.394531 158.652344 203.582031 C 155.847656 202.976562 154.902344 205.199219 152.917969 205.488281 C 146.777344 198.792969 142.589844 187.136719 142.722656 176.261719 C 142.039062 176.011719 140.941406 175.488281 140.492188 175.945312 M 337.722656 122.890625 C 338.605469 126.09375 337.589844 130.226562 338.679688 133.691406 C 345.292969 136.472656 343.84375 124.769531 342.183594 122.253906 C 340.644531 121.796875 338.792969 122.035156 337.722656 122.890625 M 330.074219 122.253906 C 328.636719 126.023438 327.695312 133.824219 330.394531 137.1875 C 336.351562 136.925781 335.808594 121.304688 330.074219 122.253906 M 78.996094 118.445312 C 78.425781 119.9375 74.335938 121.136719 75.8125 122.574219 C 77.054688 120.210938 81.871094 118.664062 85.050781 117.171875 C 83.179688 115.390625 81.324219 118.621094 78.996094 118.445312 M 64.976562 83.5 C 65.523438 85.179688 66.363281 86.5625 66.570312 88.582031 C 75.261719 103.421875 84.3125 117.90625 97.15625 128.609375 C 93.355469 132.550781 88.5625 135.5 85.6875 140.363281 C 87.984375 140.285156 89.746094 137.03125 91.101562 134.964844 C 92.148438 135.609375 92.855469 133.664062 93.652344 133.058594 C 95.679688 132.222656 97.007812 130.683594 99.070312 129.878906 C 104.011719 135.222656 110.667969 138.859375 115.957031 143.855469 C 114.410156 143.585938 114.417969 144.863281 113.40625 145.128906 C 111.503906 148.269531 108.867188 150.367188 106.398438 153.070312 C 104.78125 154.839844 101.84375 156.945312 102.890625 159.425781 C 104.628906 158.1875 106.125 153.964844 108.628906 152.433594 C 110.792969 150.144531 113.1875 148.085938 115.636719 146.082031 C 116.332031 145.484375 116.523438 144.613281 116.59375 144.175781 C 122.210938 147.6875 129.136719 151.574219 135.710938 153.070312 C 136.339844 150.375 133.0625 150.601562 131.886719 150.210938 C 126.265625 148.347656 122.605469 146.101562 118.1875 143.222656 C 111.003906 138.546875 103.6875 132.574219 97.792969 127.023438 C 92.824219 122.335938 87.570312 117.878906 83.457031 112.726562 C 80.5 109.023438 78.78125 104.921875 76.128906 100.65625 C 74.761719 98.453125 72.683594 96.859375 71.347656 94.617188 C 69.195312 91.003906 67.125 86.761719 66.25 82.226562 L 65.296875 82.226562 C 65.195312 82.660156 64.839844 82.835938 64.976562 83.5 M 282.28125 87.628906 C 283 91.257812 288.359375 95.222656 293.117188 94.617188 C 297.320312 94.085938 301.152344 87.648438 300.125 82.226562 C 299.652344 79.734375 297.191406 78.25 296.9375 75.875 C 288.128906 73.269531 280.804688 80.164062 282.28125 87.628906 M 274.636719 63.171875 C 271 60.703125 262.191406 58.234375 258.382812 57.132812 C 258.136719 57.199219 258.015625 57.398438 258.066406 57.765625 C 262.046875 63.546875 259.285156 77.148438 268.578125 77.148438 C 269.0625 76.253906 268.472656 75.84375 268.898438 74.605469 C 263.609375 73.417969 262.886719 65.988281 262.84375 60.625 C 266.554688 61.90625 270.066406 63.382812 273.359375 65.074219 C 274.710938 66.730469 276.15625 69.859375 278.140625 69.835938 C 279.90625 67.464844 276.765625 64.617188 274.636719 63.171875 M 295.664062 60.308594 C 298.832031 58.003906 299.136719 53.320312 303.628906 52.683594 C 306.128906 52.332031 308.015625 53.726562 310.957031 54.589844 C 308.941406 57.980469 307.074219 61.519531 304.585938 64.4375 C 305.035156 69.5 309.421875 70.628906 310.640625 74.921875 C 305.46875 81.417969 313.066406 91.121094 319.878906 85.722656 C 322.917969 90.53125 328.660156 92.640625 332.304688 96.839844 C 331.890625 104.035156 335.703125 107.007812 342.183594 107.328125 C 342.804688 114.265625 347.039062 118.421875 346.328125 127.339844 C 345.882812 132.90625 344.480469 138.679688 343.457031 144.175781 C 342.363281 150.066406 341.644531 153.785156 338.996094 157.199219 C 329.554688 162.5625 317 158.886719 306.175781 156.246094 C 305.066406 153.160156 306.417969 149.460938 305.859375 146.082031 C 305.507812 143.945312 303.722656 142.515625 304.269531 140.363281 C 303.609375 139.28125 302.496094 140.300781 301.71875 139.730469 C 298.011719 135.140625 291.941406 133.730469 287.0625 130.515625 C 282.234375 127.339844 277.492188 123.972656 272.722656 120.984375 C 272.914062 119.601562 271.015625 118.1875 270.8125 116.855469 C 270.214844 112.96875 272.878906 109.207031 273.359375 105.734375 C 274.167969 99.921875 271.371094 93.878906 268.261719 89.535156 C 264.226562 83.894531 258.691406 80.457031 248.824219 81.910156 C 239.222656 77.375 222.824219 81.101562 219.832031 89.851562 C 211.976562 89.480469 200.214844 93.453125 197.523438 101.609375 C 196.527344 104.632812 196.898438 108.546875 196.253906 112.089844 C 184.253906 116.523438 175.824219 129.539062 179.046875 145.128906 C 166.164062 150.769531 161.699219 177.234375 171.714844 189.285156 C 168.628906 193.808594 165.113281 198.191406 165.980469 205.488281 C 166.671875 211.253906 169.753906 217.460938 170.441406 222.007812 C 165.566406 226.628906 159.714844 230.015625 159.925781 237.574219 C 159.964844 238.933594 161.570312 241.171875 161.203125 242.65625 C 160.714844 244.628906 153.3125 247.847656 151.640625 249.328125 C 147.859375 252.683594 146.003906 256.699219 144.632812 261.398438 C 147.964844 273.746094 142.359375 286.898438 136.03125 295.386719 C 132.667969 299.902344 129.988281 301.699219 124.878906 303.96875 C 123.355469 306.554688 124.558594 311.78125 124.558594 314.132812 C 124.558594 316.996094 122.859375 321.6875 124.878906 323.34375 C 125.949219 324.226562 126.933594 323.421875 128.703125 323.664062 C 132.027344 324.113281 136.886719 325.175781 136.988281 327.472656 C 137.148438 331.234375 132.34375 330.242188 130.292969 329.699219 C 128.546875 330.664062 131.324219 331.484375 130.292969 332.558594 C 126.15625 334.050781 124.4375 332.058594 122.011719 330.335938 C 120.835938 331.628906 122.527344 332.769531 122.648438 333.832031 C 117.902344 333.71875 111.085938 331.8125 104.484375 331.289062 C 101.386719 331.039062 97.394531 331.996094 96.199219 329.0625 C 97.066406 328.125 98.757812 329.449219 99.386719 328.746094 C 100.082031 327.957031 100.367188 326.757812 101.617188 326.519531 C 101.863281 324.660156 101.742188 324.175781 102.574219 322.710938 C 103.164062 308.058594 103.488281 294.09375 101.9375 279.1875 C 101.1875 271.992188 99.820312 266.496094 95.882812 261.398438 C 88.925781 252.390625 75.164062 248.34375 62.425781 252.820312 C 56.71875 254.828125 49.621094 261.945312 48.726562 269.023438 C 47.445312 279.136719 54.09375 284.625 59.878906 289.992188 C 62.171875 290.066406 64.492188 292.273438 67.207031 292.214844 C 72.835938 292.09375 84.253906 284.882812 83.136719 277.28125 C 82.773438 274.796875 80.285156 274.140625 80.589844 271.5625 C 85.886719 271.628906 87.4375 277.382812 88.234375 281.410156 C 89.933594 289.957031 84.550781 297.226562 80.269531 301.742188 C 76.042969 306.207031 70.378906 311.132812 62.109375 311.59375 C 54.613281 312.007812 45.054688 310.058594 40.441406 305.554688 C 37.484375 302.667969 35.714844 298.917969 33.433594 294.753906 C 31.488281 291.214844 28.398438 286.878906 27.695312 283 C 26.539062 276.601562 27.375 270.199219 28.015625 264.257812 C 29.378906 251.570312 34.710938 243.816406 44.265625 239.160156 C 49.574219 236.574219 56.75 235.675781 64.019531 234.078125 C 69.828125 232.800781 78.007812 234.550781 83.777344 234.714844 C 89.980469 234.886719 93.5625 232.554688 98.113281 230.265625 C 100.273438 228.09375 101.9375 225.671875 103.847656 222.957031 C 105.570312 220.515625 107.972656 218.402344 109.902344 215.96875 C 113.367188 211.605469 116.277344 205.953125 119.144531 200.402344 C 123.417969 192.117188 126.9375 183.378906 123.921875 171.8125 C 114.628906 168.667969 100.5625 168.058594 91.421875 173.402344 C 96.621094 151.582031 75.078125 142.5 57.328125 142.589844 C 60.558594 137.375 65.953125 133.105469 67.207031 126.703125 C 70.246094 111.164062 58.902344 98.246094 48.726562 91.761719 C 57.578125 88.304688 61.011719 79.441406 61.472656 67.617188 C 66.710938 74.671875 73.34375 80.34375 79.3125 86.675781 C 79.058594 87.78125 79.789062 87.898438 79.632812 88.898438 C 88.78125 98.207031 97.023438 108.410156 106.398438 117.492188 C 111.726562 125.78125 120.253906 133.324219 130.292969 138.457031 C 134.332031 140.519531 137.953125 144.324219 143.359375 142.589844 C 143.761719 135.039062 149.257812 125.855469 152.597656 119.078125 C 155.195312 113.8125 157.625 108.800781 161.839844 105.101562 C 161.929688 104.027344 162.347656 103.277344 162.15625 101.925781 C 169.371094 89.628906 178.769531 76.796875 190.515625 66.34375 C 196.046875 61.421875 202 56.339844 208.679688 52.367188 C 215.234375 48.46875 223.144531 44.476562 230.664062 42.519531 C 237.667969 40.699219 245.355469 41.5625 252.648438 42.203125 C 267.878906 43.539062 286.054688 49.273438 294.070312 57.765625 C 294.714844 58.449219 295.253906 59.414062 295.664062 60.308594 "/>
<path style=" stroke:none;fill-rule:evenodd;fill:rgb(91.758728%,16.468811%,16.468811%);fill-opacity:1;" d="M 122.328125 68.570312 C 122.527344 75.59375 124.386719 79.605469 126.789062 85.089844 C 130.402344 93.335938 133.488281 98.976562 139.21875 104.46875 C 141.832031 106.96875 145.046875 110.535156 148.773438 110.503906 C 148.507812 108.332031 146.375 108.027344 144.632812 107.324219 C 133.691406 98.121094 125.175781 85.140625 123.601562 67.617188 L 122.648438 67.617188 C 122.628906 68.019531 122.238281 68.054688 122.328125 68.570312 M 158.335938 105.738281 C 155.136719 110.382812 151.609375 115.808594 148.773438 121.300781 C 145.800781 127.074219 144.492188 134.359375 139.855469 137.820312 C 131.867188 133.605469 132.421875 120.878906 121.054688 120.03125 C 120.777344 117.179688 122.09375 113.828125 121.691406 111.136719 C 120.714844 104.574219 116.746094 102.222656 110.859375 101.925781 C 115.242188 95.53125 118.695312 81.1875 112.132812 74.605469 C 113.988281 67.789062 117.261719 64.296875 121.375 59.675781 C 121.953125 56.441406 123.886719 54.554688 125.835938 52.683594 C 126.347656 52.59375 126.382812 52.984375 126.789062 53.003906 C 125.132812 65.816406 129.058594 74.753906 134.4375 84.769531 C 139.925781 94.992188 146.34375 103.160156 158.335938 105.738281 "/>
<path style=" stroke:none;fill-rule:evenodd;fill:rgb(0%,0%,0%);fill-opacity:1;" d="M 278.140625 69.839844 C 276.15625 69.859375 274.710938 66.730469 273.359375 65.074219 C 270.066406 63.382812 266.554688 61.90625 262.84375 60.628906 C 262.886719 65.988281 263.609375 73.414062 268.898438 74.605469 C 268.472656 75.84375 269.0625 76.253906 268.578125 77.148438 C 259.285156 77.148438 262.046875 63.546875 258.066406 57.765625 C 258.015625 57.398438 258.136719 57.199219 258.382812 57.132812 C 262.191406 58.234375 271 60.699219 274.636719 63.171875 C 276.765625 64.617188 279.90625 67.464844 278.140625 69.839844 "/>
<path style=" stroke:none;fill-rule:evenodd;fill:rgb(0%,0%,0%);fill-opacity:1;" d="M 122.648438 67.617188 L 123.605469 67.617188 C 125.175781 85.140625 133.691406 98.121094 144.632812 107.324219 C 146.371094 108.027344 148.511719 108.332031 148.777344 110.503906 C 145.046875 110.535156 141.832031 106.96875 139.214844 104.464844 C 133.488281 98.976562 130.402344 93.339844 126.789062 85.089844 C 124.386719 79.605469 122.527344 75.59375 122.328125 68.570312 C 122.242188 68.054688 122.628906 68.019531 122.648438 67.617188 "/>
<path style=" stroke:none;fill-rule:evenodd;fill:rgb(100%,100%,100%);fill-opacity:1;" d="M 315.417969 79.6875 C 316.046875 80.125 317.238281 79.992188 317.964844 80.324219 C 321.367188 77.800781 314.519531 74.476562 315.417969 79.6875 M 310.640625 81.910156 C 310.53125 78.1875 311.59375 73.886719 314.464844 72.699219 C 317.332031 71.511719 322.136719 73.5 322.75 75.875 C 324.175781 81.410156 313.480469 90.371094 310.640625 81.910156 "/>
<path style=" stroke:none;fill-rule:evenodd;fill:rgb(0%,0%,0%);fill-opacity:1;" d="M 283.875 87.3125 C 284.578125 90.410156 289.671875 93.332031 293.117188 92.710938 C 300.378906 91.410156 300.183594 75.335938 290.566406 77.148438 C 286.144531 77.976562 282.757812 82.398438 283.875 87.3125 M 296.9375 75.875 C 297.191406 78.25 299.652344 79.734375 300.125 82.226562 C 301.152344 87.648438 297.320312 94.085938 293.117188 94.617188 C 288.359375 95.226562 283 91.253906 282.28125 87.628906 C 280.804688 80.164062 288.128906 73.269531 296.9375 75.875 "/>
<path style=" stroke:none;fill-rule:evenodd;fill:rgb(100%,100%,100%);fill-opacity:1;" d="M 289.609375 85.089844 C 290.253906 86.359375 292.421875 87.054688 294.070312 86.359375 C 294.976562 82.144531 289.996094 81.535156 289.609375 85.089844 M 290.566406 77.148438 C 300.183594 75.335938 300.378906 91.410156 293.117188 92.714844 C 289.671875 93.332031 284.578125 90.410156 283.875 87.3125 C 282.757812 82.398438 286.144531 77.976562 290.566406 77.148438 "/>
<path style=" stroke:none;fill-rule:evenodd;fill:rgb(0%,0%,0%);fill-opacity:1;" d="M 317.964844 80.324219 C 317.238281 79.992188 316.046875 80.125 315.417969 79.6875 C 314.519531 74.476562 321.367188 77.800781 317.964844 80.324219 "/>
<path style=" stroke:none;fill-rule:evenodd;fill:rgb(100%,59.999084%,59.999084%);fill-opacity:1;" d="M 174.585938 269.976562 C 171.671875 269.597656 170.007812 267.972656 168.53125 266.164062 C 167.117188 269 172.046875 272.363281 174.585938 269.976562 M 189.242188 229.949219 C 189.550781 232.289062 193.699219 230.800781 195.933594 231.21875 C 196.128906 227.734375 191.25 230.585938 189.242188 229.949219 M 191.152344 190.875 C 193.550781 190.195312 196.757812 190.320312 198.800781 189.285156 C 197.878906 187.503906 191.332031 188.082031 191.152344 190.875 M 190.199219 164.191406 C 190.097656 164.617188 189.742188 164.796875 189.878906 165.460938 C 192.035156 166.511719 195.167969 165.945312 197.207031 166.09375 L 197.207031 164.507812 C 195.3125 164.300781 191.523438 164.582031 190.199219 164.191406 M 198.480469 135.28125 C 198.234375 135.351562 198.109375 135.546875 198.164062 135.917969 C 199.488281 137.351562 201.6875 137.910156 203.578125 138.773438 C 203.75 135.914062 199.757812 135.65625 198.480469 135.28125 M 266.351562 90.171875 C 248.417969 83.457031 228.984375 92.289062 220.148438 103.515625 C 209.328125 119.484375 206.132812 143.683594 202.941406 166.730469 C 202.476562 170.117188 203.113281 172.335938 203.578125 174.992188 C 204.460938 179.976562 204.304688 185.085938 204.535156 189.921875 C 204.914062 197.859375 205.796875 205.015625 206.765625 213.113281 C 207.277344 217.382812 208.328125 220.5625 208.679688 224.546875 C 210.71875 247.871094 194.046875 258.824219 182.871094 276.648438 C 184.492188 282.863281 188.769531 286.4375 191.789062 291.261719 C 190.992188 293.167969 188.96875 294.3125 187.328125 295.707031 C 185.769531 297.035156 183.457031 298.164062 183.1875 299.839844 C 185.210938 300.515625 187.527344 297.890625 189.242188 296.34375 C 191.140625 294.628906 193.3125 292.605469 194.339844 290.625 C 195.402344 290.417969 195.898438 289.636719 196.886719 289.351562 C 199.757812 286.21875 202.832031 277.214844 208.359375 281.730469 C 209.453125 282.855469 206.851562 283.6875 208.042969 284.90625 C 208.578125 285.828125 211.035156 283.96875 211.863281 285.542969 C 213.375 287.21875 210.71875 288.523438 209.949219 289.992188 C 209.445312 290.960938 209.597656 292.03125 208.996094 292.847656 C 208.390625 293.671875 206.816406 294.851562 205.492188 296.027344 C 202.191406 298.945312 197.707031 302.132812 194.019531 304.597656 C 190.164062 307.1875 185.164062 311.867188 180.640625 309.367188 C 176.84375 300.125 168.304688 295.617188 162.476562 288.402344 C 153.632812 293.027344 148.882812 301.746094 134.4375 300.792969 C 134.210938 299.152344 136.246094 297.238281 137.625 295.386719 C 143.71875 287.214844 149.589844 273.421875 146.542969 260.445312 C 149.171875 252.050781 155.269531 247.117188 163.433594 244.242188 C 159.101562 234.371094 164.992188 226.445312 172.671875 223.277344 C 169.1875 213.652344 163.261719 196.03125 174.269531 190.238281 C 171.171875 184.945312 167.199219 179.304688 167.257812 171.816406 C 167.324219 163.097656 171.167969 154.976562 175.222656 149.257812 C 176.414062 149.070312 176.871094 148.148438 177.769531 147.671875 C 178.546875 147.066406 180.4375 147.574219 181.273438 147.035156 C 176.253906 131.242188 185.460938 116.519531 197.84375 113.363281 C 196.859375 98.164062 206.519531 90.28125 220.46875 92.078125 C 222.625 90.390625 222.546875 87.390625 224.929688 85.40625 C 230.691406 80.597656 243.367188 80.261719 249.144531 83.820312 C 256.734375 81.917969 263.882812 84.949219 266.351562 90.171875 "/>
<path style=" stroke:none;fill-rule:evenodd;fill:rgb(0%,0%,0%);fill-opacity:1;" d="M 65.292969 82.226562 L 66.25 82.226562 C 67.128906 86.761719 69.195312 91.003906 71.347656 94.617188 C 72.683594 96.859375 74.757812 98.453125 76.128906 100.652344 C 78.78125 104.921875 80.5 109.027344 83.457031 112.726562 C 87.570312 117.878906 92.824219 122.335938 97.792969 127.019531 C 103.6875 132.574219 111.003906 138.546875 118.1875 143.222656 C 122.605469 146.097656 126.265625 148.351562 131.886719 150.210938 C 133.058594 150.597656 136.339844 150.375 135.710938 153.070312 C 129.136719 151.574219 122.210938 147.6875 116.59375 144.175781 C 116.523438 144.613281 116.332031 145.484375 115.636719 146.082031 C 113.1875 148.085938 110.789062 150.144531 108.628906 152.433594 C 106.125 153.964844 104.628906 158.1875 102.890625 159.425781 C 101.84375 156.945312 104.78125 154.84375 106.398438 153.070312 C 108.867188 150.367188 111.503906 148.269531 113.40625 145.128906 C 114.417969 144.863281 114.410156 143.585938 115.957031 143.859375 C 110.667969 138.859375 104.011719 135.222656 99.070312 129.878906 C 97.007812 130.683594 95.679688 132.222656 93.652344 133.058594 C 92.855469 133.664062 92.148438 135.609375 91.105469 134.964844 C 89.75 137.03125 87.984375 140.285156 85.6875 140.363281 C 88.5625 135.5 93.355469 132.550781 97.15625 128.609375 C 84.3125 117.90625 75.265625 103.421875 66.566406 88.582031 C 66.363281 86.566406 65.519531 85.179688 64.976562 83.5 C 64.839844 82.835938 65.195312 82.660156 65.292969 82.226562 "/>
<path style=" stroke:none;fill-rule:evenodd;fill:rgb(0%,0%,0%);fill-opacity:1;" d="M 294.070312 86.359375 C 292.421875 87.054688 290.253906 86.359375 289.609375 85.089844 C 289.996094 81.535156 294.976562 82.144531 294.070312 86.359375 "/>
<path style=" stroke:none;fill-rule:evenodd;fill:rgb(83.918762%,78.819275%,74.119568%);fill-opacity:1;" d="M 345.367188 94.9375 C 345.875 98.828125 343.300781 102.398438 341.550781 105.101562 C 337.097656 104.984375 334.613281 102.90625 334.21875 98.746094 C 338.546875 99.296875 342.972656 97.355469 345.367188 94.9375 "/>
<path style=" stroke:none;fill-rule:evenodd;fill:rgb(100%,100%,100%);fill-opacity:1;" d="M 105.125 107.324219 C 113.644531 106.296875 119.179688 113.386719 115.320312 120.667969 C 111.089844 117.046875 107.3125 112.980469 105.125 107.324219 "/>
<path style=" stroke:none;fill-rule:evenodd;fill:rgb(0%,0%,0%);fill-opacity:1;" d="M 85.050781 117.171875 C 81.871094 118.664062 77.054688 120.210938 75.808594 122.574219 C 74.335938 121.136719 78.425781 119.9375 78.996094 118.445312 C 81.324219 118.621094 83.179688 115.390625 85.050781 117.171875 "/>
<path style=" stroke:none;fill-rule:evenodd;fill:rgb(0%,0%,0%);fill-opacity:1;" d="M 331.351562 135.28125 C 333.503906 133.441406 332.964844 126.152344 331.03125 124.480469 L 330.394531 124.480469 C 330.859375 128.640625 329.296875 132.949219 331.351562 135.28125 M 330.394531 137.1875 C 327.695312 133.824219 328.636719 126.023438 330.074219 122.253906 C 335.808594 121.304688 336.351562 136.925781 330.394531 137.1875 "/>
<path style=" stroke:none;fill-rule:evenodd;fill:rgb(0%,0%,0%);fill-opacity:1;" d="M 340.589844 132.421875 C 342.167969 130.734375 342.550781 125.359375 340.273438 124.160156 C 339.941406 126.71875 338.984375 130.644531 340.589844 132.421875 M 342.183594 122.253906 C 343.84375 124.769531 345.292969 136.472656 338.679688 133.695312 C 337.589844 130.226562 338.605469 126.09375 337.722656 122.890625 C 338.792969 122.039062 340.644531 121.796875 342.183594 122.253906 "/>
<path style=" stroke:none;fill-rule:evenodd;fill:rgb(100%,100%,100%);fill-opacity:1;" d="M 117.550781 123.84375 C 122.753906 123.421875 126.765625 126.9375 127.746094 131.785156 C 123.925781 129.558594 120.8125 126.625 117.550781 123.84375 "/>
<path style=" stroke:none;fill-rule:evenodd;fill:rgb(84.709167%,38.038635%,38.038635%);fill-opacity:1;" d="M 340.273438 124.160156 C 342.550781 125.359375 342.167969 130.734375 340.589844 132.421875 C 338.984375 130.644531 339.941406 126.71875 340.273438 124.160156 "/>
<path style=" stroke:none;fill-rule:evenodd;fill:rgb(84.709167%,38.038635%,38.038635%);fill-opacity:1;" d="M 330.394531 124.480469 L 331.035156 124.480469 C 332.964844 126.152344 333.503906 133.445312 331.351562 135.28125 C 329.296875 132.949219 330.859375 128.640625 330.394531 124.480469 "/>
<path style=" stroke:none;fill-rule:evenodd;fill:rgb(0%,0%,0%);fill-opacity:1;" d="M 203.578125 138.777344 C 201.6875 137.90625 199.484375 137.351562 198.164062 135.914062 C 198.109375 135.546875 198.234375 135.351562 198.480469 135.28125 C 199.757812 135.660156 203.75 135.914062 203.578125 138.777344 "/>
<path style=" stroke:none;fill-rule:evenodd;fill:rgb(91.758728%,16.468811%,16.468811%);fill-opacity:1;" d="M 233.53125 160.058594 C 232.683594 159.738281 231.71875 159.539062 231.617188 158.472656 C 233.105469 157.632812 233.566406 158.984375 233.53125 160.058594 "/>
<path style=" stroke:none;fill-rule:evenodd;fill:rgb(91.758728%,16.468811%,16.468811%);fill-opacity:1;" d="M 222.378906 160.058594 C 223.507812 162.363281 221.683594 165.734375 223.652344 167.367188 C 227.425781 166.679688 228.738281 163.542969 230.34375 160.695312 C 231.832031 160.585938 232.222656 161.574219 232.894531 162.28125 C 232.367188 164.511719 230.050781 164.953125 229.390625 167.050781 C 232.433594 168.640625 238.246094 167.75 237.675781 171.496094 C 237.140625 174.980469 232.488281 172.5625 230.027344 174.035156 C 232.234375 175.574219 234.796875 180.101562 231.9375 182.933594 C 229.707031 180.921875 227.816406 178.570312 224.929688 177.214844 C 219.296875 180.28125 212.296875 181.988281 206.128906 184.519531 C 205.546875 181.363281 205.605469 178.234375 205.171875 175.625 C 209.898438 175.84375 215.652344 171.992188 220.148438 169.90625 C 221.550781 166.644531 219.660156 163.328125 220.148438 160.375 C 221.152344 160.535156 221.273438 159.804688 222.378906 160.058594 "/>
<path style=" stroke:none;fill-rule:evenodd;fill:rgb(0%,0%,0%);fill-opacity:1;" d="M 197.207031 164.507812 L 197.207031 166.09375 C 195.167969 165.945312 192.035156 166.511719 189.878906 165.460938 C 189.742188 164.796875 190.097656 164.621094 190.199219 164.191406 C 191.523438 164.582031 195.3125 164.300781 197.207031 164.507812 "/>
<path style=" stroke:none;fill-rule:evenodd;fill:rgb(0%,0%,0%);fill-opacity:1;" d="M 142.722656 176.261719 C 142.589844 187.136719 146.777344 198.792969 152.917969 205.488281 C 154.902344 205.199219 155.847656 202.976562 158.652344 203.582031 C 162.4375 204.394531 161.363281 209.140625 159.925781 212.160156 C 162.789062 212.929688 166.1875 212.644531 166.300781 215.96875 C 166.429688 219.6875 161.242188 221.28125 158.015625 221.6875 C 161.203125 229.664062 148.824219 229.207031 146.542969 224.863281 C 145.992188 225.90625 145.859375 227.359375 144.953125 228.046875 C 144.027344 228.390625 142.691406 228.328125 141.765625 228.675781 C 138.199219 226.242188 136.0625 220.289062 138.578125 215.335938 C 133.476562 209.277344 128.503906 200.382812 127.746094 190.238281 C 127.542969 187.507812 126.621094 182.992188 129.019531 182.613281 C 129.21875 193.125 131.050781 203.710938 136.667969 210.570312 C 137.976562 212.164062 139.792969 213.175781 141.128906 214.699219 C 140.902344 216.550781 139.089844 217.097656 138.898438 219.464844 C 138.628906 222.789062 140.933594 227.074219 143.039062 226.773438 C 146.097656 226.332031 144.242188 222.386719 144.953125 219.785156 C 147.675781 220.570312 147.636719 224.558594 150.371094 225.820312 C 152.269531 226.695312 156.125 227.007812 157.058594 224.863281 C 157.125 220.988281 152.796875 221.496094 151.960938 218.511719 C 153.320312 217.203125 154.765625 219.511719 157.058594 219.785156 C 160.503906 220.1875 165.050781 218.390625 164.707031 215.96875 C 164.210938 212.441406 158.542969 215.417969 156.105469 213.746094 C 157.097656 211.394531 161.261719 208.410156 158.652344 205.488281 C 156.136719 204.632812 155.210938 207.648438 152.917969 208.027344 C 145.253906 200.839844 141.75 188.546875 140.492188 175.945312 C 140.941406 175.488281 142.039062 176.015625 142.722656 176.261719 "/>
<path style=" stroke:none;fill-rule:evenodd;fill:rgb(0%,0%,0%);fill-opacity:1;" d="M 198.800781 189.285156 C 196.757812 190.320312 193.550781 190.195312 191.152344 190.875 C 191.335938 188.082031 197.878906 187.503906 198.800781 189.285156 "/>
<path style=" stroke:none;fill-rule:evenodd;fill:rgb(0%,0%,0%);fill-opacity:1;" d="M 195.933594 231.21875 C 193.699219 230.800781 189.550781 232.289062 189.242188 229.949219 C 191.25 230.585938 196.128906 227.734375 195.933594 231.21875 "/>
<path style=" stroke:none;fill-rule:evenodd;fill:rgb(0%,0%,0%);fill-opacity:1;" d="M 168.53125 266.164062 C 170.007812 267.972656 171.671875 269.597656 174.582031 269.976562 C 172.046875 272.363281 167.117188 269 168.53125 266.164062 "/>
<g clip-path="url(#clip1)" clip-rule="nonzero">
<path style=" stroke:none;fill-rule:evenodd;fill:rgb(0%,0%,0%);fill-opacity:1;" d="M 220.148438 160.375 C 219.660156 163.328125 221.550781 166.644531 220.148438 169.90625 C 215.652344 171.992188 209.898438 175.84375 205.171875 175.625 C 205.605469 178.234375 205.546875 181.363281 206.128906 184.519531 C 212.296875 181.988281 219.296875 180.28125 224.929688 177.214844 C 227.816406 178.570312 229.707031 180.921875 231.9375 182.933594 C 234.796875 180.101562 232.234375 175.574219 230.027344 174.035156 C 232.488281 172.566406 237.140625 174.980469 237.675781 171.496094 C 238.246094 167.75 232.433594 168.640625 229.390625 167.050781 C 230.050781 164.953125 232.367188 164.507812 232.894531 162.285156 C 232.222656 161.574219 231.832031 160.585938 230.34375 160.695312 C 228.738281 163.542969 227.425781 166.675781 223.652344 167.367188 C 221.683594 165.734375 223.507812 162.363281 222.378906 160.058594 C 221.273438 159.804688 221.152344 160.535156 220.148438 160.375 M 231.617188 158.472656 C 231.71875 159.539062 232.683594 159.738281 233.53125 160.058594 C 233.566406 158.984375 233.105469 157.636719 231.617188 158.472656 M 127.746094 131.785156 C 126.765625 126.9375 122.753906 123.421875 117.550781 123.84375 C 120.8125 126.625 123.925781 129.558594 127.746094 131.785156 M 115.320312 120.667969 C 119.179688 113.386719 113.644531 106.296875 105.125 107.324219 C 107.3125 112.980469 111.089844 117.046875 115.320312 120.667969 M 334.21875 98.746094 C 334.613281 102.90625 337.097656 104.984375 341.550781 105.101562 C 343.300781 102.402344 345.875 98.828125 345.367188 94.9375 C 342.972656 97.355469 338.546875 99.296875 334.21875 98.746094 M 249.144531 83.816406 C 243.367188 80.261719 230.691406 80.597656 224.929688 85.40625 C 222.546875 87.390625 222.625 90.390625 220.46875 92.074219 C 206.519531 90.28125 196.859375 98.164062 197.84375 113.359375 C 185.460938 116.519531 176.25 131.242188 181.277344 147.035156 C 180.4375 147.574219 178.546875 147.066406 177.769531 147.671875 C 176.871094 148.148438 176.414062 149.070312 175.222656 149.257812 C 171.167969 154.980469 167.324219 163.097656 167.257812 171.8125 C 167.199219 179.308594 171.171875 184.945312 174.265625 190.238281 C 163.261719 196.03125 169.1875 213.652344 172.671875 223.277344 C 164.992188 226.445312 159.101562 234.371094 163.433594 244.242188 C 155.269531 247.117188 149.171875 252.050781 146.542969 260.445312 C 149.589844 273.421875 143.71875 287.214844 137.625 295.386719 C 136.246094 297.238281 134.210938 299.152344 134.4375 300.792969 C 148.882812 301.746094 153.628906 293.027344 162.476562 288.402344 C 168.304688 295.617188 176.84375 300.125 180.640625 309.367188 C 185.164062 311.867188 190.164062 307.1875 194.019531 304.597656 C 197.707031 302.132812 202.191406 298.945312 205.492188 296.027344 C 206.816406 294.851562 208.390625 293.671875 208.996094 292.847656 C 209.597656 292.03125 209.445312 290.960938 209.949219 289.992188 C 210.71875 288.523438 213.375 287.21875 211.863281 285.542969 C 211.035156 283.96875 208.578125 285.828125 208.042969 284.90625 C 206.851562 283.6875 209.453125 282.855469 208.359375 281.730469 C 202.832031 277.214844 199.757812 286.21875 196.886719 289.351562 C 195.898438 289.636719 195.402344 290.417969 194.339844 290.625 C 193.3125 292.605469 191.140625 294.628906 189.242188 296.339844 C 187.527344 297.890625 185.210938 300.515625 183.1875 299.839844 C 183.457031 298.164062 185.769531 297.035156 187.328125 295.707031 C 188.964844 294.3125 190.992188 293.167969 191.792969 291.261719 C 188.769531 286.4375 184.492188 282.863281 182.871094 276.648438 C 194.046875 258.824219 210.71875 247.871094 208.679688 224.546875 C 208.328125 220.5625 207.277344 217.382812 206.765625 213.113281 C 205.796875 205.015625 204.914062 197.859375 204.535156 189.921875 C 204.304688 185.085938 204.457031 179.976562 203.578125 174.992188 C 203.113281 172.335938 202.476562 170.117188 202.941406 166.730469 C 206.128906 143.683594 209.328125 119.484375 220.148438 103.515625 C 228.984375 92.289062 248.417969 83.457031 266.351562 90.171875 C 263.882812 84.949219 256.734375 81.921875 249.144531 83.816406 M 322.75 75.875 C 322.136719 73.5 317.332031 71.511719 314.464844 72.699219 C 311.59375 73.886719 310.53125 78.1875 310.640625 81.910156 C 313.480469 90.367188 324.175781 81.410156 322.75 75.875 M 134.4375 84.769531 C 129.058594 74.753906 125.132812 65.816406 126.789062 53.003906 C 126.382812 52.984375 126.347656 52.59375 125.835938 52.683594 C 123.882812 54.554688 121.953125 56.441406 121.371094 59.675781 C 117.261719 64.296875 113.988281 67.789062 112.132812 74.605469 C 118.691406 81.1875 115.242188 95.53125 110.859375 101.925781 C 116.746094 102.222656 120.714844 104.574219 121.691406 111.136719 C 122.09375 113.828125 120.777344 117.179688 121.054688 120.03125 C 132.417969 120.878906 131.867188 133.605469 139.851562 137.820312 C 144.492188 134.359375 145.796875 127.074219 148.777344 121.300781 C 151.609375 115.808594 155.136719 110.382812 158.335938 105.738281 C 146.34375 103.160156 139.925781 94.992188 134.4375 84.769531 M 294.070312 57.765625 C 286.054688 49.273438 267.878906 43.539062 252.648438 42.203125 C 245.355469 41.5625 237.667969 40.695312 230.664062 42.515625 C 223.144531 44.476562 215.234375 48.46875 208.679688 52.367188 C 202 56.339844 196.046875 61.421875 190.515625 66.34375 C 178.769531 76.796875 169.371094 89.628906 162.15625 101.925781 C 162.347656 103.277344 161.929688 104.027344 161.839844 105.101562 C 157.625 108.800781 155.195312 113.8125 152.597656 119.078125 C 149.257812 125.855469 143.761719 135.039062 143.359375 142.589844 C 137.953125 144.324219 134.332031 140.519531 130.292969 138.457031 C 120.253906 133.324219 111.726562 125.777344 106.398438 117.492188 C 97.023438 108.410156 88.78125 98.207031 79.632812 88.898438 C 79.789062 87.898438 79.058594 87.78125 79.3125 86.675781 C 73.34375 80.34375 66.710938 74.671875 61.472656 67.617188 C 61.011719 79.441406 57.578125 88.304688 48.726562 91.761719 C 58.902344 98.246094 70.246094 111.164062 67.207031 126.703125 C 65.953125 133.105469 60.558594 137.375 57.328125 142.589844 C 75.078125 142.5 96.621094 151.582031 91.421875 173.402344 C 100.5625 168.058594 114.628906 168.667969 123.921875 171.8125 C 126.9375 183.378906 123.417969 192.117188 119.144531 200.402344 C 116.277344 205.953125 113.367188 211.605469 109.902344 215.96875 C 107.972656 218.402344 105.570312 220.515625 103.847656 222.957031 C 101.9375 225.671875 100.273438 228.09375 98.113281 230.265625 C 93.5625 232.554688 89.980469 234.886719 83.777344 234.714844 C 78.007812 234.550781 69.828125 232.800781 64.019531 234.078125 C 56.75 235.675781 49.574219 236.574219 44.265625 239.160156 C 34.710938 243.816406 29.378906 251.570312 28.015625 264.257812 C 27.375 270.199219 26.539062 276.601562 27.695312 283 C 28.398438 286.878906 31.488281 291.214844 33.433594 294.753906 C 35.714844 298.917969 37.484375 302.667969 40.441406 305.550781 C 45.054688 310.058594 54.613281 312.007812 62.109375 311.59375 C 70.378906 311.132812 76.042969 306.207031 80.269531 301.742188 C 84.550781 297.226562 89.933594 289.957031 88.234375 281.410156 C 87.4375 277.382812 85.886719 271.628906 80.589844 271.5625 C 80.285156 274.140625 82.773438 274.796875 83.136719 277.28125 C 84.253906 284.882812 72.835938 292.09375 67.207031 292.214844 C 64.492188 292.273438 62.171875 290.066406 59.878906 289.992188 C 54.09375 284.625 47.445312 279.136719 48.726562 269.023438 C 49.621094 261.945312 56.71875 254.828125 62.425781 252.820312 C 75.164062 248.34375 88.925781 252.390625 95.882812 261.398438 C 99.820312 266.496094 101.1875 271.992188 101.9375 279.1875 C 103.488281 294.09375 103.164062 308.054688 102.574219 322.710938 C 101.742188 324.175781 101.863281 324.660156 101.617188 326.519531 C 100.367188 326.757812 100.082031 327.957031 99.386719 328.746094 C 98.757812 329.449219 97.066406 328.125 96.199219 329.0625 C 97.394531 331.996094 101.386719 331.039062 104.484375 331.289062 C 111.085938 331.8125 117.902344 333.714844 122.648438 333.832031 C 122.527344 332.769531 120.835938 331.628906 122.011719 330.335938 C 124.4375 332.058594 126.15625 334.050781 130.292969 332.558594 C 131.324219 331.484375 128.546875 330.664062 130.292969 329.699219 C 132.34375 330.242188 137.148438 331.234375 136.988281 327.472656 C 136.886719 325.175781 132.027344 324.113281 128.703125 323.664062 C 126.933594 323.421875 125.949219 324.226562 124.878906 323.34375 C 122.859375 321.6875 124.558594 316.996094 124.558594 314.132812 C 124.558594 311.78125 123.355469 306.554688 124.878906 303.96875 C 129.988281 301.699219 132.667969 299.902344 136.03125 295.386719 C 142.359375 286.898438 147.964844 273.746094 144.632812 261.398438 C 146.003906 256.699219 147.859375 252.683594 151.640625 249.328125 C 153.3125 247.847656 160.714844 244.628906 161.203125 242.65625 C 161.570312 241.171875 159.964844 238.933594 159.925781 237.574219 C 159.714844 230.015625 165.566406 226.628906 170.441406 222.007812 C 169.753906 217.460938 166.671875 211.253906 165.980469 205.488281 C 165.113281 198.191406 168.628906 193.808594 171.714844 189.285156 C 161.699219 177.230469 166.164062 150.769531 179.046875 145.128906 C 175.824219 129.539062 184.253906 116.523438 196.253906 112.089844 C 196.898438 108.546875 196.527344 104.632812 197.523438 101.605469 C 200.214844 93.453125 211.976562 89.480469 219.832031 89.851562 C 222.824219 81.101562 239.222656 77.375 248.824219 81.910156 C 258.691406 80.457031 264.226562 83.894531 268.261719 89.535156 C 271.371094 93.878906 274.167969 99.921875 273.359375 105.738281 C 272.878906 109.207031 270.214844 112.964844 270.8125 116.855469 C 271.015625 118.1875 272.914062 119.601562 272.722656 120.984375 C 277.492188 123.972656 282.234375 127.339844 287.0625 130.515625 C 291.941406 133.730469 298.011719 135.136719 301.71875 139.726562 C 302.496094 140.300781 303.609375 139.28125 304.269531 140.363281 C 303.722656 142.519531 305.507812 143.945312 305.859375 146.082031 C 306.417969 149.460938 305.066406 153.160156 306.175781 156.246094 C 317 158.886719 329.550781 162.5625 338.996094 157.199219 C 341.644531 153.78125 342.363281 150.066406 343.457031 144.175781 C 344.480469 138.679688 345.882812 132.90625 346.328125 127.339844 C 347.039062 118.421875 342.804688 114.265625 342.183594 107.324219 C 335.703125 107.007812 331.890625 104.035156 332.304688 96.839844 C 328.660156 92.640625 322.917969 90.53125 319.878906 85.722656 C 313.066406 91.121094 305.46875 81.417969 310.640625 74.921875 C 309.421875 70.628906 305.035156 69.5 304.585938 64.4375 C 307.074219 61.519531 308.941406 57.976562 310.957031 54.59375 C 308.015625 53.726562 306.128906 52.332031 303.628906 52.683594 C 299.136719 53.320312 298.832031 58.003906 295.664062 60.308594 C 295.253906 59.414062 294.714844 58.449219 294.070312 57.765625 M 295.027344 53.003906 C 299.957031 45.738281 314.71875 48.980469 318.285156 56.175781 C 315.300781 57.25 308.738281 62.261719 309.367188 66.34375 C 309.90625 69.875 313 67.511719 315.417969 67.617188 C 323.78125 67.976562 331.460938 78.324219 324.339844 85.089844 C 327.519531 88.695312 331.632812 91.375 335.492188 94.300781 C 341.15625 93.0625 344.347656 89.363281 347.28125 85.40625 C 352.878906 87.242188 351.5625 92.574219 350.148438 98.429688 C 349.15625 102.558594 346.648438 106.738281 346.964844 110.183594 C 347.207031 112.808594 349.148438 115.421875 349.832031 118.125 C 351.226562 123.660156 351.0625 129.925781 350.148438 135.914062 C 348.753906 145.050781 347.222656 154.148438 342.503906 161.011719 C 335.664062 164.261719 329.851562 165.269531 320.199219 163.554688 C 313.648438 162.390625 303.335938 161.625 301.082031 156.566406 C 299.320312 152.609375 302.074219 146.039062 298.53125 142.269531 C 295.585938 139.136719 289.699219 137.15625 284.511719 133.691406 C 279.839844 130.574219 274.617188 127.589844 271.128906 124.796875 C 268.976562 123.070312 266.371094 119.09375 266.03125 115.585938 C 265.617188 111.289062 269.695312 104.582031 268.261719 100.019531 C 267.46875 97.488281 262.597656 93.53125 259.976562 92.710938 C 255.878906 91.429688 249.953125 92.070312 246.59375 92.710938 C 234.726562 94.980469 226.214844 102.742188 220.46875 112.089844 C 213.347656 128.183594 211.445312 149.476562 207.722656 168.953125 C 209.949219 169.160156 213.238281 167.679688 215.6875 167.050781 C 215.285156 162.566406 214.402344 158.070312 216.960938 155.292969 C 220.132812 153.738281 223.820312 155.417969 225.882812 156.882812 C 227.675781 156.792969 228.097656 154.820312 230.027344 154.339844 C 235.117188 153.074219 240.582031 158.164062 237.675781 164.507812 C 240.304688 166.304688 244.09375 170.523438 242.132812 174.992188 C 241.449219 176.554688 239.558594 177.121094 237.675781 177.847656 C 240.003906 180.609375 237.65625 185.988281 235.441406 188.015625 C 230.921875 188.820312 228.113281 186.578125 226.199219 183.886719 C 221.925781 185.808594 218.449219 186.027344 213.457031 186.742188 C 216.867188 204.117188 215.769531 224.351562 213.457031 238.527344 C 212.3125 245.53125 209.191406 252.144531 205.8125 255.679688 C 205.273438 256.242188 204.808594 257.113281 203.578125 256.949219 C 199.933594 264.332031 193.230469 268.65625 189.242188 275.695312 C 190.582031 279.125 192.867188 281.613281 194.65625 284.589844 C 196.921875 282.648438 198.558594 278.089844 201.667969 276.648438 C 203.742188 275.683594 207.652344 274.914062 209.949219 275.695312 C 211.925781 276.363281 211.824219 278.78125 213.777344 281.410156 C 214.820312 282.820312 217.277344 283.363281 217.28125 286.179688 C 217.285156 288.941406 214.605469 289.957031 214.730469 292.847656 C 211.246094 296.960938 206.519531 300.191406 201.351562 304.285156 C 197.617188 307.242188 193.839844 310.472656 190.515625 312.226562 C 186.105469 314.546875 181.417969 314.910156 176.816406 312.863281 C 173.960938 305.328125 167.863281 301.035156 163.113281 295.386719 C 158.433594 298.730469 152.796875 301.996094 145.910156 303.648438 C 140.792969 304.871094 133.476562 303.796875 129.019531 305.875 C 127.984375 309.875 129.78125 314.554688 128.0625 318.582031 C 132.667969 321.21875 141.070312 321.210938 141.445312 327.160156 C 141.617188 329.832031 139.503906 330.648438 139.21875 333.511719 C 136.347656 335.234375 128.316406 337.355469 123.601562 337.960938 C 118.875 338.566406 112.929688 336.777344 107.035156 335.734375 C 101.117188 334.695312 93.222656 336.148438 91.421875 331.605469 C 89.695312 327.253906 94.097656 323.238281 97.792969 323.34375 C 98.742188 303.9375 101.839844 275.722656 90.785156 262.988281 C 85.910156 257.371094 73.828125 251.363281 63.703125 256.632812 C 58.101562 259.546875 51.808594 266.84375 54.144531 275.378906 C 55.277344 279.527344 61.429688 286.964844 65.613281 287.765625 C 71.113281 288.816406 78.648438 283.269531 78.675781 279.507812 C 78.699219 276.375 75.152344 275.664062 75.171875 272.832031 C 75.21875 265.976562 86.484375 267.785156 89.828125 270.292969 C 93.101562 272.75 95.289062 279.335938 94.609375 285.859375 C 94.039062 291.289062 88.632812 299.074219 85.050781 303.332031 C 80.800781 308.382812 76.257812 311.34375 68.796875 313.496094 C 53.542969 317.902344 38.597656 313.085938 31.519531 302.0625 C 30.035156 299.75 28.492188 296.339844 27.058594 293.484375 C 23.835938 287.070312 22.449219 280.527344 22.597656 272.515625 C 22.808594 261.15625 26.175781 247.0625 32.792969 241.066406 C 34.859375 239.199219 37.90625 237.484375 40.441406 235.984375 C 47.988281 231.519531 60.515625 229.640625 71.027344 229.632812 C 75.6875 229.625 81.007812 231.554688 86.324219 230.902344 C 94.316406 229.917969 99.089844 222.289062 103.53125 216.289062 C 108.257812 209.898438 111.960938 202.082031 115.636719 194.050781 C 118.210938 188.429688 120.71875 183.5625 119.78125 177.214844 C 113.761719 175.09375 106.585938 172.691406 100.34375 174.035156 C 95.417969 175.097656 91.675781 179.242188 86.960938 179.121094 C 86.828125 172.492188 90.117188 167.875 86.960938 161.648438 C 81.492188 150.851562 64.253906 145.101562 50.316406 147.351562 C 50.316406 143.480469 53.847656 140.910156 56.054688 138.140625 C 58.371094 135.230469 60.226562 132.140625 62.425781 129.246094 C 65.898438 111.226562 53.195312 100.464844 42.351562 92.710938 C 43.738281 87.292969 49.378906 89 52.867188 85.089844 C 54.339844 83.4375 56.703125 76.378906 57.007812 73.652344 C 57.78125 66.859375 54.074219 60.40625 51.59375 56.496094 C 52.082031 54.316406 54.019531 51.390625 56.371094 51.414062 C 58.597656 51.433594 62.632812 56.414062 64.65625 58.71875 C 67.464844 61.914062 69.742188 64.207031 72.304688 66.664062 C 77.402344 71.542969 85.136719 77.398438 87.601562 82.230469 C 87.925781 82.867188 88.09375 84.664062 88.554688 85.722656 C 89.773438 88.539062 92.621094 90.640625 95.246094 93.984375 C 97.078125 96.320312 99.789062 102.457031 101.300781 102.558594 C 102.710938 102.65625 106.832031 95.351562 107.355469 93.664062 C 109.71875 86.027344 105.550781 78.609375 103.210938 73.96875 C 104.96875 70.773438 108.296875 69.53125 110.859375 66.664062 C 114.441406 62.652344 116.980469 56.683594 120.417969 52.050781 C 122.027344 49.878906 123.882812 47.210938 125.515625 45.058594 C 126.929688 43.203125 128.875 39.648438 131.886719 41.25 C 132.449219 49.113281 129.847656 62.121094 133.160156 71.425781 C 135.742188 78.675781 141.878906 89.636719 146.226562 94.617188 C 148.78125 97.546875 152.246094 99.746094 156.421875 100.65625 C 158.699219 97.628906 161.152344 94.78125 162.476562 90.804688 C 167.699219 84.683594 171.757812 77.398438 177.453125 71.746094 C 187.523438 64.335938 195.710938 54.777344 207.085938 48.238281 C 208.871094 47.207031 211.171875 46.429688 213.136719 45.378906 C 217.460938 43.070312 222.28125 40.339844 227.796875 38.710938 C 235.347656 36.472656 245.824219 36.226562 254.242188 35.847656 C 271.3125 38.101562 284.304688 44.421875 295.027344 53.003906 "/>
</g>
<g clip-path="url(#clip2)" clip-rule="nonzero">
<path style=" stroke:none;fill-rule:nonzero;fill:rgb(87.449646%,82.348633%,44.309998%);fill-opacity:1;" d="M 257.523438 135 C 241.617188 135 228.722656 147.804688 228.722656 163.589844 C 228.722656 179.371094 241.617188 192.175781 257.523438 192.175781 C 273.429688 192.175781 286.324219 179.371094 286.324219 163.589844 C 286.324219 147.804688 273.429688 135 257.523438 135 Z M 256.695312 170.988281 C 252.289062 170.988281 248.710938 167.433594 248.710938 163.058594 C 248.710938 158.6875 252.289062 155.132812 256.695312 155.132812 C 261.101562 155.132812 264.679688 158.6875 264.679688 163.058594 C 264.679688 167.433594 261.101562 170.988281 256.695312 170.988281 Z M 256.695312 170.988281 "/>
</g>
<path style=" stroke:none;fill-rule:nonzero;fill:rgb(100%,48.239136%,67.449951%);fill-opacity:1;" d="M 258.449219 134.605469 C 242.589844 133.378906 228.734375 145.140625 227.496094 160.886719 C 226.261719 176.632812 238.109375 190.386719 253.96875 191.609375 C 269.828125 192.835938 283.683594 181.066406 284.917969 165.328125 C 286.15625 149.59375 274.308594 135.828125 258.449219 134.605469 Z M 263.886719 170.519531 C 260.585938 171.648438 260.054688 170.144531 257.847656 172.511719 C 255.636719 174.878906 252.613281 171.742188 250.054688 171.203125 C 247.484375 170.664062 248.363281 166.085938 245.925781 164.753906 C 243.488281 163.421875 243.25 160.980469 245.960938 159.636719 C 248.675781 158.289062 247.113281 157.847656 249.816406 154.773438 C 252.515625 151.695312 255.734375 154.605469 259.035156 153.570312 C 260.980469 152.957031 264.222656 153.152344 265.339844 155.179688 C 266.117188 156.585938 265.664062 156.957031 265.652344 160.117188 C 265.628906 163.277344 267.210938 162.316406 267.558594 165.703125 C 267.90625 169.113281 267.1875 169.390625 263.886719 170.519531 Z M 263.886719 170.519531 "/>
<path style=" stroke:none;fill-rule:nonzero;fill:rgb(16.079712%,67.059326%,88.62915%);fill-opacity:1;" d="M 248.230469 185.605469 C 248.640625 185.402344 249.382812 185.183594 250.476562 185.078125 C 251.566406 184.96875 252.253906 184.980469 252.3125 185.425781 C 252.371094 185.867188 251.722656 185.953125 251.0625 186.121094 C 250.390625 186.289062 250.105469 186.289062 249.023438 186.503906 C 247.941406 186.710938 247.824219 185.808594 248.230469 185.605469 Z M 248.230469 185.605469 "/>
<path style=" stroke:none;fill-rule:nonzero;fill:rgb(16.079712%,67.059326%,88.62915%);fill-opacity:1;" d="M 234.304688 161.402344 C 234.375 160.945312 234.628906 160.226562 235.179688 159.289062 C 235.734375 158.351562 236.140625 157.800781 236.539062 158.003906 C 236.933594 158.207031 236.621094 158.785156 236.382812 159.421875 C 236.128906 160.058594 235.960938 160.296875 235.503906 161.28125 C 235.046875 162.277344 234.230469 161.859375 234.304688 161.402344 Z M 234.304688 161.402344 "/>
<path style=" stroke:none;fill-rule:nonzero;fill:rgb(16.079712%,67.059326%,88.62915%);fill-opacity:1;" d="M 272 179.804688 C 272.132812 180.246094 272.230469 181.003906 272.132812 182.085938 C 272.050781 183.167969 271.929688 183.839844 271.472656 183.828125 C 271.015625 183.816406 271.054688 183.167969 270.992188 182.484375 C 270.933594 181.796875 270.992188 181.523438 270.957031 180.429688 C 270.945312 179.324219 271.859375 179.359375 272 179.804688 Z M 272 179.804688 "/>
<path style=" stroke:none;fill-rule:nonzero;fill:rgb(16.079712%,67.059326%,88.62915%);fill-opacity:1;" d="M 251.089844 149.957031 C 251.449219 149.667969 252.132812 149.292969 253.164062 148.96875 C 254.199219 148.644531 254.882812 148.5 255.039062 148.921875 C 255.195312 149.34375 254.582031 149.558594 253.96875 149.871094 C 253.355469 150.183594 253.070312 150.242188 252.058594 150.675781 C 251.050781 151.109375 250.738281 150.242188 251.089844 149.957031 Z M 251.089844 149.957031 "/>
<path style=" stroke:none;fill-rule:nonzero;fill:rgb(16.079712%,67.059326%,88.62915%);fill-opacity:1;" d="M 275.675781 157.378906 C 276.132812 157.460938 276.851562 157.738281 277.777344 158.316406 C 278.699219 158.890625 279.242188 159.3125 279.027344 159.695312 C 278.808594 160.082031 278.246094 159.757812 277.609375 159.492188 C 276.972656 159.226562 276.746094 159.046875 275.761719 158.566406 C 274.773438 158.085938 275.21875 157.292969 275.675781 157.378906 Z M 275.675781 157.378906 "/>
<path style=" stroke:none;fill-rule:nonzero;fill:rgb(16.079712%,67.059326%,88.62915%);fill-opacity:1;" d="M 256.429688 139.242188 C 256.886719 139.324219 257.621094 139.589844 258.542969 140.167969 C 259.46875 140.742188 260.019531 141.152344 259.804688 141.546875 C 259.585938 141.929688 259.023438 141.621094 258.375 141.355469 C 257.738281 141.089844 257.511719 140.921875 256.515625 140.441406 C 255.53125 139.960938 255.972656 139.15625 256.429688 139.242188 Z M 256.429688 139.242188 "/>
<path style=" stroke:none;fill-rule:nonzero;fill:rgb(16.079712%,67.059326%,88.62915%);fill-opacity:1;" d="M 245.816406 173.125 C 245.710938 173.570312 245.386719 174.277344 244.75 175.15625 C 244.113281 176.03125 243.65625 176.546875 243.285156 176.308594 C 242.914062 176.066406 243.273438 175.527344 243.574219 174.914062 C 243.871094 174.300781 244.078125 174.085938 244.617188 173.136719 C 245.15625 172.175781 245.925781 172.679688 245.816406 173.125 Z M 245.816406 173.125 "/>
<path style=" stroke:none;fill-rule:nonzero;fill:rgb(85.099792%,87.838745%,12.939453%);fill-opacity:1;" d="M 269.289062 146.605469 C 269.660156 146.878906 270.175781 147.457031 270.742188 148.382812 C 271.304688 149.304688 271.59375 149.929688 271.222656 150.171875 C 270.847656 150.421875 270.488281 149.871094 270.042969 149.355469 C 269.601562 148.839844 269.480469 148.574219 268.808594 147.695312 C 268.136719 146.820312 268.917969 146.328125 269.289062 146.605469 Z M 269.289062 146.605469 "/>
<path style=" stroke:none;fill-rule:nonzero;fill:rgb(85.099792%,87.838745%,12.939453%);fill-opacity:1;" d="M 240.332031 146.039062 C 240.453125 145.59375 240.773438 144.898438 241.421875 144.035156 C 242.070312 143.167969 242.527344 142.652344 242.898438 142.90625 C 243.273438 143.15625 242.898438 143.683594 242.589844 144.296875 C 242.277344 144.910156 242.082031 145.113281 241.519531 146.0625 C 240.957031 147.011719 240.210938 146.484375 240.332031 146.039062 Z M 240.332031 146.039062 "/>
<path style=" stroke:none;fill-rule:nonzero;fill:rgb(85.099792%,87.838745%,12.939453%);fill-opacity:1;" d="M 260.871094 179.707031 C 261.125 179.324219 261.664062 178.769531 262.554688 178.144531 C 263.441406 177.523438 264.042969 177.183594 264.316406 177.546875 C 264.59375 177.90625 264.066406 178.289062 263.574219 178.769531 C 263.082031 179.25 262.828125 179.382812 262 180.105469 C 261.183594 180.8125 260.621094 180.09375 260.871094 179.707031 Z M 260.871094 179.707031 "/>
<path style=" stroke:none;fill-rule:nonzero;fill:rgb(85.099792%,87.838745%,12.939453%);fill-opacity:1;" d="M 236.308594 173.355469 C 236.511719 173.761719 236.730469 174.507812 236.824219 175.585938 C 236.921875 176.667969 236.921875 177.355469 236.464844 177.414062 C 236.007812 177.472656 235.9375 176.824219 235.769531 176.164062 C 235.601562 175.503906 235.601562 175.214844 235.398438 174.148438 C 235.191406 173.066406 236.105469 172.945312 236.308594 173.355469 Z M 236.308594 173.355469 "/>
<path style=" stroke:none;fill-rule:nonzero;fill:rgb(85.099792%,87.838745%,12.939453%);fill-opacity:1;" d="M 272.949219 166.289062 C 273.324219 166.566406 273.851562 167.132812 274.414062 168.058594 C 274.992188 168.980469 275.292969 169.59375 274.917969 169.847656 C 274.546875 170.097656 274.1875 169.558594 273.730469 169.042969 C 273.273438 168.523438 273.15625 168.261719 272.480469 167.394531 C 271.820312 166.53125 272.578125 166.015625 272.949219 166.289062 Z M 272.949219 166.289062 "/>
<path style=" stroke:none;fill-rule:nonzero;fill:rgb(0%,0%,0%);fill-opacity:1;" d="M 270.667969 150.113281 C 270.296875 150.113281 270.007812 149.761719 269.683594 149.367188 C 269.625 149.292969 269.566406 149.222656 269.503906 149.152344 C 269.242188 148.851562 269.085938 148.621094 268.890625 148.347656 C 268.734375 148.128906 268.554688 147.867188 268.269531 147.492188 C 267.847656 146.941406 267.945312 146.542969 268.039062 146.351562 C 268.160156 146.101562 268.425781 145.945312 268.699219 145.945312 C 268.84375 145.945312 268.976562 145.992188 269.085938 146.0625 C 269.359375 146.269531 269.914062 146.785156 270.597656 147.914062 C 271.054688 148.671875 271.628906 149.621094 271.003906 150.027344 C 270.898438 150.085938 270.789062 150.113281 270.667969 150.113281 Z M 268.6875 146.410156 C 268.617188 146.410156 268.507812 146.460938 268.460938 146.554688 C 268.386719 146.710938 268.449219 146.941406 268.640625 147.191406 C 268.929688 147.578125 269.121094 147.839844 269.277344 148.070312 C 269.480469 148.359375 269.625 148.550781 269.863281 148.839844 C 269.925781 148.910156 269.984375 148.984375 270.046875 149.054688 C 270.261719 149.308594 270.523438 149.632812 270.667969 149.632812 C 270.679688 149.632812 270.691406 149.632812 270.730469 149.605469 C 270.96875 149.453125 270.40625 148.527344 270.175781 148.140625 C 269.515625 147.035156 268.988281 146.582031 268.785156 146.4375 C 268.761719 146.410156 268.722656 146.410156 268.6875 146.410156 Z M 268.6875 146.410156 "/>
<path style=" stroke:none;fill-rule:nonzero;fill:rgb(0%,0%,0%);fill-opacity:1;" d="M 240.449219 146.460938 C 240.222656 146.460938 239.996094 146.351562 239.863281 146.171875 C 239.730469 146.003906 239.695312 145.800781 239.742188 145.621094 C 239.828125 145.296875 240.089844 144.585938 240.882812 143.527344 C 241.519531 142.675781 241.929688 142.242188 242.359375 142.242188 C 242.480469 142.242188 242.589844 142.28125 242.695312 142.351562 C 243.199219 142.6875 242.875 143.289062 242.601562 143.804688 C 242.550781 143.890625 242.515625 143.960938 242.46875 144.046875 C 242.289062 144.394531 242.144531 144.632812 241.953125 144.921875 C 241.808594 145.140625 241.640625 145.414062 241.398438 145.824219 C 241.050781 146.375 240.65625 146.460938 240.449219 146.460938 Z M 242.347656 142.710938 C 242.070312 142.710938 241.507812 143.480469 241.253906 143.804688 C 240.488281 144.839844 240.257812 145.5 240.199219 145.738281 C 240.1875 145.789062 240.199219 145.835938 240.234375 145.882812 C 240.28125 145.945312 240.367188 145.980469 240.453125 145.980469 C 240.617188 145.980469 240.8125 145.824219 240.96875 145.570312 C 241.207031 145.164062 241.386719 144.875 241.53125 144.65625 C 241.722656 144.371094 241.855469 144.152344 242.023438 143.828125 C 242.070312 143.746094 242.109375 143.660156 242.15625 143.578125 C 242.382812 143.144531 242.539062 142.832031 242.40625 142.746094 C 242.382812 142.710938 242.359375 142.710938 242.347656 142.710938 Z M 242.347656 142.710938 "/>
<path style=" stroke:none;fill-rule:nonzero;fill:rgb(0%,0%,0%);fill-opacity:1;" d="M 260.980469 180.285156 C 260.691406 180.285156 260.429688 180.140625 260.296875 179.886719 C 260.175781 179.671875 260.1875 179.40625 260.308594 179.214844 C 260.5 178.925781 260.96875 178.351562 262.0625 177.59375 C 262.78125 177.089844 263.273438 176.800781 263.65625 176.800781 C 263.863281 176.800781 264.03125 176.882812 264.152344 177.039062 C 264.523438 177.519531 264.03125 177.976562 263.585938 178.386719 C 263.515625 178.445312 263.453125 178.507812 263.382812 178.578125 C 263.09375 178.855469 262.878906 179.023438 262.613281 179.238281 C 262.410156 179.40625 262.15625 179.613281 261.796875 179.910156 C 261.53125 180.152344 261.246094 180.285156 260.980469 180.285156 Z M 263.671875 177.28125 C 263.394531 177.28125 262.867188 177.617188 262.347656 177.988281 C 261.292969 178.722656 260.859375 179.277344 260.730469 179.480469 C 260.691406 179.527344 260.703125 179.601562 260.730469 179.660156 C 260.753906 179.707031 260.824219 179.804688 260.992188 179.804688 C 261.101562 179.804688 261.269531 179.757812 261.507812 179.5625 C 261.867188 179.25 262.132812 179.046875 262.335938 178.878906 C 262.601562 178.664062 262.804688 178.507812 263.070312 178.242188 C 263.140625 178.171875 263.214844 178.109375 263.273438 178.050781 C 263.632812 177.714844 263.875 177.460938 263.789062 177.339844 C 263.753906 177.292969 263.730469 177.28125 263.671875 177.28125 Z M 263.671875 177.28125 "/>
<path style=" stroke:none;fill-rule:nonzero;fill:rgb(0%,0%,0%);fill-opacity:1;" d="M 236.058594 177.292969 C 235.527344 177.292969 235.386719 176.703125 235.253906 176.128906 C 235.230469 176.042969 235.203125 175.949219 235.179688 175.863281 C 235.085938 175.480469 235.035156 175.214844 234.988281 174.867188 C 234.953125 174.613281 234.894531 174.289062 234.808594 173.820312 C 234.699219 173.292969 234.84375 172.980469 234.988281 172.8125 C 235.132812 172.632812 235.347656 172.535156 235.578125 172.535156 C 235.839844 172.535156 236.070312 172.667969 236.175781 172.886719 C 236.332031 173.183594 236.609375 173.894531 236.730469 175.203125 C 236.8125 176.078125 236.910156 177.183594 236.164062 177.28125 C 236.117188 177.28125 236.09375 177.292969 236.058594 177.292969 Z M 235.566406 173.015625 C 235.515625 173.015625 235.421875 173.03125 235.347656 173.125 C 235.253906 173.246094 235.214844 173.460938 235.277344 173.738281 C 235.371094 174.207031 235.421875 174.53125 235.46875 174.796875 C 235.527344 175.132812 235.566406 175.382812 235.660156 175.742188 C 235.683594 175.839844 235.707031 175.925781 235.734375 176.019531 C 235.816406 176.367188 235.925781 176.8125 236.070312 176.8125 C 236.082031 176.8125 236.082031 176.8125 236.09375 176.8125 C 236.382812 176.777344 236.285156 175.707031 236.238281 175.25 C 236.128906 173.976562 235.851562 173.328125 235.746094 173.113281 C 235.707031 173.054688 235.636719 173.015625 235.566406 173.015625 Z M 235.566406 173.015625 "/>
<path style=" stroke:none;fill-rule:nonzero;fill:rgb(0%,0%,0%);fill-opacity:1;" d="M 274.367188 169.785156 C 274.007812 169.785156 273.707031 169.4375 273.371094 169.042969 C 273.308594 168.96875 273.25 168.898438 273.191406 168.824219 C 272.925781 168.523438 272.769531 168.308594 272.566406 168.019531 C 272.410156 167.804688 272.21875 167.539062 271.929688 167.167969 C 271.496094 166.613281 271.59375 166.21875 271.691406 166.015625 C 271.808594 165.761719 272.074219 165.59375 272.351562 165.59375 C 272.480469 165.59375 272.613281 165.628906 272.722656 165.714844 C 273 165.917969 273.5625 166.421875 274.257812 167.539062 C 274.726562 168.296875 275.316406 169.234375 274.691406 169.652344 C 274.59375 169.75 274.488281 169.785156 274.367188 169.785156 Z M 272.363281 166.097656 C 272.289062 166.097656 272.183594 166.148438 272.132812 166.242188 C 272.0625 166.398438 272.121094 166.640625 272.3125 166.878906 C 272.613281 167.261719 272.804688 167.527344 272.960938 167.742188 C 273.167969 168.019531 273.3125 168.222656 273.5625 168.511719 C 273.621094 168.585938 273.683594 168.65625 273.742188 168.730469 C 273.960938 168.980469 274.222656 169.292969 274.367188 169.292969 C 274.378906 169.292969 274.390625 169.292969 274.425781 169.269531 C 274.667969 169.113281 274.089844 168.199219 273.851562 167.804688 C 273.179688 166.710938 272.636719 166.253906 272.445312 166.109375 C 272.421875 166.109375 272.398438 166.097656 272.363281 166.097656 Z M 272.363281 166.097656 "/>
<path style=" stroke:none;fill-rule:nonzero;fill:rgb(0%,0%,0%);fill-opacity:1;" d="M 248.242188 186.648438 C 247.667969 186.648438 247.390625 186.324219 247.316406 186.027344 C 247.246094 185.714844 247.378906 185.390625 247.640625 185.257812 C 247.941406 185.101562 248.652344 184.824219 249.972656 184.703125 C 250.378906 184.667969 250.667969 184.65625 250.894531 184.65625 C 251.195312 184.65625 251.976562 184.65625 252.058594 185.257812 C 252.144531 185.855469 251.484375 186.011719 250.894531 186.15625 C 250.8125 186.179688 250.714844 186.207031 250.621094 186.230469 C 250.234375 186.324219 249.960938 186.375 249.625 186.433594 C 249.359375 186.46875 249.035156 186.53125 248.578125 186.613281 C 248.472656 186.636719 248.351562 186.648438 248.242188 186.648438 Z M 250.894531 185.148438 C 250.679688 185.148438 250.402344 185.160156 250.007812 185.195312 C 248.722656 185.316406 248.074219 185.582031 247.847656 185.699219 C 247.773438 185.738281 247.738281 185.832031 247.761719 185.929688 C 247.808594 186.132812 248.097656 186.230469 248.484375 186.15625 C 248.964844 186.0625 249.289062 186.011719 249.550781 185.964844 C 249.898438 185.90625 250.140625 185.867188 250.511719 185.773438 C 250.609375 185.75 250.703125 185.722656 250.789062 185.699219 C 251.269531 185.582031 251.605469 185.496094 251.582031 185.339844 C 251.582031 185.207031 251.339844 185.148438 250.894531 185.148438 Z M 250.894531 185.148438 "/>
<path style=" stroke:none;fill-rule:nonzero;fill:rgb(0%,0%,0%);fill-opacity:1;" d="M 234.304688 162.015625 C 234.089844 162.015625 233.882812 161.917969 233.738281 161.761719 C 233.621094 161.617188 233.558594 161.425781 233.582031 161.246094 C 233.632812 160.910156 233.824219 160.175781 234.496094 159.046875 C 235.0625 158.085938 235.433594 157.605469 235.890625 157.605469 C 235.984375 157.605469 236.082031 157.632812 236.164062 157.679688 C 236.707031 157.957031 236.441406 158.578125 236.226562 159.144531 C 236.1875 159.230469 236.152344 159.3125 236.117188 159.398438 C 235.972656 159.769531 235.851562 160.007812 235.695312 160.320312 C 235.578125 160.550781 235.433594 160.851562 235.242188 161.28125 C 234.929688 161.941406 234.484375 162.015625 234.304688 162.015625 Z M 235.878906 158.085938 C 235.613281 158.085938 235.109375 158.925781 234.90625 159.289062 C 234.257812 160.394531 234.101562 161.078125 234.0625 161.316406 C 234.050781 161.378906 234.089844 161.425781 234.113281 161.449219 C 234.160156 161.511719 234.230469 161.535156 234.316406 161.535156 C 234.496094 161.535156 234.675781 161.367188 234.808594 161.066406 C 235.011719 160.632812 235.15625 160.332031 235.277344 160.09375 C 235.433594 159.78125 235.542969 159.5625 235.671875 159.214844 C 235.710938 159.132812 235.746094 159.035156 235.78125 158.953125 C 235.960938 158.496094 236.082031 158.171875 235.949219 158.097656 C 235.914062 158.085938 235.890625 158.085938 235.878906 158.085938 Z M 235.878906 158.085938 "/>
<path style=" stroke:none;fill-rule:nonzero;fill:rgb(0%,0%,0%);fill-opacity:1;" d="M 271.015625 183.933594 L 270.992188 183.933594 C 270.394531 183.910156 270.34375 183.238281 270.308594 182.648438 C 270.296875 182.554688 270.296875 182.46875 270.285156 182.375 C 270.25 181.976562 270.25 181.699219 270.261719 181.363281 C 270.261719 181.101562 270.273438 180.777344 270.261719 180.308594 C 270.25 179.816406 270.417969 179.539062 270.550781 179.394531 C 270.691406 179.238281 270.898438 179.15625 271.101562 179.15625 C 271.414062 179.15625 271.679688 179.335938 271.761719 179.609375 C 271.859375 179.933594 272.015625 180.667969 271.90625 181.988281 C 271.820312 182.855469 271.738281 183.933594 271.015625 183.933594 Z M 271.089844 179.636719 C 271.042969 179.636719 270.957031 179.648438 270.886719 179.71875 C 270.777344 179.828125 270.71875 180.03125 270.730469 180.285156 C 270.742188 180.765625 270.742188 181.089844 270.730469 181.363281 C 270.730469 181.714844 270.71875 181.953125 270.753906 182.324219 C 270.765625 182.421875 270.765625 182.492188 270.777344 182.589844 C 270.8125 183.09375 270.847656 183.40625 271.003906 183.40625 L 271.015625 183.40625 C 271.292969 183.40625 271.390625 182.363281 271.425781 181.90625 C 271.535156 180.632812 271.367188 179.960938 271.292969 179.71875 C 271.269531 179.671875 271.183594 179.636719 271.089844 179.636719 Z M 271.089844 179.636719 "/>
<path style=" stroke:none;fill-rule:nonzero;fill:rgb(0%,0%,0%);fill-opacity:1;" d="M 251.0625 150.902344 C 250.621094 150.902344 250.355469 150.640625 250.273438 150.386719 C 250.175781 150.113281 250.246094 149.8125 250.464844 149.644531 C 250.726562 149.425781 251.351562 149.007812 252.625 148.609375 C 253.238281 148.417969 253.71875 148.285156 254.078125 148.285156 C 254.535156 148.285156 254.714844 148.515625 254.785156 148.695312 C 255.003906 149.257812 254.390625 149.558594 253.847656 149.824219 C 253.765625 149.859375 253.679688 149.90625 253.597656 149.945312 C 253.238281 150.125 252.984375 150.21875 252.660156 150.351562 C 252.421875 150.449219 252.109375 150.566406 251.675781 150.761719 C 251.460938 150.855469 251.257812 150.902344 251.0625 150.902344 Z M 254.066406 148.777344 C 253.753906 148.777344 253.25 148.921875 252.757812 149.078125 C 251.519531 149.464844 250.945312 149.871094 250.765625 150.027344 C 250.714844 150.074219 250.691406 150.160156 250.726562 150.242188 C 250.75 150.304688 250.824219 150.4375 251.0625 150.4375 C 251.183594 150.4375 251.328125 150.398438 251.484375 150.339844 C 251.929688 150.148438 252.242188 150.027344 252.480469 149.929688 C 252.804688 149.800781 253.03125 149.714844 253.371094 149.546875 C 253.453125 149.5 253.539062 149.464844 253.621094 149.414062 C 254.066406 149.199219 254.378906 149.03125 254.316406 148.886719 C 254.316406 148.839844 254.292969 148.777344 254.066406 148.777344 Z M 254.066406 148.777344 "/>
<path style=" stroke:none;fill-rule:nonzero;fill:rgb(0%,0%,0%);fill-opacity:1;" d="M 278.222656 159.996094 C 277.945312 159.996094 277.644531 159.863281 277.285156 159.707031 C 277.199219 159.671875 277.117188 159.636719 277.03125 159.601562 C 276.660156 159.445312 276.417969 159.3125 276.121094 159.15625 C 275.890625 159.035156 275.601562 158.878906 275.171875 158.664062 C 274.378906 158.265625 274.4375 157.726562 274.476562 157.570312 C 274.546875 157.246094 274.835938 157.019531 275.136719 157.019531 C 275.171875 157.019531 275.207031 157.019531 275.242188 157.03125 C 275.578125 157.089844 276.3125 157.292969 277.429688 158.003906 C 278.21875 158.507812 279.121094 159.074219 278.75 159.710938 C 278.664062 159.839844 278.507812 159.996094 278.222656 159.996094 Z M 275.125 157.488281 C 275.039062 157.488281 274.941406 157.570312 274.917969 157.667969 C 274.871094 157.859375 275.039062 158.0625 275.363281 158.21875 C 275.796875 158.433594 276.082031 158.589844 276.324219 158.710938 C 276.625 158.878906 276.851562 158.988281 277.199219 159.144531 C 277.285156 159.179688 277.378906 159.214844 277.464844 159.253906 C 277.753906 159.382812 278.039062 159.503906 278.207031 159.503906 C 278.28125 159.503906 278.304688 159.480469 278.328125 159.445312 C 278.472656 159.203125 277.558594 158.628906 277.164062 158.375 C 276.070312 157.691406 275.386719 157.511719 275.148438 157.460938 C 275.148438 157.488281 275.136719 157.488281 275.125 157.488281 Z M 275.125 157.488281 "/>
<path style=" stroke:none;fill-rule:nonzero;fill:rgb(0%,0%,0%);fill-opacity:1;" d="M 258.988281 141.835938 C 258.710938 141.835938 258.410156 141.703125 258.050781 141.546875 C 257.96875 141.511719 257.882812 141.476562 257.800781 141.441406 C 257.425781 141.285156 257.1875 141.164062 256.886719 140.996094 C 256.660156 140.875 256.359375 140.71875 255.9375 140.515625 C 255.132812 140.128906 255.195312 139.578125 255.230469 139.421875 C 255.300781 139.097656 255.578125 138.855469 255.890625 138.855469 C 255.925781 138.855469 255.960938 138.855469 256 138.871094 C 256.335938 138.929688 257.066406 139.132812 258.195312 139.832031 C 258.988281 140.324219 259.898438 140.875 259.527344 141.523438 C 259.445312 141.679688 259.289062 141.835938 258.988281 141.835938 Z M 255.890625 139.347656 C 255.804688 139.347656 255.722656 139.433594 255.699219 139.53125 C 255.648438 139.722656 255.816406 139.925781 256.140625 140.082031 C 256.574219 140.285156 256.875 140.441406 257.101562 140.574219 C 257.414062 140.730469 257.632812 140.851562 257.980469 140.996094 C 258.0625 141.03125 258.160156 141.066406 258.242188 141.101562 C 258.53125 141.222656 258.820312 141.34375 258.988281 141.34375 C 259.070312 141.34375 259.082031 141.320312 259.109375 141.28125 C 259.238281 141.042969 258.328125 140.464844 257.929688 140.226562 C 256.839844 139.554688 256.15625 139.375 255.902344 139.335938 C 255.902344 139.359375 255.902344 139.347656 255.890625 139.347656 Z M 255.890625 139.347656 "/>
<path style=" stroke:none;fill-rule:nonzero;fill:rgb(0%,0%,0%);fill-opacity:1;" d="M 242.996094 176.476562 C 242.875 176.476562 242.769531 176.441406 242.671875 176.378906 C 242.167969 176.054688 242.480469 175.457031 242.757812 174.914062 C 242.792969 174.832031 242.839844 174.746094 242.886719 174.664062 C 243.066406 174.300781 243.210938 174.074219 243.390625 173.785156 C 243.535156 173.558594 243.703125 173.28125 243.933594 172.871094 C 244.257812 172.296875 244.652344 172.210938 244.855469 172.210938 C 245.085938 172.210938 245.3125 172.320312 245.445312 172.5 C 245.578125 172.65625 245.613281 172.859375 245.566406 173.054688 C 245.480469 173.378906 245.230469 174.097656 244.460938 175.167969 C 243.835938 176.042969 243.441406 176.476562 242.996094 176.476562 Z M 244.855469 172.703125 C 244.6875 172.703125 244.496094 172.859375 244.339844 173.125 C 244.101562 173.546875 243.933594 173.820312 243.789062 174.050781 C 243.609375 174.339844 243.476562 174.554688 243.308594 174.890625 C 243.261719 174.976562 243.222656 175.058594 243.175781 175.144531 C 242.949219 175.574219 242.804688 175.886719 242.9375 175.972656 C 242.960938 175.996094 242.984375 175.996094 243.007812 175.996094 C 243.285156 175.996094 243.847656 175.214844 244.089844 174.878906 C 244.84375 173.832031 245.0625 173.171875 245.121094 172.933594 C 245.132812 172.886719 245.121094 172.835938 245.085938 172.789062 C 245.011719 172.742188 244.941406 172.703125 244.855469 172.703125 Z M 244.855469 172.703125 "/>
<path style=" stroke:none;fill-rule:nonzero;fill:rgb(0%,0%,0%);fill-opacity:1;" d="M 256.71875 191.886719 C 256.285156 191.886719 255.867188 191.875 255.433594 191.863281 C 247.691406 191.527344 240.535156 188.222656 235.289062 182.542969 C 230.054688 176.859375 227.351562 169.496094 227.6875 161.8125 C 228.011719 154.339844 231.195312 147.371094 236.644531 142.21875 C 242.070312 137.066406 249.191406 134.234375 256.683594 134.234375 C 257.101562 134.234375 257.535156 134.246094 257.96875 134.257812 C 265.710938 134.59375 272.867188 137.894531 278.101562 143.578125 C 283.347656 149.257812 286.046875 156.621094 285.710938 164.308594 C 285.386719 171.78125 282.207031 178.746094 276.757812 183.910156 C 271.328125 189.050781 264.210938 191.886719 256.71875 191.886719 Z M 256.683594 134.714844 C 249.3125 134.714844 242.3125 137.5 236.96875 142.566406 C 231.613281 147.648438 228.480469 154.484375 228.167969 161.835938 C 227.832031 169.402344 230.5 176.644531 235.648438 182.21875 C 240.800781 187.804688 247.847656 191.058594 255.457031 191.382812 C 255.878906 191.40625 256.296875 191.40625 256.71875 191.40625 C 264.089844 191.40625 271.089844 188.621094 276.421875 183.550781 C 281.773438 178.46875 284.90625 171.636719 285.21875 164.285156 C 285.554688 156.71875 282.890625 149.476562 277.742188 143.902344 C 272.589844 138.316406 265.542969 135.0625 257.929688 134.738281 C 257.523438 134.714844 257.089844 134.714844 256.683594 134.714844 Z M 256.632812 173.992188 C 254.582031 173.992188 252.203125 172.742188 250.679688 171.5625 C 249.625 170.746094 249.132812 169.558594 248.652344 168.417969 C 248.121094 167.132812 247.617188 165.917969 246.371094 165.28125 C 245.023438 164.609375 244.246094 163.589844 244.234375 162.484375 C 244.222656 161.414062 244.929688 160.441406 246.226562 159.746094 C 247.617188 159 247.773438 158.578125 248.0625 157.808594 C 248.316406 157.160156 248.652344 156.261719 249.839844 154.820312 C 250.777344 153.679688 251.878906 153.164062 253.394531 153.164062 C 254.03125 153.164062 254.691406 153.246094 255.328125 153.332031 C 255.976562 153.414062 256.660156 153.511719 257.320312 153.511719 C 257.992188 153.511719 258.578125 153.414062 259.121094 153.222656 C 259.839844 152.96875 260.71875 152.824219 261.582031 152.824219 C 263.527344 152.824219 265.050781 153.511719 265.769531 154.722656 C 266.359375 155.71875 266.347656 156.261719 266.300781 157.449219 C 266.277344 158.027344 266.25 158.746094 266.289062 159.769531 C 266.324219 161.246094 266.828125 161.628906 267.390625 162.074219 C 268.003906 162.554688 268.699219 163.09375 268.941406 164.871094 C 269.3125 167.648438 267.992188 168.8125 266.816406 169.847656 C 266.492188 170.132812 266.179688 170.410156 265.902344 170.710938 C 265.265625 171.40625 264.308594 171.417969 263.296875 171.441406 C 262.039062 171.46875 260.621094 171.492188 259.480469 172.789062 C 258.773438 173.582031 257.824219 173.992188 256.632812 173.992188 Z M 253.40625 153.632812 C 252.046875 153.632812 251.0625 154.085938 250.222656 155.109375 C 249.082031 156.488281 248.757812 157.34375 248.53125 157.96875 C 248.21875 158.785156 248.015625 159.324219 246.464844 160.152344 C 245.335938 160.765625 244.714844 161.582031 244.726562 162.460938 C 244.738281 163.371094 245.421875 164.238281 246.597656 164.835938 C 248.003906 165.546875 248.566406 166.902344 249.105469 168.214844 C 249.5625 169.304688 250.019531 170.433594 250.980469 171.167969 C 252.445312 172.296875 254.703125 173.496094 256.648438 173.496094 C 257.691406 173.496094 258.519531 173.148438 259.132812 172.441406 C 260.40625 170.976562 262.011719 170.953125 263.296875 170.925781 C 264.246094 170.914062 265.0625 170.902344 265.554688 170.351562 C 265.84375 170.027344 266.179688 169.738281 266.503906 169.449219 C 267.691406 168.40625 268.808594 167.421875 268.472656 164.910156 C 268.257812 163.324219 267.667969 162.867188 267.101562 162.4375 C 266.492188 161.957031 265.855469 161.460938 265.808594 159.757812 C 265.78125 158.722656 265.808594 157.992188 265.820312 157.402344 C 265.855469 156.25 265.878906 155.804688 265.363281 154.941406 C 264.460938 153.4375 262.421875 153.28125 261.582031 153.28125 C 260.777344 153.28125 259.960938 153.414062 259.289062 153.65625 C 258.699219 153.859375 258.050781 153.96875 257.332031 153.96875 C 256.636719 153.96875 255.9375 153.871094 255.277344 153.789062 C 254.617188 153.714844 254.003906 153.632812 253.40625 153.632812 Z M 253.40625 153.632812 "/>
<path style=" stroke:none;fill-rule:nonzero;fill:rgb(0%,0%,0%);fill-opacity:1;" d="M 277.234375 142.605469 C 271.75 137.164062 264.460938 134.160156 256.707031 134.160156 C 248.949219 134.160156 241.664062 137.164062 236.175781 142.605469 C 230.679688 148.046875 227.664062 155.289062 227.664062 162.988281 C 227.664062 170.6875 230.679688 177.929688 236.164062 183.371094 C 241.652344 188.8125 248.9375 191.816406 256.695312 191.816406 C 264.449219 191.816406 271.738281 188.8125 277.222656 183.371094 C 282.710938 177.929688 285.734375 170.6875 285.734375 162.988281 C 285.734375 155.289062 282.722656 148.046875 277.234375 142.605469 Z M 276.898438 183.035156 C 271.507812 188.390625 264.332031 191.335938 256.707031 191.335938 C 249.082031 191.335938 241.902344 188.378906 236.511719 183.035156 C 231.109375 177.675781 228.144531 170.566406 228.144531 162.988281 C 228.144531 155.410156 231.109375 148.296875 236.5 142.941406 C 241.902344 137.597656 249.070312 134.640625 256.695312 134.640625 C 264.316406 134.640625 271.496094 137.59375 276.898438 142.941406 C 282.289062 148.296875 285.269531 155.410156 285.269531 162.988281 C 285.269531 170.566406 282.289062 177.675781 276.898438 183.035156 Z M 276.898438 183.035156 "/>
<path style=" stroke:none;fill-rule:nonzero;fill:rgb(0%,0%,0%);fill-opacity:1;" d="M 256.695312 155.058594 C 252.289062 155.058594 248.710938 158.617188 248.710938 162.988281 C 248.710938 167.359375 252.289062 170.914062 256.695312 170.914062 C 261.101562 170.914062 264.679688 167.359375 264.679688 162.988281 C 264.679688 158.617188 261.101562 155.058594 256.695312 155.058594 Z M 249.191406 162.988281 C 249.191406 158.878906 252.550781 155.539062 256.695312 155.539062 C 260.835938 155.539062 264.199219 158.878906 264.199219 162.988281 C 264.199219 167.097656 260.835938 170.433594 256.695312 170.433594 C 252.566406 170.433594 249.191406 167.097656 249.191406 162.988281 Z M 249.191406 162.988281 "/>
</g>
</svg>
