<?xml version="1.0" encoding="UTF-8"?>
<svg xmlns="http://www.w3.org/2000/svg" xmlns:xlink="http://www.w3.org/1999/xlink" width="375pt" height="374.999991pt" viewBox="0 0 375 374.999991" version="1.2">
<defs>
<clipPath id="clip1">
  <path d="M 17.074219 31.132812 L 356 31.132812 L 356 343.882812 L 17.074219 343.882812 Z M 17.074219 31.132812 "/>
</clipPath>
</defs>
<g id="surface1">
<path style=" stroke:none;fill-rule:evenodd;fill:rgb(91.758728%,16.468811%,16.468811%);fill-opacity:1;" d="M 138.648438 175.886719 C 139.945312 188.910156 143.542969 201.613281 151.421875 209.039062 C 153.777344 208.648438 154.730469 205.53125 157.316406 206.417969 C 159.996094 209.433594 155.71875 212.519531 154.699219 214.949219 C 157.203125 216.675781 163.027344 213.601562 163.539062 217.246094 C 163.890625 219.75 159.222656 221.601562 155.679688 221.1875 C 153.324219 220.90625 151.835938 218.519531 150.4375 219.875 C 151.296875 222.953125 155.746094 222.433594 155.679688 226.4375 C 154.71875 228.652344 150.753906 228.328125 148.804688 227.421875 C 145.996094 226.121094 146.035156 222 143.234375 221.1875 C 142.503906 223.875 144.410156 227.953125 141.269531 228.410156 C 139.105469 228.71875 136.730469 224.292969 137.011719 220.855469 C 137.210938 218.410156 139.070312 217.84375 139.304688 215.933594 C 137.929688 214.359375 136.0625 213.316406 134.71875 211.667969 C 128.945312 204.582031 127.0625 193.640625 126.859375 182.78125 C 124.394531 183.171875 125.339844 187.839844 125.546875 190.660156 C 126.324219 201.136719 131.4375 210.332031 136.683594 216.589844 C 134.097656 221.710938 136.292969 227.859375 139.960938 230.375 C 140.910156 230.015625 142.285156 230.082031 143.234375 229.722656 C 144.167969 229.015625 144.304688 227.511719 144.871094 226.4375 C 147.214844 230.921875 159.9375 231.394531 156.664062 223.152344 C 159.976562 222.734375 165.308594 221.089844 165.179688 217.246094 C 165.0625 213.808594 161.566406 214.105469 158.625 213.308594 C 160.101562 210.1875 161.207031 205.285156 157.316406 204.445312 C 154.433594 203.820312 153.460938 206.117188 151.421875 206.417969 C 145.113281 199.496094 140.804688 187.453125 140.941406 176.214844 C 140.242188 175.960938 139.113281 175.417969 138.648438 175.886719 M 341.382812 121.074219 C 342.289062 124.382812 341.242188 128.652344 342.363281 132.234375 C 349.160156 135.105469 347.671875 123.011719 345.964844 120.414062 C 344.386719 119.941406 342.480469 120.1875 341.382812 121.074219 M 333.519531 120.414062 C 332.042969 124.308594 331.074219 132.371094 333.847656 135.84375 C 339.96875 135.574219 339.414062 119.429688 333.519531 120.414062 M 75.4375 116.476562 C 74.851562 118.019531 70.652344 119.257812 72.164062 120.746094 C 73.445312 118.304688 78.390625 116.703125 81.664062 115.164062 C 79.738281 113.320312 77.832031 116.65625 75.4375 116.476562 M 61.027344 80.371094 C 61.589844 82.105469 62.453125 83.535156 62.664062 85.621094 C 71.601562 100.957031 80.902344 115.921875 94.109375 126.980469 C 90.199219 131.054688 85.273438 134.101562 82.316406 139.125 C 84.675781 139.042969 86.492188 135.683594 87.882812 133.546875 C 88.957031 134.210938 89.683594 132.203125 90.503906 131.574219 C 92.589844 130.710938 93.953125 129.125 96.070312 128.292969 C 101.152344 133.816406 107.996094 137.570312 113.429688 142.734375 C 111.839844 142.457031 111.847656 143.773438 110.808594 144.046875 C 108.855469 147.292969 106.144531 149.460938 103.605469 152.253906 C 101.945312 154.085938 98.925781 156.257812 100.003906 158.820312 C 101.789062 157.542969 103.328125 153.179688 105.898438 151.597656 C 108.121094 149.234375 110.582031 147.105469 113.101562 145.035156 C 113.816406 144.417969 114.011719 143.515625 114.085938 143.066406 C 119.859375 146.691406 126.976562 150.707031 133.734375 152.253906 C 134.382812 149.46875 131.011719 149.703125 129.804688 149.300781 C 124.023438 147.375 120.261719 145.050781 115.722656 142.082031 C 108.339844 137.246094 100.820312 131.078125 94.761719 125.339844 C 89.652344 120.5 84.253906 115.890625 80.023438 110.566406 C 76.984375 106.746094 75.21875 102.503906 72.492188 98.097656 C 71.085938 95.820312 68.953125 94.175781 67.578125 91.859375 C 65.367188 88.125 63.238281 83.738281 62.335938 79.054688 L 61.355469 79.054688 C 61.253906 79.503906 60.886719 79.683594 61.027344 80.371094 M 284.390625 84.636719 C 285.128906 88.386719 290.640625 92.484375 295.527344 91.859375 C 299.851562 91.308594 303.789062 84.65625 302.734375 79.054688 C 302.246094 76.480469 299.71875 74.945312 299.457031 72.492188 C 290.402344 69.800781 282.875 76.921875 284.390625 84.636719 M 276.535156 59.363281 C 272.796875 56.8125 263.742188 54.265625 259.828125 53.128906 C 259.574219 53.195312 259.449219 53.402344 259.5 53.78125 C 263.59375 59.753906 260.753906 73.808594 270.308594 73.804688 C 270.808594 72.882812 270.199219 72.460938 270.636719 71.179688 C 265.203125 69.953125 264.457031 62.277344 264.414062 56.734375 C 268.226562 58.058594 271.835938 59.582031 275.222656 61.332031 C 276.609375 63.042969 278.097656 66.273438 280.136719 66.253906 C 281.949219 63.800781 278.726562 60.859375 276.535156 59.363281 M 298.152344 56.410156 C 301.40625 54.027344 301.71875 49.1875 306.335938 48.53125 C 308.902344 48.164062 310.847656 49.609375 313.871094 50.5 C 311.796875 54.003906 309.878906 57.660156 307.320312 60.675781 C 307.78125 65.90625 312.289062 67.070312 313.542969 71.507812 C 308.226562 78.21875 316.039062 88.246094 323.039062 82.667969 C 326.160156 87.636719 332.066406 89.816406 335.8125 94.15625 C 335.386719 101.589844 339.300781 104.664062 345.964844 104.988281 C 346.605469 112.160156 350.957031 116.453125 350.226562 125.667969 C 349.765625 131.421875 348.328125 137.382812 347.277344 143.066406 C 346.148438 149.152344 345.410156 152.992188 342.6875 156.523438 C 332.984375 162.0625 320.082031 158.261719 308.953125 155.539062 C 307.816406 152.347656 309.203125 148.523438 308.628906 145.035156 C 308.265625 142.824219 306.433594 141.351562 306.992188 139.125 C 306.316406 138.007812 305.167969 139.0625 304.371094 138.46875 C 300.5625 133.726562 294.324219 132.273438 289.304688 128.949219 C 284.347656 125.667969 279.472656 122.1875 274.566406 119.101562 C 274.765625 117.671875 272.8125 116.210938 272.601562 114.835938 C 271.992188 110.816406 274.726562 106.929688 275.222656 103.347656 C 276.054688 97.339844 273.175781 91.097656 269.984375 86.605469 C 265.835938 80.777344 260.144531 77.226562 250.003906 78.730469 C 240.132812 74.042969 223.28125 77.890625 220.199219 86.933594 C 212.128906 86.550781 200.039062 90.652344 197.273438 99.082031 C 196.25 102.207031 196.632812 106.253906 195.964844 109.914062 C 183.628906 114.492188 174.96875 127.941406 178.277344 144.046875 C 165.039062 149.878906 160.449219 177.21875 170.746094 189.675781 C 167.570312 194.347656 163.957031 198.875 164.851562 206.417969 C 165.558594 212.375 168.726562 218.789062 169.433594 223.484375 C 164.421875 228.257812 158.40625 231.757812 158.625 239.566406 C 158.667969 240.972656 160.3125 243.289062 159.9375 244.820312 C 159.4375 246.855469 151.824219 250.183594 150.109375 251.710938 C 146.222656 255.179688 144.3125 259.332031 142.90625 264.183594 C 146.332031 276.945312 140.570312 290.535156 134.0625 299.304688 C 130.605469 303.96875 127.851562 305.828125 122.601562 308.171875 C 121.035156 310.84375 122.273438 316.242188 122.273438 318.671875 C 122.273438 321.632812 120.523438 326.480469 122.601562 328.191406 C 123.703125 329.101562 124.714844 328.273438 126.53125 328.519531 C 129.949219 328.984375 134.945312 330.082031 135.046875 332.457031 C 135.214844 336.34375 130.273438 335.320312 128.167969 334.757812 C 126.375 335.753906 129.226562 336.601562 128.167969 337.710938 C 123.917969 339.25 122.144531 337.191406 119.652344 335.414062 C 118.445312 336.753906 120.183594 337.929688 120.308594 339.023438 C 115.429688 338.910156 108.425781 336.941406 101.640625 336.398438 C 98.453125 336.144531 94.351562 337.128906 93.125 334.101562 C 94.015625 333.128906 95.753906 334.496094 96.398438 333.773438 C 97.113281 332.957031 97.40625 331.71875 98.691406 331.472656 C 98.941406 329.546875 98.820312 329.046875 99.675781 327.535156 C 100.28125 312.394531 100.613281 297.96875 99.019531 282.566406 C 98.25 275.128906 96.84375 269.453125 92.796875 264.183594 C 85.644531 254.878906 71.5 250.695312 58.40625 255.324219 C 52.539062 257.398438 45.246094 264.75 44.324219 272.0625 C 43.011719 282.511719 49.84375 288.183594 55.789062 293.726562 C 58.144531 293.804688 60.53125 296.085938 63.320312 296.023438 C 69.109375 295.898438 80.84375 288.449219 79.695312 280.597656 C 79.320312 278.027344 76.761719 277.351562 77.074219 274.6875 C 82.523438 274.757812 84.113281 280.699219 84.9375 284.863281 C 86.679688 293.691406 81.148438 301.203125 76.75 305.871094 C 72.402344 310.484375 66.582031 315.574219 58.082031 316.046875 C 50.375 316.476562 40.550781 314.460938 35.808594 309.808594 C 32.769531 306.828125 30.953125 302.953125 28.605469 298.652344 C 26.609375 294.992188 23.429688 290.511719 22.710938 286.507812 C 21.519531 279.894531 22.378906 273.277344 23.035156 267.136719 C 24.4375 254.03125 29.917969 246.015625 39.738281 241.207031 C 45.195312 238.535156 52.570312 237.609375 60.046875 235.957031 C 66.015625 234.636719 74.425781 236.445312 80.351562 236.613281 C 86.726562 236.792969 90.410156 234.382812 95.089844 232.019531 C 97.3125 229.773438 99.019531 227.269531 100.984375 224.46875 C 102.753906 221.941406 105.222656 219.757812 107.207031 217.246094 C 110.769531 212.738281 113.761719 206.894531 116.707031 201.160156 C 121.101562 192.601562 124.71875 183.570312 121.617188 171.621094 C 112.066406 168.371094 97.605469 167.742188 88.210938 173.261719 C 93.554688 150.714844 71.410156 141.332031 53.167969 141.425781 C 56.488281 136.039062 62.03125 131.625 63.320312 125.011719 C 66.445312 108.953125 54.785156 95.609375 44.324219 88.90625 C 53.425781 85.332031 56.953125 76.175781 57.425781 63.957031 C 62.8125 71.25 69.632812 77.109375 75.765625 83.652344 C 75.503906 84.792969 76.253906 84.914062 76.09375 85.949219 C 85.496094 95.566406 93.96875 106.109375 103.605469 115.492188 C 109.082031 124.058594 117.847656 131.851562 128.167969 137.15625 C 132.320312 139.289062 136.042969 143.214844 141.597656 141.425781 C 142.011719 133.625 147.660156 124.136719 151.09375 117.132812 C 153.761719 111.691406 156.261719 106.515625 160.59375 102.6875 C 160.683594 101.578125 161.113281 100.804688 160.917969 99.410156 C 168.335938 86.703125 177.996094 73.445312 190.070312 62.640625 C 195.753906 57.558594 201.875 52.304688 208.738281 48.203125 C 215.476562 44.171875 223.605469 40.046875 231.335938 38.027344 C 238.535156 36.144531 246.4375 37.039062 253.933594 37.699219 C 269.589844 39.078125 288.273438 45.007812 296.511719 53.78125 C 297.171875 54.488281 297.726562 55.480469 298.152344 56.410156 "/>
<path style=" stroke:none;fill-rule:evenodd;fill:rgb(91.758728%,16.468811%,16.468811%);fill-opacity:1;" d="M 119.980469 64.941406 C 120.183594 72.199219 122.097656 76.34375 124.566406 82.011719 C 128.277344 90.535156 131.449219 96.363281 137.339844 102.035156 C 140.027344 104.621094 143.332031 108.304688 147.164062 108.269531 C 146.890625 106.027344 144.695312 105.710938 142.90625 104.988281 C 131.660156 95.476562 122.90625 82.066406 121.289062 63.957031 L 120.308594 63.957031 C 120.289062 64.375 119.890625 64.414062 119.980469 64.941406 M 156.992188 103.347656 C 153.703125 108.148438 150.078125 113.753906 147.164062 119.429688 C 144.105469 125.394531 142.761719 132.921875 137.996094 136.5 C 129.785156 132.140625 130.351562 118.992188 118.671875 118.117188 C 118.382812 115.167969 119.738281 111.707031 119.324219 108.925781 C 118.320312 102.144531 114.242188 99.71875 108.191406 99.410156 C 112.695312 92.800781 116.242188 77.980469 109.5 71.179688 C 111.40625 64.136719 114.773438 60.527344 119 55.753906 C 119.59375 52.410156 121.578125 50.460938 123.585938 48.53125 C 124.113281 48.4375 124.144531 48.839844 124.566406 48.859375 C 122.863281 62.097656 126.898438 71.335938 132.425781 81.683594 C 138.070312 92.246094 144.664062 100.683594 156.992188 103.347656 "/>
<path style=" stroke:none;fill-rule:evenodd;fill:rgb(0%,0%,0%);fill-opacity:1;" d="M 280.136719 66.257812 C 278.097656 66.273438 276.609375 63.042969 275.222656 61.332031 C 271.835938 59.582031 268.226562 58.058594 264.414062 56.738281 C 264.457031 62.277344 265.203125 69.949219 270.636719 71.179688 C 270.199219 72.460938 270.808594 72.882812 270.308594 73.804688 C 260.757812 73.808594 263.59375 59.753906 259.5 53.78125 C 259.449219 53.402344 259.574219 53.195312 259.828125 53.128906 C 263.742188 54.265625 272.796875 56.8125 276.535156 59.363281 C 278.726562 60.859375 281.949219 63.804688 280.136719 66.257812 "/>
<path style=" stroke:none;fill-rule:evenodd;fill:rgb(0%,0%,0%);fill-opacity:1;" d="M 120.308594 63.957031 L 121.292969 63.957031 C 122.90625 82.066406 131.660156 95.476562 142.90625 104.988281 C 144.695312 105.710938 146.890625 106.027344 147.164062 108.269531 C 143.332031 108.304688 140.027344 104.621094 137.339844 102.035156 C 131.449219 96.363281 128.277344 90.535156 124.566406 82.011719 C 122.097656 76.34375 120.183594 72.199219 119.980469 64.941406 C 119.890625 64.414062 120.289062 64.375 120.308594 63.957031 "/>
<path style=" stroke:none;fill-rule:evenodd;fill:rgb(100%,100%,100%);fill-opacity:1;" d="M 318.457031 76.429688 C 319.101562 76.882812 320.324219 76.746094 321.074219 77.085938 C 324.570312 74.484375 317.53125 71.046875 318.457031 76.429688 M 313.542969 78.730469 C 313.429688 74.882812 314.523438 70.4375 317.472656 69.210938 C 320.421875 67.984375 325.359375 70.035156 325.988281 72.492188 C 327.457031 78.210938 316.460938 87.46875 313.542969 78.730469 "/>
<path style=" stroke:none;fill-rule:evenodd;fill:rgb(0%,0%,0%);fill-opacity:1;" d="M 286.03125 84.308594 C 286.753906 87.511719 291.988281 90.527344 295.527344 89.890625 C 302.992188 88.542969 302.796875 71.933594 292.910156 73.804688 C 288.363281 74.664062 284.882812 79.234375 286.03125 84.308594 M 299.457031 72.492188 C 299.71875 74.945312 302.246094 76.480469 302.734375 79.054688 C 303.789062 84.65625 299.851562 91.308594 295.527344 91.855469 C 290.640625 92.484375 285.128906 88.382812 284.390625 84.636719 C 282.875 76.921875 290.402344 69.800781 299.457031 72.492188 "/>
<path style=" stroke:none;fill-rule:evenodd;fill:rgb(100%,100%,100%);fill-opacity:1;" d="M 291.925781 82.011719 C 292.589844 83.324219 294.816406 84.042969 296.511719 83.324219 C 297.441406 78.96875 292.324219 78.339844 291.925781 82.011719 M 292.910156 73.804688 C 302.796875 71.933594 302.992188 88.542969 295.527344 89.890625 C 291.988281 90.527344 286.753906 87.511719 286.03125 84.308594 C 284.882812 79.234375 288.363281 74.664062 292.910156 73.804688 "/>
<path style=" stroke:none;fill-rule:evenodd;fill:rgb(0%,0%,0%);fill-opacity:1;" d="M 321.074219 77.085938 C 320.324219 76.746094 319.101562 76.882812 318.457031 76.429688 C 317.53125 71.046875 324.570312 74.484375 321.074219 77.085938 "/>
<path style=" stroke:none;fill-rule:evenodd;fill:rgb(100%,59.999084%,59.999084%);fill-opacity:1;" d="M 173.691406 273.046875 C 170.699219 272.65625 168.988281 270.980469 167.472656 269.109375 C 166.019531 272.039062 171.085938 275.515625 173.691406 273.046875 M 188.757812 231.691406 C 189.074219 234.109375 193.34375 232.570312 195.636719 233 C 195.839844 229.402344 190.824219 232.347656 188.757812 231.691406 M 190.722656 191.316406 C 193.191406 190.617188 196.484375 190.746094 198.585938 189.675781 C 197.636719 187.832031 190.910156 188.429688 190.722656 191.316406 M 189.742188 163.742188 C 189.640625 164.1875 189.273438 164.371094 189.414062 165.058594 C 191.628906 166.140625 194.851562 165.554688 196.945312 165.710938 L 196.945312 164.070312 C 195 163.859375 191.105469 164.148438 189.742188 163.742188 M 198.257812 133.875 C 198.003906 133.945312 197.875 134.148438 197.929688 134.53125 C 199.289062 136.011719 201.550781 136.589844 203.496094 137.484375 C 203.671875 134.527344 199.566406 134.261719 198.257812 133.875 M 268.019531 87.261719 C 249.585938 80.328125 229.609375 89.453125 220.527344 101.050781 C 209.40625 117.550781 206.121094 142.554688 202.84375 166.367188 C 202.359375 169.871094 203.015625 172.160156 203.496094 174.902344 C 204.402344 180.054688 204.242188 185.332031 204.480469 190.332031 C 204.867188 198.53125 205.777344 205.925781 206.773438 214.292969 C 207.296875 218.707031 208.378906 221.988281 208.738281 226.109375 C 210.835938 250.210938 193.699219 261.523438 182.210938 279.941406 C 183.878906 286.363281 188.273438 290.058594 191.378906 295.042969 C 190.558594 297.011719 188.476562 298.195312 186.792969 299.632812 C 185.191406 301.007812 182.8125 302.171875 182.535156 303.902344 C 184.613281 304.601562 186.996094 301.890625 188.757812 300.292969 C 190.710938 298.519531 192.941406 296.429688 194 294.382812 C 195.09375 294.167969 195.601562 293.363281 196.617188 293.070312 C 199.570312 289.832031 202.726562 280.527344 208.410156 285.195312 C 209.53125 286.351562 206.863281 287.214844 208.082031 288.476562 C 208.636719 289.425781 211.160156 287.507812 212.011719 289.132812 C 213.566406 290.863281 210.835938 292.214844 210.046875 293.726562 C 209.523438 294.730469 209.679688 295.835938 209.0625 296.679688 C 208.441406 297.535156 206.824219 298.75 205.460938 299.964844 C 202.070312 302.980469 197.460938 306.273438 193.671875 308.824219 C 189.707031 311.496094 184.566406 316.332031 179.917969 313.75 C 176.015625 304.199219 167.238281 299.542969 161.25 292.085938 C 152.15625 296.863281 147.277344 305.875 132.425781 304.886719 C 132.195312 303.191406 134.285156 301.214844 135.703125 299.304688 C 141.96875 290.859375 148 276.609375 144.871094 263.203125 C 147.570312 254.527344 153.839844 249.425781 162.230469 246.460938 C 157.777344 236.257812 163.832031 228.070312 171.726562 224.796875 C 168.144531 214.851562 162.050781 196.644531 173.367188 190.660156 C 170.183594 185.1875 166.101562 179.363281 166.160156 171.621094 C 166.230469 162.613281 170.179688 154.226562 174.347656 148.316406 C 175.574219 148.121094 176.042969 147.167969 176.96875 146.675781 C 177.765625 146.050781 179.707031 146.574219 180.570312 146.019531 C 175.40625 129.699219 184.871094 114.488281 197.601562 111.226562 C 196.589844 95.519531 206.519531 87.378906 220.855469 89.234375 C 223.074219 87.488281 222.996094 84.390625 225.441406 82.339844 C 231.363281 77.375 244.390625 77.023438 250.332031 80.699219 C 258.132812 78.738281 265.480469 81.871094 268.019531 87.261719 "/>
<path style=" stroke:none;fill-rule:evenodd;fill:rgb(0%,0%,0%);fill-opacity:1;" d="M 61.355469 79.054688 L 62.339844 79.054688 C 63.238281 83.738281 65.367188 88.125 67.578125 91.859375 C 68.953125 94.175781 71.085938 95.824219 72.492188 98.09375 C 75.21875 102.503906 76.984375 106.746094 80.023438 110.566406 C 84.253906 115.894531 89.652344 120.5 94.761719 125.339844 C 100.820312 131.078125 108.339844 137.246094 115.722656 142.082031 C 120.261719 145.050781 124.027344 147.375 129.804688 149.300781 C 131.011719 149.703125 134.382812 149.46875 133.738281 152.253906 C 126.976562 150.707031 119.859375 146.691406 114.085938 143.0625 C 114.011719 143.515625 113.816406 144.417969 113.101562 145.03125 C 110.582031 147.105469 108.121094 149.234375 105.898438 151.597656 C 103.324219 153.179688 101.789062 157.542969 100.003906 158.820312 C 98.925781 156.261719 101.945312 154.085938 103.605469 152.253906 C 106.144531 149.460938 108.851562 147.296875 110.8125 144.046875 C 111.847656 143.777344 111.839844 142.457031 113.429688 142.734375 C 107.992188 137.570312 101.152344 133.816406 96.070312 128.292969 C 93.953125 129.125 92.589844 130.710938 90.503906 131.574219 C 89.683594 132.203125 88.957031 134.214844 87.882812 133.546875 C 86.492188 135.683594 84.679688 139.046875 82.316406 139.125 C 85.273438 134.101562 90.199219 131.054688 94.109375 126.980469 C 80.902344 115.921875 71.601562 100.953125 62.664062 85.621094 C 62.453125 83.539062 61.589844 82.105469 61.027344 80.371094 C 60.886719 79.6875 61.253906 79.5 61.355469 79.054688 "/>
<path style=" stroke:none;fill-rule:evenodd;fill:rgb(0%,0%,0%);fill-opacity:1;" d="M 296.511719 83.324219 C 294.816406 84.042969 292.589844 83.324219 291.925781 82.011719 C 292.324219 78.339844 297.441406 78.96875 296.511719 83.324219 "/>
<path style=" stroke:none;fill-rule:evenodd;fill:rgb(83.918762%,78.819275%,74.119568%);fill-opacity:1;" d="M 349.238281 92.1875 C 349.757812 96.207031 347.113281 99.898438 345.3125 102.6875 C 340.738281 102.570312 338.183594 100.421875 337.777344 96.125 C 342.226562 96.695312 346.777344 94.6875 349.238281 92.1875 "/>
<path style=" stroke:none;fill-rule:evenodd;fill:rgb(100%,100%,100%);fill-opacity:1;" d="M 102.296875 104.988281 C 111.050781 103.925781 116.746094 111.25 112.777344 118.773438 C 108.429688 115.03125 104.546875 110.828125 102.296875 104.988281 "/>
<path style=" stroke:none;fill-rule:evenodd;fill:rgb(0%,0%,0%);fill-opacity:1;" d="M 81.660156 115.164062 C 78.390625 116.703125 73.441406 118.304688 72.164062 120.742188 C 70.652344 119.261719 74.851562 118.019531 75.441406 116.476562 C 77.832031 116.65625 79.738281 113.320312 81.660156 115.164062 "/>
<path style=" stroke:none;fill-rule:evenodd;fill:rgb(0%,0%,0%);fill-opacity:1;" d="M 334.832031 133.875 C 337.042969 131.972656 336.488281 124.441406 334.503906 122.714844 L 333.847656 122.714844 C 334.324219 127.011719 332.71875 131.464844 334.832031 133.875 M 333.847656 135.84375 C 331.074219 132.371094 332.042969 124.308594 333.519531 120.414062 C 339.414062 119.429688 339.96875 135.574219 333.847656 135.84375 "/>
<path style=" stroke:none;fill-rule:evenodd;fill:rgb(0%,0%,0%);fill-opacity:1;" d="M 344.328125 130.921875 C 345.949219 129.175781 346.34375 123.625 344 122.386719 C 343.660156 125.027344 342.679688 129.082031 344.328125 130.921875 M 345.964844 120.414062 C 347.671875 123.011719 349.160156 135.105469 342.363281 132.234375 C 341.242188 128.652344 342.289062 124.378906 341.382812 121.070312 C 342.480469 120.191406 344.386719 119.941406 345.964844 120.414062 "/>
<path style=" stroke:none;fill-rule:evenodd;fill:rgb(100%,100%,100%);fill-opacity:1;" d="M 115.070312 122.054688 C 120.417969 121.621094 124.542969 125.253906 125.546875 130.261719 C 121.625 127.960938 118.421875 124.929688 115.070312 122.054688 "/>
<path style=" stroke:none;fill-rule:evenodd;fill:rgb(84.709167%,38.038635%,38.038635%);fill-opacity:1;" d="M 344 122.386719 C 346.34375 123.625 345.949219 129.175781 344.328125 130.921875 C 342.679688 129.085938 343.660156 125.027344 344 122.386719 "/>
<path style=" stroke:none;fill-rule:evenodd;fill:rgb(84.709167%,38.038635%,38.038635%);fill-opacity:1;" d="M 333.847656 122.714844 L 334.503906 122.714844 C 336.488281 124.441406 337.042969 131.976562 334.832031 133.875 C 332.71875 131.464844 334.324219 127.011719 333.847656 122.714844 "/>
<path style=" stroke:none;fill-rule:evenodd;fill:rgb(0%,0%,0%);fill-opacity:1;" d="M 203.496094 137.484375 C 201.550781 136.589844 199.289062 136.011719 197.929688 134.527344 C 197.875 134.148438 198.003906 133.945312 198.257812 133.875 C 199.566406 134.261719 203.671875 134.527344 203.496094 137.484375 "/>
<path style=" stroke:none;fill-rule:evenodd;fill:rgb(91.758728%,16.468811%,16.468811%);fill-opacity:1;" d="M 234.28125 159.476562 C 233.414062 159.144531 232.417969 158.9375 232.316406 157.835938 C 233.84375 156.96875 234.316406 158.367188 234.28125 159.476562 "/>
<path style=" stroke:none;fill-rule:evenodd;fill:rgb(91.758728%,16.468811%,16.468811%);fill-opacity:1;" d="M 222.820312 159.476562 C 223.980469 161.859375 222.105469 165.339844 224.128906 167.027344 C 228.007812 166.316406 229.359375 163.074219 231.007812 160.132812 C 232.539062 160.019531 232.9375 161.042969 233.628906 161.773438 C 233.085938 164.074219 230.703125 164.53125 230.027344 166.699219 C 233.15625 168.339844 239.132812 167.421875 238.542969 171.292969 C 237.992188 174.890625 233.210938 172.398438 230.679688 173.917969 C 232.949219 175.507812 235.585938 180.183594 232.648438 183.109375 C 230.351562 181.03125 228.410156 178.601562 225.441406 177.203125 C 219.652344 180.371094 212.457031 182.132812 206.117188 184.75 C 205.519531 181.488281 205.578125 178.257812 205.132812 175.558594 C 209.992188 175.785156 215.90625 171.804688 220.527344 169.652344 C 221.96875 166.28125 220.023438 162.855469 220.527344 159.804688 C 221.5625 159.96875 221.683594 159.214844 222.820312 159.476562 "/>
<path style=" stroke:none;fill-rule:evenodd;fill:rgb(0%,0%,0%);fill-opacity:1;" d="M 196.945312 164.070312 L 196.945312 165.710938 C 194.851562 165.554688 191.632812 166.140625 189.414062 165.058594 C 189.273438 164.371094 189.640625 164.1875 189.742188 163.742188 C 191.105469 164.148438 195 163.855469 196.945312 164.070312 "/>
<path style=" stroke:none;fill-rule:evenodd;fill:rgb(0%,0%,0%);fill-opacity:1;" d="M 140.941406 176.214844 C 140.808594 187.453125 145.113281 199.496094 151.421875 206.417969 C 153.460938 206.117188 154.433594 203.820312 157.316406 204.445312 C 161.207031 205.285156 160.101562 210.1875 158.625 213.308594 C 161.566406 214.105469 165.0625 213.808594 165.179688 217.246094 C 165.308594 221.089844 159.980469 222.734375 156.664062 223.152344 C 159.941406 231.394531 147.214844 230.921875 144.871094 226.4375 C 144.304688 227.511719 144.167969 229.015625 143.234375 229.722656 C 142.28125 230.082031 140.910156 230.015625 139.960938 230.375 C 136.292969 227.859375 134.097656 221.710938 136.683594 216.589844 C 131.441406 210.332031 126.328125 201.136719 125.546875 190.660156 C 125.339844 187.839844 124.394531 183.171875 126.859375 182.78125 C 127.0625 193.640625 128.945312 204.582031 134.71875 211.667969 C 136.0625 213.316406 137.929688 214.359375 139.304688 215.933594 C 139.070312 217.84375 137.210938 218.410156 137.011719 220.855469 C 136.734375 224.292969 139.105469 228.71875 141.269531 228.410156 C 144.410156 227.953125 142.503906 223.875 143.234375 221.1875 C 146.035156 222 145.992188 226.121094 148.804688 227.421875 C 150.757812 228.328125 154.71875 228.652344 155.679688 226.4375 C 155.746094 222.433594 151.296875 222.953125 150.441406 219.875 C 151.835938 218.519531 153.324219 220.90625 155.679688 221.1875 C 159.21875 221.601562 163.890625 219.75 163.539062 217.246094 C 163.027344 213.601562 157.203125 216.675781 154.699219 214.949219 C 155.71875 212.519531 159.996094 209.433594 157.316406 206.417969 C 154.730469 205.53125 153.777344 208.648438 151.421875 209.039062 C 143.542969 201.613281 139.945312 188.910156 138.648438 175.886719 C 139.109375 175.417969 140.242188 175.960938 140.941406 176.214844 "/>
<path style=" stroke:none;fill-rule:evenodd;fill:rgb(0%,0%,0%);fill-opacity:1;" d="M 198.585938 189.675781 C 196.484375 190.746094 193.191406 190.617188 190.722656 191.316406 C 190.910156 188.429688 197.636719 187.832031 198.585938 189.675781 "/>
<path style=" stroke:none;fill-rule:evenodd;fill:rgb(0%,0%,0%);fill-opacity:1;" d="M 195.636719 233 C 193.34375 232.570312 189.074219 234.109375 188.757812 231.691406 C 190.824219 232.347656 195.839844 229.402344 195.636719 233 "/>
<path style=" stroke:none;fill-rule:evenodd;fill:rgb(0%,0%,0%);fill-opacity:1;" d="M 167.472656 269.109375 C 168.988281 270.980469 170.699219 272.65625 173.691406 273.046875 C 171.085938 275.515625 166.019531 272.039062 167.472656 269.109375 "/>
<g clip-path="url(#clip1)" clip-rule="nonzero">
<path style=" stroke:none;fill-rule:evenodd;fill:rgb(0%,0%,0%);fill-opacity:1;" d="M 220.527344 159.804688 C 220.023438 162.855469 221.96875 166.28125 220.527344 169.652344 C 215.90625 171.804688 209.992188 175.785156 205.132812 175.558594 C 205.578125 178.257812 205.519531 181.488281 206.117188 184.75 C 212.457031 182.132812 219.652344 180.371094 225.441406 177.203125 C 228.410156 178.601562 230.351562 181.03125 232.648438 183.109375 C 235.585938 180.183594 232.949219 175.507812 230.679688 173.917969 C 233.210938 172.398438 237.992188 174.894531 238.542969 171.292969 C 239.132812 167.421875 233.15625 168.339844 230.027344 166.699219 C 230.703125 164.535156 233.085938 164.074219 233.628906 161.773438 C 232.9375 161.042969 232.539062 160.023438 231.007812 160.132812 C 229.359375 163.074219 228.007812 166.3125 224.128906 167.027344 C 222.105469 165.339844 223.980469 161.855469 222.820312 159.476562 C 221.683594 159.214844 221.5625 159.964844 220.527344 159.804688 M 232.316406 157.835938 C 232.417969 158.9375 233.414062 159.144531 234.28125 159.476562 C 234.316406 158.363281 233.84375 156.972656 232.316406 157.835938 M 125.546875 130.261719 C 124.542969 125.253906 120.417969 121.621094 115.066406 122.054688 C 118.421875 124.929688 121.621094 127.960938 125.546875 130.261719 M 112.777344 118.773438 C 116.746094 111.25 111.054688 103.925781 102.296875 104.988281 C 104.546875 110.828125 108.429688 115.03125 112.777344 118.773438 M 337.777344 96.125 C 338.183594 100.421875 340.738281 102.570312 345.3125 102.691406 C 347.113281 99.898438 349.757812 96.207031 349.238281 92.1875 C 346.777344 94.6875 342.226562 96.691406 337.777344 96.125 M 250.332031 80.699219 C 244.390625 77.023438 231.363281 77.375 225.441406 82.339844 C 222.992188 84.390625 223.074219 87.488281 220.855469 89.230469 C 206.519531 87.378906 196.589844 95.519531 197.601562 111.222656 C 184.871094 114.488281 175.40625 129.699219 180.570312 146.019531 C 179.710938 146.578125 177.765625 146.050781 176.96875 146.675781 C 176.042969 147.167969 175.574219 148.121094 174.347656 148.316406 C 170.179688 154.226562 166.230469 162.613281 166.160156 171.621094 C 166.101562 179.363281 170.183594 185.1875 173.367188 190.660156 C 162.050781 196.644531 168.144531 214.851562 171.730469 224.796875 C 163.832031 228.070312 157.777344 236.257812 162.230469 246.460938 C 153.839844 249.425781 147.570312 254.527344 144.871094 263.203125 C 148 276.609375 141.96875 290.859375 135.703125 299.304688 C 134.285156 301.214844 132.195312 303.191406 132.425781 304.886719 C 147.277344 305.875 152.15625 296.867188 161.246094 292.085938 C 167.238281 299.542969 176.015625 304.199219 179.917969 313.75 C 184.566406 316.332031 189.707031 311.496094 193.671875 308.824219 C 197.460938 306.273438 202.070312 302.980469 205.460938 299.964844 C 206.824219 298.75 208.441406 297.535156 209.0625 296.679688 C 209.679688 295.835938 209.523438 294.730469 210.046875 293.726562 C 210.835938 292.214844 213.566406 290.863281 212.011719 289.132812 C 211.160156 287.507812 208.636719 289.425781 208.082031 288.476562 C 206.863281 287.214844 209.53125 286.351562 208.410156 285.195312 C 202.726562 280.527344 199.570312 289.832031 196.617188 293.070312 C 195.601562 293.363281 195.09375 294.167969 193.996094 294.382812 C 192.941406 296.429688 190.710938 298.519531 188.757812 300.289062 C 186.996094 301.890625 184.613281 304.601562 182.535156 303.902344 C 182.8125 302.171875 185.191406 301.007812 186.792969 299.632812 C 188.476562 298.195312 190.558594 297.011719 191.378906 295.042969 C 188.273438 290.058594 183.878906 286.363281 182.210938 279.941406 C 193.699219 261.523438 210.835938 250.210938 208.738281 226.109375 C 208.378906 221.988281 207.296875 218.707031 206.773438 214.292969 C 205.777344 205.925781 204.867188 198.53125 204.480469 190.332031 C 204.242188 185.332031 204.402344 180.054688 203.496094 174.902344 C 203.015625 172.160156 202.359375 169.867188 202.84375 166.371094 C 206.117188 142.554688 209.40625 117.550781 220.527344 101.050781 C 229.609375 89.453125 249.585938 80.328125 268.019531 87.261719 C 265.480469 81.871094 258.132812 78.738281 250.332031 80.699219 M 325.988281 72.492188 C 325.359375 70.035156 320.421875 67.984375 317.472656 69.210938 C 314.523438 70.4375 313.429688 74.882812 313.542969 78.730469 C 316.460938 87.46875 327.457031 78.210938 325.988281 72.492188 M 132.425781 81.683594 C 126.898438 71.335938 122.863281 62.097656 124.566406 48.859375 C 124.148438 48.839844 124.113281 48.4375 123.585938 48.53125 C 121.578125 50.460938 119.59375 52.410156 118.996094 55.753906 C 114.773438 60.527344 111.40625 64.136719 109.5 71.179688 C 116.242188 77.980469 112.695312 92.800781 108.1875 99.410156 C 114.242188 99.71875 118.320312 102.144531 119.324219 108.925781 C 119.738281 111.707031 118.382812 115.167969 118.671875 118.117188 C 130.351562 118.992188 129.785156 132.144531 137.992188 136.5 C 142.761719 132.921875 144.105469 125.394531 147.164062 119.429688 C 150.078125 113.753906 153.703125 108.148438 156.992188 103.347656 C 144.664062 100.683594 138.070312 92.246094 132.425781 81.683594 M 296.511719 53.78125 C 288.273438 45.007812 269.589844 39.078125 253.933594 37.699219 C 246.4375 37.039062 238.535156 36.144531 231.335938 38.023438 C 223.605469 40.046875 215.476562 44.171875 208.738281 48.203125 C 201.875 52.304688 195.753906 57.558594 190.070312 62.644531 C 177.996094 73.441406 168.335938 86.703125 160.917969 99.410156 C 161.113281 100.804688 160.683594 101.578125 160.59375 102.691406 C 156.261719 106.511719 153.761719 111.691406 151.09375 117.132812 C 147.660156 124.136719 142.011719 133.625 141.597656 141.425781 C 136.042969 143.214844 132.320312 139.289062 128.167969 137.15625 C 117.847656 131.851562 109.082031 124.054688 103.605469 115.492188 C 93.96875 106.109375 85.496094 95.566406 76.09375 85.949219 C 76.253906 84.914062 75.503906 84.792969 75.765625 83.652344 C 69.632812 77.109375 62.8125 71.25 57.425781 63.957031 C 56.953125 76.175781 53.425781 85.335938 44.324219 88.90625 C 54.785156 95.609375 66.445312 108.953125 63.320312 125.011719 C 62.03125 131.625 56.488281 136.035156 53.167969 141.425781 C 71.410156 141.335938 93.554688 150.714844 88.210938 173.261719 C 97.605469 167.742188 112.066406 168.371094 121.617188 171.621094 C 124.71875 183.570312 121.101562 192.601562 116.707031 201.160156 C 113.761719 206.894531 110.769531 212.738281 107.207031 217.246094 C 105.222656 219.757812 102.753906 221.941406 100.984375 224.46875 C 99.019531 227.269531 97.3125 229.773438 95.089844 232.019531 C 90.410156 234.382812 86.726562 236.792969 80.351562 236.613281 C 74.425781 236.445312 66.015625 234.636719 60.046875 235.957031 C 52.570312 237.609375 45.195312 238.535156 39.738281 241.207031 C 29.917969 246.015625 24.4375 254.03125 23.035156 267.136719 C 22.378906 273.277344 21.519531 279.894531 22.710938 286.507812 C 23.429688 290.511719 26.609375 294.992188 28.605469 298.652344 C 30.953125 302.953125 32.769531 306.828125 35.808594 309.808594 C 40.550781 314.460938 50.375 316.476562 58.082031 316.046875 C 66.582031 315.574219 72.402344 310.484375 76.75 305.871094 C 81.148438 301.203125 86.679688 293.691406 84.9375 284.863281 C 84.113281 280.699219 82.523438 274.757812 77.074219 274.6875 C 76.761719 277.351562 79.320312 278.027344 79.695312 280.597656 C 80.84375 288.449219 69.109375 295.898438 63.320312 296.023438 C 60.53125 296.085938 58.144531 293.804688 55.789062 293.726562 C 49.84375 288.183594 43.011719 282.511719 44.324219 272.0625 C 45.246094 264.75 52.539062 257.398438 58.40625 255.324219 C 71.5 250.695312 85.644531 254.878906 92.796875 264.183594 C 96.84375 269.453125 98.25 275.128906 99.019531 282.566406 C 100.613281 297.96875 100.28125 312.394531 99.675781 327.535156 C 98.820312 329.046875 98.941406 329.546875 98.691406 331.472656 C 97.40625 331.71875 97.113281 332.957031 96.398438 333.773438 C 95.753906 334.496094 94.015625 333.128906 93.125 334.101562 C 94.351562 337.128906 98.453125 336.144531 101.640625 336.398438 C 108.425781 336.941406 115.429688 338.90625 120.308594 339.023438 C 120.183594 337.929688 118.445312 336.753906 119.652344 335.414062 C 122.144531 337.191406 123.917969 339.25 128.167969 337.710938 C 129.226562 336.601562 126.375 335.753906 128.167969 334.757812 C 130.273438 335.320312 135.214844 336.34375 135.046875 332.457031 C 134.945312 330.082031 129.949219 328.984375 126.53125 328.519531 C 124.714844 328.273438 123.703125 329.101562 122.601562 328.191406 C 120.523438 326.480469 122.273438 321.632812 122.273438 318.671875 C 122.273438 316.242188 121.035156 310.84375 122.601562 308.171875 C 127.851562 305.828125 130.605469 303.96875 134.0625 299.304688 C 140.570312 290.535156 146.332031 276.945312 142.90625 264.183594 C 144.3125 259.332031 146.222656 255.179688 150.109375 251.710938 C 151.824219 250.183594 159.4375 246.855469 159.9375 244.820312 C 160.3125 243.289062 158.667969 240.972656 158.625 239.566406 C 158.40625 231.757812 164.421875 228.257812 169.433594 223.484375 C 168.726562 218.789062 165.558594 212.375 164.851562 206.417969 C 163.957031 198.875 167.570312 194.347656 170.746094 189.675781 C 160.449219 177.21875 165.039062 149.878906 178.277344 144.046875 C 174.96875 127.941406 183.628906 114.492188 195.964844 109.910156 C 196.632812 106.253906 196.25 102.207031 197.273438 99.078125 C 200.039062 90.652344 212.128906 86.550781 220.199219 86.933594 C 223.28125 77.890625 240.132812 74.042969 250.003906 78.730469 C 260.144531 77.226562 265.835938 80.777344 269.984375 86.605469 C 273.175781 91.097656 276.054688 97.339844 275.222656 103.347656 C 274.726562 106.929688 271.992188 110.816406 272.601562 114.835938 C 272.8125 116.210938 274.765625 117.671875 274.566406 119.101562 C 279.472656 122.1875 284.347656 125.667969 289.304688 128.949219 C 294.324219 132.273438 300.5625 133.726562 304.371094 138.46875 C 305.167969 139.0625 306.316406 138.007812 306.992188 139.125 C 306.433594 141.351562 308.265625 142.828125 308.628906 145.035156 C 309.203125 148.523438 307.816406 152.347656 308.953125 155.539062 C 320.082031 158.261719 332.980469 162.0625 342.6875 156.519531 C 345.410156 152.988281 346.148438 149.152344 347.277344 143.0625 C 348.328125 137.382812 349.765625 131.421875 350.226562 125.667969 C 350.957031 116.453125 346.605469 112.160156 345.964844 104.988281 C 339.300781 104.664062 335.386719 101.589844 335.8125 94.15625 C 332.066406 89.816406 326.160156 87.636719 323.039062 82.667969 C 316.039062 88.242188 308.226562 78.21875 313.542969 71.507812 C 312.289062 67.070312 307.78125 65.90625 307.320312 60.675781 C 309.878906 57.660156 311.796875 54 313.871094 50.503906 C 310.847656 49.605469 308.902344 48.164062 306.335938 48.53125 C 301.71875 49.1875 301.40625 54.027344 298.152344 56.410156 C 297.726562 55.480469 297.171875 54.488281 296.511719 53.78125 M 297.492188 48.859375 C 302.5625 41.351562 317.738281 44.703125 321.402344 52.140625 C 318.332031 53.25 311.585938 58.425781 312.234375 62.644531 C 312.789062 66.292969 315.964844 63.851562 318.457031 63.957031 C 327.050781 64.332031 334.941406 75.019531 327.625 82.011719 C 330.894531 85.738281 335.117188 88.507812 339.089844 91.53125 C 344.910156 90.25 348.191406 86.429688 351.207031 82.339844 C 356.960938 84.234375 355.605469 89.746094 354.152344 95.796875 C 353.132812 100.0625 350.554688 104.382812 350.878906 107.945312 C 351.128906 110.652344 353.125 113.351562 353.828125 116.148438 C 355.261719 121.867188 355.09375 128.34375 354.152344 134.527344 C 352.71875 143.96875 351.144531 153.367188 346.296875 160.460938 C 339.265625 163.816406 333.289062 164.859375 323.371094 163.085938 C 316.632812 161.886719 306.035156 161.09375 303.71875 155.867188 C 301.90625 151.78125 304.738281 144.988281 301.097656 141.09375 C 298.070312 137.859375 292.019531 135.808594 286.6875 132.230469 C 281.882812 129.007812 276.515625 125.925781 272.929688 123.042969 C 270.714844 121.257812 268.039062 117.148438 267.6875 113.523438 C 267.265625 109.085938 271.457031 102.15625 269.984375 97.4375 C 269.167969 94.824219 264.160156 90.734375 261.46875 89.890625 C 257.253906 88.566406 251.164062 89.226562 247.710938 89.890625 C 235.511719 92.234375 226.761719 100.253906 220.855469 109.910156 C 213.535156 126.539062 211.582031 148.542969 207.753906 168.667969 C 210.042969 168.878906 213.425781 167.347656 215.941406 166.699219 C 215.53125 162.066406 214.621094 157.417969 217.25 154.554688 C 220.511719 152.945312 224.300781 154.679688 226.421875 156.191406 C 228.265625 156.097656 228.699219 154.0625 230.679688 153.566406 C 235.914062 152.257812 241.53125 157.515625 238.542969 164.070312 C 241.246094 165.929688 245.140625 170.289062 243.125 174.902344 C 242.421875 176.519531 240.476562 177.105469 238.542969 177.855469 C 240.933594 180.710938 238.523438 186.265625 236.25 188.359375 C 231.601562 189.191406 228.714844 186.878906 226.75 184.09375 C 222.355469 186.082031 218.78125 186.304688 213.648438 187.046875 C 217.152344 205 216.027344 225.90625 213.648438 240.550781 C 212.472656 247.789062 209.265625 254.625 205.789062 258.277344 C 205.238281 258.855469 204.757812 259.757812 203.496094 259.589844 C 199.75 267.214844 192.859375 271.683594 188.757812 278.957031 C 190.136719 282.5 192.484375 285.070312 194.328125 288.148438 C 196.652344 286.144531 198.335938 281.433594 201.53125 279.941406 C 203.664062 278.945312 207.683594 278.148438 210.046875 278.957031 C 212.078125 279.648438 211.972656 282.148438 213.976562 284.863281 C 215.050781 286.316406 217.574219 286.878906 217.582031 289.789062 C 217.585938 292.644531 214.828125 293.691406 214.960938 296.679688 C 211.378906 300.929688 206.519531 304.265625 201.203125 308.5 C 197.367188 311.550781 193.488281 314.894531 190.070312 316.703125 C 185.539062 319.101562 180.71875 319.476562 175.984375 317.359375 C 173.054688 309.574219 166.785156 305.140625 161.902344 299.304688 C 157.09375 302.757812 151.296875 306.132812 144.21875 307.839844 C 138.960938 309.105469 131.441406 307.992188 126.859375 310.140625 C 125.792969 314.277344 127.640625 319.109375 125.875 323.269531 C 130.609375 325.996094 139.246094 325.984375 139.632812 332.132812 C 139.804688 334.894531 137.632812 335.738281 137.339844 338.695312 C 134.390625 340.476562 126.132812 342.667969 121.289062 343.292969 C 116.429688 343.921875 110.320312 342.070312 104.257812 340.992188 C 98.179688 339.917969 90.0625 341.421875 88.210938 336.726562 C 86.4375 332.230469 90.960938 328.078125 94.761719 328.191406 C 95.734375 308.136719 98.921875 278.984375 87.554688 265.828125 C 82.546875 260.023438 70.125 253.816406 59.71875 259.261719 C 53.960938 262.273438 47.492188 269.8125 49.894531 278.628906 C 51.058594 282.914062 57.382812 290.601562 61.683594 291.429688 C 67.335938 292.515625 75.082031 286.785156 75.113281 282.894531 C 75.136719 279.660156 71.488281 278.921875 71.507812 276 C 71.554688 268.914062 83.136719 270.78125 86.574219 273.375 C 89.9375 275.914062 92.1875 282.71875 91.488281 289.457031 C 90.902344 295.070312 85.34375 303.113281 81.664062 307.511719 C 77.292969 312.734375 72.625 315.792969 64.957031 318.015625 C 49.277344 322.566406 33.917969 317.589844 26.636719 306.199219 C 25.113281 303.8125 23.527344 300.289062 22.054688 297.335938 C 18.742188 290.710938 17.316406 283.949219 17.46875 275.671875 C 17.683594 263.933594 21.144531 249.371094 27.949219 243.175781 C 30.070312 241.246094 33.203125 239.476562 35.808594 237.925781 C 43.566406 233.3125 56.445312 231.371094 67.25 231.363281 C 72.039062 231.355469 77.507812 233.351562 82.972656 232.675781 C 91.1875 231.65625 96.09375 223.777344 100.660156 217.574219 C 105.515625 210.972656 109.320312 202.894531 113.101562 194.597656 C 115.746094 188.792969 118.324219 183.761719 117.359375 177.203125 C 111.175781 175.011719 103.796875 172.527344 97.382812 173.917969 C 92.320312 175.015625 88.472656 179.296875 83.625 179.171875 C 83.488281 172.320312 86.867188 167.550781 83.625 161.117188 C 78.003906 149.960938 60.285156 144.019531 45.960938 146.347656 C 45.960938 142.347656 49.589844 139.691406 51.855469 136.828125 C 54.238281 133.820312 56.144531 130.628906 58.40625 127.636719 C 61.976562 109.019531 48.921875 97.898438 37.773438 89.890625 C 39.199219 84.292969 45 86.050781 48.582031 82.011719 C 50.09375 80.304688 52.523438 73.011719 52.839844 70.195312 C 53.632812 63.175781 49.820312 56.507812 47.273438 52.46875 C 47.777344 50.21875 49.765625 47.195312 52.183594 47.21875 C 54.472656 47.238281 58.617188 52.382812 60.699219 54.765625 C 63.585938 58.066406 65.925781 60.4375 68.558594 62.972656 C 73.800781 68.015625 81.75 74.066406 84.28125 79.058594 C 84.617188 79.714844 84.792969 81.574219 85.261719 82.667969 C 86.515625 85.578125 89.445312 87.746094 92.140625 91.203125 C 94.027344 93.617188 96.8125 99.957031 98.363281 100.0625 C 99.816406 100.164062 104.050781 92.617188 104.589844 90.875 C 107.019531 82.980469 102.734375 75.316406 100.328125 70.523438 C 102.136719 67.21875 105.554688 65.9375 108.1875 62.972656 C 111.871094 58.828125 114.484375 52.660156 118.015625 47.875 C 119.671875 45.632812 121.578125 42.875 123.253906 40.652344 C 124.707031 38.734375 126.710938 35.0625 129.804688 36.714844 C 130.382812 44.839844 127.707031 58.28125 131.117188 67.894531 C 133.769531 75.386719 140.078125 86.710938 144.542969 91.859375 C 147.167969 94.882812 150.730469 97.15625 155.023438 98.097656 C 157.363281 94.96875 159.886719 92.027344 161.246094 87.917969 C 166.617188 81.59375 170.785156 74.066406 176.640625 68.226562 C 186.996094 60.566406 195.40625 50.691406 207.097656 43.933594 C 208.9375 42.871094 211.300781 42.066406 213.324219 40.980469 C 217.761719 38.597656 222.71875 35.777344 228.386719 34.089844 C 236.152344 31.777344 246.917969 31.527344 255.570312 31.132812 C 273.117188 33.460938 286.472656 39.992188 297.492188 48.859375 "/>
</g>
</g>
</svg>
