<?xml version="1.0" encoding="UTF-8"?>
<svg xmlns="http://www.w3.org/2000/svg" xmlns:xlink="http://www.w3.org/1999/xlink" width="375pt" height="374.999991pt" viewBox="0 0 375 374.999991" version="1.2">
<defs>
<clipPath id="clip1">
  <path d="M 14.554688 34 L 361.804688 34 L 361.804688 345.867188 L 14.554688 345.867188 Z M 14.554688 34 "/>
</clipPath>
</defs>
<g id="surface1">
<path style=" stroke:none;fill-rule:nonzero;fill:rgb(33.329773%,17.248535%,16.859436%);fill-opacity:1;" d="M 338.003906 168.796875 L 66.089844 40.796875 C 43.417969 30.125 18.027344 48.011719 18.027344 74.652344 L 18.027344 252.316406 C 18.027344 270.179688 29.898438 285.484375 46.21875 288.675781 L 318.132812 341.789062 C 339.195312 345.902344 358.574219 328.480469 358.574219 305.429688 L 358.574219 202.652344 C 358.574219 187.96875 350.496094 174.679688 338.003906 168.796875 "/>
<path style=" stroke:none;fill-rule:nonzero;fill:rgb(70.979309%,79.998779%,65.879822%);fill-opacity:1;" d="M 275.585938 230.761719 C 275.589844 231.019531 275.5625 231.480469 275.503906 232.101562 C 275.445312 232.726562 275.351562 233.515625 275.222656 234.457031 L 275.222656 234.488281 C 274.898438 236.898438 274.324219 239.027344 273.523438 240.878906 L 273.523438 240.882812 C 272.714844 242.761719 271.734375 244.363281 270.59375 245.710938 L 270.582031 245.722656 L 270.585938 245.71875 L 270.578125 245.730469 L 270.5625 245.75 L 270.558594 245.75 C 268.921875 247.832031 267.332031 249.449219 265.820312 250.636719 L 270.230469 217.882812 C 271.453125 219.1875 272.617188 220.914062 273.6875 223.089844 C 274.511719 224.867188 275.046875 226.625 275.304688 228.371094 L 275.304688 228.382812 L 275.308594 228.398438 L 275.308594 228.40625 C 275.492188 229.394531 275.582031 230.195312 275.585938 230.761719 Z M 284.917969 222.714844 C 284.0625 219.214844 282.683594 216.109375 280.777344 213.417969 L 280.773438 213.410156 L 280.769531 213.40625 L 280.761719 213.394531 L 280.761719 213.390625 L 280.765625 213.398438 C 276.683594 207.867188 271.027344 204.078125 263.90625 202.085938 L 263.519531 201.976562 L 262.300781 201.636719 L 255.535156 251.898438 L 243.761719 251.890625 L 248.355469 261.21875 L 254.28125 261.222656 L 252.382812 275.304688 L 262.5 275.3125 L 264.394531 261.230469 L 269.691406 261.234375 C 270.148438 261.289062 270.515625 261.371094 270.789062 261.464844 C 271.066406 261.554688 271.242188 261.660156 271.300781 261.71875 L 271.308594 261.722656 C 271.3125 261.730469 271.359375 261.765625 271.398438 261.964844 C 271.4375 262.152344 271.453125 262.488281 271.390625 262.9375 C 271.390625 262.9375 271.390625 262.9375 271.390625 262.941406 L 269.722656 275.316406 L 279.839844 275.324219 L 281.675781 261.691406 L 281.679688 261.625 C 282.035156 258.9375 281.640625 256.59375 280.398438 254.765625 C 279.75 253.800781 278.828125 253.066406 277.703125 252.601562 C 277.285156 252.425781 276.839844 252.292969 276.371094 252.183594 C 278.8125 249.628906 280.683594 247.035156 281.945312 244.402344 C 283.660156 241.378906 284.785156 238.003906 285.347656 234.320312 L 285.359375 234.3125 L 285.441406 233.722656 C 285.441406 233.71875 285.441406 233.71875 285.441406 233.714844 C 285.953125 229.90625 285.78125 226.230469 284.917969 222.714844 "/>
<path style=" stroke:none;fill-rule:nonzero;fill:rgb(70.979309%,79.998779%,65.879822%);fill-opacity:1;" d="M 208.378906 250.902344 L 196.605469 250.890625 L 201.199219 260.21875 L 207.121094 260.222656 L 206.761719 262.894531 C 206.527344 264.648438 206.558594 266.242188 206.886719 267.667969 C 207.214844 269.089844 207.851562 270.332031 208.785156 271.34375 C 209.714844 272.347656 210.898438 273.101562 212.292969 273.589844 C 213.691406 274.078125 215.292969 274.3125 217.082031 274.3125 L 229.429688 274.320312 L 230.761719 264.421875 L 218.90625 264.410156 C 218.304688 264.410156 217.820312 264.371094 217.476562 264.308594 C 217.238281 264.269531 217.070312 264.210938 216.976562 264.167969 C 216.933594 264.113281 216.898438 264.035156 216.867188 263.898438 C 216.824219 263.707031 216.808594 263.40625 216.863281 263.007812 L 217.238281 260.230469 L 231.324219 260.242188 L 232.582031 250.917969 L 218.492188 250.910156 L 223.472656 213.941406 L 237.558594 213.949219 L 238.902344 203.949219 L 214.703125 203.933594 L 208.378906 250.902344 "/>
<path style=" stroke:none;fill-rule:nonzero;fill:rgb(70.979309%,79.998779%,65.879822%);fill-opacity:1;" d="M 176.632812 226.894531 L 163.875 198.730469 L 153.441406 276.195312 L 154.757812 276.199219 L 163.554688 276.203125 L 169.085938 235.152344 L 174.136719 245.417969 L 169.992188 276.210938 L 180.207031 276.214844 L 189.683594 205.84375 L 179.46875 205.835938 L 176.632812 226.894531 "/>
<path style=" stroke:none;fill-rule:nonzero;fill:rgb(70.979309%,79.998779%,65.879822%);fill-opacity:1;" d="M 133.980469 205.605469 L 124.679688 274.691406 L 134.792969 274.699219 L 144.269531 204.328125 L 134.152344 204.320312 L 133.980469 205.605469 "/>
<path style=" stroke:none;fill-rule:nonzero;fill:rgb(70.979309%,79.998779%,65.879822%);fill-opacity:1;" d="M 100.945312 245.964844 C 100.128906 248.089844 99.085938 250.097656 97.832031 252 C 95.933594 254.863281 93.824219 257.375 91.507812 259.566406 L 96.945312 219.207031 C 99.136719 221.992188 100.691406 224.925781 101.609375 228.015625 C 102.789062 232.003906 103.117188 235.78125 102.632812 239.378906 C 102.328125 241.660156 101.761719 243.851562 100.945312 245.964844 Z M 112.683594 226.9375 L 112.703125 226.929688 L 112.511719 226.003906 C 112.511719 226 112.511719 226 112.511719 226 L 112.316406 225.074219 L 112.296875 225.082031 C 111.441406 221.5 110.019531 218.246094 108.023438 215.351562 L 108.027344 215.351562 L 108.023438 215.351562 C 108.023438 215.347656 108.019531 215.339844 108.015625 215.332031 C 108.015625 215.332031 108.015625 215.335938 108.015625 215.335938 L 108.015625 215.332031 L 108.011719 215.328125 C 108.011719 215.332031 108.011719 215.332031 108.015625 215.332031 C 108.011719 215.332031 108.011719 215.332031 108.011719 215.328125 C 108.011719 215.324219 108.007812 215.324219 108.003906 215.316406 C 103.625 208.863281 97.929688 204.265625 90.96875 201.609375 L 90.5625 201.453125 L 89.28125 200.964844 L 79.019531 277.171875 L 80.941406 276.429688 C 90.417969 272.765625 97.890625 267.628906 103.21875 261.015625 C 108.492188 254.476562 111.695312 247.125 112.785156 239.085938 L 112.789062 239.078125 L 112.800781 239 C 112.800781 239 112.800781 239 112.800781 238.996094 L 112.800781 238.984375 C 113.382812 234.667969 113.34375 230.648438 112.683594 226.9375 "/>
<path style=" stroke:none;fill-rule:nonzero;fill:rgb(79.60968%,61.178589%,45.098877%);fill-opacity:1;" d="M 111.128906 181.027344 L 117.820312 181.035156 C 118.046875 181.035156 118.269531 180.90625 118.492188 180.644531 C 118.714844 180.386719 118.921875 180.078125 119.113281 179.71875 C 119.300781 179.363281 119.453125 178.980469 119.574219 178.574219 C 119.695312 178.167969 119.761719 177.820312 119.773438 177.523438 C 119.785156 177.230469 119.722656 177.027344 119.585938 176.917969 C 119.453125 176.808594 119.21875 176.859375 118.886719 177.082031 L 111.660156 177.078125 L 114.152344 158.5625 C 114.753906 158.582031 115.417969 158.59375 116.152344 158.605469 C 116.886719 158.617188 117.632812 158.625 118.394531 158.632812 C 119.152344 158.648438 119.910156 158.65625 120.660156 158.664062 C 121.410156 158.675781 122.101562 158.683594 122.730469 158.691406 C 123.359375 158.703125 123.902344 158.714844 124.351562 158.722656 C 124.800781 158.730469 125.113281 158.738281 125.28125 158.738281 C 125.730469 158.738281 126.132812 158.648438 126.488281 158.460938 C 126.84375 158.277344 127.152344 158.042969 127.417969 157.757812 C 127.683594 157.472656 127.890625 157.148438 128.042969 156.789062 C 128.195312 156.429688 128.292969 156.085938 128.335938 155.753906 C 128.367188 155.53125 128.371094 155.3125 128.355469 155.089844 C 128.339844 154.871094 128.300781 154.671875 128.25 154.496094 C 128.199219 154.320312 128.136719 154.175781 128.058594 154.054688 C 127.976562 153.9375 127.894531 153.875 127.796875 153.875 L 127.605469 153.945312 C 127.53125 153.988281 127.433594 154.039062 127.304688 154.09375 C 127.175781 154.152344 127.011719 154.199219 126.816406 154.246094 C 126.625 154.292969 126.382812 154.316406 126.101562 154.316406 C 125.894531 154.316406 125.503906 154.3125 124.933594 154.300781 C 124.359375 154.292969 123.675781 154.285156 122.875 154.285156 C 122.074219 154.285156 121.210938 154.277344 120.28125 154.257812 C 119.351562 154.238281 118.4375 154.226562 117.53125 154.226562 C 116.628906 154.226562 115.777344 154.222656 114.980469 154.210938 C 114.179688 154.199219 113.519531 154.195312 112.992188 154.195312 C 106.066406 154.191406 100.636719 155.613281 96.707031 158.464844 C 92.773438 161.320312 90.445312 165.460938 89.710938 170.898438 C 89.511719 172.390625 89.511719 173.777344 89.714844 175.058594 C 89.917969 176.339844 90.21875 177.476562 90.613281 178.46875 C 91.007812 179.464844 91.445312 180.296875 91.941406 180.972656 C 92.433594 181.644531 92.867188 182.128906 93.242188 182.425781 C 93.375 182.554688 93.507812 182.636719 93.644531 182.675781 C 93.78125 182.710938 93.921875 182.726562 94.074219 182.726562 C 94.414062 182.726562 94.761719 182.621094 95.121094 182.414062 C 95.480469 182.203125 95.8125 181.933594 96.117188 181.609375 C 96.425781 181.289062 96.683594 180.929688 96.898438 180.535156 C 97.113281 180.140625 97.242188 179.757812 97.292969 179.386719 C 97.332031 179.09375 97.296875 178.863281 97.1875 178.695312 C 97.078125 178.53125 96.855469 178.492188 96.523438 178.585938 C 96.199219 178.214844 95.871094 177.792969 95.554688 177.3125 C 95.230469 176.835938 94.953125 176.28125 94.714844 175.65625 C 94.484375 175.027344 94.316406 174.324219 94.226562 173.542969 C 94.132812 172.757812 94.152344 171.878906 94.285156 170.902344 C 94.585938 168.671875 95.171875 166.808594 96.039062 165.304688 C 96.910156 163.808594 98.011719 162.585938 99.339844 161.648438 C 100.671875 160.707031 102.207031 160.007812 103.945312 159.550781 C 105.679688 159.089844 107.574219 158.796875 109.621094 158.667969 L 107.144531 177.074219 L 102.9375 177.070312 C 102.636719 177.070312 102.402344 177.179688 102.230469 177.402344 C 102.0625 177.621094 101.953125 177.890625 101.910156 178.203125 C 101.871094 178.496094 101.882812 178.808594 101.941406 179.140625 C 102 179.472656 102.105469 179.777344 102.253906 180.054688 C 102.40625 180.328125 102.597656 180.5625 102.824219 180.746094 C 103.054688 180.929688 103.320312 181.023438 103.621094 181.023438 L 106.613281 181.027344 L 105.414062 189.921875 C 105.222656 191.359375 104.964844 192.402344 104.640625 193.058594 C 104.316406 193.710938 103.890625 194.039062 103.363281 194.039062 C 103.214844 194.039062 103.082031 194.019531 102.960938 193.984375 C 102.84375 193.945312 102.742188 193.921875 102.660156 193.914062 C 102.578125 193.902344 102.507812 193.921875 102.457031 193.96875 C 102.402344 194.011719 102.363281 194.128906 102.339844 194.3125 C 102.304688 194.589844 102.386719 194.914062 102.589844 195.28125 C 102.796875 195.652344 103.066406 196.007812 103.40625 196.359375 C 103.742188 196.710938 104.113281 197.003906 104.511719 197.246094 C 104.914062 197.484375 105.292969 197.605469 105.652344 197.605469 C 106.121094 197.605469 106.574219 197.476562 107.015625 197.21875 C 107.453125 196.960938 107.851562 196.554688 108.207031 196.003906 C 108.566406 195.449219 108.882812 194.734375 109.164062 193.847656 C 109.441406 192.964844 109.664062 191.898438 109.835938 190.644531 Z M 136.53125 191.449219 C 136.296875 191.296875 136.121094 191.09375 136.003906 190.84375 C 135.886719 190.59375 135.8125 190.316406 135.777344 190.011719 C 135.742188 189.710938 135.746094 189.402344 135.789062 189.085938 L 137.046875 179.75 C 137.136719 179.066406 136.933594 178.480469 136.433594 177.992188 C 135.9375 177.503906 135.207031 177.257812 134.25 177.257812 C 133.832031 177.257812 133.46875 177.34375 133.152344 177.523438 C 132.839844 177.695312 132.660156 177.929688 132.621094 178.222656 C 132.609375 178.316406 132.605469 178.414062 132.609375 178.515625 C 132.617188 178.617188 132.625 178.734375 132.636719 178.859375 C 132.648438 178.988281 132.65625 179.148438 132.65625 179.328125 C 132.660156 179.515625 132.644531 179.746094 132.605469 180.019531 L 131.429688 188.753906 C 131.003906 189.542969 130.488281 190.230469 129.882812 190.808594 C 129.277344 191.390625 128.582031 191.679688 127.789062 191.679688 C 126.773438 191.679688 126.027344 191.277344 125.550781 190.476562 C 125.078125 189.671875 124.9375 188.527344 125.140625 187.035156 C 125.414062 184.992188 125.945312 183.226562 126.730469 181.742188 C 127.507812 180.261719 128.421875 179.035156 129.464844 178.070312 C 130.507812 177.105469 131.625 176.386719 132.820312 175.917969 C 134.011719 175.449219 135.15625 175.214844 136.246094 175.214844 C 136.546875 175.214844 136.835938 175.234375 137.113281 175.273438 C 137.390625 175.308594 137.660156 175.324219 137.921875 175.324219 C 138.207031 175.324219 138.414062 175.230469 138.542969 175.039062 C 138.671875 174.84375 138.769531 174.507812 138.832031 174.03125 C 138.933594 173.292969 138.765625 172.710938 138.332031 172.285156 C 137.898438 171.863281 137.289062 171.652344 136.5 171.648438 C 134.730469 171.648438 132.976562 172 131.234375 172.695312 C 129.496094 173.394531 127.894531 174.402344 126.4375 175.71875 C 124.980469 177.035156 123.742188 178.632812 122.714844 180.511719 C 121.691406 182.390625 121.019531 184.507812 120.703125 186.867188 C 120.539062 188.0625 120.535156 189.183594 120.6875 190.222656 C 120.839844 191.265625 121.15625 192.167969 121.636719 192.933594 C 122.117188 193.695312 122.753906 194.300781 123.550781 194.742188 C 124.347656 195.1875 125.3125 195.410156 126.441406 195.410156 C 127.53125 195.410156 128.515625 195.1875 129.398438 194.734375 C 130.277344 194.285156 131.050781 193.734375 131.722656 193.09375 C 132.058594 193.792969 132.578125 194.355469 133.273438 194.78125 C 133.96875 195.203125 134.824219 195.414062 135.839844 195.414062 C 137.082031 195.417969 138.207031 195.132812 139.214844 194.5625 C 140.222656 193.988281 141.117188 193.273438 141.890625 192.410156 C 142.667969 191.542969 143.332031 190.59375 143.898438 189.5625 C 144.460938 188.53125 144.925781 187.546875 145.296875 186.609375 C 145.351562 186.496094 145.382812 186.414062 145.386719 186.359375 L 145.40625 186.21875 C 145.441406 185.945312 145.417969 185.667969 145.335938 185.390625 C 145.25 185.113281 145.125 184.863281 144.953125 184.644531 C 144.785156 184.421875 144.59375 184.242188 144.375 184.105469 C 144.160156 183.96875 143.9375 183.898438 143.714844 183.898438 C 143.414062 183.898438 143.117188 184.03125 142.828125 184.296875 C 142.539062 184.5625 142.285156 184.992188 142.078125 185.582031 C 141.859375 186.210938 141.605469 186.875 141.3125 187.585938 C 141.019531 188.296875 140.675781 188.953125 140.285156 189.558594 C 139.890625 190.167969 139.457031 190.671875 138.980469 191.078125 C 138.5 191.484375 137.96875 191.6875 137.386719 191.6875 C 137.046875 191.6875 136.761719 191.605469 136.53125 191.449219 Z M 147.097656 182.476562 C 147.578125 181.417969 148.117188 180.34375 148.714844 179.261719 C 149.15625 179.757812 149.585938 180.285156 150.011719 180.847656 C 150.433594 181.410156 150.800781 182.015625 151.109375 182.660156 C 151.417969 183.304688 151.640625 184.003906 151.785156 184.757812 C 151.925781 185.515625 151.941406 186.335938 151.820312 187.21875 C 151.722656 187.9375 151.503906 188.601562 151.15625 189.210938 C 150.8125 189.816406 150.453125 190.304688 150.085938 190.671875 C 149.59375 190.671875 149.066406 190.59375 148.496094 190.4375 C 147.921875 190.28125 147.34375 190.078125 146.753906 189.828125 C 146.167969 189.578125 145.582031 189.316406 144.996094 189.039062 C 144.414062 188.761719 143.875 188.5 143.382812 188.25 C 142.886719 188 142.449219 187.796875 142.066406 187.640625 C 141.683594 187.484375 141.398438 187.40625 141.210938 187.40625 C 140.890625 187.40625 140.554688 187.574219 140.210938 187.917969 C 139.863281 188.257812 139.601562 188.695312 139.425781 189.226562 C 139.25 189.761719 139.222656 190.363281 139.335938 191.039062 C 139.453125 191.710938 139.824219 192.378906 140.449219 193.042969 C 140.695312 193.320312 141.035156 193.597656 141.464844 193.871094 C 141.902344 194.148438 142.386719 194.402344 142.933594 194.632812 C 143.476562 194.863281 144.050781 195.050781 144.664062 195.203125 C 145.273438 195.351562 145.878906 195.421875 146.480469 195.425781 C 147.667969 195.425781 148.757812 195.238281 149.761719 194.859375 C 150.761719 194.480469 151.652344 194 152.425781 193.410156 C 154.25 193.28125 155.804688 192.972656 157.09375 192.488281 C 158.382812 192 159.527344 191.398438 160.527344 190.679688 C 160.902344 190.40625 161.277344 190.078125 161.648438 189.703125 C 162.019531 189.324219 162.359375 188.933594 162.667969 188.527344 C 162.976562 188.121094 163.230469 187.726562 163.433594 187.339844 C 163.636719 186.953125 163.757812 186.621094 163.792969 186.34375 C 163.820312 186.140625 163.789062 185.910156 163.703125 185.652344 C 163.617188 185.394531 163.488281 185.148438 163.324219 184.90625 C 163.160156 184.667969 162.960938 184.46875 162.726562 184.3125 C 162.492188 184.15625 162.257812 184.074219 162.011719 184.074219 C 161.746094 184.074219 161.496094 184.195312 161.257812 184.4375 C 161.015625 184.675781 160.757812 185.0625 160.480469 185.59375 C 160.246094 186.054688 159.976562 186.496094 159.664062 186.921875 C 159.355469 187.347656 158.980469 187.738281 158.546875 188.09375 C 158.113281 188.453125 157.617188 188.769531 157.066406 189.046875 C 156.507812 189.324219 155.886719 189.527344 155.191406 189.65625 C 155.328125 189.339844 155.441406 189.011719 155.539062 188.660156 C 155.628906 188.308594 155.699219 187.96875 155.742188 187.636719 C 155.925781 186.292969 155.886719 185.121094 155.625 184.128906 C 155.363281 183.132812 154.988281 182.195312 154.496094 181.308594 C 154 180.425781 153.449219 179.53125 152.835938 178.628906 C 152.222656 177.722656 151.65625 176.679688 151.140625 175.5 C 151.167969 175.429688 151.269531 175.265625 151.449219 175.003906 C 151.625 174.746094 151.820312 174.4375 152.039062 174.078125 C 152.253906 173.722656 152.460938 173.332031 152.660156 172.917969 C 152.855469 172.503906 152.984375 172.085938 153.039062 171.660156 C 153.144531 170.886719 153.050781 170.269531 152.765625 169.8125 C 152.480469 169.351562 151.988281 169.117188 151.292969 169.117188 C 150.898438 169.117188 150.402344 169.261719 149.808594 169.546875 C 149.21875 169.832031 148.628906 170.195312 148.054688 170.636719 C 147.476562 171.078125 146.96875 171.5625 146.53125 172.085938 C 146.09375 172.609375 145.84375 173.113281 145.78125 173.59375 C 145.714844 174.070312 145.738281 174.527344 145.847656 174.957031 C 145.960938 175.394531 146.128906 175.820312 146.355469 176.242188 C 145.621094 177.753906 144.890625 179.269531 144.148438 180.789062 C 143.40625 182.308594 142.8125 183.695312 142.359375 184.949219 C 142.183594 185.425781 142.199219 185.867188 142.417969 186.273438 C 142.636719 186.679688 142.941406 186.964844 143.320312 187.128906 C 143.703125 187.296875 144.113281 187.308594 144.542969 187.175781 C 144.976562 187.035156 145.304688 186.671875 145.539062 186.082031 C 146.09375 184.738281 146.613281 183.535156 147.097656 182.476562 Z M 157.15625 167.839844 C 156.996094 168.234375 156.957031 168.671875 157.035156 169.148438 C 157.109375 169.628906 157.296875 170.066406 157.589844 170.464844 C 157.886719 170.859375 158.257812 171.058594 158.710938 171.058594 C 159.007812 171.078125 159.355469 171.097656 159.746094 171.113281 C 160.082031 171.132812 160.5 171.148438 160.996094 171.15625 C 161.496094 171.164062 162.0625 171.171875 162.703125 171.171875 L 160.28125 189.160156 C 160.132812 190.285156 160.132812 191.242188 160.292969 192.035156 C 160.445312 192.828125 160.726562 193.476562 161.128906 193.984375 C 161.53125 194.492188 162.039062 194.859375 162.660156 195.089844 C 163.277344 195.320312 163.972656 195.433594 164.742188 195.4375 C 165.984375 195.4375 167.105469 195.152344 168.105469 194.582031 C 169.101562 194.011719 169.996094 193.292969 170.78125 192.429688 C 171.566406 191.5625 172.238281 190.613281 172.800781 189.582031 C 173.363281 188.550781 173.828125 187.566406 174.199219 186.628906 C 174.253906 186.519531 174.285156 186.4375 174.289062 186.378906 L 174.308594 186.242188 C 174.347656 185.964844 174.324219 185.6875 174.238281 185.414062 C 174.152344 185.136719 174.027344 184.886719 173.859375 184.664062 C 173.691406 184.441406 173.496094 184.265625 173.265625 184.128906 C 173.039062 183.988281 172.8125 183.917969 172.589844 183.917969 C 172.308594 183.917969 172.015625 184.050781 171.71875 184.320312 C 171.417969 184.585938 171.171875 185.015625 170.980469 185.601562 C 170.765625 186.230469 170.507812 186.898438 170.214844 187.605469 C 169.921875 188.316406 169.578125 188.972656 169.1875 189.582031 C 168.792969 190.191406 168.363281 190.695312 167.882812 191.101562 C 167.402344 191.507812 166.875 191.707031 166.292969 191.707031 C 165.6875 191.707031 165.234375 191.503906 164.933594 191.097656 C 164.628906 190.695312 164.539062 190.03125 164.664062 189.109375 L 167.078125 171.171875 C 168.621094 171.175781 170.28125 171.171875 172.0625 171.164062 C 173.84375 171.15625 175.894531 171.128906 178.214844 171.074219 C 178.460938 171.074219 178.699219 170.933594 178.933594 170.660156 C 179.167969 170.382812 179.367188 170.054688 179.53125 169.675781 C 179.695312 169.300781 179.824219 168.910156 179.917969 168.503906 C 180.007812 168.097656 180.046875 167.757812 180.039062 167.480469 C 180.03125 167.207031 179.949219 167.027344 179.800781 166.957031 C 179.648438 166.882812 179.425781 166.984375 179.125 167.261719 C 177.136719 167.351562 175.15625 167.414062 173.183594 167.449219 C 171.210938 167.484375 169.34375 167.5 167.574219 167.5 L 168.910156 157.578125 C 169 156.898438 168.800781 156.316406 168.3125 155.824219 C 167.824219 155.335938 167.101562 155.089844 166.140625 155.089844 C 165.929688 155.089844 165.71875 155.105469 165.5 155.132812 C 165.28125 155.160156 165.070312 155.203125 164.875 155.253906 C 164.679688 155.3125 164.519531 155.375 164.398438 155.449219 C 164.273438 155.523438 164.207031 155.613281 164.191406 155.726562 C 164.175781 155.816406 164.199219 155.90625 164.253906 155.988281 C 164.308594 156.070312 164.359375 156.179688 164.40625 156.320312 C 164.457031 156.457031 164.492188 156.644531 164.527344 156.886719 C 164.5625 157.125 164.550781 157.449219 164.496094 157.851562 L 163.207031 167.441406 C 162.417969 167.421875 161.703125 167.410156 161.066406 167.398438 C 160.425781 167.386719 159.882812 167.367188 159.4375 167.328125 C 158.914062 167.308594 158.4375 167.28125 158.007812 167.246094 C 157.597656 167.246094 157.3125 167.441406 157.15625 167.839844 Z M 206.363281 181.09375 L 213.054688 181.101562 C 213.28125 181.101562 213.503906 180.972656 213.726562 180.714844 C 213.949219 180.457031 214.15625 180.148438 214.347656 179.789062 C 214.535156 179.429688 214.6875 179.050781 214.808594 178.644531 C 214.929688 178.238281 214.996094 177.886719 215.007812 177.59375 C 215.019531 177.296875 214.957031 177.09375 214.824219 176.984375 C 214.6875 176.875 214.453125 176.929688 214.121094 177.152344 L 206.898438 177.144531 L 209.390625 158.632812 C 209.988281 158.652344 210.652344 158.664062 211.386719 158.675781 C 212.121094 158.683594 212.867188 158.691406 213.628906 158.703125 C 214.386719 158.714844 215.144531 158.722656 215.898438 158.734375 C 216.648438 158.746094 217.339844 158.753906 217.96875 158.761719 C 218.597656 158.773438 219.136719 158.78125 219.585938 158.789062 C 220.039062 158.800781 220.347656 158.804688 220.515625 158.804688 C 220.96875 158.804688 221.371094 158.714844 221.726562 158.53125 C 222.082031 158.347656 222.390625 158.113281 222.652344 157.828125 C 222.917969 157.542969 223.125 157.21875 223.277344 156.859375 C 223.429688 156.5 223.527344 156.15625 223.570312 155.824219 C 223.601562 155.601562 223.605469 155.382812 223.589844 155.160156 C 223.574219 154.9375 223.539062 154.742188 223.484375 154.566406 C 223.433594 154.390625 223.371094 154.242188 223.292969 154.125 C 223.214844 154.003906 223.128906 153.945312 223.035156 153.945312 L 222.84375 154.011719 C 222.769531 154.058594 222.667969 154.109375 222.539062 154.164062 C 222.410156 154.21875 222.246094 154.269531 222.050781 154.316406 C 221.859375 154.363281 221.621094 154.382812 221.339844 154.382812 C 221.128906 154.382812 220.742188 154.382812 220.167969 154.371094 C 219.59375 154.359375 218.910156 154.355469 218.109375 154.355469 C 217.3125 154.351562 216.445312 154.34375 215.515625 154.324219 C 214.585938 154.304688 213.671875 154.296875 212.769531 154.296875 C 211.863281 154.296875 211.015625 154.292969 210.214844 154.277344 C 209.417969 154.269531 208.753906 154.265625 208.226562 154.265625 C 201.304688 154.261719 195.871094 155.683594 191.941406 158.535156 C 188.011719 161.390625 185.679688 165.53125 184.949219 170.96875 C 184.746094 172.460938 184.746094 173.84375 184.953125 175.125 C 185.15625 176.40625 185.457031 177.542969 185.847656 178.539062 C 186.242188 179.535156 186.683594 180.367188 187.175781 181.042969 C 187.667969 181.714844 188.101562 182.199219 188.476562 182.492188 C 188.609375 182.621094 188.746094 182.707031 188.882812 182.742188 C 189.015625 182.78125 189.160156 182.796875 189.3125 182.796875 C 189.652344 182.796875 190 182.691406 190.355469 182.480469 C 190.714844 182.269531 191.046875 182 191.351562 181.679688 C 191.660156 181.359375 191.917969 180.996094 192.132812 180.601562 C 192.347656 180.207031 192.476562 179.824219 192.527344 179.457031 C 192.566406 179.164062 192.53125 178.929688 192.425781 178.765625 C 192.3125 178.597656 192.09375 178.5625 191.761719 178.652344 C 191.433594 178.285156 191.109375 177.859375 190.789062 177.382812 C 190.46875 176.902344 190.1875 176.347656 189.953125 175.722656 C 189.71875 175.097656 189.554688 174.394531 189.460938 173.609375 C 189.371094 172.828125 189.386719 171.949219 189.519531 170.96875 C 189.820312 168.742188 190.40625 166.878906 191.277344 165.375 C 192.144531 163.875 193.246094 162.65625 194.578125 161.714844 C 195.910156 160.777344 197.441406 160.078125 199.179688 159.617188 C 200.914062 159.160156 202.808594 158.867188 204.855469 158.738281 L 202.378906 177.140625 L 198.175781 177.136719 C 197.875 177.136719 197.636719 177.25 197.464844 177.46875 C 197.296875 177.691406 197.1875 177.957031 197.148438 178.269531 C 197.109375 178.566406 197.117188 178.878906 197.175781 179.210938 C 197.234375 179.542969 197.339844 179.847656 197.488281 180.125 C 197.640625 180.398438 197.832031 180.628906 198.0625 180.816406 C 198.289062 180.996094 198.554688 181.089844 198.855469 181.089844 L 201.847656 181.09375 L 200.648438 189.992188 C 200.457031 191.425781 200.199219 192.472656 199.875 193.125 C 199.550781 193.78125 199.128906 194.109375 198.601562 194.109375 C 198.449219 194.105469 198.316406 194.085938 198.199219 194.050781 C 198.078125 194.011719 197.980469 193.988281 197.898438 193.984375 C 197.8125 193.972656 197.746094 193.988281 197.691406 194.035156 C 197.640625 194.082031 197.601562 194.199219 197.574219 194.382812 C 197.539062 194.660156 197.621094 194.980469 197.824219 195.351562 C 198.03125 195.71875 198.300781 196.078125 198.640625 196.425781 C 198.976562 196.777344 199.347656 197.074219 199.75 197.316406 C 200.148438 197.554688 200.527344 197.675781 200.886719 197.675781 C 201.359375 197.675781 201.8125 197.546875 202.25 197.289062 C 202.6875 197.03125 203.089844 196.625 203.445312 196.074219 C 203.800781 195.519531 204.117188 194.800781 204.398438 193.917969 C 204.675781 193.035156 204.902344 191.964844 205.070312 190.710938 Z M 237.722656 186.148438 C 237.453125 186.648438 237.121094 187.078125 236.730469 187.445312 C 236.339844 187.8125 235.894531 188.109375 235.382812 188.332031 C 234.875 188.550781 234.308594 188.660156 233.6875 188.660156 C 233.480469 188.660156 233.289062 188.65625 233.113281 188.648438 C 232.933594 188.636719 232.746094 188.597656 232.546875 188.519531 C 232.960938 187.566406 233.304688 186.570312 233.574219 185.539062 C 233.839844 184.507812 234.050781 183.464844 234.191406 182.414062 C 234.375 181.050781 234.414062 179.792969 234.320312 178.628906 C 234.222656 177.46875 234.003906 176.464844 233.664062 175.617188 C 233.328125 174.769531 232.890625 174.105469 232.351562 173.625 C 231.8125 173.148438 231.207031 172.90625 230.53125 172.90625 C 229.757812 172.90625 229.054688 173.082031 228.425781 173.445312 C 227.792969 173.804688 227.242188 174.285156 226.777344 174.894531 C 226.308594 175.5 225.921875 176.207031 225.617188 177.007812 C 225.3125 177.808594 225.097656 178.652344 224.980469 179.535156 C 224.703125 181.578125 224.800781 183.480469 225.269531 185.242188 C 225.738281 187 226.574219 188.453125 227.777344 189.597656 C 227.3125 190.242188 226.785156 190.761719 226.195312 191.15625 C 225.605469 191.550781 224.898438 191.75 224.070312 191.75 C 223.503906 191.75 222.992188 191.601562 222.535156 191.304688 C 222.074219 191.011719 221.695312 190.5625 221.386719 189.964844 C 221.082031 189.363281 220.882812 188.625 220.785156 187.738281 C 220.6875 186.855469 220.71875 185.8125 220.878906 184.617188 C 221.066406 183.21875 221.324219 182.019531 221.644531 181.027344 C 221.96875 180.027344 222.3125 179.1875 222.675781 178.496094 C 223.042969 177.808594 223.414062 177.230469 223.785156 176.769531 C 224.160156 176.3125 224.480469 175.90625 224.753906 175.554688 C 225.164062 175.316406 225.429688 174.976562 225.554688 174.535156 C 225.679688 174.089844 225.699219 173.65625 225.617188 173.21875 C 225.535156 172.789062 225.359375 172.410156 225.09375 172.089844 C 224.824219 171.765625 224.503906 171.601562 224.128906 171.601562 C 223.808594 171.601562 223.28125 171.90625 222.550781 172.511719 C 221.824219 173.121094 221.050781 174 220.234375 175.152344 C 219.421875 176.304688 218.652344 177.703125 217.933594 179.351562 C 217.214844 180.996094 216.714844 182.863281 216.433594 184.945312 C 216.242188 186.363281 216.222656 187.707031 216.382812 188.980469 C 216.539062 190.25 216.902344 191.371094 217.46875 192.339844 C 218.035156 193.304688 218.808594 194.070312 219.785156 194.632812 C 220.765625 195.195312 221.988281 195.480469 223.457031 195.480469 C 225.109375 195.480469 226.554688 195.109375 227.785156 194.363281 C 229.011719 193.617188 230.066406 192.636719 230.945312 191.421875 C 231.359375 191.570312 231.792969 191.671875 232.246094 191.726562 C 232.699219 191.785156 233.191406 191.808594 233.714844 191.808594 C 234.695312 191.8125 235.597656 191.664062 236.429688 191.371094 C 237.257812 191.078125 238 190.671875 238.652344 190.15625 C 239.304688 189.640625 239.871094 189.046875 240.347656 188.375 C 240.824219 187.703125 241.199219 186.980469 241.472656 186.207031 C 241.675781 185.671875 241.746094 185.234375 241.691406 184.894531 C 241.632812 184.554688 241.5 184.285156 241.289062 184.089844 C 241.078125 183.898438 240.824219 183.773438 240.519531 183.71875 C 240.21875 183.664062 239.921875 183.664062 239.632812 183.71875 C 239.34375 183.773438 239.078125 183.875 238.84375 184.023438 C 238.609375 184.167969 238.457031 184.351562 238.390625 184.574219 C 238.21875 185.128906 237.996094 185.652344 237.722656 186.148438 Z M 229.40625 176.636719 C 229.707031 176.636719 229.925781 176.808594 230.058594 177.148438 C 230.191406 177.488281 230.269531 177.953125 230.296875 178.542969 C 230.316406 179.132812 230.289062 179.839844 230.207031 180.660156 C 230.125 181.480469 230.019531 182.367188 229.890625 183.324219 C 229.777344 184.152344 229.605469 185.019531 229.371094 185.921875 C 228.828125 185.074219 228.429688 184.078125 228.179688 182.9375 C 227.925781 181.796875 227.886719 180.585938 228.058594 179.316406 C 228.300781 177.53125 228.746094 176.636719 229.40625 176.636719 Z M 258.894531 186.164062 C 258.621094 186.664062 258.289062 187.09375 257.902344 187.460938 C 257.511719 187.828125 257.0625 188.125 256.554688 188.347656 C 256.042969 188.566406 255.480469 188.675781 254.855469 188.675781 C 254.652344 188.675781 254.457031 188.671875 254.28125 188.664062 C 254.101562 188.652344 253.917969 188.609375 253.71875 188.535156 C 254.132812 187.582031 254.472656 186.585938 254.742188 185.554688 C 255.011719 184.519531 255.21875 183.480469 255.359375 182.429688 C 255.542969 181.066406 255.585938 179.804688 255.488281 178.644531 C 255.390625 177.484375 255.171875 176.480469 254.835938 175.632812 C 254.5 174.785156 254.0625 174.121094 253.523438 173.640625 C 252.984375 173.164062 252.378906 172.921875 251.699219 172.921875 C 250.929688 172.921875 250.226562 173.097656 249.597656 173.460938 C 248.964844 173.820312 248.414062 174.300781 247.949219 174.910156 C 247.480469 175.515625 247.09375 176.21875 246.785156 177.023438 C 246.484375 177.824219 246.269531 178.664062 246.148438 179.550781 C 245.875 181.59375 245.972656 183.496094 246.441406 185.253906 C 246.910156 187.015625 247.746094 188.46875 248.945312 189.613281 C 248.480469 190.257812 247.957031 190.777344 247.367188 191.171875 C 246.777344 191.566406 246.066406 191.761719 245.238281 191.761719 C 244.675781 191.761719 244.164062 191.617188 243.703125 191.320312 C 243.246094 191.027344 242.863281 190.578125 242.558594 189.980469 C 242.253906 189.378906 242.050781 188.640625 241.957031 187.753906 C 241.859375 186.871094 241.886719 185.828125 242.050781 184.632812 C 242.238281 183.230469 242.492188 182.035156 242.816406 181.039062 C 243.136719 180.046875 243.484375 179.203125 243.847656 178.511719 C 244.214844 177.824219 244.582031 177.246094 244.957031 176.785156 C 245.328125 176.324219 245.652344 175.917969 245.921875 175.570312 C 246.332031 175.332031 246.597656 174.992188 246.726562 174.550781 C 246.851562 174.105469 246.871094 173.671875 246.789062 173.234375 C 246.707031 172.804688 246.53125 172.425781 246.265625 172.101562 C 245.996094 171.78125 245.675781 171.617188 245.296875 171.617188 C 244.980469 171.617188 244.453125 171.921875 243.722656 172.527344 C 242.992188 173.136719 242.21875 174.015625 241.40625 175.167969 C 240.589844 176.320312 239.824219 177.71875 239.105469 179.367188 C 238.382812 181.011719 237.882812 182.878906 237.601562 184.960938 C 237.410156 186.378906 237.394531 187.722656 237.550781 188.996094 C 237.710938 190.265625 238.070312 191.386719 238.636719 192.355469 C 239.207031 193.320312 239.976562 194.085938 240.957031 194.648438 C 241.933594 195.210938 243.15625 195.496094 244.625 195.496094 C 246.277344 195.496094 247.722656 195.125 248.953125 194.378906 C 250.183594 193.632812 251.238281 192.652344 252.113281 191.4375 C 252.527344 191.585938 252.960938 191.6875 253.414062 191.742188 C 253.867188 191.796875 254.359375 191.824219 254.886719 191.824219 C 255.863281 191.828125 256.769531 191.679688 257.601562 191.386719 C 258.429688 191.09375 259.171875 190.6875 259.820312 190.171875 C 260.476562 189.65625 261.039062 189.0625 261.515625 188.390625 C 261.992188 187.71875 262.367188 186.996094 262.640625 186.222656 C 262.84375 185.6875 262.917969 185.25 262.859375 184.910156 C 262.800781 184.570312 262.671875 184.300781 262.460938 184.109375 C 262.25 183.914062 261.996094 183.789062 261.691406 183.734375 C 261.386719 183.679688 261.089844 183.675781 260.804688 183.734375 C 260.511719 183.789062 260.25 183.890625 260.011719 184.035156 C 259.777344 184.183594 259.625 184.367188 259.558594 184.589844 C 259.390625 185.144531 259.167969 185.667969 258.894531 186.164062 Z M 250.578125 176.652344 C 250.878906 176.652344 251.09375 176.824219 251.230469 177.164062 C 251.359375 177.503906 251.441406 177.96875 251.464844 178.558594 C 251.488281 179.148438 251.460938 179.855469 251.378906 180.675781 C 251.296875 181.496094 251.191406 182.382812 251.058594 183.339844 C 250.949219 184.167969 250.777344 185.035156 250.542969 185.9375 C 249.996094 185.089844 249.597656 184.09375 249.347656 182.953125 C 249.097656 181.808594 249.058594 180.601562 249.226562 179.332031 C 249.46875 177.542969 249.917969 176.648438 250.578125 176.652344 Z M 267.585938 194.890625 C 268.476562 194.476562 269.289062 193.945312 270.015625 193.300781 C 270.359375 193.964844 270.878906 194.5 271.578125 194.90625 C 272.277344 195.3125 273.121094 195.515625 274.121094 195.515625 C 275.363281 195.515625 276.484375 195.230469 277.484375 194.660156 C 278.480469 194.089844 279.371094 193.375 280.160156 192.507812 C 280.941406 191.644531 281.617188 190.695312 282.175781 189.664062 C 282.742188 188.632812 283.207031 187.648438 283.578125 186.707031 C 283.628906 186.597656 283.660156 186.511719 283.667969 186.460938 L 283.6875 186.320312 C 283.726562 186.046875 283.699219 185.765625 283.613281 185.488281 C 283.527344 185.214844 283.402344 184.964844 283.234375 184.746094 C 283.066406 184.523438 282.871094 184.34375 282.644531 184.207031 C 282.417969 184.066406 282.191406 184 281.964844 184 C 281.683594 184 281.394531 184.132812 281.09375 184.398438 C 280.792969 184.664062 280.550781 185.09375 280.355469 185.683594 C 280.140625 186.308594 279.886719 186.976562 279.59375 187.6875 C 279.300781 188.394531 278.957031 189.054688 278.566406 189.660156 C 278.171875 190.265625 277.738281 190.773438 277.261719 191.179688 C 276.78125 191.582031 276.25 191.785156 275.667969 191.785156 C 275.328125 191.785156 275.042969 191.707031 274.808594 191.550781 C 274.578125 191.394531 274.398438 191.191406 274.269531 190.941406 C 274.144531 190.695312 274.066406 190.417969 274.03125 190.113281 C 273.996094 189.808594 274 189.5 274.042969 189.1875 L 278.132812 158.792969 C 278.226562 158.113281 278.027344 157.527344 277.535156 157.035156 C 277.046875 156.546875 276.324219 156.304688 275.363281 156.300781 C 275.15625 156.300781 274.945312 156.316406 274.722656 156.34375 C 274.503906 156.371094 274.292969 156.414062 274.097656 156.46875 C 273.902344 156.523438 273.746094 156.585938 273.621094 156.660156 C 273.5 156.734375 273.433594 156.828125 273.417969 156.9375 C 273.402344 157.03125 273.425781 157.117188 273.476562 157.199219 C 273.53125 157.28125 273.582031 157.394531 273.632812 157.53125 C 273.679688 157.667969 273.71875 157.859375 273.753906 158.097656 C 273.789062 158.339844 273.777344 158.660156 273.722656 159.066406 L 272 171.855469 C 270.386719 172.078125 268.828125 172.550781 267.320312 173.277344 C 265.808594 174.003906 264.4375 174.980469 263.199219 176.207031 C 261.960938 177.429688 260.917969 178.890625 260.066406 180.597656 C 259.21875 182.300781 258.644531 184.238281 258.355469 186.414062 C 258.152344 187.902344 258.148438 189.21875 258.34375 190.347656 C 258.539062 191.484375 258.914062 192.433594 259.457031 193.199219 C 260.003906 193.960938 260.714844 194.539062 261.582031 194.925781 C 262.453125 195.3125 263.449219 195.507812 264.582031 195.507812 C 265.691406 195.507812 266.691406 195.304688 267.585938 194.890625 Z M 264.535156 191.449219 C 264.09375 191.226562 263.730469 190.882812 263.445312 190.425781 C 263.160156 189.960938 262.957031 189.371094 262.835938 188.640625 C 262.71875 187.910156 262.730469 187.03125 262.867188 186 C 263.109375 184.234375 263.507812 182.726562 264.070312 181.484375 C 264.632812 180.238281 265.300781 179.214844 266.078125 178.402344 C 266.855469 177.59375 267.710938 176.964844 268.648438 176.515625 C 269.585938 176.0625 270.535156 175.753906 271.496094 175.589844 L 269.617188 189.570312 C 269.15625 190.199219 268.617188 190.722656 268.007812 191.144531 C 267.394531 191.566406 266.710938 191.777344 265.957031 191.777344 C 265.449219 191.777344 264.976562 191.667969 264.535156 191.449219 "/>
<g clip-path="url(#clip1)" clip-rule="nonzero">
<path style=" stroke:none;fill-rule:nonzero;fill:rgb(70.979309%,79.998779%,65.879822%);fill-opacity:1;" d="M 21.324219 74.652344 C 21.328125 67.296875 23.417969 60.734375 26.882812 55.378906 C 30.34375 50.023438 35.1875 45.890625 40.679688 43.453125 C 44.339844 41.828125 48.285156 40.953125 52.328125 40.953125 C 56.394531 40.953125 60.558594 41.832031 64.683594 43.773438 L 336.597656 171.773438 C 342.222656 174.421875 346.886719 178.753906 350.152344 184.128906 C 353.421875 189.507812 355.277344 195.914062 355.277344 202.652344 L 355.277344 305.429688 C 355.277344 312.59375 353.246094 319.121094 349.835938 324.488281 C 346.425781 329.855469 341.636719 334.054688 336.132812 336.539062 C 332.460938 338.199219 328.476562 339.101562 324.332031 339.101562 C 322.503906 339.101562 320.644531 338.929688 318.765625 338.558594 L 46.851562 285.445312 C 39.527344 284.011719 33.171875 279.863281 28.609375 273.984375 C 24.050781 268.105469 21.324219 260.515625 21.324219 252.316406 Z M 14.730469 74.652344 L 14.730469 252.316406 C 14.730469 261.976562 17.941406 270.976562 23.398438 278.015625 C 28.847656 285.046875 36.585938 290.148438 45.585938 291.902344 L 317.5 345.019531 C 319.796875 345.464844 322.078125 345.683594 324.332031 345.683594 C 329.441406 345.683594 334.367188 344.5625 338.847656 342.535156 C 343.335938 340.507812 347.386719 337.578125 350.796875 333.949219 C 357.613281 326.703125 361.867188 316.648438 361.867188 305.429688 L 361.867188 202.652344 C 361.867188 194.707031 359.6875 187.128906 355.792969 180.714844 C 351.898438 174.308594 346.277344 169.050781 339.40625 165.816406 L 338.003906 168.796875 L 339.40625 165.816406 L 67.496094 37.820312 C 62.511719 35.472656 57.351562 34.367188 52.328125 34.371094 C 47.328125 34.371094 42.464844 35.457031 38 37.441406 C 33.53125 39.421875 29.460938 42.304688 26.015625 45.898438 C 19.121094 53.082031 14.730469 63.164062 14.730469 74.652344 "/>
</g>
<path style=" stroke:none;fill-rule:nonzero;fill:rgb(100%,100%,100%);fill-opacity:1;" d="M 320.207031 177.390625 L 319.523438 178.890625 L 79.972656 69.898438 C 76.035156 68.105469 72 67.28125 68.066406 67.28125 C 60.578125 67.28125 53.433594 70.277344 48.140625 75.332031 C 42.851562 80.390625 39.414062 87.476562 39.292969 95.722656 L 37.179688 242.191406 C 37.175781 242.332031 37.175781 242.46875 37.175781 242.609375 C 37.175781 256.367188 46.898438 268.230469 60.410156 270.882812 L 300.851562 318.140625 C 302.738281 318.511719 304.613281 318.691406 306.453125 318.691406 C 314.121094 318.691406 321.242188 315.601562 326.480469 310.503906 C 331.714844 305.398438 335.054688 298.3125 335.167969 290.277344 L 336.390625 205.542969 C 336.394531 205.402344 336.398438 205.261719 336.398438 205.125 C 336.398438 193.832031 329.808594 183.566406 319.523438 178.890625 L 320.207031 177.390625 L 320.890625 175.894531 C 332.355469 181.109375 339.691406 192.546875 339.695312 205.125 C 339.695312 205.28125 339.691406 205.433594 339.6875 205.589844 L 338.464844 290.320312 C 338.339844 299.253906 334.609375 307.183594 328.78125 312.855469 C 322.957031 318.535156 315.015625 321.980469 306.453125 321.980469 C 304.402344 321.980469 302.3125 321.785156 300.214844 321.371094 L 59.773438 274.113281 C 44.710938 271.152344 33.878906 257.933594 33.878906 242.609375 C 33.878906 242.453125 33.878906 242.300781 33.882812 242.144531 L 35.996094 95.675781 C 36.125 86.527344 39.972656 78.578125 45.863281 72.953125 C 51.753906 67.328125 59.691406 63.992188 68.066406 63.992188 C 72.460938 63.992188 76.972656 64.914062 81.339844 66.902344 L 320.890625 175.894531 L 320.207031 177.390625 "/>
<path style=" stroke:none;fill-rule:nonzero;fill:rgb(100%,100%,100%);fill-opacity:1;" d="M 294.636719 231.683594 L 336.800781 231.683594 C 337.578125 231.683594 338.207031 230.945312 338.207031 230.039062 C 338.207031 229.128906 337.578125 228.394531 336.800781 228.394531 L 294.636719 228.394531 C 293.859375 228.394531 293.230469 229.128906 293.230469 230.039062 C 293.230469 230.945312 293.859375 231.683594 294.636719 231.683594 "/>
<path style=" stroke:none;fill-rule:nonzero;fill:rgb(100%,100%,100%);fill-opacity:1;" d="M 294.636719 266.300781 L 336.800781 266.300781 C 337.578125 266.300781 338.207031 265.5625 338.207031 264.652344 C 338.207031 263.746094 337.578125 263.007812 336.800781 263.007812 L 294.636719 263.007812 C 293.859375 263.007812 293.230469 263.746094 293.230469 264.652344 C 293.230469 265.5625 293.859375 266.300781 294.636719 266.300781 "/>
<path style=" stroke:none;fill-rule:nonzero;fill:rgb(100%,100%,100%);fill-opacity:1;" d="M 295.730469 249.773438 L 337.363281 249.773438 C 338.140625 249.773438 338.769531 249.035156 338.769531 248.125 C 338.769531 247.214844 338.140625 246.480469 337.363281 246.480469 L 295.730469 246.480469 C 294.953125 246.480469 294.324219 247.214844 294.324219 248.125 C 294.324219 249.035156 294.953125 249.773438 295.730469 249.773438 "/>
<path style=" stroke:none;fill-rule:nonzero;fill:rgb(100%,100%,100%);fill-opacity:1;" d="M 36.085938 185.300781 L 78.25 185.300781 C 79.027344 185.300781 79.65625 184.5625 79.65625 183.65625 C 79.65625 182.746094 79.027344 182.011719 78.25 182.011719 L 36.085938 182.011719 C 35.308594 182.011719 34.679688 182.746094 34.679688 183.65625 C 34.679688 184.5625 35.308594 185.300781 36.085938 185.300781 "/>
<path style=" stroke:none;fill-rule:nonzero;fill:rgb(100%,100%,100%);fill-opacity:1;" d="M 36.085938 219.917969 L 78.25 219.917969 C 79.027344 219.917969 79.65625 219.183594 79.65625 218.273438 C 79.65625 217.363281 79.027344 216.625 78.25 216.625 L 36.085938 216.625 C 35.308594 216.625 34.679688 217.363281 34.679688 218.273438 C 34.679688 219.183594 35.308594 219.917969 36.085938 219.917969 "/>
<path style=" stroke:none;fill-rule:nonzero;fill:rgb(100%,100%,100%);fill-opacity:1;" d="M 37.179688 203.390625 L 78.8125 203.390625 C 79.589844 203.390625 80.21875 202.65625 80.21875 201.746094 C 80.21875 200.835938 79.589844 200.097656 78.8125 200.097656 L 37.179688 200.097656 C 36.402344 200.097656 35.773438 200.835938 35.773438 201.746094 C 35.773438 202.65625 36.402344 203.390625 37.179688 203.390625 "/>
<path style=" stroke:none;fill-rule:nonzero;fill:rgb(70.979309%,79.998779%,65.879822%);fill-opacity:1;" d="M 312.363281 194.59375 L 315.84375 201.640625 L 323.632812 202.769531 L 317.996094 208.253906 L 319.328125 216 L 312.363281 212.34375 L 305.398438 216 L 306.726562 208.253906 L 301.09375 202.769531 L 308.878906 201.640625 L 312.363281 194.59375 "/>
<path style=" stroke:none;fill-rule:nonzero;fill:rgb(70.979309%,79.998779%,65.879822%);fill-opacity:1;" d="M 57.167969 231.683594 L 60.648438 238.730469 L 68.441406 239.859375 L 62.800781 245.34375 L 64.132812 253.085938 L 57.167969 249.429688 L 50.203125 253.085938 L 51.535156 245.34375 L 45.894531 239.859375 L 53.6875 238.730469 L 57.167969 231.683594 "/>
<path style=" stroke:none;fill-rule:nonzero;fill:rgb(79.60968%,61.178589%,45.098877%);fill-opacity:1;" d="M 62.726562 129.058594 C 62.746094 128.554688 62.761719 128.050781 62.761719 127.566406 C 62.761719 127.027344 62.742188 126.515625 62.695312 126.078125 C 62.648438 125.648438 62.566406 125.289062 62.480469 125.085938 C 62.445312 124.996094 62.410156 124.941406 62.386719 124.90625 C 62.351562 124.914062 62.292969 124.925781 62.207031 124.957031 C 62.078125 125.003906 61.898438 125.09375 61.679688 125.238281 C 61.667969 125.242188 61.601562 125.296875 61.496094 125.417969 C 61.390625 125.535156 61.257812 125.710938 61.027344 125.914062 C 60.871094 126.046875 60.65625 126.191406 60.375 126.28125 C 60.214844 126.335938 60.035156 126.363281 59.863281 126.363281 C 59.652344 126.363281 59.449219 126.324219 59.261719 126.261719 C 59.074219 126.199219 58.902344 126.113281 58.734375 126.011719 C 58.496094 125.863281 58.320312 125.6875 58.183594 125.511719 C 58.042969 125.335938 57.9375 125.15625 57.84375 124.972656 C 57.664062 124.605469 57.539062 124.226562 57.453125 123.859375 C 57.398438 123.617188 57.359375 123.382812 57.339844 123.152344 C 57.3125 122.820312 57.300781 122.464844 57.300781 122.097656 C 57.300781 121.316406 57.351562 120.476562 57.445312 119.679688 C 57.476562 119.390625 57.515625 119.109375 57.558594 118.835938 L 57 118.835938 C 56.710938 118.839844 56.4375 118.914062 56.160156 119.066406 C 55.886719 119.222656 55.613281 119.464844 55.371094 119.785156 C 54.886719 120.425781 54.546875 121.382812 54.550781 122.453125 L 54.550781 125.445312 C 54.550781 126.246094 54.738281 126.984375 55.039062 127.574219 C 55.335938 128.164062 55.75 128.597656 56.160156 128.824219 C 56.4375 128.984375 56.710938 129.058594 57 129.058594 L 62.726562 129.058594 "/>
<path style=" stroke:none;fill-rule:nonzero;fill:rgb(79.60968%,61.178589%,45.098877%);fill-opacity:1;" d="M 66.457031 129.269531 C 66.589844 128.960938 66.765625 128.65625 66.996094 128.375 C 67.191406 128.125 67.382812 127.921875 67.578125 127.746094 C 67.773438 127.574219 67.980469 127.425781 68.242188 127.3125 C 68.414062 127.246094 68.617188 127.191406 68.835938 127.191406 C 68.996094 127.191406 69.15625 127.222656 69.308594 127.277344 C 69.460938 127.328125 69.597656 127.40625 69.710938 127.496094 C 69.933594 127.675781 70.066406 127.875 70.164062 128.058594 C 70.230469 128.183594 70.277344 128.304688 70.320312 128.425781 C 70.375 128.589844 70.417969 128.75 70.449219 128.914062 C 70.496094 129.132812 70.527344 129.355469 70.550781 129.578125 C 70.585938 129.878906 70.609375 130.179688 70.625 130.472656 C 70.648438 130.863281 70.667969 131.234375 70.691406 131.53125 C 70.730469 132.058594 70.8125 132.535156 70.917969 132.9375 C 70.945312 133.03125 70.972656 133.125 71 133.210938 C 71.046875 132.964844 71.082031 132.667969 71.109375 132.320312 C 71.253906 130.519531 71.292969 128.691406 71.292969 126.839844 C 71.296875 124.839844 71.25 122.816406 71.242188 120.796875 C 71.160156 120.726562 71.085938 120.65625 71.007812 120.582031 C 70.789062 120.359375 70.59375 120.121094 70.410156 119.867188 C 70.109375 119.457031 69.832031 119.015625 69.558594 118.585938 C 69.445312 118.496094 69.347656 118.429688 69.257812 118.386719 C 69.15625 118.339844 69.0625 118.308594 68.929688 118.292969 C 68.871094 118.285156 68.808594 118.28125 68.742188 118.28125 C 68.453125 118.28125 68.089844 118.355469 67.683594 118.488281 C 67.277344 118.617188 66.835938 118.800781 66.382812 118.980469 C 66.082031 119.101562 65.773438 119.21875 65.449219 119.316406 C 64.484375 119.605469 63.628906 119.761719 62.804688 119.761719 C 62.125 119.761719 61.476562 119.652344 60.84375 119.453125 C 60.824219 119.445312 60.804688 119.4375 60.785156 119.433594 C 60.363281 119.292969 59.921875 119.5625 59.867188 120 C 59.863281 120.042969 59.855469 120.085938 59.851562 120.128906 C 59.773438 120.808594 59.730469 121.535156 59.730469 122.171875 C 59.730469 122.472656 59.742188 122.75 59.761719 122.996094 C 59.769531 123.117188 59.800781 123.296875 59.847656 123.476562 C 59.898438 123.65625 59.964844 123.835938 60.027344 123.960938 C 60.035156 123.972656 60.039062 123.980469 60.042969 123.988281 C 60.085938 123.941406 60.128906 123.890625 60.1875 123.832031 C 60.308594 123.699219 60.464844 123.542969 60.683594 123.402344 C 60.988281 123.207031 61.277344 123.054688 61.574219 122.941406 C 61.871094 122.832031 62.175781 122.761719 62.492188 122.761719 C 62.832031 122.761719 63.179688 122.847656 63.46875 123.019531 C 63.761719 123.183594 63.988281 123.417969 64.15625 123.660156 C 64.265625 123.824219 64.351562 123.992188 64.425781 124.164062 C 64.523438 124.394531 64.59375 124.628906 64.652344 124.871094 C 64.722656 125.195312 64.773438 125.53125 64.804688 125.878906 C 64.84375 126.339844 64.859375 126.824219 64.859375 127.308594 C 64.859375 127.929688 64.835938 128.5625 64.8125 129.15625 C 64.789062 129.75 64.769531 130.308594 64.769531 130.773438 C 64.769531 131.113281 64.78125 131.40625 64.808594 131.601562 C 64.84375 131.871094 64.921875 132.324219 65.039062 132.800781 C 65.160156 133.28125 65.3125 133.796875 65.484375 134.21875 C 65.554688 134.394531 65.628906 134.546875 65.699219 134.671875 C 65.839844 134.414062 65.929688 134.117188 65.984375 133.769531 C 66.042969 133.398438 66.050781 132.972656 66.050781 132.511719 C 66.050781 132.328125 66.050781 132.140625 66.050781 131.949219 C 66.050781 131.535156 66.058594 131.101562 66.109375 130.652344 C 66.160156 130.203125 66.257812 129.734375 66.457031 129.269531 "/>
<path style=" stroke:none;fill-rule:nonzero;fill:rgb(79.60968%,61.178589%,45.098877%);fill-opacity:1;" d="M 116.179688 130.886719 C 115.988281 130.800781 115.785156 130.753906 115.566406 130.753906 L 73.917969 130.753906 C 73.546875 130.753906 73.246094 131.042969 73.222656 131.410156 C 73.203125 131.765625 73.179688 132.125 73.152344 132.480469 C 73.105469 133.046875 73.035156 133.53125 72.945312 133.949219 C 72.847656 134.371094 72.730469 134.722656 72.558594 135.042969 C 72.445312 135.253906 72.304688 135.453125 72.105469 135.628906 C 71.992188 135.730469 71.855469 135.820312 71.703125 135.890625 C 71.523438 135.972656 71.320312 136.019531 71.121094 136.015625 C 70.808594 136.019531 70.535156 135.914062 70.320312 135.785156 C 70.109375 135.652344 69.953125 135.5 69.808594 135.332031 C 69.535156 134.996094 69.339844 134.609375 69.164062 134.167969 C 69.050781 133.871094 68.957031 133.546875 68.875 133.199219 C 68.769531 132.738281 68.6875 132.226562 68.648438 131.6875 C 68.617188 131.285156 68.597656 130.847656 68.570312 130.425781 C 68.554688 130.195312 68.535156 129.972656 68.511719 129.769531 C 68.445312 129.863281 68.386719 129.964844 68.339844 130.074219 C 68.277344 130.226562 68.226562 130.394531 68.191406 130.585938 C 68.113281 130.964844 68.097656 131.429688 68.101562 131.949219 C 68.101562 132.128906 68.101562 132.316406 68.101562 132.511719 C 68.101562 133 68.09375 133.527344 68.007812 134.074219 C 67.925781 134.617188 67.765625 135.199219 67.449219 135.746094 C 67.304688 135.996094 67.148438 136.214844 66.964844 136.40625 C 66.785156 136.597656 66.566406 136.769531 66.289062 136.882812 C 66.109375 136.957031 65.902344 137 65.695312 136.996094 C 65.535156 136.996094 65.375 136.972656 65.230469 136.925781 C 65.085938 136.882812 64.957031 136.816406 64.84375 136.746094 C 64.617188 136.605469 64.445312 136.4375 64.300781 136.257812 C 64.015625 135.910156 63.816406 135.519531 63.636719 135.105469 C 63.519531 134.828125 63.414062 134.542969 63.324219 134.25 C 63.199219 133.867188 63.09375 133.476562 63.007812 133.113281 C 62.894531 132.632812 62.816406 132.195312 62.773438 131.855469 C 62.734375 131.519531 62.722656 131.164062 62.71875 130.773438 C 62.71875 130.765625 62.71875 130.761719 62.71875 130.753906 L 60.28125 130.753906 C 60.0625 130.753906 59.855469 130.800781 59.664062 130.886719 C 59.476562 130.96875 59.296875 131.09375 59.148438 131.25 C 58.847656 131.5625 58.652344 132 58.652344 132.488281 L 58.652344 136.664062 C 58.652344 137.03125 58.761719 137.363281 58.941406 137.644531 C 59.125 137.921875 59.378906 138.140625 59.664062 138.265625 C 59.855469 138.351562 60.0625 138.394531 60.28125 138.394531 L 115.566406 138.394531 C 115.785156 138.394531 115.988281 138.351562 116.179688 138.265625 C 116.371094 138.183594 116.546875 138.058594 116.699219 137.902344 C 117 137.589844 117.191406 137.152344 117.191406 136.664062 L 117.191406 132.488281 C 117.191406 132.121094 117.082031 131.785156 116.902344 131.507812 C 116.722656 131.226562 116.464844 131.011719 116.179688 130.886719 "/>
<path style=" stroke:none;fill-rule:nonzero;fill:rgb(79.60968%,61.178589%,45.098877%);fill-opacity:1;" d="M 76.53125 95.890625 C 77.339844 95.890625 77.992188 96.183594 77.992188 96.550781 C 77.992188 96.914062 77.339844 97.207031 76.53125 97.207031 C 75.722656 97.207031 75.066406 96.914062 75.066406 96.550781 C 75.066406 96.183594 75.722656 95.890625 76.53125 95.890625 Z M 82.027344 92.316406 C 82.835938 92.316406 83.488281 92.609375 83.488281 92.976562 C 83.488281 93.339844 82.835938 93.632812 82.027344 93.632812 C 81.21875 93.632812 80.5625 93.339844 80.5625 92.976562 C 80.5625 92.609375 81.21875 92.316406 82.027344 92.316406 Z M 84.953125 96.550781 C 84.953125 96.914062 84.296875 97.207031 83.488281 97.207031 C 82.679688 97.207031 82.027344 96.914062 82.027344 96.550781 C 82.027344 96.183594 82.679688 95.890625 83.488281 95.890625 C 84.296875 95.890625 84.953125 96.183594 84.953125 96.550781 Z M 87.921875 90.113281 C 88.730469 90.113281 89.382812 90.40625 89.382812 90.769531 C 89.382812 91.132812 88.730469 91.429688 87.921875 91.429688 C 87.113281 91.429688 86.460938 91.132812 86.460938 90.769531 C 86.460938 90.40625 87.113281 90.113281 87.921875 90.113281 Z M 91.304688 97.207031 C 91.304688 97.570312 90.648438 97.867188 89.84375 97.867188 C 89.035156 97.867188 88.378906 97.570312 88.378906 97.207031 C 88.378906 96.84375 89.035156 96.550781 89.84375 96.550781 C 90.648438 96.550781 91.304688 96.84375 91.304688 97.207031 Z M 92.734375 92.316406 C 93.542969 92.316406 94.195312 92.609375 94.195312 92.976562 C 94.195312 93.339844 93.542969 93.632812 92.734375 93.632812 C 91.929688 93.632812 91.273438 93.339844 91.273438 92.976562 C 91.273438 92.609375 91.929688 92.316406 92.734375 92.316406 Z M 96.144531 95.890625 C 96.953125 95.890625 97.609375 96.183594 97.609375 96.550781 C 97.609375 96.914062 96.953125 97.207031 96.144531 97.207031 C 95.339844 97.207031 94.683594 96.914062 94.683594 96.550781 C 94.683594 96.183594 95.339844 95.890625 96.144531 95.890625 Z M 99.742188 93.332031 C 100.550781 93.332031 101.203125 93.625 101.203125 93.988281 C 101.203125 94.351562 100.550781 94.648438 99.742188 94.648438 C 98.933594 94.648438 98.277344 94.351562 98.277344 93.988281 C 98.277344 93.625 98.933594 93.332031 99.742188 93.332031 Z M 103.152344 96.550781 C 103.960938 96.550781 104.617188 96.84375 104.617188 97.207031 C 104.617188 97.570312 103.960938 97.867188 103.152344 97.867188 C 102.34375 97.867188 101.691406 97.570312 101.691406 97.207031 C 101.691406 96.84375 102.34375 96.550781 103.152344 96.550781 Z M 60.246094 112.773438 C 60.4375 112.875 60.636719 112.925781 60.859375 112.929688 L 115.898438 112.929688 C 116.125 112.925781 116.320312 112.875 116.511719 112.773438 C 116.707031 112.671875 116.890625 112.523438 117.054688 112.320312 C 117.386719 111.914062 117.609375 111.3125 117.609375 110.671875 C 117.609375 110.375 117.5625 110.070312 117.464844 109.773438 C 115.417969 103.5625 111.519531 98.222656 106.449219 94.433594 C 101.375 90.648438 95.136719 88.417969 88.378906 88.417969 C 81.621094 88.417969 75.382812 90.648438 70.308594 94.433594 C 65.238281 98.222656 61.34375 103.5625 59.296875 109.773438 C 59.199219 110.070312 59.152344 110.375 59.152344 110.671875 C 59.152344 111.148438 59.273438 111.613281 59.476562 111.980469 C 59.679688 112.351562 59.957031 112.628906 60.246094 112.773438 "/>
<path style=" stroke:none;fill-rule:nonzero;fill:rgb(79.60968%,61.178589%,45.098877%);fill-opacity:1;" d="M 119.546875 119.878906 C 119.511719 119.867188 119.46875 119.851562 119.433594 119.84375 C 119.261719 119.789062 119.132812 119.769531 119.082031 119.769531 L 119.058594 119.773438 L 119.050781 119.773438 C 118.984375 119.789062 118.929688 119.808594 118.867188 119.847656 C 118.804688 119.882812 118.734375 119.9375 118.652344 120.015625 C 118.484375 120.167969 118.292969 120.414062 118.039062 120.699219 C 117.863281 120.890625 117.660156 121.097656 117.386719 121.289062 C 117.230469 121.394531 117.046875 121.492188 116.84375 121.566406 C 116.609375 121.648438 116.347656 121.695312 116.082031 121.695312 C 115.640625 121.695312 115.195312 121.574219 114.746094 121.363281 C 114.3125 121.160156 113.976562 120.894531 113.726562 120.664062 C 113.65625 120.597656 113.59375 120.539062 113.539062 120.480469 C 113.359375 120.53125 113.179688 120.585938 112.992188 120.640625 C 109.703125 121.59375 105.425781 122.890625 101.515625 124.261719 C 98.910156 125.175781 96.460938 126.125 94.59375 127.011719 C 93.527344 127.515625 92.648438 128.003906 92.0625 128.421875 C 91.832031 128.589844 91.535156 128.652344 91.257812 128.59375 C 90.976562 128.535156 90.734375 128.359375 90.585938 128.117188 L 86.5625 121.386719 C 86.394531 121.105469 86.054688 120.980469 85.746094 121.085938 C 85.667969 121.113281 85.585938 121.140625 85.503906 121.167969 C 85.066406 121.296875 84.605469 121.394531 84.113281 121.394531 C 83.816406 121.394531 83.507812 121.355469 83.199219 121.273438 C 82.753906 121.144531 82.359375 120.917969 82.074219 120.648438 C 81.78125 120.378906 81.59375 120.089844 81.449219 119.84375 C 81.351562 119.679688 81.273438 119.53125 81.195312 119.402344 C 81.097656 119.230469 81.007812 119.09375 80.910156 118.984375 C 80.722656 118.769531 80.5625 118.65625 80.394531 118.585938 C 80.230469 118.511719 80.054688 118.476562 79.832031 118.472656 C 79.585938 118.472656 79.289062 118.523438 78.953125 118.617188 C 78.613281 118.714844 78.234375 118.855469 77.835938 119.019531 C 77.039062 119.351562 76.15625 119.777344 75.210938 120.085938 C 74.789062 120.222656 74.351562 120.332031 73.898438 120.394531 C 73.550781 120.4375 73.289062 120.730469 73.292969 121.078125 C 73.300781 122.980469 73.34375 124.90625 73.34375 126.839844 C 73.34375 127.230469 73.339844 127.617188 73.335938 128.007812 C 73.328125 128.394531 73.640625 128.710938 74.027344 128.710938 L 118.113281 128.710938 C 118.386719 128.710938 118.644531 128.636719 118.902344 128.496094 C 119.164062 128.347656 119.421875 128.121094 119.648438 127.820312 C 120.101562 127.21875 120.417969 126.320312 120.417969 125.316406 L 120.417969 122.503906 C 120.417969 121.75 120.242188 121.054688 119.957031 120.503906 C 119.839844 120.265625 119.699219 120.058594 119.546875 119.878906 "/>
<path style=" stroke:none;fill-rule:nonzero;fill:rgb(79.60968%,61.178589%,45.098877%);fill-opacity:1;" d="M 121.707031 118.136719 C 121.558594 117.976562 121.28125 117.777344 120.992188 117.585938 C 120.796875 117.457031 120.597656 117.332031 120.398438 117.179688 C 119.953125 116.847656 119.5625 116.46875 119.175781 116.117188 C 118.792969 115.761719 118.421875 115.441406 118.078125 115.222656 C 117.878906 115.097656 117.675781 114.976562 117.46875 114.863281 C 117.304688 114.773438 117.113281 114.746094 116.9375 114.804688 C 116.609375 114.914062 116.261719 114.972656 115.898438 114.972656 L 60.859375 114.972656 C 60.296875 114.972656 59.761719 114.832031 59.296875 114.589844 C 58.992188 114.429688 58.722656 114.230469 58.480469 114 C 58.464844 113.996094 58.445312 113.996094 58.425781 113.992188 C 58.382812 113.980469 58.335938 113.96875 58.289062 113.953125 C 58.160156 113.96875 58.007812 113.996094 57.828125 114.046875 C 57.566406 114.125 57.253906 114.242188 56.9375 114.390625 C 56.296875 114.691406 55.613281 115.125 55.054688 115.578125 C 54.683594 115.882812 54.367188 116.199219 54.15625 116.472656 C 54.035156 116.632812 53.949219 116.773438 53.898438 116.878906 C 53.839844 117.015625 53.804688 117.121094 53.785156 117.195312 C 53.832031 117.203125 53.882812 117.207031 53.945312 117.207031 C 54.167969 117.210938 54.480469 117.152344 54.761719 117.050781 C 55.25 116.875 55.734375 116.695312 56.25 116.546875 C 56.757812 116.40625 57.292969 116.292969 57.871094 116.292969 C 58.527344 116.292969 59.230469 116.449219 59.902344 116.8125 C 60.496094 117.128906 61.003906 117.355469 61.464844 117.503906 C 61.925781 117.648438 62.339844 117.714844 62.804688 117.714844 C 63.367188 117.714844 64.015625 117.609375 64.859375 117.355469 C 65.195312 117.257812 65.613281 117.085938 66.074219 116.902344 C 66.535156 116.71875 67.042969 116.523438 67.585938 116.390625 C 67.949219 116.300781 68.335938 116.238281 68.742188 116.238281 C 68.882812 116.238281 69.027344 116.246094 69.171875 116.261719 C 69.4375 116.292969 69.691406 116.359375 69.921875 116.445312 C 70.148438 116.535156 70.355469 116.644531 70.539062 116.765625 C 70.902344 117.011719 71.171875 117.273438 71.417969 117.503906 C 71.578125 117.660156 71.726562 117.800781 71.882812 117.925781 C 72.105469 118.109375 72.3125 118.21875 72.523438 118.292969 C 72.738281 118.363281 72.960938 118.398438 73.210938 118.398438 C 73.507812 118.398438 73.84375 118.347656 74.207031 118.25 C 74.570312 118.15625 74.957031 118.015625 75.363281 117.851562 C 76.179688 117.523438 77.039062 117.101562 77.9375 116.792969 C 78.539062 116.589844 79.164062 116.433594 79.832031 116.429688 C 80.289062 116.429688 80.765625 116.511719 81.222656 116.714844 C 81.679688 116.914062 82.105469 117.234375 82.460938 117.648438 C 82.710938 117.9375 82.882812 118.226562 83.019531 118.460938 C 83.148438 118.699219 83.253906 118.882812 83.335938 119 C 83.394531 119.082031 83.441406 119.128906 83.488281 119.167969 C 83.550781 119.21875 83.613281 119.261719 83.757812 119.300781 C 83.863281 119.332031 83.976562 119.347656 84.113281 119.347656 C 84.277344 119.347656 84.472656 119.324219 84.6875 119.269531 C 84.902344 119.21875 85.140625 119.136719 85.382812 119.039062 C 85.878906 118.84375 86.40625 118.574219 86.933594 118.316406 C 87.289062 118.144531 87.644531 117.976562 88.003906 117.84375 C 88.710938 117.589844 89.519531 117.339844 90.355469 117.144531 C 91.1875 116.953125 92.046875 116.8125 92.871094 116.796875 C 92.902344 116.796875 92.929688 116.796875 92.960938 116.796875 C 93.386719 116.796875 93.789062 116.859375 94.164062 116.945312 C 94.539062 117.035156 94.886719 117.148438 95.214844 117.261719 C 95.871094 117.488281 96.449219 117.699219 96.953125 117.773438 C 97.140625 117.804688 97.328125 117.816406 97.519531 117.816406 C 98.074219 117.820312 98.683594 117.707031 99.332031 117.546875 C 99.984375 117.390625 100.671875 117.183594 101.410156 117.039062 C 101.902344 116.9375 102.414062 116.871094 102.949219 116.871094 C 103.308594 116.871094 103.679688 116.902344 104.058594 116.980469 C 104.894531 117.15625 105.574219 117.507812 106.15625 117.828125 C 106.734375 118.148438 107.222656 118.441406 107.65625 118.601562 C 107.949219 118.707031 108.207031 118.761719 108.484375 118.761719 C 108.707031 118.761719 108.941406 118.730469 109.230469 118.632812 C 109.511719 118.542969 109.796875 118.410156 110.125 118.261719 C 110.449219 118.121094 110.820312 117.960938 111.257812 117.851562 C 111.546875 117.78125 111.871094 117.734375 112.214844 117.734375 C 112.359375 117.734375 112.507812 117.742188 112.660156 117.757812 C 112.925781 117.789062 113.171875 117.84375 113.398438 117.917969 C 113.625 117.992188 113.828125 118.089844 114.011719 118.203125 C 114.375 118.421875 114.628906 118.675781 114.828125 118.875 C 114.863281 118.910156 114.894531 118.941406 114.925781 118.972656 C 114.933594 118.972656 114.941406 118.976562 114.949219 118.976562 C 115.242188 118.976562 115.5 118.933594 115.738281 118.851562 C 115.902344 118.796875 116.082031 118.808594 116.238281 118.882812 C 116.238281 118.882812 116.242188 118.886719 116.246094 118.886719 C 116.519531 119.015625 116.84375 118.941406 117.050781 118.722656 C 117.054688 118.71875 117.058594 118.714844 117.0625 118.710938 C 117.277344 118.480469 117.550781 118.234375 117.914062 118.035156 C 118.121094 117.921875 118.359375 117.828125 118.613281 117.773438 C 118.777344 117.738281 118.929688 117.726562 119.082031 117.726562 C 119.347656 117.726562 119.585938 117.765625 119.808594 117.824219 C 120.03125 117.878906 120.238281 117.949219 120.429688 118.019531 C 120.8125 118.160156 121.15625 118.308594 121.417969 118.382812 C 121.589844 118.4375 121.71875 118.457031 121.777344 118.453125 C 121.78125 118.453125 121.78125 118.453125 121.78125 118.453125 C 121.785156 118.449219 121.789062 118.445312 121.792969 118.4375 C 121.832031 118.375 121.847656 118.34375 121.847656 118.332031 L 121.839844 118.3125 C 121.824219 118.28125 121.78125 118.21875 121.707031 118.136719 "/>
<path style=" stroke:none;fill-rule:nonzero;fill:rgb(79.60968%,61.178589%,45.098877%);fill-opacity:1;" d="M 93.710938 125.160156 C 94.84375 124.625 96.144531 124.082031 97.542969 123.539062 C 100.347656 122.457031 103.550781 121.386719 106.589844 120.429688 C 106.617188 120.421875 106.644531 120.414062 106.671875 120.40625 C 106.542969 120.347656 106.414062 120.292969 106.292969 120.234375 C 105.679688 119.925781 105.15625 119.589844 104.648438 119.347656 C 104.308594 119.179688 103.980469 119.054688 103.632812 118.984375 C 103.414062 118.9375 103.1875 118.917969 102.949219 118.917969 C 102.417969 118.914062 101.824219 119.023438 101.179688 119.183594 C 100.53125 119.34375 99.835938 119.550781 99.089844 119.695312 C 98.59375 119.792969 98.070312 119.863281 97.519531 119.863281 C 97.234375 119.863281 96.941406 119.84375 96.644531 119.796875 C 96.046875 119.707031 95.511719 119.527344 95.023438 119.359375 C 94.535156 119.1875 94.09375 119.03125 93.695312 118.9375 C 93.429688 118.875 93.1875 118.84375 92.960938 118.84375 L 92.914062 118.84375 C 92.292969 118.855469 91.554688 118.964844 90.816406 119.136719 C 90.082031 119.308594 89.34375 119.539062 88.703125 119.769531 C 88.507812 119.839844 88.269531 119.945312 88.007812 120.070312 L 88.164062 120.070312 L 91.457031 125.582031 C 91.648438 125.898438 92.050781 126.011719 92.375 125.835938 C 92.789062 125.613281 93.234375 125.386719 93.710938 125.160156 "/>
</g>
</svg>
