<?xml version="1.0" encoding="UTF-8"?>
<svg xmlns="http://www.w3.org/2000/svg" xmlns:xlink="http://www.w3.org/1999/xlink" width="375pt" height="374.999991pt" viewBox="0 0 375 374.999991" version="1.2">
<defs>
<clipPath id="clip1">
  <path d="M 84 158 L 240 158 L 240 209 L 84 209 Z M 84 158 "/>
</clipPath>
<clipPath id="clip2">
  <path d="M 75.699219 147.140625 L 244.714844 126.652344 L 255.996094 219.71875 L 86.984375 240.210938 Z M 75.699219 147.140625 "/>
</clipPath>
<clipPath id="clip3">
  <path d="M 75.699219 147.140625 L 244.714844 126.652344 L 255.996094 219.71875 L 86.984375 240.210938 Z M 75.699219 147.140625 "/>
</clipPath>
<clipPath id="clip4">
  <path d="M 75.699219 147.140625 L 244.78125 126.644531 L 256.109375 220.074219 L 87.027344 240.574219 Z M 75.699219 147.140625 "/>
</clipPath>
<clipPath id="clip5">
  <path d="M 239 166 L 247 166 L 247 178 L 239 178 Z M 239 166 "/>
</clipPath>
<clipPath id="clip6">
  <path d="M 75.699219 147.140625 L 244.714844 126.652344 L 255.996094 219.71875 L 86.984375 240.210938 Z M 75.699219 147.140625 "/>
</clipPath>
<clipPath id="clip7">
  <path d="M 75.699219 147.140625 L 244.714844 126.652344 L 255.996094 219.71875 L 86.984375 240.210938 Z M 75.699219 147.140625 "/>
</clipPath>
<clipPath id="clip8">
  <path d="M 75.699219 147.140625 L 244.78125 126.644531 L 256.109375 220.074219 L 87.027344 240.574219 Z M 75.699219 147.140625 "/>
</clipPath>
<clipPath id="clip9">
  <path d="M 140 139 L 203 139 L 203 155 L 140 155 Z M 140 139 "/>
</clipPath>
<clipPath id="clip10">
  <path d="M 75.699219 147.140625 L 244.714844 126.652344 L 255.996094 219.71875 L 86.984375 240.210938 Z M 75.699219 147.140625 "/>
</clipPath>
<clipPath id="clip11">
  <path d="M 75.699219 147.140625 L 244.714844 126.652344 L 255.996094 219.71875 L 86.984375 240.210938 Z M 75.699219 147.140625 "/>
</clipPath>
<clipPath id="clip12">
  <path d="M 75.699219 147.140625 L 244.78125 126.644531 L 256.109375 220.074219 L 87.027344 240.574219 Z M 75.699219 147.140625 "/>
</clipPath>
<clipPath id="clip13">
  <path d="M 150 151 L 157 151 L 157 185 L 150 185 Z M 150 151 "/>
</clipPath>
<clipPath id="clip14">
  <path d="M 75.699219 147.140625 L 244.714844 126.652344 L 255.996094 219.71875 L 86.984375 240.210938 Z M 75.699219 147.140625 "/>
</clipPath>
<clipPath id="clip15">
  <path d="M 75.699219 147.140625 L 244.714844 126.652344 L 255.996094 219.71875 L 86.984375 240.210938 Z M 75.699219 147.140625 "/>
</clipPath>
<clipPath id="clip16">
  <path d="M 75.699219 147.140625 L 244.78125 126.644531 L 256.109375 220.074219 L 87.027344 240.574219 Z M 75.699219 147.140625 "/>
</clipPath>
<clipPath id="clip17">
  <path d="M 193 144 L 200 144 L 200 179 L 193 179 Z M 193 144 "/>
</clipPath>
<clipPath id="clip18">
  <path d="M 75.699219 147.140625 L 244.714844 126.652344 L 255.996094 219.71875 L 86.984375 240.210938 Z M 75.699219 147.140625 "/>
</clipPath>
<clipPath id="clip19">
  <path d="M 75.699219 147.140625 L 244.714844 126.652344 L 255.996094 219.71875 L 86.984375 240.210938 Z M 75.699219 147.140625 "/>
</clipPath>
<clipPath id="clip20">
  <path d="M 75.699219 147.140625 L 244.78125 126.644531 L 256.109375 220.074219 L 87.027344 240.574219 Z M 75.699219 147.140625 "/>
</clipPath>
<clipPath id="clip21">
  <path d="M 234 128 L 244 128 L 244 165 L 234 165 Z M 234 128 "/>
</clipPath>
<clipPath id="clip22">
  <path d="M 75.699219 147.140625 L 244.714844 126.652344 L 255.996094 219.71875 L 86.984375 240.210938 Z M 75.699219 147.140625 "/>
</clipPath>
<clipPath id="clip23">
  <path d="M 75.699219 147.140625 L 244.714844 126.652344 L 255.996094 219.71875 L 86.984375 240.210938 Z M 75.699219 147.140625 "/>
</clipPath>
<clipPath id="clip24">
  <path d="M 75.699219 147.140625 L 244.78125 126.644531 L 256.109375 220.074219 L 87.027344 240.574219 Z M 75.699219 147.140625 "/>
</clipPath>
<clipPath id="clip25">
  <path d="M 241 174 L 253 174 L 253 212 L 241 212 Z M 241 174 "/>
</clipPath>
<clipPath id="clip26">
  <path d="M 75.699219 147.140625 L 244.714844 126.652344 L 255.996094 219.71875 L 86.984375 240.210938 Z M 75.699219 147.140625 "/>
</clipPath>
<clipPath id="clip27">
  <path d="M 75.699219 147.140625 L 244.714844 126.652344 L 255.996094 219.71875 L 86.984375 240.210938 Z M 75.699219 147.140625 "/>
</clipPath>
<clipPath id="clip28">
  <path d="M 75.699219 147.140625 L 244.78125 126.644531 L 256.109375 220.074219 L 87.027344 240.574219 Z M 75.699219 147.140625 "/>
</clipPath>
<clipPath id="clip29">
  <path d="M 184 196 L 212 196 L 212 216 L 184 216 Z M 184 196 "/>
</clipPath>
<clipPath id="clip30">
  <path d="M 75.699219 147.140625 L 244.714844 126.652344 L 255.996094 219.71875 L 86.984375 240.210938 Z M 75.699219 147.140625 "/>
</clipPath>
<clipPath id="clip31">
  <path d="M 75.699219 147.140625 L 244.714844 126.652344 L 255.996094 219.71875 L 86.984375 240.210938 Z M 75.699219 147.140625 "/>
</clipPath>
<clipPath id="clip32">
  <path d="M 75.699219 147.140625 L 244.78125 126.644531 L 256.109375 220.074219 L 87.027344 240.574219 Z M 75.699219 147.140625 "/>
</clipPath>
<clipPath id="clip33">
  <path d="M 193 211 L 206 211 L 206 226 L 193 226 Z M 193 211 "/>
</clipPath>
<clipPath id="clip34">
  <path d="M 75.699219 147.140625 L 244.714844 126.652344 L 255.996094 219.71875 L 86.984375 240.210938 Z M 75.699219 147.140625 "/>
</clipPath>
<clipPath id="clip35">
  <path d="M 75.699219 147.140625 L 244.714844 126.652344 L 255.996094 219.71875 L 86.984375 240.210938 Z M 75.699219 147.140625 "/>
</clipPath>
<clipPath id="clip36">
  <path d="M 75.699219 147.140625 L 244.78125 126.644531 L 256.109375 220.074219 L 87.027344 240.574219 Z M 75.699219 147.140625 "/>
</clipPath>
<clipPath id="clip37">
  <path d="M 183 150 L 191 150 L 191 161 L 183 161 Z M 183 150 "/>
</clipPath>
<clipPath id="clip38">
  <path d="M 75.699219 147.140625 L 244.714844 126.652344 L 255.996094 219.71875 L 86.984375 240.210938 Z M 75.699219 147.140625 "/>
</clipPath>
<clipPath id="clip39">
  <path d="M 75.699219 147.140625 L 244.714844 126.652344 L 255.996094 219.71875 L 86.984375 240.210938 Z M 75.699219 147.140625 "/>
</clipPath>
<clipPath id="clip40">
  <path d="M 75.699219 147.140625 L 244.78125 126.644531 L 256.109375 220.074219 L 87.027344 240.574219 Z M 75.699219 147.140625 "/>
</clipPath>
<clipPath id="clip41">
  <path d="M 173 161 L 183 161 L 183 174 L 173 174 Z M 173 161 "/>
</clipPath>
<clipPath id="clip42">
  <path d="M 75.699219 147.140625 L 244.714844 126.652344 L 255.996094 219.71875 L 86.984375 240.210938 Z M 75.699219 147.140625 "/>
</clipPath>
<clipPath id="clip43">
  <path d="M 75.699219 147.140625 L 244.714844 126.652344 L 255.996094 219.71875 L 86.984375 240.210938 Z M 75.699219 147.140625 "/>
</clipPath>
<clipPath id="clip44">
  <path d="M 75.699219 147.140625 L 244.78125 126.644531 L 256.109375 220.074219 L 87.027344 240.574219 Z M 75.699219 147.140625 "/>
</clipPath>
<clipPath id="clip45">
  <path d="M 156 165 L 169 165 L 169 176 L 156 176 Z M 156 165 "/>
</clipPath>
<clipPath id="clip46">
  <path d="M 75.699219 147.140625 L 244.714844 126.652344 L 255.996094 219.71875 L 86.984375 240.210938 Z M 75.699219 147.140625 "/>
</clipPath>
<clipPath id="clip47">
  <path d="M 75.699219 147.140625 L 244.714844 126.652344 L 255.996094 219.71875 L 86.984375 240.210938 Z M 75.699219 147.140625 "/>
</clipPath>
<clipPath id="clip48">
  <path d="M 75.699219 147.140625 L 244.78125 126.644531 L 256.109375 220.074219 L 87.027344 240.574219 Z M 75.699219 147.140625 "/>
</clipPath>
<clipPath id="clip49">
  <path d="M 82 184 L 118 184 L 118 195 L 82 195 Z M 82 184 "/>
</clipPath>
<clipPath id="clip50">
  <path d="M 75.699219 147.140625 L 244.714844 126.652344 L 255.996094 219.71875 L 86.984375 240.210938 Z M 75.699219 147.140625 "/>
</clipPath>
<clipPath id="clip51">
  <path d="M 75.699219 147.140625 L 244.714844 126.652344 L 255.996094 219.71875 L 86.984375 240.210938 Z M 75.699219 147.140625 "/>
</clipPath>
<clipPath id="clip52">
  <path d="M 75.699219 147.140625 L 244.78125 126.644531 L 256.109375 220.074219 L 87.027344 240.574219 Z M 75.699219 147.140625 "/>
</clipPath>
<clipPath id="clip53">
  <path d="M 220 158 L 241 158 L 241 187 L 220 187 Z M 220 158 "/>
</clipPath>
<clipPath id="clip54">
  <path d="M 75.699219 147.140625 L 244.714844 126.652344 L 255.996094 219.71875 L 86.984375 240.210938 Z M 75.699219 147.140625 "/>
</clipPath>
<clipPath id="clip55">
  <path d="M 75.699219 147.140625 L 244.714844 126.652344 L 255.996094 219.71875 L 86.984375 240.210938 Z M 75.699219 147.140625 "/>
</clipPath>
<clipPath id="clip56">
  <path d="M 75.699219 147.140625 L 244.78125 126.644531 L 256.109375 220.074219 L 87.027344 240.574219 Z M 75.699219 147.140625 "/>
</clipPath>
<clipPath id="clip57">
  <path d="M 84 159 L 121 159 L 121 182 L 84 182 Z M 84 159 "/>
</clipPath>
<clipPath id="clip58">
  <path d="M 75.699219 147.140625 L 244.714844 126.652344 L 255.996094 219.71875 L 86.984375 240.210938 Z M 75.699219 147.140625 "/>
</clipPath>
<clipPath id="clip59">
  <path d="M 75.699219 147.140625 L 244.714844 126.652344 L 255.996094 219.71875 L 86.984375 240.210938 Z M 75.699219 147.140625 "/>
</clipPath>
<clipPath id="clip60">
  <path d="M 75.699219 147.140625 L 244.78125 126.644531 L 256.109375 220.074219 L 87.027344 240.574219 Z M 75.699219 147.140625 "/>
</clipPath>
<clipPath id="clip61">
  <path d="M 90 177 L 228 177 L 228 209 L 90 209 Z M 90 177 "/>
</clipPath>
<clipPath id="clip62">
  <path d="M 75.699219 147.140625 L 244.714844 126.652344 L 255.996094 219.71875 L 86.984375 240.210938 Z M 75.699219 147.140625 "/>
</clipPath>
<clipPath id="clip63">
  <path d="M 75.699219 147.140625 L 244.714844 126.652344 L 255.996094 219.71875 L 86.984375 240.210938 Z M 75.699219 147.140625 "/>
</clipPath>
<clipPath id="clip64">
  <path d="M 75.699219 147.140625 L 244.78125 126.644531 L 256.109375 220.074219 L 87.027344 240.574219 Z M 75.699219 147.140625 "/>
</clipPath>
<clipPath id="clip65">
  <path d="M 147 178 L 204 178 L 204 189 L 147 189 Z M 147 178 "/>
</clipPath>
<clipPath id="clip66">
  <path d="M 75.699219 147.140625 L 244.714844 126.652344 L 255.996094 219.71875 L 86.984375 240.210938 Z M 75.699219 147.140625 "/>
</clipPath>
<clipPath id="clip67">
  <path d="M 75.699219 147.140625 L 244.714844 126.652344 L 255.996094 219.71875 L 86.984375 240.210938 Z M 75.699219 147.140625 "/>
</clipPath>
<clipPath id="clip68">
  <path d="M 75.699219 147.140625 L 244.78125 126.644531 L 256.109375 220.074219 L 87.027344 240.574219 Z M 75.699219 147.140625 "/>
</clipPath>
<clipPath id="clip69">
  <path d="M 224 168 L 240 168 L 240 187 L 224 187 Z M 224 168 "/>
</clipPath>
<clipPath id="clip70">
  <path d="M 75.699219 147.140625 L 244.714844 126.652344 L 255.996094 219.71875 L 86.984375 240.210938 Z M 75.699219 147.140625 "/>
</clipPath>
<clipPath id="clip71">
  <path d="M 75.699219 147.140625 L 244.714844 126.652344 L 255.996094 219.71875 L 86.984375 240.210938 Z M 75.699219 147.140625 "/>
</clipPath>
<clipPath id="clip72">
  <path d="M 75.699219 147.140625 L 244.78125 126.644531 L 256.109375 220.074219 L 87.027344 240.574219 Z M 75.699219 147.140625 "/>
</clipPath>
<clipPath id="clip73">
  <path d="M 83 184 L 118 184 L 118 195 L 83 195 Z M 83 184 "/>
</clipPath>
<clipPath id="clip74">
  <path d="M 75.699219 147.140625 L 244.714844 126.652344 L 255.996094 219.71875 L 86.984375 240.210938 Z M 75.699219 147.140625 "/>
</clipPath>
<clipPath id="clip75">
  <path d="M 75.699219 147.140625 L 244.714844 126.652344 L 255.996094 219.71875 L 86.984375 240.210938 Z M 75.699219 147.140625 "/>
</clipPath>
<clipPath id="clip76">
  <path d="M 75.699219 147.140625 L 244.78125 126.644531 L 256.109375 220.074219 L 87.027344 240.574219 Z M 75.699219 147.140625 "/>
</clipPath>
<clipPath id="clip77">
  <path d="M 239 169 L 247 169 L 247 178 L 239 178 Z M 239 169 "/>
</clipPath>
<clipPath id="clip78">
  <path d="M 75.699219 147.140625 L 244.714844 126.652344 L 255.996094 219.71875 L 86.984375 240.210938 Z M 75.699219 147.140625 "/>
</clipPath>
<clipPath id="clip79">
  <path d="M 75.699219 147.140625 L 244.714844 126.652344 L 255.996094 219.71875 L 86.984375 240.210938 Z M 75.699219 147.140625 "/>
</clipPath>
<clipPath id="clip80">
  <path d="M 75.699219 147.140625 L 244.78125 126.644531 L 256.109375 220.074219 L 87.027344 240.574219 Z M 75.699219 147.140625 "/>
</clipPath>
<clipPath id="clip81">
  <path d="M 150 151 L 157 151 L 157 159 L 150 159 Z M 150 151 "/>
</clipPath>
<clipPath id="clip82">
  <path d="M 75.699219 147.140625 L 244.714844 126.652344 L 255.996094 219.71875 L 86.984375 240.210938 Z M 75.699219 147.140625 "/>
</clipPath>
<clipPath id="clip83">
  <path d="M 75.699219 147.140625 L 244.714844 126.652344 L 255.996094 219.71875 L 86.984375 240.210938 Z M 75.699219 147.140625 "/>
</clipPath>
<clipPath id="clip84">
  <path d="M 75.699219 147.140625 L 244.78125 126.644531 L 256.109375 220.074219 L 87.027344 240.574219 Z M 75.699219 147.140625 "/>
</clipPath>
<clipPath id="clip85">
  <path d="M 192 144 L 199 144 L 199 152 L 192 152 Z M 192 144 "/>
</clipPath>
<clipPath id="clip86">
  <path d="M 75.699219 147.140625 L 244.714844 126.652344 L 255.996094 219.71875 L 86.984375 240.210938 Z M 75.699219 147.140625 "/>
</clipPath>
<clipPath id="clip87">
  <path d="M 75.699219 147.140625 L 244.714844 126.652344 L 255.996094 219.71875 L 86.984375 240.210938 Z M 75.699219 147.140625 "/>
</clipPath>
<clipPath id="clip88">
  <path d="M 75.699219 147.140625 L 244.78125 126.644531 L 256.109375 220.074219 L 87.027344 240.574219 Z M 75.699219 147.140625 "/>
</clipPath>
<clipPath id="clip89">
  <path d="M 198 217 L 202 217 L 202 220 L 198 220 Z M 198 217 "/>
</clipPath>
<clipPath id="clip90">
  <path d="M 75.699219 147.140625 L 244.714844 126.652344 L 255.996094 219.71875 L 86.984375 240.210938 Z M 75.699219 147.140625 "/>
</clipPath>
<clipPath id="clip91">
  <path d="M 75.699219 147.140625 L 244.714844 126.652344 L 255.996094 219.71875 L 86.984375 240.210938 Z M 75.699219 147.140625 "/>
</clipPath>
<clipPath id="clip92">
  <path d="M 75.699219 147.140625 L 244.78125 126.644531 L 256.109375 220.074219 L 87.027344 240.574219 Z M 75.699219 147.140625 "/>
</clipPath>
<clipPath id="clip93">
  <path d="M 81 127 L 253 127 L 253 227 L 81 227 Z M 81 127 "/>
</clipPath>
<clipPath id="clip94">
  <path d="M 75.699219 147.140625 L 244.714844 126.652344 L 255.996094 219.71875 L 86.984375 240.210938 Z M 75.699219 147.140625 "/>
</clipPath>
<clipPath id="clip95">
  <path d="M 75.699219 147.140625 L 244.714844 126.652344 L 255.996094 219.71875 L 86.984375 240.210938 Z M 75.699219 147.140625 "/>
</clipPath>
<clipPath id="clip96">
  <path d="M 75.699219 147.140625 L 244.78125 126.644531 L 256.109375 220.074219 L 87.027344 240.574219 Z M 75.699219 147.140625 "/>
</clipPath>
<clipPath id="clip97">
  <path d="M 76.097656 147.09375 L 243.972656 126.742188 L 255.378906 220.835938 L 87.507812 241.191406 Z M 76.097656 147.09375 "/>
</clipPath>
<clipPath id="clip98">
  <path d="M 76.097656 147.09375 L 243.722656 126.769531 L 255.03125 220.050781 L 87.410156 240.375 Z M 76.097656 147.09375 "/>
</clipPath>
</defs>
<g id="surface1">
<path style="fill:none;stroke-width:1;stroke-linecap:round;stroke-linejoin:miter;stroke:rgb(100%,100%,100%);stroke-opacity:1;stroke-miterlimit:4;" d="M 0.999383 -0.000141878 L 76.747904 0.000487285 " transform="matrix(1.872448,-1.243491,1.284895,1.934793,-24.316422,299.211748)"/>
<path style=" stroke:none;fill-rule:nonzero;fill:rgb(100%,100%,100%);fill-opacity:1;" d="M 117.757812 199.285156 C 117.878906 199.203125 118.015625 199.148438 118.164062 199.121094 C 118.3125 199.09375 118.457031 199.097656 118.605469 199.128906 C 118.753906 199.160156 118.890625 199.222656 119.019531 199.308594 C 119.144531 199.394531 119.25 199.503906 119.335938 199.632812 L 123.191406 205.433594 C 123.273438 205.5625 123.332031 205.703125 123.363281 205.851562 C 123.394531 206.003906 123.398438 206.152344 123.371094 206.300781 C 123.34375 206.449219 123.289062 206.585938 123.207031 206.710938 C 123.121094 206.839844 123.019531 206.941406 122.894531 207.023438 C 122.773438 207.105469 122.636719 207.160156 122.488281 207.1875 C 122.339844 207.214844 122.195312 207.214844 122.046875 207.179688 C 121.898438 207.148438 121.761719 207.089844 121.632812 207 C 121.507812 206.914062 121.402344 206.808594 121.316406 206.679688 L 117.460938 200.875 C 117.378906 200.746094 117.320312 200.605469 117.289062 200.457031 C 117.257812 200.308594 117.253906 200.15625 117.28125 200.007812 C 117.308594 199.859375 117.363281 199.722656 117.445312 199.597656 C 117.527344 199.472656 117.632812 199.367188 117.757812 199.285156 Z M 117.757812 199.285156 "/>
<g clip-path="url(#clip1)" clip-rule="nonzero">
<g clip-path="url(#clip2)" clip-rule="nonzero">
<g clip-path="url(#clip3)" clip-rule="nonzero">
<g clip-path="url(#clip4)" clip-rule="nonzero">
<path style=" stroke:none;fill-rule:evenodd;fill:rgb(39.99939%,79.60968%,72.938538%);fill-opacity:1;" d="M 239.070312 166.738281 C 239.070312 166.738281 232.734375 157.746094 220.792969 158.875 C 220.792969 158.875 202.261719 159.363281 199.847656 160.453125 C 197.441406 161.546875 194.113281 162.910156 191.980469 162.367188 C 189.851562 161.828125 186.023438 159.089844 183.960938 161.738281 C 183.960938 161.738281 178.949219 174.1875 168.304688 175.480469 C 157.65625 176.769531 155.773438 171.71875 153.730469 167.964844 C 153.730469 167.964844 149.796875 167.003906 149.011719 168.378906 C 148.222656 169.753906 132.789062 176.105469 128.523438 176.300781 C 124.253906 176.5 120.300781 176.660156 120.300781 176.660156 C 120.300781 176.660156 105.613281 160.359375 104.890625 159.648438 C 104.171875 158.933594 87.125 159.878906 87.125 159.878906 C 87.125 159.878906 83.222656 163.074219 84.242188 168.871094 C 85.261719 174.664062 87.710938 181.730469 87.710938 181.730469 C 87.710938 181.730469 87.132812 184.839844 88.496094 186.914062 C 88.496094 186.914062 90.492188 199.472656 93.660156 200.6875 C 96.828125 201.90625 105.101562 203.300781 108.015625 203.75 C 110.929688 204.191406 131.816406 208.699219 137.6875 208.628906 C 143.558594 208.558594 171.855469 207.367188 182.777344 204.441406 C 182.777344 204.441406 207.179688 198.605469 212.960938 195.1875 C 218.742188 191.761719 233.621094 183.398438 234.65625 182.796875 C 235.699219 182.1875 242.152344 175.167969 239.070312 166.738281 "/>
</g>
</g>
</g>
</g>
<g clip-path="url(#clip5)" clip-rule="nonzero">
<g clip-path="url(#clip6)" clip-rule="nonzero">
<g clip-path="url(#clip7)" clip-rule="nonzero">
<g clip-path="url(#clip8)" clip-rule="nonzero">
<path style=" stroke:none;fill-rule:evenodd;fill:rgb(93.328857%,14.118958%,16.859436%);fill-opacity:1;" d="M 239.253906 177.4375 C 239.253906 177.4375 244.074219 175.25 245.445312 173.488281 C 246.820312 171.71875 247.046875 168.332031 245.132812 166.964844 C 243.21875 165.59375 239.027344 167.703125 239.027344 167.703125 C 239.027344 167.703125 240.671875 174.707031 239.253906 177.4375 "/>
</g>
</g>
</g>
</g>
<g clip-path="url(#clip9)" clip-rule="nonzero">
<g clip-path="url(#clip10)" clip-rule="nonzero">
<g clip-path="url(#clip11)" clip-rule="nonzero">
<g clip-path="url(#clip12)" clip-rule="nonzero">
<path style=" stroke:none;fill-rule:evenodd;fill:rgb(93.328857%,14.118958%,16.859436%);fill-opacity:1;" d="M 197.992188 139.878906 C 197.992188 139.878906 186.761719 140.28125 183.453125 140.519531 C 180.144531 140.765625 171.21875 141.84375 163.230469 144.09375 C 163.230469 144.09375 151.191406 145.714844 147.605469 147.585938 C 144.019531 149.464844 140.863281 149.683594 140.867188 150.964844 C 140.859375 152.246094 141.183594 154.925781 143.535156 154.640625 C 145.882812 154.359375 153.085938 152.203125 155.90625 151.863281 C 158.726562 151.519531 171.199219 149.527344 174 149.027344 C 176.796875 148.53125 192.496094 145.667969 192.496094 145.667969 L 202.777344 143.9375 C 202.777344 143.9375 204.550781 138.921875 197.992188 139.878906 "/>
</g>
</g>
</g>
</g>
<g clip-path="url(#clip13)" clip-rule="nonzero">
<g clip-path="url(#clip14)" clip-rule="nonzero">
<g clip-path="url(#clip15)" clip-rule="nonzero">
<g clip-path="url(#clip16)" clip-rule="nonzero">
<path style=" stroke:none;fill-rule:evenodd;fill:rgb(39.99939%,79.60968%,72.938538%);fill-opacity:1;" d="M 150.578125 153.789062 C 150.578125 153.789062 152.734375 179.445312 152.039062 184.171875 C 152.039062 184.171875 155.285156 184.738281 156.5625 183.460938 L 155.90625 151.863281 L 150.578125 153.789062 "/>
</g>
</g>
</g>
</g>
<g clip-path="url(#clip17)" clip-rule="nonzero">
<g clip-path="url(#clip18)" clip-rule="nonzero">
<g clip-path="url(#clip19)" clip-rule="nonzero">
<g clip-path="url(#clip20)" clip-rule="nonzero">
<path style=" stroke:none;fill-rule:evenodd;fill:rgb(39.99939%,79.60968%,72.938538%);fill-opacity:1;" d="M 193.164062 145.90625 L 195.199219 178.457031 L 199.761719 178.066406 C 199.761719 178.066406 198.519531 146.855469 198.449219 144.945312 L 193.164062 145.90625 "/>
</g>
</g>
</g>
</g>
<g clip-path="url(#clip21)" clip-rule="nonzero">
<g clip-path="url(#clip22)" clip-rule="nonzero">
<g clip-path="url(#clip23)" clip-rule="nonzero">
<g clip-path="url(#clip24)" clip-rule="nonzero">
<path style=" stroke:none;fill-rule:evenodd;fill:rgb(93.328857%,14.118958%,16.859436%);fill-opacity:1;" d="M 240.308594 163.871094 C 240.308594 163.871094 238.296875 156.433594 236.980469 152.117188 C 235.660156 147.792969 232.742188 135.507812 234.671875 131.753906 C 236.597656 128 239.453125 127.976562 240.859375 130.363281 C 242.257812 132.753906 243.867188 138.160156 242.953125 164.667969 L 240.308594 163.871094 "/>
</g>
</g>
</g>
</g>
<g clip-path="url(#clip25)" clip-rule="nonzero">
<g clip-path="url(#clip26)" clip-rule="nonzero">
<g clip-path="url(#clip27)" clip-rule="nonzero">
<g clip-path="url(#clip28)" clip-rule="nonzero">
<path style=" stroke:none;fill-rule:evenodd;fill:rgb(81.17981%,12.159729%,14.118958%);fill-opacity:1;" d="M 241.953125 176.148438 C 241.953125 176.148438 243.675781 196.902344 244.15625 200.84375 C 244.632812 204.785156 247.09375 213.289062 249.875 211.347656 C 252.660156 209.410156 252.132812 202.433594 251.847656 200.070312 C 251.558594 197.703125 245.421875 174.609375 245.421875 174.609375 L 241.953125 176.148438 "/>
</g>
</g>
</g>
</g>
<g clip-path="url(#clip29)" clip-rule="nonzero">
<g clip-path="url(#clip30)" clip-rule="nonzero">
<g clip-path="url(#clip31)" clip-rule="nonzero">
<g clip-path="url(#clip32)" clip-rule="nonzero">
<path style=" stroke:none;fill-rule:evenodd;fill:rgb(39.99939%,79.60968%,72.938538%);fill-opacity:1;" d="M 205.144531 198.855469 L 200.863281 210.734375 L 195.792969 212.148438 L 188.320312 202.972656 L 184.132812 203.800781 C 184.132812 203.800781 188.019531 213.570312 193.765625 215.113281 C 193.765625 215.113281 199.121094 209.5 203.925781 213.722656 L 211.683594 196.460938 L 205.144531 198.855469 "/>
</g>
</g>
</g>
</g>
<g clip-path="url(#clip33)" clip-rule="nonzero">
<g clip-path="url(#clip34)" clip-rule="nonzero">
<g clip-path="url(#clip35)" clip-rule="nonzero">
<g clip-path="url(#clip36)" clip-rule="nonzero">
<path style=" stroke:none;fill-rule:evenodd;fill:rgb(71.759033%,11.759949%,14.118958%);fill-opacity:1;" d="M 195.414062 212.992188 C 193.945312 214.007812 193.34375 219.484375 194.625 222.210938 C 195.910156 224.933594 201.679688 226.632812 203.644531 223.195312 C 205.609375 219.757812 206.207031 216.804688 203.925781 213.722656 C 201.644531 210.636719 198.792969 210.664062 195.414062 212.992188 "/>
</g>
</g>
</g>
</g>
<g clip-path="url(#clip37)" clip-rule="nonzero">
<g clip-path="url(#clip38)" clip-rule="nonzero">
<g clip-path="url(#clip39)" clip-rule="nonzero">
<g clip-path="url(#clip40)" clip-rule="nonzero">
<path style=" stroke:none;fill-rule:evenodd;fill:rgb(95.689392%,41.569519%,40.388489%);fill-opacity:1;" d="M 190.691406 160.925781 C 190.691406 160.925781 185.414062 151.484375 185.105469 150.242188 L 183.910156 152.148438 L 184.332031 160.894531 C 184.332031 160.894531 190.148438 160.351562 190.691406 160.925781 "/>
</g>
</g>
</g>
</g>
<g clip-path="url(#clip41)" clip-rule="nonzero">
<g clip-path="url(#clip42)" clip-rule="nonzero">
<g clip-path="url(#clip43)" clip-rule="nonzero">
<g clip-path="url(#clip44)" clip-rule="nonzero">
<path style=" stroke:none;fill-rule:evenodd;fill:rgb(71.759033%,11.759949%,14.118958%);fill-opacity:1;" d="M 182.367188 164.335938 L 177.597656 161.710938 C 177.597656 161.710938 173.679688 163.46875 173.65625 173.710938 C 173.65625 173.710938 181.261719 168.308594 182.367188 164.335938 "/>
</g>
</g>
</g>
</g>
<g clip-path="url(#clip45)" clip-rule="nonzero">
<g clip-path="url(#clip46)" clip-rule="nonzero">
<g clip-path="url(#clip47)" clip-rule="nonzero">
<g clip-path="url(#clip48)" clip-rule="nonzero">
<path style=" stroke:none;fill-rule:evenodd;fill:rgb(71.759033%,11.759949%,14.118958%);fill-opacity:1;" d="M 168.304688 175.480469 C 168.304688 175.480469 163.714844 165.15625 160.859375 165.183594 C 158 165.210938 156.007812 165.769531 156.007812 165.769531 L 156.742188 174.480469 C 156.742188 174.480469 165.855469 176.253906 168.304688 175.480469 "/>
</g>
</g>
</g>
</g>
<g clip-path="url(#clip49)" clip-rule="nonzero">
<g clip-path="url(#clip50)" clip-rule="nonzero">
<g clip-path="url(#clip51)" clip-rule="nonzero">
<g clip-path="url(#clip52)" clip-rule="nonzero">
<path style=" stroke:none;fill-rule:evenodd;fill:rgb(93.328857%,14.118958%,16.859436%);fill-opacity:1;" d="M 117.609375 184.585938 C 117.609375 184.585938 100.597656 185.808594 95.679688 186.523438 C 90.761719 187.242188 86.726562 187.371094 85.285156 188.265625 C 83.839844 189.160156 81.605469 191.351562 83.257812 193.191406 C 84.910156 195.03125 91.386719 194.363281 94.910156 193.9375 C 98.429688 193.507812 106.492188 191.210938 109.019531 190.425781 C 111.546875 189.636719 117.929688 186.226562 117.609375 184.585938 "/>
</g>
</g>
</g>
</g>
<g clip-path="url(#clip53)" clip-rule="nonzero">
<g clip-path="url(#clip54)" clip-rule="nonzero">
<g clip-path="url(#clip55)" clip-rule="nonzero">
<g clip-path="url(#clip56)" clip-rule="nonzero">
<path style=" stroke:none;fill-rule:evenodd;fill:rgb(93.328857%,14.118958%,16.859436%);fill-opacity:1;" d="M 220.792969 158.875 L 226.839844 186.464844 C 226.839844 186.464844 230.03125 185.273438 231.792969 184.101562 C 233.558594 182.929688 239.253906 177.4375 239.84375 175.765625 C 240.4375 174.09375 239.890625 165.679688 236.824219 163.96875 C 233.757812 162.261719 226.785156 157.1875 220.792969 158.875 "/>
</g>
</g>
</g>
</g>
<g clip-path="url(#clip57)" clip-rule="nonzero">
<g clip-path="url(#clip58)" clip-rule="nonzero">
<g clip-path="url(#clip59)" clip-rule="nonzero">
<g clip-path="url(#clip60)" clip-rule="nonzero">
<path style=" stroke:none;fill-rule:evenodd;fill:rgb(93.328857%,14.118958%,16.859436%);fill-opacity:1;" d="M 120.300781 176.660156 C 120.300781 176.660156 107.476562 162.613281 104.890625 159.648438 L 87.125 159.878906 C 87.125 159.878906 83.828125 163.480469 84.375 167.972656 C 84.917969 172.46875 87.710938 181.730469 87.710938 181.730469 C 87.710938 181.730469 114.640625 176.464844 120.300781 176.660156 "/>
</g>
</g>
</g>
</g>
<g clip-path="url(#clip61)" clip-rule="nonzero">
<g clip-path="url(#clip62)" clip-rule="nonzero">
<g clip-path="url(#clip63)" clip-rule="nonzero">
<g clip-path="url(#clip64)" clip-rule="nonzero">
<path style=" stroke:none;fill-rule:evenodd;fill:rgb(33.329773%,66.268921%,60.778809%);fill-opacity:1;" d="M 116.46875 187.425781 C 116.46875 187.425781 116.195312 191.058594 121.089844 192.144531 C 125.988281 193.230469 133.007812 192.140625 136.0625 191.769531 C 139.117188 191.398438 147.839844 188.660156 147.839844 188.660156 L 205.246094 180.5 C 205.246094 180.5 212.234375 179.175781 214.847656 179.097656 C 217.460938 179.019531 222.15625 178.449219 224.683594 177.664062 L 227.890625 186.394531 C 227.890625 186.394531 207.917969 200.578125 180.050781 204.675781 C 152.183594 208.773438 136.566406 209.710938 115.855469 205.980469 C 115.855469 205.980469 102.835938 202.757812 96.347656 202.34375 C 96.347656 202.34375 90.75 199.421875 90.441406 194.902344 C 90.441406 194.902344 111.234375 191.417969 116.46875 187.425781 "/>
</g>
</g>
</g>
</g>
<g clip-path="url(#clip65)" clip-rule="nonzero">
<g clip-path="url(#clip66)" clip-rule="nonzero">
<g clip-path="url(#clip67)" clip-rule="nonzero">
<g clip-path="url(#clip68)" clip-rule="nonzero">
<path style=" stroke:none;fill-rule:evenodd;fill:rgb(93.328857%,14.118958%,16.859436%);fill-opacity:1;" d="M 203.183594 178.769531 C 203.183594 178.769531 195.234375 178.054688 190.796875 178.832031 C 186.363281 179.609375 156.5625 183.460938 156.5625 183.460938 C 156.5625 183.460938 147.777344 185.726562 147.773438 187.648438 C 147.769531 189.566406 154.34375 188.769531 154.34375 188.769531 L 176.6875 186.300781 C 176.6875 186.300781 187.558594 183.546875 190.84375 183.148438 C 194.136719 182.746094 206.722656 182.417969 203.183594 178.769531 "/>
</g>
</g>
</g>
</g>
<g clip-path="url(#clip69)" clip-rule="nonzero">
<g clip-path="url(#clip70)" clip-rule="nonzero">
<g clip-path="url(#clip71)" clip-rule="nonzero">
<g clip-path="url(#clip72)" clip-rule="nonzero">
<path style=" stroke:none;fill-rule:evenodd;fill:rgb(81.17981%,12.159729%,14.118958%);fill-opacity:1;" d="M 224.683594 177.664062 C 224.683594 177.664062 238.023438 173.648438 239 169.929688 C 239.980469 166.207031 239 169.929688 239 169.929688 C 239 169.929688 241.210938 176.378906 236.710938 180.527344 C 232.207031 184.671875 227.890625 186.394531 227.890625 186.394531 L 224.683594 177.664062 "/>
</g>
</g>
</g>
</g>
<g clip-path="url(#clip73)" clip-rule="nonzero">
<g clip-path="url(#clip74)" clip-rule="nonzero">
<g clip-path="url(#clip75)" clip-rule="nonzero">
<g clip-path="url(#clip76)" clip-rule="nonzero">
<path style=" stroke:none;fill-rule:evenodd;fill:rgb(81.17981%,12.159729%,14.118958%);fill-opacity:1;" d="M 83.667969 192.121094 C 83.667969 192.121094 104.417969 192.246094 117.609375 184.585938 C 117.609375 184.585938 116.988281 188.261719 105.949219 191.097656 C 105.949219 191.097656 89.636719 198.117188 83.667969 192.121094 "/>
</g>
</g>
</g>
</g>
<g clip-path="url(#clip77)" clip-rule="nonzero">
<g clip-path="url(#clip78)" clip-rule="nonzero">
<g clip-path="url(#clip79)" clip-rule="nonzero">
<g clip-path="url(#clip80)" clip-rule="nonzero">
<path style=" stroke:none;fill-rule:evenodd;fill:rgb(81.17981%,12.159729%,14.118958%);fill-opacity:1;" d="M 239.996094 170.285156 C 239.996094 170.285156 241.65625 174.167969 245.605469 169.367188 C 245.605469 169.367188 250.042969 173.589844 239.253906 177.4375 L 239.996094 170.285156 "/>
</g>
</g>
</g>
</g>
<g clip-path="url(#clip81)" clip-rule="nonzero">
<g clip-path="url(#clip82)" clip-rule="nonzero">
<g clip-path="url(#clip83)" clip-rule="nonzero">
<g clip-path="url(#clip84)" clip-rule="nonzero">
<path style=" stroke:none;fill-rule:evenodd;fill:rgb(33.329773%,66.268921%,60.778809%);fill-opacity:1;" d="M 150.492188 153.078125 L 151.125 158.742188 C 151.125 158.742188 151.925781 155.527344 156.242188 155.722656 L 155.820312 151.152344 L 150.492188 153.078125 "/>
</g>
</g>
</g>
</g>
<g clip-path="url(#clip85)" clip-rule="nonzero">
<g clip-path="url(#clip86)" clip-rule="nonzero">
<g clip-path="url(#clip87)" clip-rule="nonzero">
<g clip-path="url(#clip88)" clip-rule="nonzero">
<path style=" stroke:none;fill-rule:evenodd;fill:rgb(33.329773%,66.268921%,60.778809%);fill-opacity:1;" d="M 192.574219 146.296875 L 193.203125 151.960938 C 193.203125 151.960938 194.003906 148.746094 198.320312 148.941406 L 197.898438 144.371094 L 192.574219 146.296875 "/>
</g>
</g>
</g>
</g>
<g clip-path="url(#clip89)" clip-rule="nonzero">
<g clip-path="url(#clip90)" clip-rule="nonzero">
<g clip-path="url(#clip91)" clip-rule="nonzero">
<g clip-path="url(#clip92)" clip-rule="nonzero">
<path style=" stroke:none;fill-rule:evenodd;fill:rgb(0%,0%,0%);fill-opacity:1;" d="M 201.203125 218.574219 C 200.644531 219.914062 198.855469 220.265625 198.046875 218.957031 C 197.691406 216.277344 200.738281 216.800781 201.203125 218.574219 "/>
</g>
</g>
</g>
</g>
<g clip-path="url(#clip93)" clip-rule="nonzero">
<g clip-path="url(#clip94)" clip-rule="nonzero">
<g clip-path="url(#clip95)" clip-rule="nonzero">
<g clip-path="url(#clip96)" clip-rule="nonzero">
<g clip-path="url(#clip97)" clip-rule="nonzero">
<g clip-path="url(#clip98)" clip-rule="nonzero">
<path style=" stroke:none;fill-rule:evenodd;fill:rgb(0%,0%,0%);fill-opacity:1;" d="M 243.925781 164.871094 C 246.171875 166.964844 249.804688 172.417969 246.25 174.78125 C 246.3125 177.964844 247.695312 180.625 248.617188 183.019531 C 249.597656 185.550781 249.652344 188.261719 250.542969 191.3125 C 251.351562 194.09375 252.746094 199.054688 252.960938 203.691406 C 253.125 207.40625 252.296875 212.390625 249.492188 212.867188 C 246.136719 213.441406 244.917969 208.828125 244.019531 205.46875 C 241.988281 197.847656 242.589844 186.75 240.773438 178.675781 C 238.34375 178.730469 237.929688 181.457031 236.449219 182.65625 C 233.902344 184.710938 230.78125 185.828125 228.429688 188.234375 C 226.71875 188.164062 225.03125 189.597656 223.242188 190.703125 C 219.933594 192.75 216.597656 194.398438 213.164062 196.308594 C 210.308594 201.09375 208.175781 205.167969 206.585938 210.757812 C 206.09375 211.054688 205.6875 212.1875 205.144531 212.613281 C 209.730469 219.578125 202.0625 232.429688 194.09375 223.960938 C 193.789062 221.222656 192.039062 218.679688 192.902344 216.042969 C 189.238281 213.226562 185.460938 210.5625 183.609375 205.417969 C 175.59375 206.53125 166.921875 208.582031 159.507812 208.570312 C 157.371094 208.566406 155.371094 209.273438 153.226562 209.566406 C 150.375 209.945312 147.515625 209.558594 144.765625 209.664062 C 140.90625 209.816406 137.269531 210.453125 133.753906 209.390625 C 131.898438 210.296875 130.207031 209.207031 128.425781 208.882812 C 125.402344 208.332031 122.222656 208.273438 118.90625 207.734375 C 117.097656 207.4375 115.339844 206.683594 113.476562 206.316406 C 111.519531 205.9375 109.5 204.933594 107.53125 204.507812 C 103.160156 203.550781 98.726562 204.265625 95.226562 203 C 92.339844 201.957031 89.558594 198.898438 89.5 195.402344 C 87.34375 195.773438 83.960938 195.386719 82.105469 193.847656 C 80.320312 190.226562 82.835938 187.289062 86.621094 186.503906 C 86.0625 185.210938 86.042969 184.695312 86.136719 182.519531 C 86.351562 181.835938 86.644531 181.5 86.597656 180.902344 C 86.542969 180.308594 85.40625 178.949219 85.261719 177.769531 C 84.28125 171.644531 81.648438 166.261719 84.582031 160.515625 C 87.121094 157.105469 91.957031 158.710938 96.054688 158.894531 C 99.617188 159.050781 104.144531 157.515625 106.925781 159.878906 C 107.28125 160.179688 107.773438 161.019531 108.273438 161.558594 C 109.539062 162.917969 110.917969 164.753906 112.289062 166.371094 C 114.875 169.421875 116.324219 172.023438 119.28125 173.820312 C 119.507812 174.320312 121.304688 174.9375 121.613281 175.339844 C 131.289062 174.320312 143.746094 173.738281 148.300781 167.074219 C 149.28125 166.957031 149.539062 166.136719 150.527344 166.574219 C 150.90625 162.550781 150.371094 157.769531 148.839844 154.566406 C 146.382812 155.023438 144.371094 155.832031 141.960938 156.324219 C 141.214844 155.8125 139.117188 155.578125 139.332031 153.394531 C 137.726562 149.027344 142.339844 148.546875 146.328125 147.039062 C 149.984375 145.660156 151.53125 144.960938 155.605469 144.300781 C 158.929688 143.761719 162.617188 143.167969 166.574219 142.28125 C 171.382812 141.199219 176.792969 140.054688 181.148438 139.820312 C 183.710938 139.683594 186.335938 140.011719 188.699219 139.828125 C 195.269531 139.324219 203.648438 136.265625 205.367188 143.335938 C 203.984375 144.800781 201.964844 145.300781 199.703125 145.632812 C 199.917969 150.484375 199.675781 153.941406 200.394531 158.914062 C 203.320312 159.628906 206.152344 158.082031 208.964844 157.875 C 212.222656 157.640625 215.78125 157.964844 218.992188 157.582031 C 220.671875 157.382812 222.339844 156.527344 223.902344 156.527344 C 228.824219 156.527344 234.011719 159.792969 237.292969 163.199219 C 238.03125 163.925781 238.828125 164.609375 240.050781 165.167969 C 240.738281 163.410156 238.578125 160.882812 238.195312 158.445312 C 238.078125 157.6875 237.726562 156.71875 237.441406 156 C 236.003906 152.367188 234.917969 149.246094 233.511719 144.496094 C 232.921875 137.628906 231.167969 123.660156 240.988281 128.613281 C 245.984375 136.34375 244.707031 147.265625 244.144531 156.570312 C 244.007812 158.875 244.65625 164.628906 243.925781 164.871094 Z M 239.878906 130.820312 C 237.683594 128.6875 235.859375 130.722656 235.230469 133.128906 C 234.308594 136.664062 235.4375 143.402344 236.601562 147.34375 C 237.527344 150.472656 239.378906 153.765625 240.3125 157.035156 C 240.898438 159.089844 240.507812 162.097656 242.183594 163.03125 C 241.550781 152.589844 244.671875 140.09375 239.878906 130.820312 Z M 191.148438 141.144531 C 183.6875 142.296875 175.90625 141.363281 168.570312 143.648438 C 163.816406 145.128906 158.050781 145.601562 152.25 146.90625 C 148.738281 148.410156 144.453125 148.910156 142.035156 151.246094 C 141.460938 152.292969 142.410156 153.257812 143.6875 153.582031 C 148.222656 153.15625 151.605469 151.488281 155.246094 150.796875 C 157.050781 150.453125 158.894531 150.429688 160.660156 150.140625 C 172.492188 148.191406 185.828125 145.898438 198.070312 143.53125 C 199.558594 143.242188 201.316406 143.496094 202.246094 142.101562 C 199.355469 140.21875 197.597656 140.570312 191.148438 141.144531 Z M 221.859375 160.460938 C 223.789062 163.292969 224.015625 167.679688 224.816406 171.621094 C 225.75 176.199219 227.15625 180.574219 228.46875 184.773438 C 232.101562 183.328125 234.425781 180.851562 236.859375 178.457031 C 237.347656 177.449219 237.394531 176.421875 238.132812 175.765625 C 238.417969 174.351562 238.253906 172.578125 238.988281 171.515625 C 238.417969 169.980469 237.847656 168.433594 237.285156 166.886719 C 235.507812 164.601562 234.039062 163.75 231.28125 161.804688 C 230.386719 161.171875 229.042969 161.039062 228.28125 160.601562 C 225.898438 159.230469 223.992188 159.761719 221.417969 160.09375 Z M 220.128906 160.230469 C 220.011719 160.238281 219.894531 160.246094 219.777344 160.25 C 218.871094 160.304688 217.933594 159.921875 216.992188 159.898438 C 214.804688 159.851562 212.585938 160.617188 210.449219 160.691406 C 209.71875 160.71875 209.054688 160.207031 208.335938 160.253906 C 205.429688 160.460938 202.417969 161.679688 200.355469 162.375 C 199.878906 167.035156 201.144531 172.191406 200.765625 177.070312 C 201.824219 177.761719 207.382812 176.699219 207.660156 179.230469 C 207.949219 181.816406 202.394531 182.121094 200.324219 182.886719 C 197.917969 183.777344 196.40625 183.667969 193.585938 183.933594 C 189.695312 184.304688 185.839844 185.628906 181.75 186.289062 C 170.222656 188.152344 157.507812 189.761719 146.964844 190.046875 C 143.992188 186.832031 147.539062 184.851562 151.359375 183.898438 L 151.476562 181.796875 C 151.296875 180.921875 151.566406 179.738281 151.5625 178.890625 C 151.542969 175.558594 151.238281 171.898438 150.746094 168.390625 C 148.046875 169.289062 146.691406 172.792969 143.660156 174.085938 C 142 174.796875 139.191406 175.394531 136.777344 175.847656 C 127.417969 177.589844 118.890625 178.144531 110.820312 178.761719 C 109.371094 178.871094 107.882812 178.859375 106.507812 179.054688 C 103.324219 179.496094 100.808594 180.179688 98.394531 180.433594 C 97.644531 180.515625 95.449219 180.988281 94.546875 181.140625 C 92.855469 181.429688 89.875 181.976562 88.777344 182.683594 C 87.597656 183.433594 88.21875 184.628906 88.949219 186.0625 C 90.476562 185.875 90.292969 185.703125 92.203125 185.625 C 93.304688 185.582031 95.183594 185.316406 96.355469 185.242188 C 100.710938 184.976562 104.5 183.804688 108.859375 183.375 C 110.703125 183.195312 112.71875 183.382812 114.238281 183.316406 C 116.261719 183.222656 117.214844 183.164062 119.144531 183.28125 C 119.6875 183.984375 120.476562 184.371094 120.777344 185.386719 C 119.9375 186.355469 118.882812 187.378906 117.667969 188.066406 C 114.984375 189.589844 111.234375 190.203125 108.023438 191.542969 C 106.945312 191.992188 106.246094 192.933594 105.253906 193.261719 C 100.96875 194.6875 96.082031 194.023438 91.835938 195.808594 C 93.136719 200.578125 97.46875 201.136719 102.386719 201.671875 C 108.253906 202.308594 113.355469 204.359375 118.777344 204.753906 C 119.421875 202.363281 118.667969 200.175781 122.746094 199.445312 C 124.570312 198.742188 126.773438 198.234375 130.238281 197.332031 C 135.855469 194.164062 143.746094 192.136719 150.507812 192.84375 C 153.105469 196.828125 153.066406 202.628906 154.921875 206.59375 C 168.804688 206.46875 184.363281 202.488281 198.222656 199.496094 C 201.488281 198.796875 203.492188 197.378906 206.289062 196.214844 C 208.238281 195.410156 210.390625 195.089844 212.242188 194.34375 C 213.960938 193.648438 215.578125 192.25 217.347656 191.191406 C 220.632812 189.222656 223.917969 188.160156 226.097656 185.980469 C 224.394531 178.660156 221.742188 172.394531 221.398438 164.203125 C 220.945312 163.585938 220.324219 162.289062 220.496094 161.398438 Z M 154.917969 153.003906 C 153.828125 153.273438 152.769531 153.59375 151.746094 153.988281 C 152.464844 160.664062 152.609375 167.140625 152.988281 175.617188 C 153.097656 178.050781 153.0625 180.164062 152.984375 182.457031 L 152.925781 183.558594 C 153.957031 183.375 154.9375 183.261719 155.75 183.21875 C 155.390625 173.335938 155.335938 163.261719 154.703125 153.855469 Z M 157.183594 153.554688 C 157.667969 156.507812 156.792969 160.214844 157.351562 164.363281 C 164.296875 161.5 166.328125 168.957031 168.765625 173.578125 C 170.125 173.207031 171.164062 173.839844 172.148438 173.167969 C 173.566406 168.609375 172.363281 161.980469 177.707031 160.511719 C 179.183594 161.238281 180.933594 161.617188 182.097656 162.746094 C 185.417969 160.824219 180.222656 150.664062 183.683594 149.421875 C 187.597656 148.015625 187.480469 152.503906 188.460938 154.832031 C 189.703125 157.804688 191.640625 160.226562 193.316406 160.925781 C 193.082031 156.632812 192.398438 151.097656 191.691406 147.53125 C 185.480469 146.882812 179.164062 149.335938 172.609375 150.535156 C 167.378906 151.492188 161.890625 151.621094 156.871094 152.578125 Z M 194.992188 146.4375 C 194.683594 146.605469 194.484375 146.859375 194.398438 147.203125 C 194.984375 156.691406 196.058594 167.148438 196.230469 177.390625 C 196.691406 177.382812 197.75 177.457031 198.257812 177.144531 C 199.527344 171.695312 197.828125 166.082031 198.023438 160.121094 C 198.160156 155.945312 198.089844 150.636719 196.796875 146.21875 C 196.191406 146.289062 195.589844 146.363281 194.992188 146.4375 Z M 105.0625 161.488281 C 103.714844 160.472656 99.84375 160.730469 98.132812 160.945312 C 94.667969 161.382812 89.167969 159.578125 86.550781 161.660156 C 86.011719 163.816406 85.195312 164.683594 85.191406 166.855469 C 85.183594 169 85.730469 171.476562 86.074219 173.648438 C 86.453125 176.03125 87.003906 176.898438 87.203125 178.550781 C 87.511719 179.226562 88.035156 180.492188 88.828125 180.15625 C 90.730469 179.796875 90.800781 179.433594 93.007812 179.078125 C 95.097656 178.742188 96.371094 178.753906 98.488281 178.261719 C 100.480469 177.804688 102.835938 177.5625 104.679688 177.203125 C 109.410156 176.28125 113.839844 176.597656 117.816406 176.070312 C 113.808594 172.5625 109.644531 164.925781 105.0625 161.488281 Z M 185.628906 159.785156 C 186.742188 159.578125 187.699219 159.570312 188.585938 159.65625 C 187.40625 157.238281 186.265625 154.765625 185.167969 152.234375 C 185.707031 155.007812 184.589844 157.269531 185.628906 159.785156 Z M 185.449219 162.109375 C 185 162.78125 184.707031 163.574219 184.597656 164.515625 C 180.480469 167.9375 178.980469 174.480469 172.027344 175.949219 C 167.015625 177.007812 162.539062 177.414062 157.429688 176.335938 C 157.632812 178.734375 157.9375 180.25 157.972656 182.722656 C 169.5625 181.550781 183.105469 178.296875 193.972656 177.664062 C 194.675781 173.316406 193.46875 168.640625 193.699219 164.105469 C 190.707031 163.777344 188.652344 160.554688 185.449219 162.109375 Z M 177.53125 162.839844 C 175.382812 164.382812 174.625 169.140625 175.390625 171.625 C 177.871094 169.816406 178.894531 166.855469 180.457031 164.328125 C 179.464844 163.855469 178.683594 163.109375 177.53125 162.839844 Z M 160.984375 165.996094 C 160.234375 166.160156 157.472656 166.4375 156.980469 166.945312 C 157.667969 168.832031 156.929688 171.054688 157.695312 172.847656 C 159.75 174.402344 163.210938 175.125 166.089844 174.132812 C 164.941406 170.707031 163.214844 168.027344 160.984375 165.996094 Z M 240.488281 168.800781 C 241.777344 171.132812 240.378906 173.089844 241.035156 175.183594 C 243.007812 174.074219 245.222656 173.152344 245.78125 170.925781 C 244.894531 168.460938 242.351562 165.667969 240.488281 168.800781 Z M 88.417969 188.390625 C 86.484375 188.78125 83.71875 189.601562 83.957031 191.234375 C 84.15625 192.5625 86.699219 193.175781 88.097656 193.265625 C 92.453125 193.554688 100.246094 192.308594 104.726562 190.789062 C 105.992188 190.363281 106.96875 189.5 107.96875 189.242188 C 111.621094 188.3125 114.480469 187.140625 116.609375 185.1875 C 115.242188 185.710938 113.707031 185.402344 112.71875 185.539062 C 109.660156 185.960938 107.539062 186.046875 105.527344 186.085938 C 100.210938 187.535156 93.679688 187.328125 88.417969 188.390625 Z M 199.519531 179.988281 C 198.867188 179.992188 198.246094 179.488281 197.632812 179.523438 C 196.699219 179.582031 195.796875 180.25 194.753906 180.335938 C 192.75 180.496094 190.445312 180.011719 188.332031 180.195312 C 186.238281 180.375 183.886719 180.667969 181.566406 181.015625 C 174.78125 182.03125 166.609375 183.132812 160.199219 184.0625 C 157.085938 184.515625 155.09375 185.726562 152.695312 186.355469 C 150.941406 186.816406 149.597656 185.976562 148.972656 187.726562 C 152.800781 187.410156 156.53125 187.558594 160.359375 187.273438 C 165.609375 186.875 171.558594 185.054688 177.160156 184.3125 C 178.796875 184.097656 180.390625 184.289062 181.925781 183.964844 C 184.699219 183.378906 187.191406 182.40625 189.933594 182.074219 C 194.527344 181.515625 199.011719 181.832031 202.5 180.085938 C 201.980469 178.441406 200.425781 179.984375 199.519531 179.988281 Z M 245.203125 196.335938 C 246.066406 201.484375 245.355469 207.640625 249.21875 210.597656 C 250.789062 208.394531 251.339844 203.863281 251.078125 201.382812 C 250.675781 197.617188 248.972656 193.945312 248.203125 190.90625 C 246.824219 185.433594 245.757812 180.6875 243.960938 176.675781 C 243.734375 176.703125 243.511719 176.726562 243.28125 176.757812 C 243.546875 182.8125 244.207031 190.4375 245.203125 196.335938 Z M 136.15625 197.117188 C 134.699219 197.804688 132.542969 198.714844 130.9375 199.167969 C 127.550781 200.125 124.691406 200.355469 121.457031 202.355469 C 120.917969 203.410156 121.132812 203.8125 121.113281 205.160156 C 130.027344 207.554688 141.882812 208.28125 152.441406 206.894531 C 152.382812 202.386719 150.46875 198.074219 148.898438 194.652344 C 144.90625 195.636719 139.824219 195.390625 136.15625 197.117188 Z M 207.238281 198.40625 C 207.171875 198.96875 206 198.875 206.191406 199.644531 C 204.703125 202.105469 203.957031 206.574219 202.988281 208.597656 C 202.496094 209.621094 202.136719 209.074219 202.222656 209.84375 C 202.304688 210.617188 202.933594 211.757812 204.050781 211.695312 C 204.945312 206.445312 207.941406 202.863281 209.246094 197.933594 C 208.410156 197.960938 207.777344 198.148438 207.238281 198.40625 Z M 189.613281 204 C 191.957031 206.066406 194.191406 208.78125 196.34375 210.800781 C 196.390625 211.136719 198.789062 209.953125 200.191406 210.089844 C 201.097656 206.695312 202.917969 204.027344 203.601562 200.460938 C 199.527344 202.101562 194.398438 202.914062 189.613281 204 Z M 191.226562 211.636719 C 191.828125 212.699219 193.527344 214.125 194.324219 212.644531 C 192.078125 209.140625 189.128906 206.546875 185.78125 204.464844 C 186.179688 207.636719 188.6875 210.339844 191.226562 211.636719 Z M 204.09375 215.835938 C 203.792969 214.242188 201.710938 212.347656 200.265625 212.613281 C 198.820312 212.886719 197.328125 213.804688 196.519531 213.761719 C 193.890625 215.894531 195.25 220.148438 196.523438 223.207031 C 197.753906 223.632812 198.75 224.363281 200.71875 223.851562 C 202.738281 222.265625 204.679688 218.988281 204.09375 215.835938 "/>
</g>
</g>
</g>
</g>
</g>
</g>
</g>
</svg>
