<?xml version="1.0" encoding="UTF-8"?>
<svg xmlns="http://www.w3.org/2000/svg" xmlns:xlink="http://www.w3.org/1999/xlink" width="375pt" height="374.999991pt" viewBox="0 0 375 374.999991" version="1.2">
<defs>
<clipPath id="clip1">
  <path d="M 29.589844 42.617188 L 344 42.617188 L 344 331.863281 L 29.589844 331.863281 Z M 29.589844 42.617188 "/>
</clipPath>
<clipPath id="clip2">
  <path d="M 250 53 L 314 53 L 314 81 L 250 81 Z M 250 53 "/>
</clipPath>
<clipPath id="clip3">
  <path d="M 235.820312 16.96875 L 317.472656 12.960938 L 320.707031 78.882812 L 239.058594 82.890625 Z M 235.820312 16.96875 "/>
</clipPath>
<clipPath id="clip4">
  <path d="M 235.820312 16.96875 L 317.472656 12.960938 L 320.707031 78.882812 L 239.058594 82.890625 Z M 235.820312 16.96875 "/>
</clipPath>
<clipPath id="clip5">
  <path d="M 235.820312 16.96875 L 317.851562 12.945312 L 321.078125 78.746094 L 239.050781 82.773438 Z M 235.820312 16.96875 "/>
</clipPath>
<clipPath id="clip6">
  <path d="M 250 55 L 308 55 L 308 79 L 250 79 Z M 250 55 "/>
</clipPath>
<clipPath id="clip7">
  <path d="M 235.820312 16.96875 L 317.472656 12.960938 L 320.707031 78.882812 L 239.058594 82.890625 Z M 235.820312 16.96875 "/>
</clipPath>
<clipPath id="clip8">
  <path d="M 235.820312 16.96875 L 317.472656 12.960938 L 320.707031 78.882812 L 239.058594 82.890625 Z M 235.820312 16.96875 "/>
</clipPath>
<clipPath id="clip9">
  <path d="M 235.820312 16.96875 L 317.851562 12.945312 L 321.078125 78.746094 L 239.050781 82.773438 Z M 235.820312 16.96875 "/>
</clipPath>
<clipPath id="clip10">
  <path d="M 238 15 L 318 15 L 318 65 L 238 65 Z M 238 15 "/>
</clipPath>
<clipPath id="clip11">
  <path d="M 235.820312 16.96875 L 317.472656 12.960938 L 320.707031 78.882812 L 239.058594 82.890625 Z M 235.820312 16.96875 "/>
</clipPath>
<clipPath id="clip12">
  <path d="M 235.820312 16.96875 L 317.472656 12.960938 L 320.707031 78.882812 L 239.058594 82.890625 Z M 235.820312 16.96875 "/>
</clipPath>
<clipPath id="clip13">
  <path d="M 235.820312 16.96875 L 317.851562 12.945312 L 321.078125 78.746094 L 239.050781 82.773438 Z M 235.820312 16.96875 "/>
</clipPath>
<clipPath id="clip14">
  <path d="M 247 15 L 318 15 L 318 56 L 247 56 Z M 247 15 "/>
</clipPath>
<clipPath id="clip15">
  <path d="M 235.820312 16.96875 L 317.472656 12.960938 L 320.707031 78.882812 L 239.058594 82.890625 Z M 235.820312 16.96875 "/>
</clipPath>
<clipPath id="clip16">
  <path d="M 235.820312 16.96875 L 317.472656 12.960938 L 320.707031 78.882812 L 239.058594 82.890625 Z M 235.820312 16.96875 "/>
</clipPath>
<clipPath id="clip17">
  <path d="M 235.820312 16.96875 L 317.851562 12.945312 L 321.078125 78.746094 L 239.050781 82.773438 Z M 235.820312 16.96875 "/>
</clipPath>
<clipPath id="clip18">
  <path d="M 253 66 L 273 66 L 273 77 L 253 77 Z M 253 66 "/>
</clipPath>
<clipPath id="clip19">
  <path d="M 235.820312 16.96875 L 317.472656 12.960938 L 320.707031 78.882812 L 239.058594 82.890625 Z M 235.820312 16.96875 "/>
</clipPath>
<clipPath id="clip20">
  <path d="M 235.820312 16.96875 L 317.472656 12.960938 L 320.707031 78.882812 L 239.058594 82.890625 Z M 235.820312 16.96875 "/>
</clipPath>
<clipPath id="clip21">
  <path d="M 235.820312 16.96875 L 317.851562 12.945312 L 321.078125 78.746094 L 239.050781 82.773438 Z M 235.820312 16.96875 "/>
</clipPath>
<clipPath id="clip22">
  <path d="M 258 28 L 298 28 L 298 43 L 258 43 Z M 258 28 "/>
</clipPath>
<clipPath id="clip23">
  <path d="M 235.820312 16.96875 L 317.472656 12.960938 L 320.707031 78.882812 L 239.058594 82.890625 Z M 235.820312 16.96875 "/>
</clipPath>
<clipPath id="clip24">
  <path d="M 235.820312 16.96875 L 317.472656 12.960938 L 320.707031 78.882812 L 239.058594 82.890625 Z M 235.820312 16.96875 "/>
</clipPath>
<clipPath id="clip25">
  <path d="M 235.820312 16.96875 L 317.851562 12.945312 L 321.078125 78.746094 L 239.050781 82.773438 Z M 235.820312 16.96875 "/>
</clipPath>
<clipPath id="clip26">
  <path d="M 282 63 L 293 63 L 293 77 L 282 77 Z M 282 63 "/>
</clipPath>
<clipPath id="clip27">
  <path d="M 235.820312 16.96875 L 317.472656 12.960938 L 320.707031 78.882812 L 239.058594 82.890625 Z M 235.820312 16.96875 "/>
</clipPath>
<clipPath id="clip28">
  <path d="M 235.820312 16.96875 L 317.472656 12.960938 L 320.707031 78.882812 L 239.058594 82.890625 Z M 235.820312 16.96875 "/>
</clipPath>
<clipPath id="clip29">
  <path d="M 235.820312 16.96875 L 317.851562 12.945312 L 321.078125 78.746094 L 239.050781 82.773438 Z M 235.820312 16.96875 "/>
</clipPath>
<clipPath id="clip30">
  <path d="M 271 29 L 283 29 L 283 42 L 271 42 Z M 271 29 "/>
</clipPath>
<clipPath id="clip31">
  <path d="M 235.820312 16.96875 L 317.472656 12.960938 L 320.707031 78.882812 L 239.058594 82.890625 Z M 235.820312 16.96875 "/>
</clipPath>
<clipPath id="clip32">
  <path d="M 235.820312 16.96875 L 317.472656 12.960938 L 320.707031 78.882812 L 239.058594 82.890625 Z M 235.820312 16.96875 "/>
</clipPath>
<clipPath id="clip33">
  <path d="M 235.820312 16.96875 L 317.851562 12.945312 L 321.078125 78.746094 L 239.050781 82.773438 Z M 235.820312 16.96875 "/>
</clipPath>
<clipPath id="clip34">
  <path d="M 257 27 L 297 27 L 297 37 L 257 37 Z M 257 27 "/>
</clipPath>
<clipPath id="clip35">
  <path d="M 235.820312 16.96875 L 317.472656 12.960938 L 320.707031 78.882812 L 239.058594 82.890625 Z M 235.820312 16.96875 "/>
</clipPath>
<clipPath id="clip36">
  <path d="M 235.820312 16.96875 L 317.472656 12.960938 L 320.707031 78.882812 L 239.058594 82.890625 Z M 235.820312 16.96875 "/>
</clipPath>
<clipPath id="clip37">
  <path d="M 235.820312 16.96875 L 317.851562 12.945312 L 321.078125 78.746094 L 239.050781 82.773438 Z M 235.820312 16.96875 "/>
</clipPath>
<clipPath id="clip38">
  <path d="M 260 30 L 292 30 L 292 38 L 260 38 Z M 260 30 "/>
</clipPath>
<clipPath id="clip39">
  <path d="M 235.820312 16.96875 L 317.472656 12.960938 L 320.707031 78.882812 L 239.058594 82.890625 Z M 235.820312 16.96875 "/>
</clipPath>
<clipPath id="clip40">
  <path d="M 235.820312 16.96875 L 317.472656 12.960938 L 320.707031 78.882812 L 239.058594 82.890625 Z M 235.820312 16.96875 "/>
</clipPath>
<clipPath id="clip41">
  <path d="M 235.820312 16.96875 L 317.851562 12.945312 L 321.078125 78.746094 L 239.050781 82.773438 Z M 235.820312 16.96875 "/>
</clipPath>
<clipPath id="clip42">
  <path d="M 252 50 L 308 50 L 308 68 L 252 68 Z M 252 50 "/>
</clipPath>
<clipPath id="clip43">
  <path d="M 235.820312 16.96875 L 317.472656 12.960938 L 320.707031 78.882812 L 239.058594 82.890625 Z M 235.820312 16.96875 "/>
</clipPath>
<clipPath id="clip44">
  <path d="M 235.820312 16.96875 L 317.472656 12.960938 L 320.707031 78.882812 L 239.058594 82.890625 Z M 235.820312 16.96875 "/>
</clipPath>
<clipPath id="clip45">
  <path d="M 235.820312 16.96875 L 317.851562 12.945312 L 321.078125 78.746094 L 239.050781 82.773438 Z M 235.820312 16.96875 "/>
</clipPath>
<clipPath id="clip46">
  <path d="M 295 51 L 306 51 L 306 58 L 295 58 Z M 295 51 "/>
</clipPath>
<clipPath id="clip47">
  <path d="M 235.820312 16.96875 L 317.472656 12.960938 L 320.707031 78.882812 L 239.058594 82.890625 Z M 235.820312 16.96875 "/>
</clipPath>
<clipPath id="clip48">
  <path d="M 235.820312 16.96875 L 317.472656 12.960938 L 320.707031 78.882812 L 239.058594 82.890625 Z M 235.820312 16.96875 "/>
</clipPath>
<clipPath id="clip49">
  <path d="M 235.820312 16.96875 L 317.851562 12.945312 L 321.078125 78.746094 L 239.050781 82.773438 Z M 235.820312 16.96875 "/>
</clipPath>
<clipPath id="clip50">
  <path d="M 254 57 L 266 57 L 266 66 L 254 66 Z M 254 57 "/>
</clipPath>
<clipPath id="clip51">
  <path d="M 235.820312 16.96875 L 317.472656 12.960938 L 320.707031 78.882812 L 239.058594 82.890625 Z M 235.820312 16.96875 "/>
</clipPath>
<clipPath id="clip52">
  <path d="M 235.820312 16.96875 L 317.472656 12.960938 L 320.707031 78.882812 L 239.058594 82.890625 Z M 235.820312 16.96875 "/>
</clipPath>
<clipPath id="clip53">
  <path d="M 235.820312 16.96875 L 317.851562 12.945312 L 321.078125 78.746094 L 239.050781 82.773438 Z M 235.820312 16.96875 "/>
</clipPath>
<clipPath id="clip54">
  <path d="M 277 53 L 282 53 L 282 62 L 277 62 Z M 277 53 "/>
</clipPath>
<clipPath id="clip55">
  <path d="M 235.820312 16.96875 L 317.472656 12.960938 L 320.707031 78.882812 L 239.058594 82.890625 Z M 235.820312 16.96875 "/>
</clipPath>
<clipPath id="clip56">
  <path d="M 235.820312 16.96875 L 317.472656 12.960938 L 320.707031 78.882812 L 239.058594 82.890625 Z M 235.820312 16.96875 "/>
</clipPath>
<clipPath id="clip57">
  <path d="M 235.820312 16.96875 L 317.851562 12.945312 L 321.078125 78.746094 L 239.050781 82.773438 Z M 235.820312 16.96875 "/>
</clipPath>
<clipPath id="clip58">
  <path d="M 178 140 L 205 140 L 205 241 L 178 241 Z M 178 140 "/>
</clipPath>
<clipPath id="clip59">
  <path d="M 182.164062 140.785156 L 204.636719 141.890625 L 199.730469 241.519531 L 177.257812 240.414062 Z M 182.164062 140.785156 "/>
</clipPath>
<clipPath id="clip60">
  <path d="M 182.164062 140.785156 L 204.636719 141.890625 L 199.730469 241.519531 L 177.257812 240.414062 Z M 182.164062 140.785156 "/>
</clipPath>
</defs>
<g id="surface1">
<path style=" stroke:none;fill-rule:evenodd;fill:rgb(91.758728%,16.468811%,16.468811%);fill-opacity:1;" d="M 142.425781 176.484375 C 143.625 188.523438 146.96875 200.273438 154.28125 207.140625 C 156.464844 206.777344 157.347656 203.894531 159.75 204.714844 C 162.238281 207.503906 158.265625 210.355469 157.320312 212.605469 C 159.644531 214.199219 165.050781 211.359375 165.527344 214.730469 C 165.851562 217.042969 161.519531 218.757812 158.230469 218.375 C 156.042969 218.113281 154.664062 215.90625 153.367188 217.160156 C 154.160156 220.007812 158.292969 219.523438 158.230469 223.226562 C 157.339844 225.277344 153.660156 224.980469 151.847656 224.140625 C 149.242188 222.9375 149.277344 219.125 146.679688 218.375 C 146.003906 220.859375 147.773438 224.628906 144.855469 225.050781 C 142.847656 225.339844 140.644531 221.246094 140.902344 218.070312 C 141.089844 215.804688 142.816406 215.28125 143.03125 213.515625 C 141.757812 212.058594 140.023438 211.09375 138.777344 209.570312 C 133.417969 203.015625 131.671875 192.898438 131.480469 182.859375 C 129.195312 183.21875 130.070312 187.535156 130.265625 190.144531 C 130.984375 199.832031 135.730469 208.335938 140.601562 214.125 C 138.199219 218.855469 140.238281 224.542969 143.640625 226.871094 C 144.523438 226.539062 145.796875 226.597656 146.679688 226.265625 C 147.546875 225.613281 147.671875 224.222656 148.199219 223.226562 C 150.375 227.375 162.183594 227.8125 159.144531 220.191406 C 162.21875 219.804688 167.167969 218.28125 167.046875 214.730469 C 166.9375 211.550781 163.695312 211.824219 160.964844 211.089844 C 162.335938 208.203125 163.363281 203.667969 159.75 202.890625 C 157.074219 202.316406 156.171875 204.4375 154.28125 204.714844 C 148.421875 198.316406 144.425781 187.175781 144.550781 176.785156 C 143.902344 176.550781 142.855469 176.050781 142.425781 176.484375 M 330.585938 125.792969 C 331.425781 128.851562 330.457031 132.800781 331.496094 136.113281 C 337.804688 138.765625 336.421875 127.585938 334.839844 125.183594 C 333.371094 124.746094 331.605469 124.972656 330.585938 125.792969 M 323.289062 125.183594 C 321.917969 128.78125 321.015625 136.238281 323.59375 139.449219 C 329.273438 139.199219 328.757812 124.273438 323.289062 125.183594 M 83.757812 121.539062 C 83.210938 122.96875 79.3125 124.113281 80.71875 125.488281 C 81.90625 123.230469 86.5 121.75 89.535156 120.328125 C 87.75 118.621094 85.976562 121.707031 83.757812 121.539062 M 70.382812 88.152344 C 70.902344 89.757812 71.707031 91.078125 71.902344 93.007812 C 80.195312 107.1875 88.828125 121.027344 101.085938 131.253906 C 97.457031 135.019531 92.882812 137.839844 90.140625 142.488281 C 92.332031 142.410156 94.015625 139.300781 95.308594 137.324219 C 96.304688 137.941406 96.976562 136.082031 97.738281 135.503906 C 99.675781 134.707031 100.941406 133.238281 102.90625 132.46875 C 107.621094 137.574219 113.972656 141.050781 119.019531 145.824219 C 117.542969 145.566406 117.550781 146.785156 116.585938 147.039062 C 114.769531 150.039062 112.257812 152.042969 109.898438 154.625 C 108.355469 156.320312 105.554688 158.332031 106.554688 160.699219 C 108.210938 159.515625 109.640625 155.484375 112.027344 154.019531 C 114.089844 151.832031 116.375 149.863281 118.714844 147.949219 C 119.375 147.378906 119.558594 146.546875 119.625 146.128906 C 124.984375 149.484375 131.589844 153.199219 137.863281 154.625 C 138.464844 152.050781 135.335938 152.265625 134.21875 151.894531 C 128.851562 150.117188 125.359375 147.96875 121.148438 145.21875 C 114.292969 140.75 107.316406 135.042969 101.691406 129.738281 C 96.949219 125.261719 91.9375 121 88.011719 116.078125 C 85.191406 112.539062 83.550781 108.621094 81.019531 104.542969 C 79.714844 102.441406 77.738281 100.917969 76.460938 98.773438 C 74.40625 95.324219 72.433594 91.265625 71.597656 86.9375 L 70.6875 86.9375 C 70.589844 87.347656 70.253906 87.515625 70.382812 88.152344 M 277.691406 92.097656 C 278.375 95.5625 283.492188 99.355469 288.027344 98.773438 C 292.039062 98.265625 295.695312 92.113281 294.71875 86.9375 C 294.261719 84.550781 291.917969 83.136719 291.675781 80.867188 C 283.269531 78.375 276.28125 84.964844 277.691406 92.097656 M 270.398438 68.726562 C 266.929688 66.367188 258.527344 64.011719 254.894531 62.957031 C 254.65625 63.023438 254.542969 63.210938 254.589844 63.5625 C 258.390625 69.085938 255.753906 82.082031 264.621094 82.082031 C 265.082031 81.226562 264.519531 80.835938 264.925781 79.652344 C 259.882812 78.515625 259.191406 71.417969 259.148438 66.292969 C 262.6875 67.515625 266.039062 68.925781 269.183594 70.542969 C 270.46875 72.128906 271.851562 75.117188 273.742188 75.097656 C 275.425781 72.828125 272.433594 70.105469 270.398438 68.726562 M 290.460938 65.992188 C 293.484375 63.789062 293.773438 59.3125 298.058594 58.707031 C 300.441406 58.371094 302.246094 59.703125 305.050781 60.527344 C 303.125 63.765625 301.34375 67.148438 298.972656 69.9375 C 299.398438 74.773438 303.585938 75.851562 304.746094 79.953125 C 299.8125 86.160156 307.0625 95.433594 313.5625 90.277344 C 316.457031 94.871094 321.9375 96.886719 325.417969 100.898438 C 325.019531 107.773438 328.65625 110.617188 334.839844 110.917969 C 335.433594 117.550781 339.472656 121.519531 338.792969 130.039062 C 338.367188 135.363281 337.03125 140.875 336.054688 146.128906 C 335.007812 151.757812 334.324219 155.308594 331.796875 158.574219 C 322.789062 163.695312 310.816406 160.183594 300.488281 157.664062 C 299.429688 154.714844 300.71875 151.175781 300.1875 147.949219 C 299.847656 145.90625 298.148438 144.542969 298.667969 142.488281 C 298.039062 141.449219 296.976562 142.425781 296.234375 141.878906 C 292.699219 137.492188 286.910156 136.148438 282.253906 133.078125 C 277.648438 130.039062 273.125 126.824219 268.574219 123.96875 C 268.757812 122.648438 266.945312 121.296875 266.75 120.023438 C 266.179688 116.308594 268.722656 112.714844 269.183594 109.398438 C 269.953125 103.84375 267.285156 98.070312 264.316406 93.917969 C 260.46875 88.527344 255.1875 85.246094 245.777344 86.632812 C 236.613281 82.300781 220.972656 85.859375 218.113281 94.222656 C 210.625 93.867188 199.402344 97.660156 196.835938 105.453125 C 195.882812 108.347656 196.238281 112.085938 195.621094 115.46875 C 184.171875 119.707031 176.132812 132.144531 179.207031 147.039062 C 166.914062 152.429688 162.65625 177.714844 172.210938 189.230469 C 169.265625 193.550781 165.914062 197.742188 166.742188 204.714844 C 167.398438 210.222656 170.339844 216.15625 170.996094 220.5 C 166.34375 224.914062 160.761719 228.148438 160.964844 235.371094 C 161.003906 236.667969 162.53125 238.8125 162.183594 240.226562 C 161.714844 242.113281 154.652344 245.1875 153.0625 246.601562 C 149.453125 249.808594 147.683594 253.648438 146.375 258.136719 C 149.554688 269.933594 144.207031 282.503906 138.167969 290.613281 C 134.960938 294.925781 132.402344 296.648438 127.53125 298.8125 C 126.078125 301.285156 127.226562 306.277344 127.226562 308.523438 C 127.226562 311.261719 125.601562 315.746094 127.53125 317.328125 C 128.550781 318.171875 129.492188 317.402344 131.175781 317.632812 C 134.351562 318.0625 138.984375 319.074219 139.082031 321.273438 C 139.234375 324.867188 134.652344 323.917969 132.695312 323.398438 C 131.03125 324.320312 133.679688 325.105469 132.695312 326.132812 C 128.75 327.554688 127.105469 325.652344 124.792969 324.007812 C 123.671875 325.246094 125.289062 326.332031 125.402344 327.347656 C 120.875 327.238281 114.371094 325.421875 108.074219 324.917969 C 105.117188 324.679688 101.3125 325.59375 100.171875 322.792969 C 101 321.894531 102.609375 323.160156 103.210938 322.488281 C 103.875 321.734375 104.148438 320.589844 105.339844 320.363281 C 105.570312 318.582031 105.457031 318.121094 106.253906 316.722656 C 106.816406 302.722656 107.121094 289.378906 105.644531 275.136719 C 104.929688 268.257812 103.625 263.007812 99.867188 258.136719 C 93.230469 249.527344 80.101562 245.664062 67.949219 249.941406 C 62.503906 251.859375 55.734375 258.65625 54.878906 265.421875 C 53.660156 275.085938 60 280.328125 65.519531 285.457031 C 67.707031 285.527344 69.921875 287.636719 72.511719 287.582031 C 77.882812 287.464844 88.773438 280.578125 87.707031 273.316406 C 87.363281 270.9375 84.988281 270.3125 85.277344 267.847656 C 90.332031 267.914062 91.808594 273.410156 92.574219 277.261719 C 94.191406 285.425781 89.054688 292.371094 84.972656 296.6875 C 80.9375 300.953125 75.539062 305.660156 67.648438 306.097656 C 60.496094 306.492188 51.375 304.632812 46.976562 300.328125 C 44.15625 297.570312 42.46875 293.988281 40.289062 290.007812 C 38.4375 286.625 35.484375 282.484375 34.816406 278.777344 C 33.714844 272.664062 34.511719 266.546875 35.121094 260.867188 C 36.421875 248.746094 41.507812 241.335938 50.625 236.886719 C 55.6875 234.417969 62.535156 233.558594 69.46875 232.03125 C 75.011719 230.8125 82.816406 232.484375 88.316406 232.640625 C 94.234375 232.804688 97.652344 230.578125 101.996094 228.390625 C 104.058594 226.316406 105.644531 224 107.46875 221.40625 C 109.109375 219.070312 111.402344 217.054688 113.242188 214.730469 C 116.550781 210.558594 119.324219 205.160156 122.058594 199.855469 C 126.136719 191.9375 129.496094 183.585938 126.617188 172.535156 C 117.75 169.53125 104.332031 168.949219 95.613281 174.054688 C 100.570312 153.207031 80.019531 144.527344 63.085938 144.613281 C 66.167969 139.628906 71.316406 135.550781 72.511719 129.433594 C 75.410156 114.585938 64.589844 102.242188 54.878906 96.042969 C 63.328125 92.742188 66.601562 84.273438 67.039062 72.972656 C 72.039062 79.71875 78.367188 85.136719 84.0625 91.1875 C 83.816406 92.242188 84.515625 92.355469 84.367188 93.3125 C 93.089844 102.203125 100.957031 111.953125 109.898438 120.628906 C 114.984375 128.550781 123.117188 135.761719 132.695312 140.664062 C 136.550781 142.636719 140.003906 146.269531 145.160156 144.613281 C 145.546875 137.398438 150.789062 128.625 153.976562 122.148438 C 156.453125 117.117188 158.769531 112.328125 162.789062 108.792969 C 162.875 107.765625 163.273438 107.046875 163.09375 105.757812 C 169.976562 94.007812 178.941406 81.746094 190.148438 71.757812 C 195.425781 67.058594 201.105469 62.199219 207.476562 58.402344 C 213.730469 54.679688 221.277344 50.863281 228.449219 48.996094 C 235.128906 47.253906 242.464844 48.078125 249.421875 48.691406 C 263.953125 49.96875 281.292969 55.449219 288.9375 63.5625 C 289.554688 64.214844 290.066406 65.136719 290.460938 65.992188 "/>
<path style=" stroke:none;fill-rule:evenodd;fill:rgb(91.758728%,16.468811%,16.468811%);fill-opacity:1;" d="M 125.097656 73.882812 C 125.289062 80.597656 127.0625 84.429688 129.351562 89.667969 C 132.800781 97.550781 135.742188 102.941406 141.207031 108.1875 C 143.703125 110.578125 146.769531 113.984375 150.328125 113.953125 C 150.074219 111.878906 148.035156 111.585938 146.375 110.917969 C 135.9375 102.121094 127.8125 89.722656 126.3125 72.972656 L 125.402344 72.972656 C 125.382812 73.359375 125.011719 73.394531 125.097656 73.882812 M 159.449219 109.398438 C 156.394531 113.839844 153.03125 119.023438 150.328125 124.273438 C 147.488281 129.789062 146.238281 136.75 141.816406 140.058594 C 134.199219 136.027344 134.726562 123.867188 123.882812 123.058594 C 123.617188 120.332031 124.875 117.128906 124.488281 114.558594 C 123.558594 108.289062 119.773438 106.042969 114.15625 105.757812 C 118.335938 99.648438 121.628906 85.941406 115.371094 79.652344 C 117.140625 73.140625 120.261719 69.804688 124.1875 65.386719 C 124.742188 62.296875 126.582031 60.492188 128.441406 58.707031 C 128.933594 58.621094 128.964844 58.992188 129.351562 59.011719 C 127.769531 71.253906 131.515625 79.792969 136.648438 89.367188 C 141.886719 99.132812 148.007812 106.9375 159.449219 109.398438 "/>
<path style=" stroke:none;fill-rule:evenodd;fill:rgb(0%,0%,0%);fill-opacity:1;" d="M 273.742188 75.097656 C 271.851562 75.117188 270.46875 72.125 269.183594 70.542969 C 266.039062 68.925781 262.6875 67.515625 259.148438 66.296875 C 259.191406 71.417969 259.882812 78.515625 264.925781 79.652344 C 264.519531 80.835938 265.082031 81.226562 264.621094 82.082031 C 255.753906 82.082031 258.390625 69.085938 254.589844 63.5625 C 254.542969 63.210938 254.65625 63.023438 254.894531 62.957031 C 258.527344 64.011719 266.929688 66.367188 270.398438 68.726562 C 272.433594 70.105469 275.425781 72.832031 273.742188 75.097656 "/>
<path style=" stroke:none;fill-rule:evenodd;fill:rgb(0%,0%,0%);fill-opacity:1;" d="M 125.402344 72.972656 L 126.3125 72.972656 C 127.8125 89.722656 135.9375 102.121094 146.375 110.917969 C 148.035156 111.585938 150.074219 111.878906 150.328125 113.953125 C 146.769531 113.984375 143.703125 110.578125 141.207031 108.183594 C 135.742188 102.941406 132.796875 97.550781 129.351562 89.667969 C 127.0625 84.429688 125.285156 80.597656 125.097656 73.882812 C 125.015625 73.394531 125.382812 73.359375 125.402344 72.972656 "/>
<path style=" stroke:none;fill-rule:evenodd;fill:rgb(100%,100%,100%);fill-opacity:1;" d="M 309.304688 84.507812 C 309.90625 84.925781 311.042969 84.800781 311.738281 85.117188 C 314.980469 82.707031 308.449219 79.53125 309.304688 84.507812 M 304.746094 86.632812 C 304.640625 83.078125 305.65625 78.964844 308.394531 77.832031 C 311.132812 76.695312 315.714844 78.59375 316.296875 80.867188 C 317.660156 86.15625 307.453125 94.714844 304.746094 86.632812 "/>
<path style=" stroke:none;fill-rule:evenodd;fill:rgb(0%,0%,0%);fill-opacity:1;" d="M 279.210938 91.792969 C 279.882812 94.753906 284.742188 97.542969 288.027344 96.953125 C 294.957031 95.710938 294.773438 80.347656 285.597656 82.082031 C 281.375 82.875 278.148438 87.101562 279.210938 91.792969 M 291.675781 80.867188 C 291.917969 83.136719 294.261719 84.550781 294.71875 86.9375 C 295.695312 92.113281 292.039062 98.265625 288.027344 98.773438 C 283.492188 99.355469 278.375 95.5625 277.691406 92.097656 C 276.285156 84.964844 283.269531 78.375 291.675781 80.867188 "/>
<path style=" stroke:none;fill-rule:evenodd;fill:rgb(100%,100%,100%);fill-opacity:1;" d="M 284.683594 89.667969 C 285.300781 90.882812 287.367188 91.550781 288.9375 90.882812 C 289.804688 86.855469 285.054688 86.273438 284.683594 89.667969 M 285.597656 82.082031 C 294.773438 80.347656 294.957031 95.710938 288.027344 96.957031 C 284.742188 97.542969 279.882812 94.753906 279.210938 91.792969 C 278.148438 87.101562 281.375 82.875 285.597656 82.082031 "/>
<path style=" stroke:none;fill-rule:evenodd;fill:rgb(0%,0%,0%);fill-opacity:1;" d="M 311.738281 85.117188 C 311.042969 84.800781 309.90625 84.925781 309.304688 84.507812 C 308.449219 79.53125 314.980469 82.707031 311.738281 85.117188 "/>
<path style=" stroke:none;fill-rule:evenodd;fill:rgb(100%,59.999084%,59.999084%);fill-opacity:1;" d="M 174.949219 266.332031 C 172.171875 265.96875 170.582031 264.421875 169.175781 262.691406 C 167.824219 265.398438 172.53125 268.613281 174.949219 266.332031 M 188.933594 228.085938 C 189.226562 230.324219 193.1875 228.898438 195.316406 229.296875 C 195.503906 225.96875 190.847656 228.695312 188.933594 228.085938 M 190.757812 190.75 C 193.046875 190.101562 196.105469 190.222656 198.050781 189.230469 C 197.171875 187.527344 190.929688 188.082031 190.757812 190.75 M 189.847656 165.253906 C 189.75 165.660156 189.410156 165.832031 189.539062 166.464844 C 191.597656 167.46875 194.585938 166.929688 196.53125 167.074219 L 196.53125 165.554688 C 194.722656 165.359375 191.109375 165.625 189.847656 165.253906 M 197.746094 137.628906 C 197.511719 137.695312 197.394531 137.882812 197.445312 138.238281 C 198.707031 139.605469 200.804688 140.140625 202.609375 140.96875 C 202.773438 138.234375 198.964844 137.988281 197.746094 137.628906 M 262.496094 94.523438 C 245.386719 88.113281 226.847656 96.550781 218.417969 107.277344 C 208.097656 122.535156 205.046875 145.65625 202.003906 167.679688 C 201.558594 170.917969 202.164062 173.035156 202.609375 175.574219 C 203.449219 180.335938 203.304688 185.21875 203.523438 189.839844 C 203.882812 197.421875 204.726562 204.261719 205.648438 211.996094 C 206.140625 216.082031 207.140625 219.117188 207.476562 222.925781 C 209.421875 245.210938 193.515625 255.675781 182.851562 272.707031 C 184.402344 278.648438 188.480469 282.0625 191.363281 286.671875 C 190.601562 288.492188 188.671875 289.585938 187.109375 290.917969 C 185.621094 292.1875 183.414062 293.265625 183.15625 294.867188 C 185.085938 295.511719 187.296875 293.007812 188.933594 291.527344 C 190.746094 289.890625 192.816406 287.957031 193.796875 286.0625 C 194.8125 285.863281 195.28125 285.121094 196.226562 284.847656 C 198.964844 281.855469 201.898438 273.25 207.171875 277.566406 C 208.214844 278.636719 205.734375 279.433594 206.867188 280.601562 C 207.378906 281.480469 209.722656 279.703125 210.511719 281.207031 C 211.957031 282.808594 209.421875 284.054688 208.6875 285.457031 C 208.207031 286.382812 208.351562 287.40625 207.777344 288.1875 C 207.199219 288.976562 205.699219 290.101562 204.433594 291.222656 C 201.285156 294.015625 197.007812 297.058594 193.492188 299.417969 C 189.8125 301.890625 185.042969 306.359375 180.726562 303.972656 C 177.105469 295.140625 168.957031 290.832031 163.398438 283.9375 C 154.960938 288.359375 150.433594 296.691406 136.648438 295.777344 C 136.433594 294.210938 138.375 292.382812 139.6875 290.613281 C 145.503906 282.804688 151.105469 269.625 148.199219 257.226562 C 150.703125 249.203125 156.523438 244.488281 164.3125 241.746094 C 160.175781 232.3125 165.796875 224.738281 173.125 221.710938 C 169.800781 212.515625 164.144531 195.679688 174.648438 190.144531 C 171.691406 185.085938 167.902344 179.695312 167.957031 172.539062 C 168.023438 164.207031 171.691406 156.449219 175.558594 150.984375 C 176.695312 150.804688 177.128906 149.925781 177.988281 149.46875 C 178.730469 148.890625 180.53125 149.375 181.332031 148.859375 C 176.539062 133.769531 185.324219 119.703125 197.140625 116.683594 C 196.199219 102.160156 205.417969 94.632812 218.722656 96.347656 C 220.78125 94.734375 220.707031 91.867188 222.976562 89.972656 C 228.476562 85.378906 240.566406 85.058594 246.078125 88.457031 C 253.320312 86.640625 260.140625 89.539062 262.496094 94.523438 "/>
<path style=" stroke:none;fill-rule:evenodd;fill:rgb(0%,0%,0%);fill-opacity:1;" d="M 70.6875 86.9375 L 71.597656 86.9375 C 72.433594 91.265625 74.410156 95.324219 76.460938 98.773438 C 77.738281 100.917969 79.714844 102.441406 81.019531 104.542969 C 83.550781 108.621094 85.191406 112.542969 88.011719 116.078125 C 91.9375 121 96.949219 125.261719 101.691406 129.738281 C 107.316406 135.042969 114.292969 140.75 121.148438 145.21875 C 125.359375 147.964844 128.851562 150.117188 134.21875 151.894531 C 135.335938 152.265625 138.464844 152.054688 137.863281 154.628906 C 131.589844 153.199219 124.984375 149.484375 119.625 146.128906 C 119.558594 146.542969 119.375 147.378906 118.714844 147.949219 C 116.375 149.863281 114.089844 151.832031 112.027344 154.019531 C 109.640625 155.484375 108.210938 159.515625 106.554688 160.699219 C 105.554688 158.332031 108.355469 156.320312 109.898438 154.628906 C 112.257812 152.042969 114.769531 150.039062 116.585938 147.039062 C 117.550781 146.785156 117.542969 145.566406 119.019531 145.824219 C 113.972656 141.050781 107.621094 137.574219 102.90625 132.46875 C 100.941406 133.238281 99.675781 134.707031 97.738281 135.503906 C 96.980469 136.082031 96.304688 137.945312 95.308594 137.324219 C 94.015625 139.300781 92.332031 142.410156 90.140625 142.488281 C 92.882812 137.839844 97.457031 135.019531 101.085938 131.253906 C 88.828125 121.027344 80.199219 107.1875 71.902344 93.007812 C 71.707031 91.082031 70.902344 89.757812 70.382812 88.152344 C 70.253906 87.519531 70.59375 87.347656 70.6875 86.9375 "/>
<path style=" stroke:none;fill-rule:evenodd;fill:rgb(0%,0%,0%);fill-opacity:1;" d="M 288.9375 90.882812 C 287.367188 91.550781 285.300781 90.882812 284.683594 89.667969 C 285.054688 86.273438 289.804688 86.855469 288.9375 90.882812 "/>
<path style=" stroke:none;fill-rule:evenodd;fill:rgb(83.918762%,78.819275%,74.119568%);fill-opacity:1;" d="M 337.878906 99.082031 C 338.359375 102.796875 335.902344 106.210938 334.234375 108.792969 C 329.988281 108.679688 327.617188 106.695312 327.242188 102.722656 C 331.367188 103.246094 335.59375 101.390625 337.878906 99.082031 "/>
<path style=" stroke:none;fill-rule:evenodd;fill:rgb(100%,100%,100%);fill-opacity:1;" d="M 108.683594 110.917969 C 116.8125 109.933594 122.09375 116.707031 118.410156 123.664062 C 114.375 120.207031 110.773438 116.320312 108.683594 110.917969 "/>
<path style=" stroke:none;fill-rule:evenodd;fill:rgb(0%,0%,0%);fill-opacity:1;" d="M 89.53125 120.328125 C 86.5 121.75 81.90625 123.230469 80.71875 125.488281 C 79.3125 124.117188 83.210938 122.96875 83.757812 121.539062 C 85.980469 121.707031 87.75 118.621094 89.53125 120.328125 "/>
<path style=" stroke:none;fill-rule:evenodd;fill:rgb(0%,0%,0%);fill-opacity:1;" d="M 324.503906 137.628906 C 326.558594 135.871094 326.042969 128.90625 324.199219 127.308594 L 323.59375 127.308594 C 324.035156 131.285156 322.546875 135.398438 324.503906 137.628906 M 323.59375 139.449219 C 321.015625 136.238281 321.917969 128.785156 323.289062 125.183594 C 328.757812 124.273438 329.273438 139.199219 323.59375 139.449219 "/>
<path style=" stroke:none;fill-rule:evenodd;fill:rgb(0%,0%,0%);fill-opacity:1;" d="M 333.320312 134.898438 C 334.824219 133.285156 335.1875 128.148438 333.015625 127.003906 C 332.699219 129.449219 331.789062 133.199219 333.320312 134.898438 M 334.839844 125.183594 C 336.421875 127.585938 337.804688 138.765625 331.496094 136.113281 C 330.457031 132.800781 331.425781 128.851562 330.585938 125.789062 C 331.605469 124.976562 333.371094 124.746094 334.839844 125.183594 "/>
<path style=" stroke:none;fill-rule:evenodd;fill:rgb(100%,100%,100%);fill-opacity:1;" d="M 120.539062 126.703125 C 125.503906 126.296875 129.332031 129.660156 130.265625 134.289062 C 126.621094 132.160156 123.652344 129.359375 120.539062 126.703125 "/>
<path style=" stroke:none;fill-rule:evenodd;fill:rgb(84.709167%,38.038635%,38.038635%);fill-opacity:1;" d="M 333.015625 127.003906 C 335.1875 128.148438 334.824219 133.285156 333.320312 134.898438 C 331.789062 133.199219 332.699219 129.449219 333.015625 127.003906 "/>
<path style=" stroke:none;fill-rule:evenodd;fill:rgb(84.709167%,38.038635%,38.038635%);fill-opacity:1;" d="M 323.59375 127.308594 L 324.203125 127.308594 C 326.042969 128.90625 326.558594 135.875 324.503906 137.628906 C 322.546875 135.398438 324.035156 131.285156 323.59375 127.308594 "/>
<path style=" stroke:none;fill-rule:evenodd;fill:rgb(0%,0%,0%);fill-opacity:1;" d="M 202.609375 140.96875 C 200.804688 140.140625 198.707031 139.605469 197.445312 138.234375 C 197.394531 137.882812 197.511719 137.695312 197.746094 137.628906 C 198.964844 137.988281 202.773438 138.234375 202.609375 140.96875 "/>
<path style=" stroke:none;fill-rule:evenodd;fill:rgb(91.758728%,16.468811%,16.468811%);fill-opacity:1;" d="M 231.183594 161.304688 C 230.375 160.996094 229.453125 160.808594 229.359375 159.789062 C 230.777344 158.988281 231.21875 160.277344 231.183594 161.304688 "/>
<path style=" stroke:none;fill-rule:evenodd;fill:rgb(91.758728%,16.468811%,16.468811%);fill-opacity:1;" d="M 220.546875 161.304688 C 221.625 163.507812 219.878906 166.726562 221.761719 168.285156 C 225.359375 167.628906 226.613281 164.632812 228.144531 161.914062 C 229.566406 161.808594 229.9375 162.753906 230.578125 163.429688 C 230.074219 165.558594 227.863281 165.980469 227.234375 167.984375 C 230.136719 169.503906 235.683594 168.652344 235.136719 172.234375 C 234.628906 175.5625 230.1875 173.253906 227.839844 174.660156 C 229.949219 176.128906 232.390625 180.457031 229.664062 183.164062 C 227.535156 181.238281 225.734375 178.992188 222.976562 177.699219 C 217.605469 180.628906 210.925781 182.257812 205.042969 184.679688 C 204.488281 181.660156 204.542969 178.675781 204.128906 176.179688 C 208.636719 176.390625 214.128906 172.707031 218.417969 170.714844 C 219.753906 167.597656 217.949219 164.429688 218.417969 161.609375 C 219.378906 161.761719 219.492188 161.0625 220.546875 161.304688 "/>
<path style=" stroke:none;fill-rule:evenodd;fill:rgb(0%,0%,0%);fill-opacity:1;" d="M 196.53125 165.554688 L 196.53125 167.074219 C 194.585938 166.929688 191.597656 167.46875 189.539062 166.464844 C 189.410156 165.832031 189.75 165.664062 189.84375 165.253906 C 191.109375 165.625 194.722656 165.355469 196.53125 165.554688 "/>
<path style=" stroke:none;fill-rule:evenodd;fill:rgb(0%,0%,0%);fill-opacity:1;" d="M 144.550781 176.785156 C 144.425781 187.175781 148.421875 198.316406 154.277344 204.714844 C 156.171875 204.4375 157.074219 202.316406 159.75 202.890625 C 163.359375 203.667969 162.335938 208.203125 160.964844 211.089844 C 163.695312 211.824219 166.9375 211.550781 167.046875 214.730469 C 167.167969 218.28125 162.222656 219.804688 159.144531 220.191406 C 162.183594 227.8125 150.375 227.375 148.199219 223.226562 C 147.671875 224.222656 147.546875 225.613281 146.679688 226.265625 C 145.796875 226.597656 144.523438 226.539062 143.640625 226.871094 C 140.238281 224.542969 138.199219 218.855469 140.601562 214.125 C 135.734375 208.335938 130.988281 199.832031 130.265625 190.144531 C 130.070312 187.535156 129.195312 183.21875 131.480469 182.859375 C 131.671875 192.898438 133.417969 203.015625 138.777344 209.570312 C 140.023438 211.09375 141.757812 212.058594 143.03125 213.515625 C 142.816406 215.28125 141.089844 215.804688 140.902344 218.070312 C 140.644531 221.246094 142.847656 225.339844 144.855469 225.050781 C 147.773438 224.628906 146.003906 220.859375 146.679688 218.375 C 149.277344 219.125 149.242188 222.9375 151.847656 224.140625 C 153.660156 224.980469 157.339844 225.277344 158.230469 223.226562 C 158.292969 219.523438 154.164062 220.007812 153.367188 217.160156 C 154.664062 215.90625 156.042969 218.113281 158.230469 218.375 C 161.515625 218.757812 165.851562 217.042969 165.527344 214.730469 C 165.050781 211.359375 159.644531 214.199219 157.320312 212.605469 C 158.265625 210.355469 162.238281 207.503906 159.75 204.714844 C 157.351562 203.894531 156.464844 206.777344 154.277344 207.140625 C 146.96875 200.273438 143.625 188.523438 142.425781 176.484375 C 142.851562 176.050781 143.902344 176.550781 144.550781 176.785156 "/>
<path style=" stroke:none;fill-rule:evenodd;fill:rgb(0%,0%,0%);fill-opacity:1;" d="M 198.050781 189.230469 C 196.101562 190.222656 193.046875 190.101562 190.757812 190.75 C 190.929688 188.082031 197.171875 187.527344 198.050781 189.230469 "/>
<path style=" stroke:none;fill-rule:evenodd;fill:rgb(0%,0%,0%);fill-opacity:1;" d="M 195.316406 229.300781 C 193.1875 228.898438 189.226562 230.324219 188.933594 228.085938 C 190.847656 228.695312 195.503906 225.96875 195.316406 229.300781 "/>
<path style=" stroke:none;fill-rule:evenodd;fill:rgb(0%,0%,0%);fill-opacity:1;" d="M 169.175781 262.691406 C 170.582031 264.421875 172.171875 265.96875 174.949219 266.332031 C 172.53125 268.613281 167.828125 265.398438 169.175781 262.691406 "/>
<g clip-path="url(#clip1)" clip-rule="nonzero">
<path style=" stroke:none;fill-rule:evenodd;fill:rgb(0%,0%,0%);fill-opacity:1;" d="M 218.417969 161.609375 C 217.949219 164.429688 219.753906 167.597656 218.417969 170.714844 C 214.128906 172.707031 208.636719 176.386719 204.128906 176.179688 C 204.542969 178.675781 204.488281 181.660156 205.042969 184.679688 C 210.925781 182.257812 217.605469 180.628906 222.976562 177.699219 C 225.734375 178.992188 227.535156 181.238281 229.664062 183.164062 C 232.390625 180.457031 229.949219 176.128906 227.839844 174.660156 C 230.1875 173.253906 234.625 175.5625 235.136719 172.234375 C 235.683594 168.652344 230.136719 169.503906 227.234375 167.984375 C 227.863281 165.980469 230.074219 165.558594 230.578125 163.429688 C 229.9375 162.753906 229.566406 161.808594 228.144531 161.914062 C 226.613281 164.632812 225.359375 167.628906 221.761719 168.285156 C 219.878906 166.726562 221.625 163.507812 220.546875 161.304688 C 219.492188 161.0625 219.378906 161.757812 218.417969 161.609375 M 229.359375 159.789062 C 229.453125 160.808594 230.375 160.996094 231.183594 161.304688 C 231.21875 160.277344 230.777344 158.988281 229.359375 159.789062 M 130.265625 134.289062 C 129.332031 129.660156 125.503906 126.296875 120.539062 126.703125 C 123.652344 129.359375 126.621094 132.160156 130.265625 134.289062 M 118.410156 123.664062 C 122.09375 116.707031 116.8125 109.933594 108.683594 110.917969 C 110.773438 116.320312 114.378906 120.207031 118.410156 123.664062 M 327.242188 102.722656 C 327.617188 106.695312 329.988281 108.679688 334.234375 108.792969 C 335.902344 106.210938 338.359375 102.796875 337.878906 99.078125 C 335.59375 101.390625 331.367188 103.246094 327.242188 102.722656 M 246.078125 88.457031 C 240.566406 85.054688 228.476562 85.378906 222.976562 89.972656 C 220.707031 91.867188 220.78125 94.734375 218.722656 96.347656 C 205.417969 94.632812 196.199219 102.160156 197.140625 116.683594 C 185.324219 119.703125 176.539062 133.769531 181.332031 148.859375 C 180.535156 149.375 178.730469 148.890625 177.988281 149.46875 C 177.128906 149.925781 176.695312 150.804688 175.558594 150.984375 C 171.691406 156.449219 168.023438 164.207031 167.957031 172.535156 C 167.902344 179.699219 171.691406 185.085938 174.648438 190.144531 C 164.144531 195.679688 169.800781 212.515625 173.125 221.710938 C 165.796875 224.738281 160.179688 232.3125 164.3125 241.746094 C 156.523438 244.488281 150.703125 249.203125 148.199219 257.226562 C 151.105469 269.625 145.503906 282.804688 139.6875 290.613281 C 138.375 292.382812 136.433594 294.210938 136.648438 295.777344 C 150.429688 296.691406 154.960938 288.359375 163.398438 283.9375 C 168.957031 290.832031 177.105469 295.140625 180.726562 303.972656 C 185.042969 306.359375 189.8125 301.890625 193.492188 299.417969 C 197.007812 297.058594 201.285156 294.015625 204.433594 291.222656 C 205.699219 290.101562 207.199219 288.976562 207.777344 288.1875 C 208.351562 287.40625 208.207031 286.382812 208.6875 285.457031 C 209.421875 284.054688 211.957031 282.808594 210.511719 281.207031 C 209.722656 279.703125 207.378906 281.480469 206.867188 280.601562 C 205.734375 279.433594 208.214844 278.636719 207.171875 277.566406 C 201.898438 273.25 198.964844 281.855469 196.226562 284.847656 C 195.28125 285.121094 194.8125 285.863281 193.792969 286.0625 C 192.816406 287.957031 190.746094 289.890625 188.933594 291.527344 C 187.296875 293.007812 185.085938 295.511719 183.15625 294.867188 C 183.414062 293.265625 185.621094 292.1875 187.109375 290.917969 C 188.667969 289.585938 190.601562 288.492188 191.363281 286.671875 C 188.480469 282.0625 184.402344 278.648438 182.851562 272.707031 C 193.515625 255.675781 209.421875 245.210938 207.476562 222.925781 C 207.140625 219.117188 206.140625 216.078125 205.648438 211.996094 C 204.726562 204.261719 203.882812 197.421875 203.523438 189.839844 C 203.304688 185.21875 203.449219 180.335938 202.609375 175.574219 C 202.164062 173.035156 201.558594 170.914062 202.003906 167.679688 C 205.042969 145.660156 208.097656 122.535156 218.417969 107.273438 C 226.847656 96.550781 245.386719 88.113281 262.496094 94.523438 C 260.140625 89.539062 253.320312 86.640625 246.078125 88.457031 M 316.296875 80.867188 C 315.714844 78.59375 311.132812 76.695312 308.394531 77.832031 C 305.65625 78.964844 304.640625 83.078125 304.746094 86.632812 C 307.453125 94.714844 317.660156 86.15625 316.296875 80.867188 M 136.648438 89.367188 C 131.515625 79.792969 127.773438 71.253906 129.351562 59.011719 C 128.964844 58.992188 128.933594 58.621094 128.441406 58.707031 C 126.582031 60.492188 124.738281 62.296875 124.183594 65.386719 C 120.261719 69.804688 117.136719 73.140625 115.371094 79.652344 C 121.628906 85.941406 118.335938 99.648438 114.152344 105.757812 C 119.773438 106.042969 123.554688 108.289062 124.488281 114.558594 C 124.875 117.128906 123.617188 120.332031 123.882812 123.058594 C 134.722656 123.867188 134.199219 136.027344 141.816406 140.058594 C 146.242188 136.75 147.488281 129.789062 150.328125 124.273438 C 153.03125 119.023438 156.394531 113.839844 159.445312 109.398438 C 148.007812 106.933594 141.886719 99.132812 136.648438 89.367188 M 288.9375 63.5625 C 281.292969 55.449219 263.953125 49.96875 249.421875 48.691406 C 242.464844 48.078125 235.128906 47.25 228.449219 48.992188 C 221.277344 50.863281 213.730469 54.679688 207.476562 58.402344 C 201.105469 62.199219 195.425781 67.058594 190.148438 71.761719 C 178.941406 81.746094 169.976562 94.007812 163.09375 105.757812 C 163.273438 107.046875 162.875 107.765625 162.789062 108.792969 C 158.769531 112.328125 156.453125 117.117188 153.976562 122.148438 C 150.789062 128.625 145.546875 137.398438 145.160156 144.613281 C 140.003906 146.269531 136.550781 142.636719 132.695312 140.664062 C 123.117188 135.761719 114.984375 128.550781 109.898438 120.628906 C 100.957031 111.953125 93.089844 102.203125 84.367188 93.3125 C 84.515625 92.355469 83.816406 92.242188 84.0625 91.1875 C 78.367188 85.136719 72.039062 79.71875 67.039062 72.972656 C 66.601562 84.273438 63.328125 92.742188 54.878906 96.042969 C 64.589844 102.242188 75.410156 114.585938 72.511719 129.433594 C 71.316406 135.550781 66.167969 139.628906 63.085938 144.613281 C 80.019531 144.527344 100.570312 153.207031 95.613281 174.054688 C 104.332031 168.949219 117.75 169.53125 126.617188 172.535156 C 129.496094 183.585938 126.136719 191.9375 122.058594 199.855469 C 119.324219 205.160156 116.550781 210.558594 113.242188 214.730469 C 111.402344 217.054688 109.109375 219.070312 107.46875 221.40625 C 105.644531 224 104.058594 226.316406 101.996094 228.390625 C 97.652344 230.578125 94.234375 232.804688 88.316406 232.640625 C 82.816406 232.484375 75.011719 230.8125 69.46875 232.03125 C 62.535156 233.558594 55.6875 234.417969 50.625 236.886719 C 41.507812 241.335938 36.421875 248.746094 35.121094 260.867188 C 34.511719 266.546875 33.714844 272.664062 34.816406 278.777344 C 35.484375 282.484375 38.4375 286.625 40.289062 290.007812 C 42.46875 293.988281 44.15625 297.570312 46.976562 300.328125 C 51.375 304.632812 60.496094 306.492188 67.648438 306.097656 C 75.539062 305.660156 80.9375 300.953125 84.972656 296.6875 C 89.054688 292.371094 94.191406 285.425781 92.574219 277.261719 C 91.808594 273.410156 90.332031 267.914062 85.277344 267.847656 C 84.988281 270.3125 87.363281 270.9375 87.707031 273.316406 C 88.773438 280.578125 77.882812 287.464844 72.511719 287.582031 C 69.921875 287.636719 67.707031 285.527344 65.519531 285.457031 C 60 280.328125 53.660156 275.085938 54.878906 265.421875 C 55.734375 258.65625 62.503906 251.859375 67.949219 249.941406 C 80.101562 245.664062 93.230469 249.527344 99.867188 258.136719 C 103.625 263.007812 104.929688 268.257812 105.644531 275.136719 C 107.121094 289.378906 106.816406 302.71875 106.253906 316.722656 C 105.457031 318.121094 105.570312 318.582031 105.339844 320.363281 C 104.148438 320.589844 103.875 321.734375 103.210938 322.488281 C 102.609375 323.160156 101 321.894531 100.171875 322.792969 C 101.3125 325.59375 105.117188 324.679688 108.074219 324.917969 C 114.371094 325.421875 120.875 327.238281 125.402344 327.347656 C 125.289062 326.332031 123.671875 325.246094 124.792969 324.007812 C 127.105469 325.652344 128.75 327.554688 132.695312 326.132812 C 133.679688 325.105469 131.03125 324.320312 132.695312 323.398438 C 134.652344 323.917969 139.234375 324.867188 139.082031 321.273438 C 138.984375 319.074219 134.351562 318.0625 131.175781 317.632812 C 129.492188 317.402344 128.550781 318.171875 127.53125 317.328125 C 125.601562 315.746094 127.226562 311.261719 127.226562 308.523438 C 127.226562 306.277344 126.078125 301.285156 127.53125 298.8125 C 132.402344 296.648438 134.960938 294.925781 138.167969 290.613281 C 144.207031 282.503906 149.554688 269.933594 146.375 258.136719 C 147.683594 253.648438 149.453125 249.808594 153.0625 246.601562 C 154.652344 245.1875 161.714844 242.113281 162.183594 240.226562 C 162.53125 238.8125 161.003906 236.667969 160.964844 235.371094 C 160.761719 228.148438 166.34375 224.914062 170.996094 220.5 C 170.339844 216.15625 167.398438 210.222656 166.742188 204.714844 C 165.914062 197.742188 169.265625 193.550781 172.210938 189.230469 C 162.65625 177.714844 166.914062 152.429688 179.207031 147.039062 C 176.132812 132.144531 184.171875 119.707031 195.621094 115.46875 C 196.238281 112.085938 195.882812 108.34375 196.835938 105.453125 C 199.402344 97.660156 210.625 93.867188 218.113281 94.222656 C 220.972656 85.859375 236.613281 82.300781 245.777344 86.632812 C 255.1875 85.246094 260.46875 88.527344 264.316406 93.917969 C 267.285156 98.070312 269.953125 103.84375 269.183594 109.398438 C 268.722656 112.714844 266.179688 116.308594 266.75 120.023438 C 266.945312 121.296875 268.757812 122.648438 268.574219 123.96875 C 273.125 126.824219 277.648438 130.042969 282.253906 133.074219 C 286.910156 136.148438 292.699219 137.492188 296.234375 141.878906 C 296.976562 142.425781 298.039062 141.449219 298.667969 142.488281 C 298.148438 144.542969 299.847656 145.910156 300.1875 147.949219 C 300.71875 151.175781 299.429688 154.714844 300.488281 157.664062 C 310.816406 160.183594 322.789062 163.695312 331.796875 158.574219 C 334.324219 155.308594 335.007812 151.757812 336.054688 146.128906 C 337.03125 140.875 338.367188 135.363281 338.792969 130.042969 C 339.472656 121.519531 335.433594 117.550781 334.839844 110.917969 C 328.65625 110.617188 325.019531 107.773438 325.417969 100.898438 C 321.9375 96.886719 316.457031 94.871094 313.5625 90.277344 C 307.0625 95.433594 299.8125 86.160156 304.746094 79.953125 C 303.585938 75.851562 299.398438 74.773438 298.972656 69.9375 C 301.34375 67.148438 303.125 63.765625 305.050781 60.53125 C 302.246094 59.699219 300.441406 58.371094 298.058594 58.707031 C 293.773438 59.3125 293.484375 63.789062 290.460938 65.992188 C 290.066406 65.136719 289.554688 64.21875 288.9375 63.5625 M 289.851562 59.011719 C 294.554688 52.070312 308.640625 55.167969 312.042969 62.042969 C 309.191406 63.070312 302.933594 67.855469 303.53125 71.761719 C 304.046875 75.132812 306.996094 72.875 309.304688 72.972656 C 317.285156 73.320312 324.609375 83.203125 317.816406 89.667969 C 320.851562 93.117188 324.773438 95.675781 328.457031 98.472656 C 333.859375 97.289062 336.902344 93.753906 339.703125 89.972656 C 345.042969 91.726562 343.785156 96.820312 342.4375 102.417969 C 341.488281 106.363281 339.097656 110.355469 339.398438 113.648438 C 339.632812 116.15625 341.484375 118.652344 342.136719 121.238281 C 343.46875 126.523438 343.3125 132.515625 342.4375 138.234375 C 341.105469 146.964844 339.644531 155.65625 335.144531 162.214844 C 328.621094 165.320312 323.074219 166.285156 313.867188 164.644531 C 307.617188 163.53125 297.78125 162.800781 295.628906 157.96875 C 293.945312 154.1875 296.574219 147.90625 293.195312 144.308594 C 290.386719 141.316406 284.769531 139.421875 279.820312 136.109375 C 275.363281 133.132812 270.378906 130.28125 267.054688 127.613281 C 265 125.960938 262.511719 122.164062 262.1875 118.8125 C 261.796875 114.707031 265.6875 108.296875 264.316406 103.933594 C 263.5625 101.515625 258.914062 97.734375 256.414062 96.953125 C 252.507812 95.730469 246.851562 96.339844 243.648438 96.953125 C 232.324219 99.121094 224.203125 106.539062 218.722656 115.46875 C 211.929688 130.847656 210.117188 151.195312 206.5625 169.804688 C 208.6875 170.003906 211.824219 168.585938 214.160156 167.984375 C 213.78125 163.703125 212.933594 159.402344 215.378906 156.753906 C 218.402344 155.265625 221.917969 156.871094 223.890625 158.269531 C 225.597656 158.183594 226 156.300781 227.839844 155.839844 C 232.695312 154.628906 237.910156 159.492188 235.136719 165.554688 C 237.648438 167.273438 241.261719 171.304688 239.390625 175.574219 C 238.738281 177.066406 236.933594 177.609375 235.136719 178.304688 C 237.359375 180.941406 235.121094 186.082031 233.007812 188.015625 C 228.695312 188.785156 226.015625 186.644531 224.191406 184.070312 C 220.113281 185.910156 216.796875 186.117188 212.035156 186.804688 C 215.285156 203.402344 214.242188 222.738281 212.035156 236.28125 C 210.941406 242.976562 207.964844 249.296875 204.738281 252.671875 C 204.226562 253.210938 203.78125 254.042969 202.609375 253.886719 C 199.132812 260.9375 192.734375 265.074219 188.933594 271.796875 C 190.210938 275.074219 192.390625 277.449219 194.101562 280.296875 C 196.257812 278.441406 197.820312 274.085938 200.789062 272.707031 C 202.765625 271.785156 206.496094 271.050781 208.6875 271.796875 C 210.574219 272.4375 210.476562 274.746094 212.339844 277.261719 C 213.332031 278.605469 215.679688 279.121094 215.683594 281.816406 C 215.6875 284.457031 213.128906 285.425781 213.25 288.1875 C 209.925781 292.117188 205.417969 295.203125 200.484375 299.117188 C 196.921875 301.941406 193.320312 305.03125 190.148438 306.703125 C 185.941406 308.921875 181.46875 309.269531 177.078125 307.3125 C 174.355469 300.113281 168.535156 296.011719 164.007812 290.613281 C 159.542969 293.808594 154.164062 296.929688 147.59375 298.507812 C 142.714844 299.675781 135.734375 298.648438 131.480469 300.632812 C 130.492188 304.457031 132.207031 308.929688 130.566406 312.777344 C 134.960938 315.296875 142.976562 315.289062 143.335938 320.972656 C 143.496094 323.527344 141.480469 324.304688 141.207031 327.042969 C 138.472656 328.691406 130.808594 330.714844 126.3125 331.292969 C 121.800781 331.875 116.132812 330.160156 110.507812 329.164062 C 104.863281 328.171875 97.332031 329.5625 95.613281 325.222656 C 93.964844 321.0625 98.164062 317.222656 101.691406 317.328125 C 102.59375 298.78125 105.550781 271.824219 95.003906 259.65625 C 90.351562 254.289062 78.828125 248.546875 69.167969 253.585938 C 63.824219 256.367188 57.820312 263.339844 60.046875 271.492188 C 61.132812 275.457031 67 282.566406 70.988281 283.332031 C 76.238281 284.335938 83.425781 279.035156 83.453125 275.4375 C 83.476562 272.445312 80.09375 271.765625 80.109375 269.0625 C 80.152344 262.511719 90.898438 264.238281 94.089844 266.636719 C 97.214844 268.984375 99.300781 275.277344 98.652344 281.507812 C 98.109375 286.699219 92.949219 294.136719 89.535156 298.203125 C 85.480469 303.03125 81.144531 305.863281 74.03125 307.917969 C 59.476562 312.125 45.21875 307.523438 38.464844 296.992188 C 37.050781 294.785156 35.578125 291.527344 34.210938 288.796875 C 31.136719 282.664062 29.8125 276.414062 29.953125 268.761719 C 30.152344 257.90625 33.367188 244.4375 39.679688 238.710938 C 41.648438 236.925781 44.558594 235.285156 46.976562 233.855469 C 54.175781 229.589844 66.128906 227.792969 76.15625 227.78125 C 80.601562 227.777344 85.675781 229.621094 90.75 228.996094 C 98.375 228.054688 102.925781 220.769531 107.164062 215.035156 C 111.671875 208.929688 115.203125 201.457031 118.714844 193.785156 C 121.167969 188.414062 123.5625 183.761719 122.664062 177.699219 C 116.925781 175.671875 110.078125 173.375 104.125 174.660156 C 99.425781 175.675781 95.855469 179.632812 91.355469 179.519531 C 91.230469 173.183594 94.367188 168.773438 91.355469 162.824219 C 86.140625 152.507812 69.691406 147.011719 56.398438 149.164062 C 56.398438 145.464844 59.765625 143.007812 61.871094 140.359375 C 64.082031 137.582031 65.851562 134.628906 67.949219 131.863281 C 71.261719 114.644531 59.144531 104.359375 48.800781 96.953125 C 50.125 91.777344 55.503906 93.40625 58.832031 89.667969 C 60.234375 88.089844 62.488281 81.347656 62.78125 78.742188 C 63.519531 72.25 59.980469 66.085938 57.613281 62.347656 C 58.082031 60.265625 59.929688 57.472656 62.175781 57.492188 C 64.296875 57.511719 68.144531 62.269531 70.078125 64.472656 C 72.757812 67.523438 74.929688 69.71875 77.375 72.0625 C 82.238281 76.726562 89.613281 82.320312 91.964844 86.9375 C 92.277344 87.546875 92.4375 89.261719 92.875 90.277344 C 94.039062 92.964844 96.757812 94.972656 99.257812 98.167969 C 101.007812 100.402344 103.59375 106.265625 105.035156 106.363281 C 106.382812 106.457031 110.3125 99.476562 110.8125 97.863281 C 113.066406 90.566406 109.089844 83.476562 106.859375 79.046875 C 108.539062 75.988281 111.710938 74.804688 114.152344 72.0625 C 117.570312 68.230469 119.996094 62.527344 123.273438 58.101562 C 124.808594 56.027344 126.578125 53.476562 128.136719 51.421875 C 129.484375 49.644531 131.34375 46.25 134.21875 47.78125 C 134.753906 55.292969 132.269531 67.722656 135.433594 76.617188 C 137.894531 83.542969 143.75 94.015625 147.894531 98.773438 C 150.332031 101.574219 153.636719 103.675781 157.625 104.542969 C 159.792969 101.652344 162.136719 98.929688 163.398438 95.132812 C 168.378906 89.28125 172.25 82.320312 177.683594 76.921875 C 187.296875 69.839844 195.101562 60.707031 205.953125 54.457031 C 207.660156 53.472656 209.855469 52.730469 211.730469 51.726562 C 215.851562 49.519531 220.453125 46.910156 225.710938 45.351562 C 232.917969 43.214844 242.910156 42.980469 250.941406 42.617188 C 267.226562 44.769531 279.621094 50.808594 289.851562 59.011719 "/>
</g>
<g clip-path="url(#clip2)" clip-rule="nonzero">
<g clip-path="url(#clip3)" clip-rule="nonzero">
<g clip-path="url(#clip4)" clip-rule="nonzero">
<g clip-path="url(#clip5)" clip-rule="nonzero">
<path style=" stroke:none;fill-rule:nonzero;fill:rgb(14.509583%,7.058716%,9.408569%);fill-opacity:1;" d="M 256.292969 64.875 C 255.960938 65.042969 247.996094 73.394531 250.546875 75.6875 C 252.09375 77.078125 266.242188 81.433594 286.011719 79.601562 C 305.785156 77.769531 314.867188 61.605469 312.910156 59.765625 C 310.953125 57.929688 304.910156 53.847656 304.910156 53.847656 C 304.910156 53.847656 278.730469 53.484375 256.292969 64.875 "/>
</g>
</g>
</g>
</g>
<g clip-path="url(#clip6)" clip-rule="nonzero">
<g clip-path="url(#clip7)" clip-rule="nonzero">
<g clip-path="url(#clip8)" clip-rule="nonzero">
<g clip-path="url(#clip9)" clip-rule="nonzero">
<path style=" stroke:none;fill-rule:nonzero;fill:rgb(22.749329%,12.939453%,15.289307%);fill-opacity:1;" d="M 300.910156 55.472656 C 300.910156 55.472656 308.195312 62.710938 307.894531 65.84375 C 307.597656 68.980469 298.613281 75.832031 288.816406 77.480469 C 278.515625 79.21875 260.59375 78.347656 251.125 74.261719 C 248.371094 73.074219 255.71875 65.371094 256.597656 64.339844 C 257.476562 63.308594 300.910156 55.472656 300.910156 55.472656 "/>
</g>
</g>
</g>
</g>
<g clip-path="url(#clip10)" clip-rule="nonzero">
<g clip-path="url(#clip11)" clip-rule="nonzero">
<g clip-path="url(#clip12)" clip-rule="nonzero">
<g clip-path="url(#clip13)" clip-rule="nonzero">
<path style=" stroke:none;fill-rule:nonzero;fill:rgb(10.198975%,19.60907%,26.269531%);fill-opacity:1;" d="M 305.90625 53.03125 L 296.996094 55.074219 L 254.347656 64.785156 C 254.347656 64.785156 237.65625 54.179688 238.476562 47.238281 C 238.886719 43.695312 242.371094 38.707031 247.640625 33.746094 C 247.640625 33.746094 247.664062 33.742188 247.683594 33.714844 C 256.542969 25.378906 270.417969 17.097656 283.074219 15.769531 C 303.277344 13.652344 314.300781 26.769531 317.429688 33.292969 C 319.003906 36.53125 305.90625 53.03125 305.90625 53.03125 "/>
</g>
</g>
</g>
</g>
<g clip-path="url(#clip14)" clip-rule="nonzero">
<g clip-path="url(#clip15)" clip-rule="nonzero">
<g clip-path="url(#clip16)" clip-rule="nonzero">
<g clip-path="url(#clip17)" clip-rule="nonzero">
<path style=" stroke:none;fill-rule:nonzero;fill:rgb(7.058716%,13.328552%,18.818665%);fill-opacity:1;" d="M 305.90625 53.03125 L 296.996094 55.074219 L 287.617188 51.707031 C 287.617188 51.707031 293.660156 47.039062 295.328125 42.910156 C 296.96875 38.757812 304.472656 22.828125 289.261719 21.378906 C 274.453125 19.96875 248.921875 33.023438 247.683594 33.714844 C 256.542969 25.378906 270.417969 17.097656 283.074219 15.769531 C 303.277344 13.652344 314.300781 26.769531 317.429688 33.292969 C 319.003906 36.53125 305.90625 53.03125 305.90625 53.03125 "/>
</g>
</g>
</g>
</g>
<g clip-path="url(#clip18)" clip-rule="nonzero">
<g clip-path="url(#clip19)" clip-rule="nonzero">
<g clip-path="url(#clip20)" clip-rule="nonzero">
<g clip-path="url(#clip21)" clip-rule="nonzero">
<path style=" stroke:none;fill-rule:nonzero;fill:rgb(36.079407%,23.139954%,27.059937%);fill-opacity:1;" d="M 256.144531 68.519531 L 253.058594 73.824219 C 253.058594 73.824219 256.039062 74.605469 262.210938 75.355469 C 268.382812 76.109375 271.921875 76.210938 271.921875 76.210938 L 272.257812 66.375 L 256.144531 68.519531 "/>
</g>
</g>
</g>
</g>
<g clip-path="url(#clip22)" clip-rule="nonzero">
<g clip-path="url(#clip23)" clip-rule="nonzero">
<g clip-path="url(#clip24)" clip-rule="nonzero">
<g clip-path="url(#clip25)" clip-rule="nonzero">
<path style=" stroke:none;fill-rule:nonzero;fill:rgb(7.058716%,13.328552%,18.818665%);fill-opacity:1;" d="M 296.773438 28.976562 L 280.683594 31.875 C 279.71875 31.421875 278.617188 31.226562 277.480469 31.375 C 276.15625 31.550781 275.019531 32.175781 274.15625 33.050781 L 258.945312 35.789062 C 258.945312 35.789062 257.976562 38.214844 262.191406 37.871094 C 262.59375 38.605469 263.664062 39.558594 266.585938 39.082031 C 267.949219 38.863281 270.128906 38.496094 272.636719 38.070312 C 273.214844 40.984375 275.976562 42.988281 278.996094 42.589844 C 282.128906 42.171875 284.332031 39.324219 283.914062 36.226562 C 283.914062 36.210938 283.90625 36.195312 283.902344 36.183594 C 286.128906 35.8125 288.078125 35.5 289.398438 35.304688 C 292.59375 34.824219 292.914062 33.476562 292.757812 32.601562 C 292.886719 32.582031 293.039062 32.554688 293.160156 32.535156 C 299.347656 31.539062 296.773438 28.976562 296.773438 28.976562 "/>
</g>
</g>
</g>
</g>
<g clip-path="url(#clip26)" clip-rule="nonzero">
<g clip-path="url(#clip27)" clip-rule="nonzero">
<g clip-path="url(#clip28)" clip-rule="nonzero">
<g clip-path="url(#clip29)" clip-rule="nonzero">
<path style=" stroke:none;fill-rule:nonzero;fill:rgb(36.079407%,23.139954%,27.059937%);fill-opacity:1;" d="M 282.304688 64.570312 L 286.671875 76.996094 L 292.339844 75.71875 L 285.789062 63.84375 L 282.304688 64.570312 "/>
</g>
</g>
</g>
</g>
<g clip-path="url(#clip30)" clip-rule="nonzero">
<g clip-path="url(#clip31)" clip-rule="nonzero">
<g clip-path="url(#clip32)" clip-rule="nonzero">
<g clip-path="url(#clip33)" clip-rule="nonzero">
<path style=" stroke:none;fill-rule:nonzero;fill:rgb(100%,91.758728%,43.528748%);fill-opacity:1;" d="M 282.777344 34.730469 C 283.195312 37.824219 280.992188 40.675781 277.855469 41.09375 C 274.722656 41.507812 271.839844 39.335938 271.421875 36.242188 C 271 33.144531 273.207031 30.296875 276.339844 29.878906 C 279.476562 29.464844 282.359375 31.636719 282.777344 34.730469 "/>
</g>
</g>
</g>
</g>
<g clip-path="url(#clip34)" clip-rule="nonzero">
<g clip-path="url(#clip35)" clip-rule="nonzero">
<g clip-path="url(#clip36)" clip-rule="nonzero">
<g clip-path="url(#clip37)" clip-rule="nonzero">
<path style=" stroke:none;fill-rule:nonzero;fill:rgb(100%,91.758728%,43.528748%);fill-opacity:1;" d="M 257.808594 34.292969 L 295.636719 27.480469 C 295.636719 27.480469 298.207031 30.042969 292.023438 31.039062 C 285.839844 32.035156 268.78125 34.875 263.097656 36.0625 C 256.546875 37.429688 257.808594 34.292969 257.808594 34.292969 "/>
</g>
</g>
</g>
</g>
<g clip-path="url(#clip38)" clip-rule="nonzero">
<g clip-path="url(#clip39)" clip-rule="nonzero">
<g clip-path="url(#clip40)" clip-rule="nonzero">
<g clip-path="url(#clip41)" clip-rule="nonzero">
<path style=" stroke:none;fill-rule:nonzero;fill:rgb(100%,91.758728%,43.528748%);fill-opacity:1;" d="M 260.808594 35.632812 L 291.328125 30.320312 C 291.328125 30.320312 293.132812 33.078125 288.257812 33.808594 C 283.386719 34.535156 269.960938 36.855469 265.449219 37.585938 C 260.9375 38.320312 260.808594 35.632812 260.808594 35.632812 "/>
</g>
</g>
</g>
</g>
<g clip-path="url(#clip42)" clip-rule="nonzero">
<g clip-path="url(#clip43)" clip-rule="nonzero">
<g clip-path="url(#clip44)" clip-rule="nonzero">
<g clip-path="url(#clip45)" clip-rule="nonzero">
<path style=" stroke:none;fill-rule:nonzero;fill:rgb(100%,91.758728%,43.528748%);fill-opacity:1;" d="M 253.996094 67.367188 L 252.277344 59.839844 C 252.277344 59.839844 264.445312 54.398438 282.042969 52.339844 C 299.644531 50.285156 306.574219 50.171875 306.574219 50.171875 L 307.90625 55.933594 C 307.90625 55.933594 299.722656 58.222656 282.0625 62.179688 C 264.398438 66.140625 253.996094 67.367188 253.996094 67.367188 "/>
</g>
</g>
</g>
</g>
<g clip-path="url(#clip46)" clip-rule="nonzero">
<g clip-path="url(#clip47)" clip-rule="nonzero">
<g clip-path="url(#clip48)" clip-rule="nonzero">
<g clip-path="url(#clip49)" clip-rule="nonzero">
<path style=" stroke:none;fill-rule:nonzero;fill:rgb(99.21875%,74.119568%,18.429565%);fill-opacity:1;" d="M 295 52.550781 L 296.761719 57.351562 L 305.933594 55.007812 L 305.40625 51.542969 L 295 52.550781 "/>
</g>
</g>
</g>
</g>
<g clip-path="url(#clip50)" clip-rule="nonzero">
<g clip-path="url(#clip51)" clip-rule="nonzero">
<g clip-path="url(#clip52)" clip-rule="nonzero">
<g clip-path="url(#clip53)" clip-rule="nonzero">
<path style=" stroke:none;fill-rule:nonzero;fill:rgb(100%,97.648621%,68.238831%);fill-opacity:1;" d="M 254.859375 60.40625 L 256.496094 65.910156 L 265.507812 64.253906 L 263.753906 57.4375 L 254.859375 60.40625 "/>
</g>
</g>
</g>
</g>
<g clip-path="url(#clip54)" clip-rule="nonzero">
<g clip-path="url(#clip55)" clip-rule="nonzero">
<g clip-path="url(#clip56)" clip-rule="nonzero">
<g clip-path="url(#clip57)" clip-rule="nonzero">
<path style=" stroke:none;fill-rule:nonzero;fill:rgb(100%,97.648621%,68.238831%);fill-opacity:1;" d="M 278.71875 61.546875 L 277.152344 54.21875 L 279.785156 53.867188 L 281.257812 60.945312 L 278.71875 61.546875 "/>
</g>
</g>
</g>
</g>
<g clip-path="url(#clip58)" clip-rule="nonzero">
<g clip-path="url(#clip59)" clip-rule="nonzero">
<g clip-path="url(#clip60)" clip-rule="nonzero">
<path style=" stroke:none;fill-rule:nonzero;fill:rgb(11.759949%,19.219971%,23.139954%);fill-opacity:1;" d="M 198.222656 156.441406 C 203.515625 149.269531 204.515625 141.886719 204.515625 141.886719 L 193.414062 141.339844 L 193.386719 141.339844 L 182.28125 140.792969 C 182.28125 140.792969 182.550781 148.238281 187.117188 155.898438 L 178.089844 225.90625 L 188.484375 240.929688 L 188.484375 240.960938 L 188.496094 240.945312 L 188.507812 240.964844 L 188.511719 240.929688 L 200.328125 227.003906 Z M 198.222656 156.441406 "/>
</g>
</g>
</g>
</g>
</svg>
